<svg width="33" height="33" viewBox="0 0 33 33" fill="none" xmlns="http://www.w3.org/2000/svg">
    <path
        d="M27.1913 21.5C27.1913 20.875 27.1275 20.35 27.0382 19.85L29.0415 18.875L27.8931 16.625L26.145 17.4875C25.4432 16.45 24.5245 15.875 23.7334 15.6L24.5755 13.15L22.1511 12.35L21.1814 15.2C19.4843 15.0375 18.4763 14.4 17.8766 13.7125L20.1096 12.625L18.9612 10.375L16.9834 11.3625C16.8944 10.4595 16.5788 9.59206 16.0647 8.8375L18.0424 5.9375L15.9243 4.55L14.1252 7.2C13.5127 6.9125 12.7726 6.6875 11.8794 6.575V4H9.32742V6.625C8.42147 6.8125 7.70691 7.175 7.18375 7.6375L3.84065 4.3625L2.0415 6.1375L5.80568 9.8125C5.49944 10.7375 5.49944 11.5 5.49944 11.5H2.94746V14H5.55048C5.62704 14.7875 5.7674 15.7 6.00984 16.6875L2.53914 17.8125L3.34302 20.1875L6.77544 19.0625C7.08167 19.7 7.41343 20.35 7.82175 20.975L4.78489 22.9625L6.20124 25.0375L9.41674 22.9375C10.1313 23.6375 10.9735 24.2625 11.956 24.8L10.731 27.1875L13.015 28.3125L14.291 25.8125L14.0869 25.7C15.2991 26.1 16.6771 26.375 18.2594 26.4625V29H20.8114V26.4125C21.7811 26.3 23.1209 26.05 24.3459 25.4875L26.2854 27.3875L28.0845 25.6125L26.3874 23.9375C26.8723 23.3 27.1913 22.5 27.1913 21.5ZM11.2414 15.25C10.7338 15.25 10.247 15.0525 9.88801 14.7008C9.52907 14.3492 9.32742 13.8723 9.32742 13.375C9.32742 12.8777 9.52907 12.4008 9.88801 12.0492C10.247 11.6975 10.7338 11.5 11.2414 11.5C11.749 11.5 12.2359 11.6975 12.5948 12.0492C12.9537 12.4008 13.1554 12.8777 13.1554 13.375C13.1554 13.8723 12.9537 14.3492 12.5948 14.7008C12.2359 15.0525 11.749 15.25 11.2414 15.25ZM14.4314 19C14.093 19 13.7684 18.8683 13.5291 18.6339C13.2898 18.3995 13.1554 18.0815 13.1554 17.75C13.1554 17.4185 13.2898 17.1005 13.5291 16.8661C13.7684 16.6317 14.093 16.5 14.4314 16.5C14.7698 16.5 15.0944 16.6317 15.3337 16.8661C15.5729 17.1005 15.7074 17.4185 15.7074 17.75C15.7074 18.0815 15.5729 18.3995 15.3337 18.6339C15.0944 18.8683 14.7698 19 14.4314 19ZM20.1734 22.75C19.6657 22.75 19.1789 22.5525 18.82 22.2008C18.461 21.8492 18.2594 21.3723 18.2594 20.875C18.2594 20.3777 18.461 19.9008 18.82 19.5492C19.1789 19.1975 19.6657 19 20.1734 19C20.681 19 21.1678 19.1975 21.5267 19.5492C21.8857 19.9008 22.0873 20.3777 22.0873 20.875C22.0873 21.3723 21.8857 21.8492 21.5267 22.2008C21.1678 22.5525 20.681 22.75 20.1734 22.75Z"
        fill="#6E9FBB" />
</svg>