<svg width="33" height="33" viewBox="0 0 33 33" fill="none" xmlns="http://www.w3.org/2000/svg">
    <path
        d="M25.5378 23.3713C24.3989 25.2598 22.9596 24.6595 21.608 23.859C20.2564 23.0586 18.9798 22.0955 18.1663 23.2337C17.2777 24.2092 17.9661 25.7726 18.3165 27.1484C18.6669 28.5367 18.6919 29.7374 16.4768 30C14.7246 29.7624 14.8247 28.3115 15.1126 26.7732C15.4004 25.2348 15.851 23.6089 14.7246 23.0336C13.8235 22.4332 13.1978 23.4713 12.4093 24.4969C11.5958 25.51 10.6697 26.498 9.14283 25.7726C7.76615 24.6345 8.29179 23.9716 9.01768 23.1211C9.74356 22.2706 10.6822 21.1325 10.144 19.1314C9.91877 18.3184 8.7924 18.506 7.67855 18.481C6.58972 18.456 5.48838 18.2309 5.37575 16.605C5.28814 15.6169 6.02654 15.2167 6.78997 14.904C7.56591 14.5913 8.35437 14.3662 8.36688 13.5783C8.40443 12.8153 7.89131 12.2775 7.56591 11.7147C7.24051 11.1519 7.10285 10.5641 7.87879 9.68856C9.19289 8.61296 10.2442 9.52597 11.2954 10.514C12.3467 11.5021 13.3855 12.5402 14.6746 11.7272C15.7008 11.0518 14.7622 9.86366 14.0363 8.70051C13.3104 7.53735 12.7973 6.42422 14.6746 5.91144C16.3015 5.46118 16.9273 6.57431 17.4905 7.86253C18.0662 9.15076 18.5668 10.6141 19.9435 10.8767C21.9084 11.2394 23.3351 8.93814 24.6993 7.11211C26.0634 5.28608 27.4025 3.92282 29.1171 6.17408C30.9944 8.53791 29.2047 9.63853 27.1147 10.6141C25.0247 11.5271 22.6217 12.3275 23.1974 14.091C23.5353 15.1166 24.6367 14.5538 25.8006 14.1661C26.952 13.7784 28.191 13.5657 28.7917 15.3292C29.43 17.1928 27.9157 17.618 26.2136 17.7931C24.5115 17.9682 22.6092 17.8932 22.4841 18.7437C22.3464 19.6317 23.4853 19.9944 24.474 20.5197C25.4627 21.0575 26.3012 21.7704 25.5378 23.3713ZM28.4914 26.2479C27.3024 26.2479 26.6892 25.3224 26.6892 24.3718C26.6892 23.4213 27.2899 22.4958 28.4914 22.4958C29.7429 22.4958 30.3687 23.4213 30.3687 24.3718C30.3687 25.3224 29.7429 26.2479 28.4914 26.2479Z"
        fill="#6E9FBB" />
</svg>