<svg xmlns="http://www.w3.org/2000/svg" width="33" height="33" viewBox="0 0 33 33" fill="none">
    <path
        d="M26.125 23.375H28.875C29.7 23.375 30.25 22.825 30.25 22V17.875C30.25 16.6375 29.2875 15.5375 28.1875 15.2625C25.7125 14.575 22 13.75 22 13.75C22 13.75 20.2125 11.825 18.975 10.5875C18.2875 10.0375 17.4625 9.625 16.5 9.625H6.875C6.05 9.625 5.3625 10.175 4.95 10.8625L3.025 14.85C2.84292 15.3811 2.75 15.9386 2.75 16.5V22C2.75 22.825 3.3 23.375 4.125 23.375H6.875"
        stroke="#6E9FBB" stroke-width="2" stroke-linecap="round" stroke-linejoin="round" />
    <path
        d="M9.625 26.125C11.1438 26.125 12.375 24.8938 12.375 23.375C12.375 21.8562 11.1438 20.625 9.625 20.625C8.10622 20.625 6.875 21.8562 6.875 23.375C6.875 24.8938 8.10622 26.125 9.625 26.125Z"
        stroke="#6E9FBB" stroke-width="2" stroke-linecap="round" stroke-linejoin="round" />
    <path d="M12.375 23.375H20.625" stroke="#6E9FBB" stroke-width="2" stroke-linecap="round"
        stroke-linejoin="round" />
    <path
        d="M23.375 26.125C24.8938 26.125 26.125 24.8938 26.125 23.375C26.125 21.8562 24.8938 20.625 23.375 20.625C21.8562 20.625 20.625 21.8562 20.625 23.375C20.625 24.8938 21.8562 26.125 23.375 26.125Z"
        stroke="#6E9FBB" stroke-width="2" stroke-linecap="round" stroke-linejoin="round" />
</svg>