<svg width="33" height="33" viewBox="0 0 23 31" fill="none" xmlns="http://www.w3.org/2000/svg">
    <path fill-rule="evenodd" clip-rule="evenodd"
        d="M21.4549 0.158328C21.7497 0.266081 22.0184 0.425892 22.2457 0.628631C22.473 0.831371 22.6543 1.07307 22.7794 1.33992C22.9045 1.60677 22.9709 1.89354 22.9748 2.18385C22.9787 2.47417 22.92 2.76234 22.8021 3.03191L21.4678 6.08233C21.0311 7.081 20.8666 8.16183 20.9884 9.23161C21.1102 10.3014 21.5148 11.328 22.1672 12.223L22.9697 13.3252C24.0572 14.8167 24.7316 16.5277 24.9349 18.3107C25.1381 20.0936 24.8641 21.8951 24.1363 23.5596L22.8021 26.61C22.6842 26.8796 22.5094 27.1253 22.2877 27.3331C22.066 27.5409 21.8017 27.7067 21.5099 27.8211C21.2182 27.9355 20.9046 27.9963 20.5871 27.9998C20.2697 28.0034 19.9546 27.9498 19.6598 27.842C19.365 27.7342 19.0963 27.5744 18.8691 27.3716C18.6419 27.1689 18.4605 26.9272 18.3354 26.6603C18.2103 26.3935 18.1439 26.1067 18.14 25.8164C18.1361 25.5261 18.1948 25.238 18.3126 24.9684L19.6469 21.918C20.0836 20.9193 20.2482 19.8385 20.1263 18.7687C20.0045 17.6989 19.5999 16.6723 18.9475 15.7774L18.145 14.6751C17.0573 13.1834 16.3827 11.4722 16.1794 9.68891C15.9762 7.90566 16.2504 6.10396 16.9784 4.43923L18.3126 1.38881C18.5509 0.844589 19.0158 0.409214 19.6051 0.178456C20.1944 -0.0523019 20.8598 -0.059542 21.4549 0.158328ZM13.3978 0.158328C13.6926 0.266081 13.9613 0.425892 14.1886 0.628631C14.4158 0.831371 14.5972 1.07307 14.7223 1.33992C14.8474 1.60677 14.9138 1.89354 14.9177 2.18385C14.9215 2.47417 14.8628 2.76234 14.7449 3.03191L13.4107 6.08233C12.9739 7.081 12.8094 8.16183 12.9312 9.23161C13.0531 10.3014 13.4576 11.328 14.11 12.223L14.9125 13.3252C15.9997 14.8168 16.6739 16.5279 16.8769 18.3109C17.0798 20.0938 16.8055 21.8952 16.0776 23.5596L14.7449 26.61C14.6271 26.8796 14.4523 27.1253 14.2306 27.3331C14.0089 27.5409 13.7446 27.7067 13.4528 27.8211C12.8635 28.0522 12.198 28.0597 11.6026 27.842C11.0073 27.6243 10.5309 27.1992 10.2783 26.6603C10.0256 26.1214 10.0174 25.5128 10.2555 24.9684L11.5897 21.918C12.0265 20.9193 12.191 19.8385 12.0692 18.7687C11.9473 17.6989 11.5428 16.6723 10.8904 15.7774L10.0879 14.6751C9.00013 13.1834 8.32553 11.4722 8.12228 9.68891C7.91903 7.90566 8.19322 6.10396 8.92121 4.43923L10.2555 1.38881C10.4938 0.844589 10.9587 0.409214 11.548 0.178456C12.1373 -0.0523019 12.8026 -0.059542 13.3978 0.158328ZM5.34061 0.158328C5.63543 0.266081 5.90414 0.425892 6.1314 0.628631C6.35866 0.831371 6.54002 1.07307 6.66512 1.33992C6.79023 1.60677 6.85661 1.89354 6.8605 2.18385C6.86438 2.47417 6.80569 2.76234 6.68777 3.03191L5.35351 6.08233C4.91678 7.081 4.75225 8.16183 4.87408 9.23161C4.99592 10.3014 5.40048 11.328 6.05287 12.223L6.85536 13.3252C7.94258 14.8168 8.61675 16.5279 8.81972 18.3109C9.02269 20.0938 8.74837 21.8952 8.02042 23.5596L6.68777 26.61C6.5699 26.8796 6.39512 27.1253 6.17342 27.3331C5.95171 27.5409 5.68742 27.7067 5.39563 27.8211C5.10384 27.9355 4.79027 27.9963 4.47282 27.9998C4.15537 28.0034 3.84026 27.9498 3.54548 27.842C3.2507 27.7342 2.98202 27.5744 2.75478 27.3716C2.52755 27.1689 2.34621 26.9272 2.22111 26.6603C2.09602 26.3935 2.02962 26.1067 2.02571 25.8164C2.0218 25.5261 2.08045 25.238 2.19832 24.9684L3.53259 21.918C3.96931 20.9193 4.13385 19.8385 4.01201 18.7687C3.89017 17.6989 3.48561 16.6723 2.83323 15.7774L2.03073 14.6751C0.942979 13.1834 0.268379 11.4722 0.0651251 9.68891C-0.138129 7.90566 0.136066 6.10396 0.864058 4.43923L2.19832 1.38881C2.4366 0.844589 2.90152 0.409214 3.49081 0.178456C4.0801 -0.0523019 4.74549 -0.059542 5.34061 0.158328Z"
        fill="#6E9FBB" />
</svg>