<svg xmlns="http://www.w3.org/2000/svg" width="33" height="33" viewBox="0 0 33 33" fill="none">
    <path
        d="M33 10.0055V24.8077C33 26.1848 32.4568 27.5055 31.4898 28.4792C30.5228 29.453 29.2113 30 27.8438 30H5.15625C3.78873 30 2.47722 29.453 1.51023 28.4792C0.543246 27.5055 0 26.1848 0 24.8077V10.0055L15.9761 19.4721C16.1348 19.5663 16.3157 19.6161 16.5 19.6161C16.6843 19.6161 16.8652 19.5663 17.0239 19.4721L33 10.0055ZM27.8438 3C29.1125 2.9998 30.3368 3.47064 31.2824 4.32246C32.228 5.17427 32.8285 6.34726 32.9691 7.617L16.5 17.3723L0.0309377 7.617C0.171514 6.34726 0.772043 5.17427 1.71764 4.32246C2.66324 3.47064 3.88751 2.9998 5.15625 3H27.8438Z"
        fill="#467E9E" />
</svg>