<svg width="32" height="33" viewBox="0 0 32 33" fill="none" xmlns="http://www.w3.org/2000/svg">
    <path
        d="M15.2856 26.7776C21.3607 26.7776 26.2856 21.6918 26.2856 18.2218C26.2856 14.7518 21.3607 9.66602 15.2856 9.66602C9.21059 9.66602 4.28564 14.7555 4.28564 18.2218C4.28564 21.6881 9.21059 26.7776 15.2856 26.7776Z"
        stroke="#6E9FBB" stroke-width="3" stroke-linejoin="round" />

    <path
        d="M15.2863 21.8892C16.2588 21.8892 17.1914 21.5029 17.879 20.8152C18.5667 20.1276 18.953 19.1949 18.953 18.2224C18.953 17.2499 18.5667 16.3173 17.879 15.6296C17.1914 14.942 16.2588 14.5557 15.2863 14.5557C14.3138 14.5557 13.3812 14.942 12.6936 15.6296C12.0059 16.3173 11.6196 17.2499 11.6196 18.2224C11.6196 19.1949 12.0059 20.1276 12.6936 20.8152C13.3812 21.5029 14.3138 21.8892 15.2863 21.8892Z"
        stroke="#6E9FBB" stroke-width="3" stroke-linejoin="round" />

    <path d="M8.72412 8.60707L10.3093 10.8194M22.3892 8.87841L20.8033 11.0907M15.2905 6V9.66677"
        stroke="#6E9FBB" stroke-width="3" stroke-linecap="round" />
</svg>