<svg width="27" height="30" viewBox="0 0 27 30" fill="none" xmlns="http://www.w3.org/2000/svg">
    <path fill-rule="evenodd" clip-rule="evenodd"
        d="M10.8235 0L12.6618 1.07196C14.9934 2.41144 16.7845 4.48441 17.739 6.94787C18.0628 6.23891 18.448 5.55121 18.8055 4.85642L20.2367 6.24741C23.4493 9.3697 26.5 14.0489 26.5 18.5934C26.5 24.6876 22.6338 28.5515 16.4478 29.2193L14.4198 29.4377L14.8633 27.5022C15.2091 25.9879 15.2719 24.9982 15.1989 24.3048C15.1114 23.4328 14.6854 22.7479 14.1543 22.0673C13.6466 21.415 13.1432 20.7614 12.7406 20.0396C11.0846 21.3115 10.4427 22.4601 10.237 23.4058C9.97437 24.6167 10.3464 25.8546 11.0263 27.1761L12.2255 29.5072L9.56149 29.2193C5.80321 28.8138 2.10038 26.3736 0.641417 22.8131C-0.883195 19.0882 0.194976 14.5806 5.12042 10.4317C8.38849 7.67953 10.1188 4.11059 10.8235 0ZM12.7668 4.67918C11.6551 7.71356 9.52064 10.4785 7.0302 12.5756C2.78317 16.1531 2.40238 19.4441 3.35362 21.7639C4.06122 23.4937 5.58875 24.9159 7.39931 25.7227C7.18778 24.7672 7.18182 23.7795 7.38181 22.8216C7.85743 20.6295 9.47979 18.5749 12.5961 16.682L14.1674 15.7277L14.7539 17.4363C15.2675 18.9337 16.3325 19.9929 17.1656 21.3073C18.0818 22.7536 18.2569 24.4126 18.0701 26.0687C21.8926 25.14 23.5821 22.3225 23.5821 18.5934C23.5821 15.4427 21.6271 12.3516 19.6867 9.93546C18.8872 11.6767 17.2021 12.2892 15.5578 13.0889V10.7947C15.5578 8.85357 14.7452 6.48704 12.7668 4.6806V4.67918Z"
        fill="white" />
</svg>