<svg width="35" height="35" viewBox="0 0 35 35" fill="none" xmlns="http://www.w3.org/2000/svg">
    <g clip-path="url(#clip0_127_268)">
        <path
            d="M26.2612 0H8.73884C3.91251 0 0 3.91251 0 8.73884V26.2612C0 31.0875 3.91251 35 8.73884 35H26.2612C31.0875 35 35 31.0875 35 26.2612V8.73884C35 3.91251 31.0875 0 26.2612 0Z"
            fill="url(#paint0_linear_127_268)" />
        <path
            d="M26.2612 0H8.73883C3.91251 0 0 3.91251 0 8.73883V26.2612C0 31.0875 3.91251 35 8.73883 35H26.2612C31.0875 35 35 31.0875 35 26.2612V8.73883C35 3.91251 31.0875 0 26.2612 0Z"
            fill="url(#paint1_radial_127_268)" />
        <path fill-rule="evenodd" clip-rule="evenodd"
            d="M18.2006 28.7728C16.0484 28.7728 15.0483 28.4586 13.3098 27.2019C12.2102 28.6157 8.72802 29.7206 8.57615 27.8303C8.57615 26.4112 8.26196 25.2121 7.90589 23.903C7.48175 22.2902 7 20.4941 7 17.8917C7 11.6761 12.1002 7 18.143 7C24.191 7 28.9299 11.9065 28.9299 17.9492C28.9502 23.8986 24.1499 28.7411 18.2006 28.7728ZM18.2896 12.3725C15.3468 12.2207 13.0532 14.2576 12.5453 17.4518C12.1264 20.0962 12.87 23.3165 13.5036 23.4841C13.8073 23.5574 14.5718 22.9395 15.0483 22.463C15.8362 23.0073 16.7538 23.3342 17.7084 23.4108C20.7577 23.5575 23.3632 21.236 23.5679 18.1901C23.6871 15.1378 21.3393 12.5524 18.2896 12.3778V12.3725Z"
            fill="white" />
    </g>
    <defs>
        <linearGradient id="paint0_linear_127_268" x1="4.12465" y1="26.6188" x2="35" y2="17.5"
            gradientUnits="userSpaceOnUse">
            <stop stop-color="#44CCFF" />
            <stop offset="0.662" stop-color="#5533EE" />
            <stop offset="1" stop-color="#9933DD" />
        </linearGradient>
        <radialGradient id="paint1_radial_127_268" cx="0" cy="0" r="1"
            gradientUnits="userSpaceOnUse"
            gradientTransform="translate(-0.832678 -15.3715) rotate(51.356) scale(42.4731 17.5)">
            <stop stop-color="#0000FF" />
            <stop offset="1" stop-opacity="0" />
        </radialGradient>
        <clipPath id="clip0_127_268">
            <rect width="35" height="35" rx="17.5" fill="white" />
        </clipPath>
    </defs>
</svg>