<svg xmlns="http://www.w3.org/2000/svg" width="35" height="35" viewBox="0 0 35 35" fill="none">
    <g clip-path="url(#clip0_4249_204)">
        <path
            d="M35 29.8782C35 32.707 32.7186 35 29.9044 35H5.09562C2.28136 35 0 32.707 0 29.8782V5.12176C0 2.29306 2.28136 0 5.09562 0H29.9044C32.7186 0 35 2.29306 35 5.12176V29.8782Z"
            fill="#FAAB62" />
        <path
            d="M34.8202 29.7512C34.8202 32.5508 32.5622 34.8203 29.7769 34.8203H5.22291C2.43759 34.8203 0.179688 32.5508 0.179688 29.7512V5.2489C0.179688 2.44929 2.43768 0.17981 5.22291 0.17981H29.7769C32.5622 0.17981 34.8202 2.44938 34.8202 5.2489V29.7512Z"
            fill="#F7931E" />
        <path
            d="M17.4799 5.23083C14.0111 5.23083 11.1992 8.05727 11.1992 11.5437C11.1992 15.0303 14.0111 17.8569 17.4799 17.8569C20.9487 17.8569 23.7606 15.0303 23.7606 11.5437C23.7606 8.05727 20.9487 5.23083 17.4799 5.23083ZM17.4799 14.1535C16.046 14.1535 14.8836 12.9851 14.8836 11.5438C14.8836 10.1026 16.046 8.93422 17.4799 8.93422C18.9138 8.93422 20.0762 10.1026 20.0762 11.5438C20.0762 12.9851 18.9138 14.1535 17.4799 14.1535Z"
            fill="white" />
        <path
            d="M19.6979 22.8802C22.2123 22.3653 23.7191 21.1684 23.7988 21.1042C24.5346 20.5111 24.6528 19.4308 24.0627 18.6912C23.4727 17.9516 22.398 17.8328 21.6621 18.4258C21.6465 18.4385 20.0394 19.6776 17.3952 19.6794C14.7511 19.6776 13.1101 18.4385 13.0945 18.4258C12.3586 17.8328 11.2839 17.9516 10.6939 18.6912C10.1038 19.4308 10.222 20.5111 10.9578 21.1042C11.0386 21.1694 12.6075 22.3974 15.1924 22.9001L11.5899 26.6844C10.9352 27.3668 10.9549 28.4534 11.6339 29.1115C11.9653 29.4327 12.3924 29.5923 12.8191 29.5923C13.2666 29.5923 13.7135 29.4166 14.0486 29.0672L17.3953 25.4838L21.0801 29.0904C21.7477 29.7604 22.8288 29.7593 23.4952 29.0885C24.1616 28.4177 24.1608 27.3309 23.4933 26.6611L19.6979 22.8802Z"
            fill="white" />
        <path
            d="M17.3958 19.6793C17.3915 19.6793 17.3999 19.6794 17.3958 19.6795C17.3916 19.6794 17.4 19.6793 17.3958 19.6793Z"
            fill="white" />
    </g>
    <defs>
        <clipPath id="clip0_4249_204">
            <rect width="35" height="35" fill="white" />
        </clipPath>
    </defs>
</svg>