<svg xmlns="http://www.w3.org/2000/svg" width="33" height="33" viewBox="0 0 33 33" fill="none">
    <path
        d="M28.8748 4.125L19.9373 28.875C19.877 29.0066 19.7801 29.1182 19.6582 29.1964C19.5364 29.2746 19.3946 29.3162 19.2498 29.3162C19.105 29.3162 18.9632 29.2746 18.8413 29.1964C18.7195 29.1182 18.6226 29.0066 18.5623 28.875L13.7498 19.25L4.12479 14.4375C3.99315 14.3772 3.88159 14.2803 3.80338 14.1584C3.72517 14.0366 3.68359 13.8948 3.68359 13.75C3.68359 13.6052 3.72517 13.4634 3.80338 13.3416C3.88159 13.2197 3.99315 13.1228 4.12479 13.0625L28.8748 4.125Z"
        stroke="#6E9FBB" stroke-width="2" stroke-linecap="round" stroke-linejoin="round" />
</svg>