<svg width="30" height="30" viewBox="0 0 24 26" fill="none" xmlns="http://www.w3.org/2000/svg"
    style="flex-shrink: 0;">
    <path
        d="M11.0664 0.22451C11.2167 0.0804363 11.4168 0 11.625 0C11.8332 0 12.0333 0.0804363 12.1836 0.22451C13.9649 1.93145 16.5004 2.85757 18.6659 3.35034C19.7373 3.59318 20.6931 3.72493 21.3797 3.79597C21.7349 3.83241 22.0911 3.85869 22.4479 3.87476H22.4614C22.6723 3.87965 22.8728 3.96686 23.0202 4.11773C23.1676 4.2686 23.2501 4.47115 23.25 4.68205V10.9789C23.25 17.1124 19.9821 23.2601 11.8659 25.7963C11.709 25.8453 11.541 25.8453 11.3841 25.7963C7.3554 24.5369 4.49435 22.3785 2.64598 19.7138C0.803417 17.0549 3.35351e-08 13.9414 3.35351e-08 10.8175V4.68205C-6.06831e-05 4.47126 0.0823282 4.2688 0.229559 4.11795C0.376791 3.9671 0.577185 3.87982 0.787916 3.87476H0.802125L0.853792 3.87282C0.901153 3.8711 0.971764 3.86744 1.06563 3.86184C1.25292 3.85086 1.5274 3.83084 1.87033 3.79597C2.78293 3.7011 3.68911 3.5523 4.58412 3.35034C6.74896 2.85757 9.2845 1.93145 11.0664 0.22451ZM17.1876 9.78672C17.2665 9.71408 17.3301 9.62645 17.3748 9.52894C17.4194 9.43144 17.4442 9.32601 17.4477 9.21882C17.4511 9.11162 17.4332 9.00482 17.3949 8.90463C17.3567 8.80445 17.2988 8.71289 17.2247 8.63532C17.1507 8.55774 17.0619 8.4957 16.9636 8.45282C16.8653 8.40993 16.7594 8.38707 16.6522 8.38555C16.545 8.38404 16.4385 8.40391 16.339 8.444C16.2396 8.48409 16.1491 8.5436 16.0729 8.61905L9.53896 14.8559L7.19071 12.507C7.03929 12.3556 6.83393 12.2705 6.61979 12.2705C6.40566 12.2705 6.20029 12.3556 6.04887 12.507C5.89746 12.6584 5.81239 12.8637 5.81239 13.0779C5.81239 13.292 5.89746 13.4974 6.04887 13.6488L8.95512 16.5551C9.26512 16.8651 9.76629 16.8715 10.0834 16.568L17.1876 9.78672Z"
        fill="#5084A4" />
</svg>