<svg width="35" height="35" viewBox="0 0 35 35" fill="none" xmlns="http://www.w3.org/2000/svg">
    <path
        d="M22.8778 0H12.1398C2.33275 0 0 2.33275 0 12.1223V22.8603C0 32.6655 2.31525 35 12.1223 35H22.8603C32.6655 35 35 32.6848 35 22.8778V12.1398C35 2.33275 32.6848 0 22.8778 0ZM28.2555 24.9725H25.7023C24.7363 24.9725 24.4458 24.1903 22.7133 22.4578C21.2013 21 20.5625 20.818 20.1793 20.818C19.6508 20.818 19.5055 20.9633 19.5055 21.693V23.989C19.5055 24.6103 19.3043 24.9743 17.682 24.9743C16.1079 24.8673 14.5816 24.3885 13.2284 23.5772C11.8753 22.7659 10.7339 21.6451 9.898 20.307C7.91411 17.8404 6.53455 14.944 5.8695 11.8493C5.8695 11.466 6.01475 11.1195 6.7445 11.1195H9.296C9.95225 11.1195 10.1885 11.4118 10.4458 12.0855C11.6848 15.7325 13.7988 18.9035 14.6563 18.9035C14.9853 18.9035 15.1288 18.7583 15.1288 17.9375V14.182C15.0203 12.4688 14.1103 12.3235 14.1103 11.704C14.1219 11.5406 14.1968 11.3882 14.319 11.2791C14.4412 11.1699 14.6011 11.1127 14.7648 11.1195H18.7758C19.3235 11.1195 19.5055 11.3925 19.5055 12.0488V17.1168C19.5055 17.6645 19.7418 17.8465 19.9063 17.8465C20.2353 17.8465 20.489 17.6645 21.091 17.0625C22.384 15.4856 23.4404 13.7289 24.227 11.8475C24.3079 11.6218 24.4601 11.4287 24.6607 11.2973C24.8612 11.166 25.0991 11.1035 25.3383 11.1195H27.8915C28.6563 11.1195 28.819 11.5028 28.6563 12.0488C27.7279 14.1285 26.5792 16.1027 25.2298 17.9375C24.955 18.3575 24.8448 18.5763 25.2298 19.068C25.4853 19.4513 26.3778 20.1985 26.9798 20.909C27.8548 21.7823 28.581 22.792 29.1305 23.898C29.3493 24.6085 28.9835 24.9725 28.2555 24.9725Z"
        fill="#45668E" />
    <path
        d="M28.2556 24.9726H25.7024C24.7364 24.9726 24.4459 24.1904 22.7134 22.4579C21.2014 21.0001 20.5626 20.8181 20.1794 20.8181C19.6509 20.8181 19.5056 20.9634 19.5056 21.6931V23.9891C19.5056 24.6104 19.3044 24.9744 17.6821 24.9744C16.108 24.8675 14.5817 24.3887 13.2286 23.5773C11.8754 22.766 10.734 21.6453 9.89813 20.3071C7.91424 17.8405 6.53468 14.9442 5.86963 11.8494C5.86963 11.4661 6.01488 11.1196 6.74463 11.1196H9.29613C9.95238 11.1196 10.1886 11.4119 10.4459 12.0856C11.6849 15.7326 13.7989 18.9036 14.6564 18.9036C14.9836 18.9036 15.1289 18.7584 15.1289 17.9376V14.1821C15.0204 12.4689 14.1086 12.3236 14.1086 11.7041C14.1203 11.5404 14.1954 11.3877 14.318 11.2786C14.4406 11.1694 14.6009 11.1124 14.7649 11.1196H18.7759C19.3236 11.1196 19.5056 11.3926 19.5056 12.0489V17.1169C19.5056 17.6646 19.7419 17.8466 19.9064 17.8466C20.2336 17.8466 20.4891 17.6646 21.0911 17.0626C22.3844 15.4876 23.4396 13.7306 24.2271 11.8476C24.308 11.622 24.4603 11.4288 24.6608 11.2975C24.8613 11.1661 25.0992 11.1037 25.3384 11.1196H27.8899C28.6564 11.1196 28.8209 11.5029 28.6564 12.0489C27.728 14.1287 26.5793 16.1029 25.2299 17.9376C24.9551 18.3576 24.8449 18.5764 25.2299 19.0681C25.4836 19.4514 26.3779 20.1986 26.9799 20.9091C27.8549 21.7824 28.5811 22.7921 29.1306 23.8981C29.3494 24.6086 28.9836 24.9726 28.2556 24.9726Z"
        fill="white" />
</svg>