<svg width="40" height="12" viewBox="0 0 40 12" fill="none" xmlns="http://www.w3.org/2000/svg">
<path d="M15.1867 0.213651L9.95 11.8189H6.53333L3.95667 2.55606C3.8 1.98632 3.665 1.77732 3.18833 1.53735C2.41167 1.14566 1.12833 0.778739 0 0.549607L0.0766667 0.213651H5.57667C5.93608 0.213316 6.28378 0.332342 6.55701 0.549243C6.83025 0.766144 7.011 1.06663 7.06667 1.39647L8.42833 8.1125L11.7917 0.213651H15.1867ZM28.575 8.03045C28.5883 4.96659 24.015 4.79783 24.0467 3.42923C24.0567 3.01277 24.4833 2.56999 25.4167 2.45697C26.5105 2.36048 27.6121 2.5402 28.605 2.97716L29.1717 0.515547C28.205 0.177732 27.1811 0.00313749 26.1483 0C22.9533 0 20.705 1.57915 20.685 3.83796C20.665 5.50845 22.29 6.43891 23.515 6.99626C24.775 7.56444 25.1983 7.92982 25.1917 8.43762C25.1833 9.21791 24.1883 9.56006 23.2583 9.57399C21.6333 9.59721 20.6917 9.16682 19.9383 8.8417L19.3533 11.3838C20.1083 11.7058 21.5017 11.9876 22.9467 12C26.3417 12 28.5633 10.4425 28.575 8.03045ZM37.01 11.8189H40L37.3917 0.213651H34.6317C34.3366 0.210475 34.0474 0.290041 33.8018 0.441952C33.5562 0.593863 33.3656 0.811057 33.255 1.06515L28.4067 11.8189H31.8L32.475 10.0849H36.6217L37.01 11.8189ZM33.405 7.70688L35.105 3.34873L36.085 7.70688H33.405ZM19.805 0.213651L17.1333 11.8189H13.9L16.575 0.213651H19.805Z" fill="#898989"/>
</svg>
