<svg class="pay-icon" width="32" height="32" viewBox="0 0 32 32" fill="none"
    xmlns="http://www.w3.org/2000/svg">
    <path
        d="M4.6665 7.99967L9.33317 3.33301M4.6665 11.9997L9.33317 16.6663H4.6665V3.33301H28.6665V16.6663H17.9998M28.6665 7.99967L23.9998 3.33301M28.6665 11.9997L23.9998 16.6663M3.99984 31.333L11.3332 27.333H20.6665L27.9998 23.333L27.3332 21.333L20.6665 22.6663L11.9998 21.9997L14.6665 18.6663L13.9998 16.6663L7.33317 20.6663L3.99984 24.6663L0.666504 25.9997"
        stroke="#898989" stroke-miterlimit="10" stroke-linecap="round" stroke-linejoin="round" />
    <path
        d="M17.9998 7.33333H15.3332L14.6665 8.66667L15.3332 10H17.9998L18.6665 11.3333L17.9998 12.6667H15.3332M16.6665 7.33333V6M16.6665 14V12.6667"
        stroke="#60D669" stroke-miterlimit="10" stroke-linecap="round" stroke-linejoin="round" />
</svg>