<?xml version="1.0" encoding="UTF-8" standalone="no"?>
<svg
   width="24"
   height="24"
   viewBox="0 0 24 24"
   fill="none"
   version="1.1"
   id="svg1"
   sodipodi:docname="arrows.svg"
   inkscape:version="1.4.3 (0d15f75, 2025-12-25)"
   xmlns:inkscape="http://www.inkscape.org/namespaces/inkscape"
   xmlns:sodipodi="http://sodipodi.sourceforge.net/DTD/sodipodi-0.dtd"
   xmlns="http://www.w3.org/2000/svg"
   xmlns:svg="http://www.w3.org/2000/svg">
  <defs
     id="defs1" />
  <sodipodi:namedview
     id="namedview1"
     pagecolor="#ffffff"
     bordercolor="#000000"
     borderopacity="0.25"
     inkscape:showpageshadow="2"
     inkscape:pageopacity="0.0"
     inkscape:pagecheckerboard="0"
     inkscape:deskcolor="#d1d1d1"
     inkscape:zoom="48.625"
     inkscape:cx="11.989717"
     inkscape:cy="12"
     inkscape:window-width="3440"
     inkscape:window-height="1369"
     inkscape:window-x="-8"
     inkscape:window-y="-8"
     inkscape:window-maximized="1"
     inkscape:current-layer="svg1" />
  <path
     style="baseline-shift:baseline;display:inline;overflow:visible;vector-effect:none;fill:#000000;stroke-linecap:round;stroke-linejoin:round;enable-background:accumulate;stop-color:#000000;stop-opacity:1;opacity:1"
     d="M 9,4 A 1,1 0 0 0 8.2929688,4.2929687 L 1.2929687,11.292969 a 1.0001,1.0001 0 0 0 0,1.414062 l 7.0000001,7 a 1,1 0 0 0 1.4140625,0 1,1 0 0 0 0,-1.414062 L 3.4140625,12 9.7070313,5.7070312 a 1,1 0 0 0 0,-1.4140625 A 1,1 0 0 0 9,4 Z m 6,0 a 1,1 0 0 0 -0.707031,0.2929687 1,1 0 0 0 0,1.4140625 L 20.585937,12 14.292969,18.292969 a 1,1 0 0 0 0,1.414062 1,1 0 0 0 1.414062,0 l 7,-7 a 1.0001,1.0001 0 0 0 0,-1.414062 l -7,-7.0000003 A 1,1 0 0 0 15,4 Z"
     id="path1" />
</svg>
