<svg xmlns="http://www.w3.org/2000/svg" width="25" height="24" viewBox="0 0 25 24" fill="none">
   <path
      d="M17.7178 0C17.9415 3.94222e-05 18.1563 0.0888716 18.3145 0.24707C18.4726 0.405297 18.5615 0.620008 18.5615 0.84375V1.77441C18.8539 1.79691 19.1309 1.82489 19.3926 1.85938C20.7109 2.0371 21.7785 2.41074 22.6211 3.25195C23.4626 4.09458 23.8369 5.16295 24.0146 6.48145C24.1867 7.76379 24.1865 9.40045 24.1865 11.4678V13.8447C24.1865 15.9121 24.1867 17.5498 24.0146 18.8311C23.8369 20.1496 23.4626 21.2179 22.6211 22.0605C21.7785 22.9018 20.7109 23.2754 19.3926 23.4531C18.1101 23.6252 16.4729 23.625 14.4053 23.625H9.78027C7.71293 23.625 6.07517 23.6252 4.79395 23.4531C3.47545 23.2754 2.40708 22.902 1.56445 22.0605C0.722953 21.2179 0.349625 20.1496 0.171875 18.8311C-0.000190074 17.5487 1.01692e-09 15.9121 0 13.8447V11.4678C1.01692e-09 9.40044 -0.000190102 7.76267 0.171875 6.48145C0.349625 5.16295 0.722953 4.09458 1.56445 3.25195C2.40708 2.41045 3.47545 2.03713 4.79395 1.85938C5.05634 1.8249 5.33339 1.7969 5.625 1.77441V0.84375C5.625 0.620168 5.71408 0.405272 5.87207 0.24707C6.03002 0.0891173 6.24438 0.000297859 6.46777 0C6.6915 3.92802e-05 6.90625 0.0888715 7.06445 0.24707C7.22264 0.405297 7.31152 0.620009 7.31152 0.84375V1.70215C8.05618 1.68753 8.8762 1.6875 9.77832 1.6875H14.4053C15.3086 1.6875 16.1293 1.68752 16.874 1.70215V0.84375C16.874 0.619974 16.9629 0.405304 17.1211 0.24707C17.2793 0.0888833 17.494 0 17.7178 0ZM1.70117 9C1.68655 9.73462 1.68652 10.5705 1.68652 11.5312V13.7812C1.68652 15.9266 1.6885 17.4511 1.84375 18.6064C1.99563 19.7382 2.28194 20.3903 2.75781 20.8662C3.23368 21.342 3.88604 21.6284 5.0166 21.7803C6.17419 21.9355 7.69756 21.9375 9.84277 21.9375H14.3428C16.4881 21.9375 18.0126 21.9355 19.168 21.7803C20.2996 21.6284 20.9519 21.3421 21.4277 20.8662C21.9036 20.3903 22.1899 19.738 22.3418 18.6074C22.497 17.4509 22.499 15.9265 22.499 13.7812V11.5312C22.499 10.5705 22.499 9.73462 22.4844 9H1.70117ZM6.4668 16.0312C6.76517 16.0312 7.05172 16.1494 7.2627 16.3604C7.47367 16.5713 7.5918 16.8579 7.5918 17.1562C7.5918 17.4546 7.47367 17.7412 7.2627 17.9521C7.05172 18.1631 6.76517 18.2812 6.4668 18.2812C6.16843 18.2812 5.88188 18.1631 5.6709 17.9521C5.45992 17.7412 5.3418 17.4546 5.3418 17.1562C5.3418 16.8579 5.45992 16.5713 5.6709 16.3604C5.88188 16.1494 6.16843 16.0312 6.4668 16.0312ZM12.0918 16.0312C12.3902 16.0312 12.6767 16.1494 12.8877 16.3604C13.0987 16.5713 13.2168 16.8579 13.2168 17.1562C13.2168 17.4546 13.0987 17.7412 12.8877 17.9521C12.6767 18.1631 12.3902 18.2812 12.0918 18.2812C11.7934 18.2812 11.5069 18.1631 11.2959 17.9521C11.0849 17.7412 10.9668 17.4546 10.9668 17.1562C10.9668 16.8579 11.0849 16.5713 11.2959 16.3604C11.5069 16.1494 11.7934 16.0312 12.0918 16.0312ZM17.7168 16.0312C18.0152 16.0312 18.3017 16.1494 18.5127 16.3604C18.7237 16.5713 18.8418 16.8579 18.8418 17.1562C18.8418 17.4546 18.7237 17.7412 18.5127 17.9521C18.3017 18.1631 18.0152 18.2812 17.7168 18.2812C17.4184 18.2812 17.1319 18.1631 16.9209 17.9521C16.7099 17.7412 16.5918 17.4546 16.5918 17.1562C16.5918 16.8579 16.7099 16.5713 16.9209 16.3604C17.1319 16.1494 17.4184 16.0312 17.7168 16.0312ZM6.4668 11.5312C6.76517 11.5312 7.05172 11.6494 7.2627 11.8604C7.47367 12.0713 7.5918 12.3579 7.5918 12.6562C7.5918 12.9546 7.47367 13.2412 7.2627 13.4521C7.05172 13.6631 6.76517 13.7812 6.4668 13.7812C6.16843 13.7812 5.88188 13.6631 5.6709 13.4521C5.45992 13.2412 5.3418 12.9546 5.3418 12.6562C5.3418 12.3579 5.45992 12.0713 5.6709 11.8604C5.88188 11.6494 6.16843 11.5312 6.4668 11.5312ZM12.0918 11.5312C12.3902 11.5312 12.6767 11.6494 12.8877 11.8604C13.0987 12.0713 13.2168 12.3579 13.2168 12.6562C13.2168 12.9546 13.0987 13.2412 12.8877 13.4521C12.6767 13.6631 12.3902 13.7812 12.0918 13.7812C11.7934 13.7812 11.5069 13.6631 11.2959 13.4521C11.0849 13.2412 10.9668 12.9546 10.9668 12.6562C10.9668 12.3579 11.0849 12.0713 11.2959 11.8604C11.5069 11.6494 11.7934 11.5312 12.0918 11.5312ZM17.7168 11.5312C18.0152 11.5312 18.3017 11.6494 18.5127 11.8604C18.7237 12.0713 18.8418 12.3579 18.8418 12.6562C18.8418 12.9546 18.7237 13.2412 18.5127 13.4521C18.3017 13.6631 18.0152 13.7812 17.7168 13.7812C17.4184 13.7812 17.1319 13.6631 16.9209 13.4521C16.7099 13.2412 16.5918 12.9546 16.5918 12.6562C16.5918 12.3579 16.7099 12.0713 16.9209 11.8604C17.1319 11.6494 17.4184 11.5312 17.7168 11.5312ZM9.84277 3.37402C7.69756 3.37402 6.17419 3.37701 5.0166 3.53223C3.88604 3.68409 3.23368 3.97046 2.75781 4.44629C2.28194 4.92216 1.99563 5.57445 1.84375 6.70508C1.81826 6.8963 1.79632 7.09856 1.77832 7.31152H22.4062C22.3883 7.09863 22.3673 6.89602 22.3418 6.7041C22.1899 5.57359 21.9035 4.92117 21.4277 4.44531C20.9519 3.96947 20.2996 3.68313 19.168 3.53125C18.0126 3.376 16.4881 3.37402 14.3428 3.37402H9.84277Z"
      fill="white" />
</svg>