<svg width="26" height="26" viewBox="0 0 26 26" fill="none" xmlns="http://www.w3.org/2000/svg">
<path fill-rule="evenodd" clip-rule="evenodd" d="M12.75 25.5C14.4244 25.5 16.0823 25.1702 17.6292 24.5295C19.1761 23.8887 20.5817 22.9496 21.7656 21.7656C22.9496 20.5817 23.8887 19.1761 24.5295 17.6292C25.1702 16.0823 25.5 14.4244 25.5 12.75C25.5 11.0756 25.1702 9.41769 24.5295 7.87079C23.8887 6.32388 22.9496 4.91834 21.7656 3.73439C20.5817 2.55044 19.1761 1.61128 17.6292 0.970536C16.0823 0.329788 14.4244 -2.49498e-08 12.75 0C9.36849 5.03884e-08 6.12548 1.3433 3.73439 3.73439C1.3433 6.12548 0 9.36849 0 12.75C0 16.1315 1.3433 19.3745 3.73439 21.7656C6.12548 24.1567 9.36849 25.5 12.75 25.5ZM12.4213 17.9067L19.5047 9.40667L17.3287 7.59333L11.237 14.9019L8.08492 11.7484L6.08175 13.7516L10.3318 18.0016L11.4283 19.0981L12.4213 17.9067Z" fill="#467E9E"/>
</svg>
