<?xml version="1.0" encoding="UTF-8" standalone="no"?>
<svg
   width="20"
   height="20"
   viewBox="0 0 20 20"
   fill="none"
   version="1.1"
   id="svg4"
   sodipodi:docname="copy.svg"
   inkscape:version="1.1.1 (3bf5ae0d25, 2021-09-20)"
   xmlns:inkscape="http://www.inkscape.org/namespaces/inkscape"
   xmlns:sodipodi="http://sodipodi.sourceforge.net/DTD/sodipodi-0.dtd"
   xmlns="http://www.w3.org/2000/svg"
   xmlns:svg="http://www.w3.org/2000/svg">
  <defs
     id="defs8" />
  <sodipodi:namedview
     id="namedview6"
     pagecolor="#ffffff"
     bordercolor="#666666"
     borderopacity="1.0"
     inkscape:pageshadow="2"
     inkscape:pageopacity="0.0"
     inkscape:pagecheckerboard="0"
     showgrid="false"
     inkscape:zoom="40.1"
     inkscape:cx="9.9875312"
     inkscape:cy="9.9875312"
     inkscape:window-width="1920"
     inkscape:window-height="991"
     inkscape:window-x="-9"
     inkscape:window-y="-9"
     inkscape:window-maximized="1"
     inkscape:current-layer="svg4" />
  <path
     style="color:#000000;fill:#414651;stroke-linecap:round;stroke-linejoin:round;-inkscape-stroke:none"
     d="m 4.3320312,0.83398438 c -0.933419,0 -1.516124,-0.0437362 -2.1347656,0.27148432 C 1.7269718,1.3450996 1.3451084,1.7288928 1.1054687,2.1992188 0.79026838,2.8178548 0.83203125,3.4005653 0.83203125,4.3339844 V 10 c 0,0.776599 -0.0307267,1.254682 0.19140625,1.791016 0.2536231,0.612167 0.7393035,1.097891 1.3515625,1.351562 a 0.83341832,0.83341832 0 0 0 0.00195,0 c 0.5362705,0.222016 1.0124933,0.191406 1.7890625,0.191406 A 0.83333498,0.83333498 0 0 0 5,12.5 0.83333498,0.83333498 0 0 0 4.1660156,11.666016 c -0.7765692,0 -1.0760548,-0.03092 -1.1523437,-0.0625 C 2.8091717,11.518787 2.6471966,11.356775 2.5625,11.152344 2.5309132,11.076078 2.5,10.776599 2.5,10 V 4.3339844 C 2.5,3.4005653 2.5417445,3.0494814 2.5898438,2.9550781 2.6697838,2.7981847 2.7981725,2.6717457 2.9550781,2.5917969 3.0494759,2.5436978 3.3986122,2.5 4.3320312,2.5 H 10 c 0.776549,0 1.076088,0.032868 1.152344,0.064453 0.203605,0.084334 0.364151,0.2458715 0.449219,0.4492188 0.03159,0.076317 0.06445,0.3757745 0.06445,1.1523437 A 0.83333498,0.83333498 0 0 0 12.5,5 0.83333498,0.83333498 0 0 0 13.332031,4.1660156 c 0,-0.7765692 0.03255,-1.2527997 -0.189453,-1.7890625 C 12.88895,1.7647969 12.401371,1.2770569 11.789063,1.0234375 11.252718,0.80128282 10.776549,0.83398438 10,0.83398438 Z M 10.166016,6.6679687 c -0.9334094,0 -1.51613,-0.043716 -2.134766,0.2714844 C 7.5609437,7.1790904 7.1790904,7.5609437 6.9394531,8.03125 6.6242528,8.649886 6.6660156,9.2345397 6.6660156,10.167969 v 5.5 c 0,0.933399 -0.041778,1.516135 0.2734375,2.134765 0.2396275,0.470288 0.6214692,0.852134 1.0917969,1.091797 0.6186636,0.315301 1.2013566,0.273438 2.134766,0.273438 h 5.5 c 0.933399,0 1.516109,0.04179 2.134765,-0.273438 0.470373,-0.239686 0.852208,-0.621613 1.091797,-1.091797 0.315316,-0.618658 0.273438,-1.201366 0.273438,-2.134765 v -5.5 c 0,-0.9334293 0.04186,-1.5180554 -0.273438,-2.136719 C 18.652979,7.5610476 18.271132,7.1791132 17.800781,6.9394531 17.182152,6.624327 16.599415,6.6679688 15.666016,6.6679687 Z m 0,1.6660157 h 5.5 c 0.933399,0 1.284336,0.04167 1.378906,0.089844 0.156848,0.07992 0.283281,0.2082374 0.363281,0.3652344 0.0481,0.094376 0.0918,0.4454772 0.0918,1.3789065 v 5.5 c 0,0.933399 -0.04371,1.282612 -0.0918,1.376953 -0.08001,0.157016 -0.206454,0.28532 -0.363281,0.365234 C 16.950379,17.458329 16.599415,17.5 15.666016,17.5 h -5.5 c -0.9334094,0 -1.2845309,-0.04174 -1.3789066,-0.08984 -0.1568717,-0.07994 -0.2833291,-0.208322 -0.3632813,-0.365234 -0.048084,-0.09437 -0.091797,-0.443554 -0.091797,-1.376953 v -5.5 c 0,-0.9334293 0.043698,-1.2845032 0.091797,-1.3789065 0.079942,-0.1568931 0.2063882,-0.285292 0.3632813,-0.3652344 0.094403,-0.048099 0.4454972,-0.089844 1.3789066,-0.089844 z"
     id="path2" />
</svg>
