<?xml version="1.0" encoding="UTF-8" standalone="no"?>
<svg
   width="24"
   height="24"
   viewBox="0 0 24 24"
   fill="none"
   version="1.1"
   id="svg4"
   sodipodi:docname="dislike.svg"
   inkscape:version="1.1.1 (3bf5ae0d25, 2021-09-20)"
   xmlns:inkscape="http://www.inkscape.org/namespaces/inkscape"
   xmlns:sodipodi="http://sodipodi.sourceforge.net/DTD/sodipodi-0.dtd"
   xmlns="http://www.w3.org/2000/svg"
   xmlns:svg="http://www.w3.org/2000/svg">
  <defs
     id="defs8" />
  <sodipodi:namedview
     id="namedview6"
     pagecolor="#ffffff"
     bordercolor="#666666"
     borderopacity="1.0"
     inkscape:pageshadow="2"
     inkscape:pageopacity="0.0"
     inkscape:pagecheckerboard="0"
     showgrid="false"
     inkscape:zoom="33.416667"
     inkscape:cx="12.014963"
     inkscape:cy="12.014963"
     inkscape:window-width="1920"
     inkscape:window-height="991"
     inkscape:window-x="-9"
     inkscape:window-y="-9"
     inkscape:window-maximized="1"
     inkscape:current-layer="svg4" />
  <path
     style="color:#000000;fill:#98a2b3;stroke-linecap:round;stroke-linejoin:round;-inkscape-stroke:none"
     d="M 8.1171875,1.5 C 6.655709,1.5 5.860427,1.4810351 5.1289062,1.8125 4.5220573,2.0874771 4.0046729,2.5299078 3.640625,3.0878906 3.2017745,3.7605006 3.1011361,4.5496613 2.8789063,5.9941406 L 2.3554688,9.3945313 C 2.0623589,11.29971 1.8725109,12.319806 2.2265625,13.248047 2.5160216,14.006982 3.0595761,14.641459 3.765625,15.042969 4.6292444,15.534007 5.6661519,15.5 7.59375,15.5 h 0.8046875 c 0.5600494,0 0.7714945,0.02583 0.828125,0.05469 0.09428,0.04805 0.1708117,0.124643 0.21875,0.21875 C 9.4741688,15.830065 9.5,16.03951 9.5,16.599609 v 2.935547 C 9.5,21.16719 10.832815,22.5 12.464844,22.5 c 0.521125,0 0.997335,-0.308905 1.208984,-0.785156 l 3.359375,-7.5625 c 0.152753,-0.343893 0.217185,-0.459715 0.253906,-0.498047 0.05343,-0.05578 0.118815,-0.09885 0.191407,-0.125 0.04974,-0.01792 0.184147,-0.0293 0.560546,-0.0293 h 0.759766 c 1.120099,0 1.750816,0.02466 2.335938,-0.273437 0.470402,-0.239639 0.852122,-0.621571 1.091796,-1.091797 C 22.52472,11.549665 22.5,10.92088 22.5,9.8007813 V 5.1992187 c 0,-1.1201088 0.0247,-1.7488883 -0.273438,-2.3339843 C 21.986883,2.3949604 21.60511,2.013097 21.134766,1.7734375 20.549647,1.4753538 19.918927,1.5 18.798828,1.5 H 17 Z m 0,1 H 16.5 V 13 a 0.5,0.5 0 0 0 0.01953,0.04687 c -0.162725,0.194645 -0.263811,0.393691 -0.40039,0.701172 l -3.359375,7.560547 C 12.707615,21.425942 12.593318,21.5 12.464844,21.5 11.373275,21.5 10.5,20.62672 10.5,19.535156 v -2.935547 c 0,-0.560099 0.02508,-0.910077 -0.164062,-1.28125 C 10.192136,15.036066 9.9617274,14.807811 9.6796875,14.664063 9.3084984,14.474919 8.9584869,14.5 8.3984375,14.5 H 7.59375 C 5.6661519,14.5 4.7753648,14.466989 4.2597656,14.173828 3.7552757,13.886939 3.3669766,13.432889 3.1601563,12.890625 2.9487884,12.336468 3.0506405,11.452052 3.34375,9.546875 L 3.8671875,6.1464844 C 4.0894172,4.7020066 4.2092268,4.0474946 4.4785156,3.6347656 4.7385871,3.2361494 5.1074856,2.9190986 5.5410156,2.7226563 5.9898937,2.5192617 6.655709,2.5 8.1171875,2.5 Z M 17.5,2.5 h 1.298828 c 1.120099,0 1.610179,0.026167 1.880859,0.1640625 0.282255,0.1438201 0.51233,0.3719116 0.65625,0.6542969 C 21.473795,3.5889024 21.5,4.0791099 21.5,5.1992187 v 4.6015626 c 0,1.1200987 -0.02622,1.6103607 -0.164063,1.8808597 -0.143925,0.282373 -0.374052,0.510536 -0.65625,0.654297 C 20.40901,12.473838 19.918927,12.5 18.798828,12.5 h -0.759766 c -0.225839,0 -0.372672,0.03439 -0.539062,0.05273 z"
     id="path2" />
</svg>
