<?xml version="1.0" encoding="UTF-8" standalone="no"?>
<svg
   class="icon-mail"
   width="18"
   height="18"
   viewBox="0 0 24 24"
   fill="none"
   stroke="currentColor"
   stroke-width="2"
   stroke-linecap="round"
   stroke-linejoin="round"
   version="1.1"
   id="svg1"
   sodipodi:docname="envelope.svg"
   inkscape:version="1.4.3 (0d15f75, 2025-12-25)"
   xmlns:inkscape="http://www.inkscape.org/namespaces/inkscape"
   xmlns:sodipodi="http://sodipodi.sourceforge.net/DTD/sodipodi-0.dtd"
   xmlns="http://www.w3.org/2000/svg"
   xmlns:svg="http://www.w3.org/2000/svg">
  <defs
     id="defs1" />
  <sodipodi:namedview
     id="namedview1"
     pagecolor="#ffffff"
     bordercolor="#000000"
     borderopacity="0.25"
     inkscape:showpageshadow="2"
     inkscape:pageopacity="0.0"
     inkscape:pagecheckerboard="0"
     inkscape:deskcolor="#d1d1d1"
     inkscape:zoom="64.833333"
     inkscape:cx="9.0077121"
     inkscape:cy="9"
     inkscape:window-width="3440"
     inkscape:window-height="1369"
     inkscape:window-x="-8"
     inkscape:window-y="-8"
     inkscape:window-maximized="1"
     inkscape:current-layer="svg1" />
  <path
     style="baseline-shift:baseline;display:inline;overflow:visible;vector-effect:none;fill:#000000;stroke:none;stroke-linecap:butt;stroke-linejoin:miter;enable-background:accumulate;stop-color:#000000;stop-opacity:1;opacity:1"
     d="M 4,3 C 2.3545455,3 1,4.3545455 1,6 v 12 c 0,1.645455 1.3545455,3 3,3 h 16 c 1.645455,0 3,-1.354545 3,-3 V 6 C 23,4.3545455 21.645455,3 20,3 Z m 0,2 h 16 c 0.554545,0 1,0.4454545 1,1 v 12 c 0,0.554545 -0.445455,1 -1,1 H 4 C 3.4454545,19 3,18.554545 3,18 V 6 C 3,5.4454545 3.4454545,5 4,5 Z"
     id="path1" />
  <path
     style="baseline-shift:baseline;display:inline;overflow:visible;vector-effect:none;fill:#000000;stroke:none;stroke-linecap:butt;stroke-linejoin:miter;enable-background:accumulate;stop-color:#000000;stop-opacity:1;opacity:1"
     d="M 22.173828,5.015625 A 1,1 0 0 0 21.425781,5.1816406 L 12,11.779297 2.5742188,5.1816406 A 1,1 0 0 0 1.1816406,5.4257812 1,1 0 0 0 1.4257812,6.8183594 l 9.9999998,6.9999996 a 1.0001,1.0001 0 0 0 1.148438,0 l 10,-6.9999996 A 1,1 0 0 0 22.818359,5.4257812 1,1 0 0 0 22.173828,5.015625 Z"
     id="polyline1" />
</svg>
