<?xml version="1.0" encoding="UTF-8" standalone="no"?>
<svg
   width="20"
   height="20"
   viewBox="0 0 20 20"
   fill="none"
   version="1.1"
   id="svg4"
   sodipodi:docname="like.svg"
   inkscape:version="1.1.1 (3bf5ae0d25, 2021-09-20)"
   xmlns:inkscape="http://www.inkscape.org/namespaces/inkscape"
   xmlns:sodipodi="http://sodipodi.sourceforge.net/DTD/sodipodi-0.dtd"
   xmlns="http://www.w3.org/2000/svg"
   xmlns:svg="http://www.w3.org/2000/svg">
  <defs
     id="defs8" />
  <sodipodi:namedview
     id="namedview6"
     pagecolor="#ffffff"
     bordercolor="#666666"
     borderopacity="1.0"
     inkscape:pageshadow="2"
     inkscape:pageopacity="0.0"
     inkscape:pagecheckerboard="0"
     showgrid="false"
     inkscape:zoom="40.1"
     inkscape:cx="9.9875312"
     inkscape:cy="9.9875312"
     inkscape:window-width="1920"
     inkscape:window-height="991"
     inkscape:window-x="-9"
     inkscape:window-y="-9"
     inkscape:window-maximized="1"
     inkscape:current-layer="svg4" />
  <path
     style="color:#000000;fill:#ff4405;stroke-linecap:round;stroke-linejoin:round;-inkscape-stroke:none"
     d="m 9.6132813,1.1660156 c -0.4669876,0 -0.8923634,0.278334 -1.0820313,0.7050781 L 5.5976562,8.46875 C 5.543631,8.5903079 5.425991,8.6660156 5.2929687,8.6660156 H 3.3339844 c -1.1906965,0 -2.1660156,0.9772934 -2.1660157,2.1679684 v 5.832032 c 0,1.19064 0.9753155,2.167968 2.1660157,2.167968 h 2.5 8.6894536 c 1.477111,0 2.740262,-1.085024 2.964843,-2.544922 l 0.896485,-5.832031 C 18.66295,8.6490002 17.249242,7 15.419922,7 H 12.501953 C 12.311998,7 12.167969,6.8560182 12.167969,6.6660156 V 3.7207031 c 0,-1.4050904 -1.149577,-2.5546875 -2.5546877,-2.5546875 z m 0,1 c 0.8646877,0 1.5546877,0.6900402 1.5546877,1.5546875 V 6.6660156 C 11.167969,7.3964721 11.771509,8 12.501953,8 h 2.917969 c 1.235077,0 2.164378,1.0840016 1.976562,2.304688 L 16.5,16.136719 c -0.150618,0.9791 -0.985876,1.697265 -1.976562,1.697265 H 6.3339844 V 9.1660156 a 0.5,0.5 0 0 0 -0.029297,-0.15625 C 6.355272,8.9385629 6.4754239,8.9566641 6.5117187,8.875 L 9.4433594,2.2773438 c 0.030212,-0.067975 0.09555,-0.1113282 0.1699219,-0.1113282 z M 5.3339844,9.6386719 v 8.1953121 h -2 c -0.650258,0 -1.1660156,-0.51781 -1.1660156,-1.167968 v -5.832032 c 0,-0.650222 0.5157539,-1.1679684 1.1660156,-1.1679684 h 1.9589843 c 0.017832,0 0.023299,-0.026632 0.041016,-0.027344 z"
     id="path2" />
</svg>
