<svg xmlns="http://www.w3.org/2000/svg" width="19" height="19" viewBox="0 0 19 19" fill="none">
    <path fill-rule="evenodd" clip-rule="evenodd"
        d="M9.66836 18.7943C7.81062 18.7943 6.9473 18.5231 5.44666 17.4383C4.49744 18.6587 1.49163 19.6125 1.36053 17.9807C1.36053 16.7558 1.08933 15.7207 0.781962 14.5907C0.415848 13.1985 0 11.6481 0 9.40169C0 4.03639 4.40253 0 9.61866 0C14.8393 0 18.9299 4.23528 18.9299 9.4514C18.9475 14.5869 14.8038 18.7669 9.66836 18.7943ZM9.74522 4.63755C7.20496 4.50648 5.22516 6.26478 4.78673 9.022C4.42512 11.3046 5.06697 14.0844 5.61389 14.2291C5.87605 14.2924 6.53599 13.759 6.9473 13.3477C7.62745 13.8175 8.41948 14.0997 9.2435 14.1658C11.8756 14.2924 14.1247 12.2886 14.3014 9.65935C14.4043 7.02453 12.3777 4.79287 9.74522 4.64208V4.63755Z"
        fill="white" />
</svg>