<?xml version="1.0" encoding="UTF-8" standalone="no"?>
<svg
   class="icon-phone scenario-card__cta-phone"
   width="18"
   height="18"
   viewBox="0 0 24 24"
   fill="none"
   stroke="currentColor"
   stroke-width="2"
   stroke-linecap="round"
   stroke-linejoin="round"
   aria-hidden="true"
   version="1.1"
   id="svg1"
   sodipodi:docname="phone.svg"
   inkscape:version="1.4.3 (0d15f75, 2025-12-25)"
   xmlns:inkscape="http://www.inkscape.org/namespaces/inkscape"
   xmlns:sodipodi="http://sodipodi.sourceforge.net/DTD/sodipodi-0.dtd"
   xmlns="http://www.w3.org/2000/svg"
   xmlns:svg="http://www.w3.org/2000/svg">
  <defs
     id="defs1" />
  <sodipodi:namedview
     id="namedview1"
     pagecolor="#ffffff"
     bordercolor="#000000"
     borderopacity="0.25"
     inkscape:showpageshadow="2"
     inkscape:pageopacity="0.0"
     inkscape:pagecheckerboard="0"
     inkscape:deskcolor="#d1d1d1"
     inkscape:zoom="16"
     inkscape:cx="-0.65625"
     inkscape:cy="10.78125"
     inkscape:window-width="1445"
     inkscape:window-height="1353"
     inkscape:window-x="1263"
     inkscape:window-y="128"
     inkscape:window-maximized="0"
     inkscape:current-layer="svg1" />
  <path
     style="baseline-shift:baseline;display:inline;overflow:visible;vector-effect:none;fill:#000000;stroke:none;stroke-linecap:butt;stroke-linejoin:miter;enable-background:accumulate;stop-color:#000000;stop-opacity:1;opacity:1"
     d="M 4.109375,1 C 2.3625716,1.001645 0.96778685,2.5298161 1.125,4.2695312 a 1.0001,1.0001 0 0 0 0,0.015625 c 0.3447641,3.2465705 1.4517198,6.3671838 3.2265625,9.1074218 3.196e-4,4.94e-4 -3.196e-4,0.0015 0,0.002 1.6134766,2.536457 3.7654371,4.686524 6.3027345,6.298828 2.726422,1.766438 5.828879,2.869769 9.058594,3.220703 a 1.0001,1.0001 0 0 0 0.01758,0.002 c 1.745444,0.157744 3.276645,-1.247457 3.269531,-3 v -2.970704 c 0.03758,-1.514668 -1.0798,-2.833269 -2.580078,-3.044921 a 1.0001,1.0001 0 0 0 -0.0098,-0.002 c -0.884667,-0.116679 -1.751824,-0.332705 -2.58789,-0.644532 h -0.002 c -1.09357,-0.410228 -2.333482,-0.145555 -3.164062,0.675782 a 1.0001,1.0001 0 0 0 -0.0039,0.0039 l -0.658203,0.658203 C 12.142867,13.413493 10.586507,11.857133 9.4082031,10.005859 L 10.066406,9.3476563 a 1.0001,1.0001 0 0 0 0.0039,-0.00391 c 0.821336,-0.8305798 1.086009,-2.0704922 0.675781,-3.1640625 v -0.00195 C 10.434267,5.3416683 10.218241,4.4745107 10.101563,3.5898438 a 1.0001,1.0001 0 0 0 -0.002,-0.00977 C 9.8899431,2.096688 8.597671,0.98525589 7.0996094,1 Z m 0,2 h 3 a 1.0001,1.0001 0 0 0 0.00977,0 c 0.5096665,-0.00502 0.9286679,0.3547001 1,0.859375 v -0.00781 C 8.2556251,4.8863997 8.5081297,5.900974 8.8730469,6.8789062 a 1.0001,1.0001 0 0 0 0,0.00391 C 9.0112709,7.2505286 8.9246566,7.6581723 8.6484375,7.9375 l -1.265625,1.265625 a 1.0001,1.0001 0 0 0 -0.1621094,1.201172 c 1.5124992,2.659967 3.7150329,4.862501 6.3749999,6.375 a 1.0001,1.0001 0 0 0 1.201172,-0.16211 L 16.0625,15.351563 c 0.279328,-0.27622 0.686971,-0.362834 1.054687,-0.22461 a 1.0001,1.0001 0 0 0 0.0039,0 c 0.977932,0.364917 1.992506,0.617422 3.027343,0.753906 h -0.0078 c 0.510847,0.07207 0.872172,0.497926 0.859375,1.013672 a 1.0001,1.0001 0 0 0 0,0.02539 v 3 a 1.0001,1.0001 0 0 0 0,0.0039 c 0.0024,0.603575 -0.48541,1.049703 -1.085938,0.998047 -2.916591,-0.319157 -5.71789,-1.31369 -8.179687,-2.910156 a 1.0001,1.0001 0 0 0 -0.0078,-0.0059 C 9.4342791,16.549247 7.4898154,14.606737 6.0332031,12.314453 a 1.0001,1.0001 0 0 0 -0.00391,-0.0078 C 4.4264737,9.8324487 3.4300482,7.0152353 3.1171875,4.0839844 3.0669817,3.4872734 3.5097224,3.0016406 4.109375,3 Z"
     id="path1" />
</svg>
