<?xml version="1.0" encoding="UTF-8" standalone="no"?>
<svg
   width="13"
   height="13"
   viewBox="0 0 13 13"
   fill="none"
   version="1.1"
   id="svg4"
   sodipodi:docname="team.svg"
   inkscape:version="1.4.3 (0d15f75, 2025-12-25)"
   xmlns:inkscape="http://www.inkscape.org/namespaces/inkscape"
   xmlns:sodipodi="http://sodipodi.sourceforge.net/DTD/sodipodi-0.dtd"
   xmlns="http://www.w3.org/2000/svg"
   xmlns:svg="http://www.w3.org/2000/svg">
  <defs
     id="defs4" />
  <sodipodi:namedview
     id="namedview4"
     pagecolor="#ffffff"
     bordercolor="#000000"
     borderopacity="0.25"
     inkscape:showpageshadow="2"
     inkscape:pageopacity="0.0"
     inkscape:pagecheckerboard="0"
     inkscape:deskcolor="#d1d1d1"
     inkscape:zoom="89.769231"
     inkscape:cx="6.4944302"
     inkscape:cy="6.5"
     inkscape:window-width="3440"
     inkscape:window-height="1369"
     inkscape:window-x="-8"
     inkscape:window-y="-8"
     inkscape:window-maximized="1"
     inkscape:current-layer="svg4" />
  <path
     style="baseline-shift:baseline;display:inline;overflow:visible;vector-effect:none;fill:#6e9fbb;stroke-linecap:round;stroke-linejoin:round;enable-background:accumulate;stop-color:#000000;stop-opacity:1;opacity:1"
     d="M 8.53125,1.9375 C 7.2752925,1.9375 6.2618482,2.9803962 6.3554687,4.3007812 6.4447226,5.5614169 7.3785759,6.59375 8.53125,6.59375 c 1.1527778,0 2.083073,-1.0333333 2.173828,-2.2929688 C 10.799439,2.9946927 9.7936839,1.9375 8.53125,1.9375 Z m 0,1 c 0.7500261,0 1.2338207,0.4896173 1.1757813,1.2929687 C 9.6489859,5.0361133 9.0491722,5.59375 8.53125,5.59375 8.0132241,5.59375 7.4105218,5.0356331 7.3535156,4.2304687 7.2947962,3.4023138 7.7747475,2.9375 8.53125,2.9375 Z"
     id="path1" />
  <path
     style="baseline-shift:baseline;display:inline;overflow:visible;vector-effect:none;fill:#6e9fbb;stroke-miterlimit:10;enable-background:accumulate;stop-color:#000000;stop-opacity:1;opacity:1"
     d="m 8.53125,7.21875 c -1.8202758,0 -3.6645733,0.9362975 -4.1289063,2.800781 -0.059601,0.238924 -0.018979,0.490947 0.1191407,0.69336 0.1381198,0.202412 0.3928467,0.349609 0.6621093,0.349609 h 6.6953123 c 0.269263,0 0.52431,-0.147305 0.66211,-0.349609 0.137799,-0.202305 0.179586,-0.453274 0.121093,-0.691407 C 12.199143,8.1330405 10.346577,7.21875 8.53125,7.21875 Z m 0,1 c 1.3985273,0 2.58223,0.6498102 3.011719,1.84375 H 5.5214844 C 5.9520886,8.89059 7.1395823,8.21875 8.53125,8.21875 Z"
     id="path2" />
  <path
     style="baseline-shift:baseline;display:inline;overflow:visible;vector-effect:none;fill:#6e9fbb;stroke-linecap:round;stroke-linejoin:round;enable-background:accumulate;stop-color:#000000;stop-opacity:1;opacity:1"
     d="m 3.7324219,2.75 c -1.0581317,0 -1.922046,0.8988381 -1.84375,2.0058594 0.074699,1.0551747 0.8521535,1.9394531 1.84375,1.9394531 0.9917162,0 1.7677943,-0.8833112 1.84375,-1.9375 C 5.6551828,3.6611907 4.7970777,2.75 3.7324219,2.75 Z m 0,1 C 4.275486,3.75 4.6224272,4.0977687 4.5800781,4.6855469 4.5371938,5.280738 4.0752256,5.6953125 3.7324219,5.6953125 3.3894784,5.6953125 2.9288197,5.2802521 2.8867188,4.6855469 2.8436547,4.0766681 3.1828136,3.75 3.7324219,3.75 Z"
     id="path3" />
  <path
     style="baseline-shift:baseline;display:inline;overflow:visible;vector-effect:none;fill:#6e9fbb;stroke-linecap:round;stroke-miterlimit:10;enable-background:accumulate;stop-color:#000000;stop-opacity:1;opacity:1"
     d="m 3.7324219,6.9785156 c -1.4860135,0 -3.01201643,0.7719964 -3.3964844,2.3144532 C 0.28203276,9.5105486 0.32001128,9.7414062 0.44726563,9.9277344 0.57451997,10.114063 0.81117939,10.25 1.0585937,10.25 H 3.9101563 A 0.5,0.5 0 0 0 4.4101562,9.75 0.5,0.5 0 0 0 3.9101563,9.25 H 1.5214844 C 1.8999284,8.4630915 2.719658,7.9785156 3.7324219,7.9785156 c 0.4846728,0 0.9130284,0.073806 1.2890625,0.2460938 A 0.5,0.5 0 0 0 5.6855469,7.9765625 0.5,0.5 0 0 0 5.4394531,7.3144531 C 4.8988872,7.0667812 4.3177091,6.9785156 3.7324219,6.9785156 Z"
     id="path4" />
</svg>
