<svg xmlns="http://www.w3.org/2000/svg" width="17" height="14" viewBox="0 0 17 14" fill="none">
    <path
        d="M1.11964 5.81177C5.49308 3.90677 8.40871 2.65083 9.86652 2.04396C14.0337 0.311222 14.8986 0.0102841 15.4634 8.88336e-05C15.5876 -0.00190335 15.8642 0.0287995 16.0446 0.174698C16.1946 0.297745 16.2368 0.464151 16.2579 0.580987C16.2767 0.697706 16.3025 0.963722 16.2814 1.17138C16.0564 3.54325 15.079 9.29904 14.5821 11.9557C14.3736 13.0797 13.9587 13.4566 13.5579 13.4934C12.6861 13.5736 12.0251 12.9178 11.1814 12.3649C9.86183 11.4993 9.11652 10.9608 7.83449 10.1163C6.35323 9.14036 7.31417 8.60388 8.15792 7.72732C8.37824 7.49786 12.2173 4.00685 12.29 3.69021C12.2993 3.6506 12.3087 3.50294 12.2196 3.42513C12.1329 3.34708 12.004 3.3738 11.9103 3.39489C11.7767 3.42489 9.66964 4.81896 5.58214 7.57685C4.98448 7.98794 4.44308 8.18833 3.95558 8.17778C3.4212 8.1663 2.38995 7.87497 1.62355 7.62607C0.686045 7.32068 -0.0616116 7.15919 0.00401347 6.64052C0.036826 6.37052 0.409482 6.09419 1.11964 5.81177Z"
        fill="#F7F9FB" />
</svg>