<svg xmlns="http://www.w3.org/2000/svg" width="24" height="14" viewBox="0 0 24 14" fill="none">
    <path
        d="M22.386 13.8555H19.8327C18.8667 13.8555 18.5762 13.0732 16.8437 11.3407C15.3317 9.88295 14.693 9.70095 14.3097 9.70095C13.7812 9.70095 13.636 9.8462 13.636 10.576V12.872C13.636 13.4932 13.4347 13.8572 11.8125 13.8572C10.2384 13.7503 8.71208 13.2715 7.35893 12.4602C6.00579 11.6488 4.8644 10.5281 4.0285 9.18995C2.04461 6.72335 0.665048 3.82698 0 0.732198C0 0.348948 0.14525 0.00244847 0.875 0.00244847H3.4265C4.08275 0.00244847 4.319 0.294699 4.57625 0.968449C5.81525 4.61545 7.92925 7.78645 8.78675 7.78645C9.114 7.78645 9.25925 7.6412 9.25925 6.82045V3.06495C9.15075 1.3517 8.239 1.20645 8.239 0.586948C8.25069 0.423233 8.32582 0.270546 8.44838 0.161381C8.57095 0.0522156 8.73128 -0.00480745 8.89525 0.00244847H12.9062C13.454 0.00244847 13.636 0.275449 13.636 0.931699V5.9997C13.636 6.54745 13.8722 6.72945 14.0367 6.72945C14.364 6.72945 14.6195 6.54745 15.2215 5.94545C16.5147 4.37045 17.57 2.61345 18.3575 0.730449C18.4384 0.50479 18.5906 0.311646 18.7912 0.18028C18.9917 0.0489136 19.2296 -0.0135164 19.4687 0.00244847H22.0202C22.7867 0.00244847 22.9512 0.385699 22.7867 0.931699C21.8584 3.01148 20.7097 4.98569 19.3602 6.82045C19.0855 7.24045 18.9752 7.4592 19.3602 7.95095C19.614 8.3342 20.5082 9.08145 21.1102 9.79195C21.9852 10.6652 22.7115 11.675 23.261 12.781C23.4797 13.4915 23.114 13.8555 22.386 13.8555Z"
        fill="white" />
</svg>