<?xml version="1.0" encoding="UTF-8" standalone="no"?>
<svg
   width="27px"
   height="27px"
   viewBox="0 0 24 24"
   version="1.1"
   id="svg1"
   sodipodi:docname="zoom.svg"
   inkscape:version="1.4.3 (0d15f75, 2025-12-25)"
   xmlns:inkscape="http://www.inkscape.org/namespaces/inkscape"
   xmlns:sodipodi="http://sodipodi.sourceforge.net/DTD/sodipodi-0.dtd"
   xmlns="http://www.w3.org/2000/svg"
   xmlns:svg="http://www.w3.org/2000/svg">
  <defs
     id="defs1" />
  <sodipodi:namedview
     id="namedview1"
     pagecolor="#ffffff"
     bordercolor="#000000"
     borderopacity="0.25"
     inkscape:showpageshadow="2"
     inkscape:pageopacity="0.0"
     inkscape:pagecheckerboard="0"
     inkscape:deskcolor="#d1d1d1"
     inkscape:zoom="43.222222"
     inkscape:cx="13.488432"
     inkscape:cy="13.5"
     inkscape:window-width="3440"
     inkscape:window-height="1369"
     inkscape:window-x="-8"
     inkscape:window-y="-8"
     inkscape:window-maximized="1"
     inkscape:current-layer="svg1" />
  <path
     style="baseline-shift:baseline;display:inline;overflow:visible;vector-effect:none;fill:#ffffff;stroke-linecap:round;stroke-linejoin:round;enable-background:accumulate;stop-color:#000000;stop-opacity:1;opacity:1"
     d="m 10,2.25 c -4.2713225,0 -7.75,3.4786743 -7.75,7.75 0,4.271326 3.4786775,7.75 7.75,7.75 1.860678,0 3.503996,-0.74748 4.841797,-1.845703 l 5.626953,5.626953 a 0.75,0.75 0 0 0 1.0625,0 0.75,0.75 0 0 0 0,-1.0625 L 15.904297,14.841797 C 17.002521,13.503997 17.75,11.860679 17.75,10 17.75,5.7286743 14.271323,2.25 10,2.25 Z m 0,1.5 c 3.460664,0 6.25,2.789334 6.25,6.25 0,3.460666 -2.789336,6.25 -6.25,6.25 C 6.5393362,16.25 3.75,13.460666 3.75,10 3.75,6.539334 6.5393362,3.75 10,3.75 Z m 0,2.5 A 0.75,0.75 0 0 0 9.25,7 V 9.25 H 7 A 0.75,0.75 0 0 0 6.25,10 0.75,0.75 0 0 0 7,10.75 H 9.25 V 13 A 0.75,0.75 0 0 0 10,13.75 0.75,0.75 0 0 0 10.75,13 V 10.75 H 13 A 0.75,0.75 0 0 0 13.75,10 0.75,0.75 0 0 0 13,9.25 H 10.75 V 7 A 0.75,0.75 0 0 0 10,6.25 Z"
     id="path1" />
</svg>
