<svg width="26" height="28" viewBox="0 0 26 28" fill="none" xmlns="http://www.w3.org/2000/svg">
    <path fill-rule="evenodd" clip-rule="evenodd"
        d="M13 0C20.0691 1.19209e-07 25.9999 5.15167 26 11.7383C25.9994 13.4284 25.5993 15.0964 24.8301 16.6133L24.8242 16.623L24.8203 16.6328C24.6269 17.0007 24.6217 17.0161 24.5986 17.2061C24.5582 17.556 24.5557 18.1486 24.5557 19.5986H24.541V20.5723L24.5586 20.5752V21.4551C24.5586 22.3439 23.6603 22.9587 22.8184 23.3115C22.3892 23.4946 22.0206 23.791 21.7559 24.166C21.4806 24.5573 21.3123 25.0099 21.2666 25.4814C21.1236 26.9416 20.8502 28.0018 19.335 27.999H17.9512V27.9893H8.05176V27.999L6.66504 28C5.15142 28.0028 4.87934 26.9447 4.73633 25.4834C4.69019 25.0115 4.52111 24.5583 4.24512 24.167C3.98074 23.7922 3.61317 23.4968 3.18457 23.3135C2.34252 22.9593 1.44434 22.344 1.44434 21.4551V20.5752L1.47363 20.5703V19.5986H1.44434C1.44434 18.1486 1.44181 17.5546 1.40137 17.2061C1.37831 17.0161 1.3735 17.0005 1.17871 16.6299L1.1748 16.6201L1.16895 16.6104C0.400679 15.0942 0.000548929 13.4274 0 11.7383C7.81119e-05 5.15167 5.93094 0 13 0ZM13 2.7998C7.30461 2.7998 2.88875 6.90438 2.88867 11.7383C2.88942 12.9967 3.18742 14.2382 3.75879 15.3682L3.76172 15.375C3.98705 15.802 4.18915 16.1888 4.27148 16.8916L4.27539 16.9199C4.33293 17.0737 4.36257 17.2359 4.3623 17.3994V20.5801C5.68973 20.8265 6.68103 21.2394 7.22559 22.001C7.77013 22.7625 8.04742 23.9094 8.05176 25.1875H17.9512C17.9541 23.9094 18.2328 22.7625 18.7773 22.001C19.3219 21.2395 20.3188 20.8235 21.6533 20.5771V17.3994C21.6529 17.2571 21.6752 17.1154 21.7188 16.9795L21.7285 16.8916C21.8108 16.1889 22.0134 15.8039 22.2373 15.377L22.2402 15.3711C22.8006 14.2596 23.1113 13.0318 23.1113 11.7383C23.1112 6.90438 18.6954 2.7998 13 2.7998ZM13 20C13 20 15 21.0899 15 22.6211C14.9999 23.3361 14.5507 23.9999 13.9375 24C13.5335 24 13.2263 23.7315 13.0303 23.3428C13.0271 23.3365 13.0229 23.3307 13.0176 23.3271C13.0122 23.3236 13.0061 23.3223 13 23.3223C12.9939 23.3223 12.9878 23.3236 12.9824 23.3271C12.9771 23.3307 12.9729 23.3365 12.9697 23.3428C12.7737 23.7315 12.4665 24 12.0625 24C11.448 23.9999 11.0001 23.3361 11 22.6211C11.0009 22.4291 11.0276 22.2444 11.0801 22.0684C11.1039 21.9825 11.1334 21.8991 11.1689 21.8193C11.6529 20.6883 12.9997 20.0001 13 20ZM8.63672 13C10.8474 13.0002 12.2725 14.7577 12.2725 16.5C12.2725 18.2423 10.8474 19.9998 8.63672 20C6.42581 20 5 18.2424 5 16.5C5 14.7576 6.42581 13 8.63672 13ZM17.3633 13C19.5742 13 21 14.7576 21 16.5C21 18.2424 19.5742 20 17.3633 20C15.1526 19.9998 13.7275 18.2423 13.7275 16.5C13.7275 14.7577 15.1526 13.0002 17.3633 13ZM8.63672 15.5459C8.51599 15.5459 8.35533 15.5926 8.19824 15.7529C8.00381 15.9641 7.90153 16.2289 7.90918 16.5C7.90153 16.7711 8.00381 17.0359 8.19824 17.2471C8.35533 17.4074 8.51599 17.4541 8.63672 17.4541C8.7574 17.454 8.91728 17.4073 9.07422 17.2471C9.26874 17.0359 9.37093 16.7712 9.36328 16.5C9.37093 16.2288 9.26873 15.9641 9.07422 15.7529C8.91728 15.5927 8.7574 15.546 8.63672 15.5459ZM17.3633 15.5459C17.2426 15.546 17.0827 15.5927 16.9258 15.7529C16.7313 15.9641 16.6291 16.2288 16.6367 16.5C16.6291 16.7712 16.7313 17.0359 16.9258 17.2471C17.0827 17.4073 17.2426 17.454 17.3633 17.4541C17.484 17.4541 17.6447 17.4074 17.8018 17.2471C17.9962 17.0359 18.0985 16.7711 18.0908 16.5C18.0985 16.2289 17.9962 15.9641 17.8018 15.7529C17.6447 15.5926 17.484 15.5459 17.3633 15.5459Z"
        fill="white" />
</svg>