<svg width="30" height="30" viewBox="0 0 26 30" fill="none" xmlns="http://www.w3.org/2000/svg"
    style="flex-shrink: 0;">
    <path d="M22 19.2H16V17H22V19.2ZM26 28H20V25.8H26V28ZM24 23.6H18V21.4H24V23.6Z" fill="#5084A4" />
    <path
        d="M13.0031 19.2857C12.9956 18.3818 12.7703 17.4952 12.3492 16.7119C11.928 15.9286 11.3252 15.2751 10.5992 14.8146L18 1.07143L16.27 0L8.6932 14.0636C7.76331 13.8411 6.79621 13.8719 5.88032 14.1532C4.96443 14.4346 4.12896 14.9574 3.45031 15.6739C-0.29361 19.5429 -0.00361609 28.5879 0.0103836 28.9714C0.0207205 29.2481 0.130621 29.5097 0.317045 29.7015C0.503469 29.8932 0.751938 30.0002 1.01036 30H16.001C16.2109 30 16.4155 29.9292 16.5857 29.7978C16.756 29.6663 16.8833 29.4807 16.9497 29.2674C17.0161 29.0541 17.0181 28.8237 16.9555 28.6091C16.893 28.3945 16.7689 28.2064 16.601 28.0714C13.0611 25.2257 13.0031 19.3436 13.0031 19.2857ZM7.93021 16.0682C8.73057 16.0776 9.49672 16.4173 10.0693 17.0166C10.6418 17.6159 10.9767 18.4286 11.0041 19.2857C11.0041 19.3264 11.0061 19.5086 11.0211 19.7882L5.12127 16.9768C5.5099 16.6334 5.95837 16.3763 6.4406 16.2203C6.92282 16.0643 7.42918 16.0126 7.93021 16.0682ZM11.4501 27.8571C10.6508 26.9851 10.1414 25.8557 10.0002 24.6429H8.00021C8.07183 25.7832 8.40427 26.887 8.96819 27.8571H6.74524C6.33383 26.4667 6.08362 25.0273 6.00026 23.5714H4.0003C4.0644 25.023 4.28759 26.4614 4.66528 27.8571H2.00034C2.03134 25.89 2.29033 21.5443 3.8033 18.6932L11.3361 22.2825C11.6973 24.2963 12.469 26.1998 13.5961 27.8571H11.4501Z"
        fill="#5084A4" />
</svg>