<svg width="29" height="29" viewBox="0 0 29 29" fill="none" xmlns="http://www.w3.org/2000/svg">
    <path
        d="M23.7836 19.6753C22.2938 19.5955 21.5482 17.8229 21.1857 16.7354C20.8643 15.8086 20.381 14.1774 20.0185 13.1914C19.5955 12.0435 19.4747 11.9625 19.233 11.9625C18.7292 11.9625 18.3461 13.392 17.9643 14.4601C17.1583 16.675 16.5542 19.1122 14.419 19.1122C12.5667 19.1122 11.7414 17.6815 11.1565 16.8357C10.6128 16.031 10.2914 15.8497 9.7875 15.8497C9.14346 15.8497 8.84138 16.4128 8.25654 17.4C7.91458 17.9643 7.53154 18.5479 7.08929 18.931C6.96846 19.0312 5.96071 19.8167 5.01458 19.6958C4.47083 19.6149 4.08779 19.2935 4.08779 18.7497C4.08779 18.0042 4.91429 17.8628 5.37708 17.6815C5.77946 17.5414 6.26279 16.8164 6.50446 16.4128C7.14971 15.306 7.975 13.856 9.82738 13.856C11.4586 13.856 12.244 14.9024 12.8482 15.7289C13.392 16.4732 13.7146 17.0774 14.3393 17.0979C14.8625 17.1185 15.5875 15.144 16.0104 13.775C16.6545 11.681 17.5003 9.74763 19.192 9.74763C21.4685 9.74763 22.133 12.9292 22.8375 15.3664C22.9378 15.7289 23.1795 16.4937 23.2399 16.594C23.5625 17.2792 23.8247 17.7226 24.1063 17.8628C24.4289 18.044 24.9521 18.3872 24.7914 18.9914C24.6899 19.4542 24.267 19.6958 23.7836 19.6753ZM14.5 0C6.48513 0 0 6.48513 0 14.5C0 22.5149 6.48513 29 14.5 29C22.5149 29 29 22.5149 29 14.5C29 6.48513 22.5149 0 14.5 0ZM14.5 26.6039C12.9104 26.6042 11.3363 26.2913 9.86767 25.6832C8.39902 25.075 7.06457 24.1835 5.94056 23.0594C4.81655 21.9354 3.925 20.601 3.31683 19.1323C2.70867 17.6637 2.39581 16.0896 2.39613 14.5C2.39581 12.9104 2.70867 11.3363 3.31683 9.86767C3.925 8.39902 4.81655 7.06457 5.94056 5.94056C7.06457 4.81655 8.39902 3.925 9.86767 3.31683C11.3363 2.70867 12.9104 2.39581 14.5 2.39613C16.0896 2.39581 17.6637 2.70867 19.1323 3.31683C20.601 3.925 21.9354 4.81655 23.0594 5.94056C24.1835 7.06457 25.075 8.39902 25.6832 9.86767C26.2913 11.3363 26.6042 12.9104 26.6039 14.5C26.6042 16.0896 26.2913 17.6637 25.6832 19.1323C25.075 20.601 24.1835 21.9354 23.0594 23.0594C21.9354 24.1835 20.601 25.075 19.1323 25.6832C17.6637 26.2913 16.0896 26.6042 14.5 26.6039Z"
        fill="white" />
</svg>