<svg xmlns="http://www.w3.org/2000/svg" width="33" height="33" viewBox="0 0 33 33" fill="none">
    <path
        d="M25.9875 28.8742L18.4594 21.3461L21.3469 18.4586L28.875 25.9867L25.9875 28.8742ZM7.0125 28.8742L4.125 25.9867L13.6125 16.4992L11.275 14.1617L10.3125 15.1242L8.55937 13.3711V16.1898L7.59688 17.1523L3.4375 12.993L4.4 12.0305H7.21875L5.5 10.3117L10.3813 5.43047C10.8396 4.97214 11.3323 4.63985 11.8594 4.4336C12.3865 4.22735 12.925 4.12422 13.475 4.12422C14.025 4.12422 14.5635 4.22735 15.0906 4.4336C15.6177 4.63985 16.1104 4.97214 16.5688 5.43047L13.4062 8.59297L15.125 10.3117L14.1625 11.2742L16.5 13.6117L19.5938 10.518C19.5021 10.2659 19.4278 10.0023 19.371 9.72734C19.3142 9.45234 19.2853 9.17735 19.2844 8.90235C19.2844 7.55026 19.7487 6.40993 20.6772 5.48135C21.6058 4.55276 22.7457 4.08893 24.0969 4.08985C24.4406 4.08985 24.7674 4.12422 25.0773 4.19297C25.3871 4.26172 25.702 4.36485 26.0219 4.50235L22.6188 7.90547L25.0938 10.3805L28.4969 6.97734C28.6573 7.29818 28.7664 7.61305 28.8241 7.92197C28.8819 8.23089 28.9103 8.55768 28.9094 8.90235C28.9094 10.2544 28.4455 11.3948 27.5179 12.3233C26.5902 13.2519 25.4499 13.7158 24.0969 13.7148C23.8219 13.7148 23.5469 13.6919 23.2719 13.6461C22.9969 13.6003 22.7333 13.5201 22.4813 13.4055L7.0125 28.8742Z"
        fill="#6E9FBB" />
</svg>