<svg xmlns="http://www.w3.org/2000/svg" width="33" height="33" viewBox="0 0 33 33" fill="none">
    <path
        d="M16.5 15.825C15.6002 15.825 14.7372 15.4694 14.1009 14.8365C13.4646 14.2036 13.1071 13.3451 13.1071 12.45C13.1071 11.5549 13.4646 10.6965 14.1009 10.0635C14.7372 9.43058 15.6002 9.075 16.5 9.075C17.3998 9.075 18.2628 9.43058 18.8991 10.0635C19.5354 10.6965 19.8929 11.5549 19.8929 12.45C19.8929 12.8932 19.8051 13.3321 19.6346 13.7416C19.4641 14.151 19.2142 14.5231 18.8991 14.8365C18.5841 15.1499 18.21 15.3985 17.7984 15.5681C17.3868 15.7377 16.9456 15.825 16.5 15.825ZM16.5 3C13.9804 3 11.5641 3.99562 9.78249 5.76784C8.00089 7.54006 7 9.9437 7 12.45C7 19.5375 16.5 30 16.5 30C16.5 30 26 19.5375 26 12.45C26 9.9437 24.9991 7.54006 23.2175 5.76784C21.4359 3.99562 19.0196 3 16.5 3Z"
        fill="#467E9E" />
</svg>