<svg width="30" height="30" viewBox="0 0 30 30" fill="none" xmlns="http://www.w3.org/2000/svg"
    style="flex-shrink: 0;">
    <path
        d="M27.1874 15.0001C27.1869 13.6107 26.6681 12.2715 25.7324 11.2445C26.0675 10.6782 26.2461 10.0331 26.2499 9.3751C26.2496 8.75834 26.0973 8.15116 25.8063 7.60736C25.5153 7.06356 25.0947 6.59992 24.5817 6.25752C24.0687 5.91513 23.4792 5.70455 22.8653 5.64444C22.2515 5.58433 21.6323 5.67654 21.0627 5.91292C20.3697 4.9532 19.4588 4.17171 18.4049 3.63275C17.3509 3.09379 16.1841 2.81274 15.0003 2.81274C13.8166 2.81274 12.6497 3.09379 11.5958 3.63275C10.5419 4.17171 9.63096 4.9532 8.93799 5.91292C8.21499 5.60679 7.41385 5.53648 6.64858 5.71198C5.8833 5.88748 5.19287 6.29985 4.6755 6.89043C4.15814 7.48101 3.8402 8.2197 3.76692 9.00142C3.69365 9.78313 3.86877 10.568 4.26736 11.2445C3.33164 12.2715 2.81299 13.6108 2.81299 15.0001C2.81299 16.3894 3.33164 17.7288 4.26736 18.7557C3.93221 19.322 3.75361 19.9671 3.74986 20.6251C3.75011 21.2419 3.90247 21.849 4.19345 22.3928C4.48444 22.9367 4.90506 23.4003 5.41805 23.7427C5.93104 24.0851 6.52056 24.2957 7.13438 24.3558C7.74821 24.4159 8.36738 24.3237 8.93705 24.0873C9.63002 25.047 10.5409 25.8285 11.5949 26.3675C12.6488 26.9064 13.8156 27.1875 14.9994 27.1875C16.1831 27.1875 17.35 26.9064 18.4039 26.3675C19.4579 25.8285 20.3688 25.047 21.0617 24.0873C21.7847 24.3934 22.5859 24.4637 23.3512 24.2882C24.1164 24.1127 24.8069 23.7004 25.3242 23.1098C25.8416 22.5192 26.1595 21.7805 26.2328 20.9988C26.3061 20.2171 26.131 19.4322 25.7324 18.7557C26.6681 17.7287 27.1869 16.3895 27.1874 15.0001Z"
        fill="#5185A5" />
    <path
        d="M13.125 4.68752C14.3093 4.68916 15.4763 4.9712 16.5306 5.51056C17.5848 6.04991 18.4964 6.83126 19.1907 7.79065C19.6444 7.59831 20.1322 7.49947 20.625 7.50002C21.2838 7.49552 21.932 7.66583 22.5035 7.99358C23.075 8.32132 23.5493 8.79477 23.8781 9.36564C24.2069 9.93652 24.3784 10.5844 24.3751 11.2432C24.3718 11.9019 24.1939 12.5481 23.8594 13.1156C24.7928 14.1455 25.3106 15.4852 25.3125 16.875C25.294 17.5285 25.439 18.1762 25.7344 18.7594C26.6695 17.7306 27.1876 16.3903 27.1876 15C27.1876 13.6098 26.6695 12.2694 25.7344 11.2406C26.0689 10.6731 26.2468 10.0269 26.2501 9.36817C26.2534 8.70938 26.0819 8.06152 25.7531 7.49064C25.4243 6.91977 24.95 6.44632 24.3785 6.11858C23.807 5.79083 23.1588 5.62052 22.5 5.62502C22.0072 5.62447 21.5194 5.72331 21.0657 5.91565C20.3726 4.955 19.4613 4.17269 18.4068 3.63315C17.3522 3.09361 16.1846 2.81226 15 2.81226C13.8155 2.81226 12.6479 3.09361 11.5933 3.63315C10.5388 4.17269 9.62747 4.955 8.93441 5.91565C8.49379 5.72815 10.6313 4.68752 13.125 4.68752Z"
        fill="white" />
    <path
        d="M28.1251 15.0001C28.1245 13.6016 27.6738 12.2404 26.8398 11.1179C27.0693 10.5655 27.1875 9.97323 27.1876 9.37506C27.1875 8.66533 27.0263 7.96489 26.716 7.32656C26.4058 6.68823 25.9547 6.12868 25.3967 5.69012C24.8387 5.25155 24.1883 4.94542 23.4948 4.79481C22.8012 4.6442 22.0825 4.65305 21.3929 4.82068C20.6032 3.89705 19.6228 3.15548 18.5192 2.64701C17.4155 2.13854 16.2148 1.87524 14.9996 1.87524C13.7844 1.87524 12.5837 2.13854 11.48 2.64701C10.3764 3.15548 9.39596 3.89705 8.60632 4.82068C7.91674 4.65321 7.19813 4.64449 6.50469 4.79518C5.81125 4.94586 5.16107 5.25202 4.60318 5.69057C4.04529 6.12912 3.59426 6.68861 3.28408 7.32685C2.9739 7.9651 2.81267 8.66544 2.81257 9.37506C2.81264 9.97323 2.93084 10.5655 3.16038 11.1179C2.32574 12.2401 1.875 13.6015 1.875 15.0001C1.875 16.3986 2.32574 17.76 3.16038 18.8822C2.93084 19.4346 2.81264 20.0269 2.81257 20.6251C2.81264 21.3348 2.97387 22.0352 3.28411 22.6736C3.59434 23.3119 4.04547 23.8714 4.60347 24.31C5.16148 24.7486 5.81178 25.0547 6.50535 25.2053C7.19891 25.3559 7.91761 25.3471 8.60725 25.1794C9.39689 26.1031 10.3773 26.8446 11.481 27.3531C12.5846 27.8616 13.7854 28.1249 15.0005 28.1249C16.2157 28.1249 17.4164 27.8616 18.5201 27.3531C19.6238 26.8446 20.6042 26.1031 21.3938 25.1794C22.0834 25.3469 22.802 25.3556 23.4954 25.2049C24.1889 25.0543 24.8391 24.7481 25.3969 24.3095C25.9548 23.871 26.4059 23.3115 26.7161 22.6733C27.0262 22.035 27.1875 21.3347 27.1876 20.6251C27.1875 20.0269 27.0693 19.4346 26.8398 18.8822C27.6738 17.7597 28.1245 16.3985 28.1251 15.0001ZM25.0369 18.1266C24.9038 18.274 24.821 18.4597 24.8002 18.6572C24.7795 18.8547 24.822 19.0536 24.9216 19.2254C25.1743 19.6488 25.3093 20.132 25.3126 20.6251C25.3126 21.371 25.0163 22.0863 24.4888 22.6138C23.9614 23.1412 23.246 23.4376 22.5001 23.4376C22.1306 23.4379 21.7647 23.3646 21.4238 23.2219C21.229 23.1408 21.0125 23.1277 20.8094 23.1849C20.6063 23.2421 20.4283 23.3661 20.3044 23.5369C19.6984 24.3768 18.9016 25.0607 17.9796 25.5324C17.0575 26.0041 16.0367 26.25 15.001 26.25C13.9653 26.25 12.9445 26.0041 12.0224 25.5324C11.1004 25.0607 10.3036 24.3768 9.69757 23.5369C9.57367 23.3661 9.39576 23.2421 9.19262 23.1849C8.98948 23.1277 8.773 23.1408 8.57819 23.2219C8.23673 23.3648 7.87021 23.4381 7.50007 23.4376C6.75414 23.4376 6.03877 23.1412 5.51133 22.6138C4.98388 22.0863 4.68757 21.371 4.68757 20.6251C4.69082 20.132 4.82579 19.6488 5.0785 19.2254C5.17811 19.0536 5.22061 18.8547 5.19989 18.6572C5.17917 18.4597 5.09628 18.274 4.96319 18.1266C4.18286 17.2723 3.75019 16.1571 3.75019 15.0001C3.75019 13.843 4.18286 12.7278 4.96319 11.8735C5.09628 11.7262 5.17917 11.5404 5.19989 11.3429C5.22061 11.1454 5.17811 10.9465 5.0785 10.7747C4.82579 10.3514 4.69082 9.86812 4.68757 9.37506C4.68757 8.62914 4.98388 7.91377 5.51133 7.38632C6.03877 6.85887 6.75414 6.56256 7.50007 6.56256C7.86957 6.56226 8.23544 6.63556 8.57632 6.77818C8.77112 6.85932 8.9876 6.87237 9.19074 6.8152C9.39388 6.75804 9.57179 6.63401 9.69569 6.46318C10.3017 5.62333 11.0985 4.93942 12.0206 4.46773C12.9426 3.99605 13.9635 3.75008 14.9991 3.75008C16.0348 3.75008 17.0557 3.99605 17.9777 4.46773C18.8997 4.93942 19.6965 5.62333 20.3026 6.46318C20.4265 6.63401 20.6044 6.75804 20.8075 6.8152C21.0107 6.87237 21.2271 6.85932 21.4219 6.77818C21.7634 6.63532 22.1299 6.56201 22.5001 6.56256C23.246 6.56256 23.9614 6.85887 24.4888 7.38632C25.0163 7.91377 25.3126 8.62914 25.3126 9.37506C25.3093 9.86812 25.1743 10.3514 24.9216 10.7747C24.822 10.9465 24.7795 11.1454 24.8002 11.3429C24.821 11.5404 24.9038 11.7262 25.0369 11.8735C25.8173 12.7278 26.2499 13.843 26.2499 15.0001C26.2499 16.1571 25.8173 17.2723 25.0369 18.1266Z"
        fill="#31708F" />
    <path
        d="M14.0625 9.375C13.0679 9.375 12.1141 9.77009 11.4108 10.4733C10.7076 11.1766 10.3125 12.1304 10.3125 13.125V16.875C10.3125 17.8696 10.7076 18.8234 11.4108 19.5266C12.1141 20.2299 13.0679 20.625 14.0625 20.625C15.0571 20.625 16.0109 20.2299 16.7141 19.5266C17.4174 18.8234 17.8125 17.8696 17.8125 16.875V13.125C17.8125 12.1304 17.4174 11.1766 16.7141 10.4733C16.0109 9.77009 15.0571 9.375 14.0625 9.375ZM15.9375 16.875C15.9375 17.3723 15.74 17.8492 15.3883 18.2008C15.0367 18.5525 14.5598 18.75 14.0625 18.75C13.5652 18.75 13.0883 18.5525 12.7367 18.2008C12.385 17.8492 12.1875 17.3723 12.1875 16.875V13.125C12.1875 12.6277 12.385 12.1508 12.7367 11.7992C13.0883 11.4475 13.5652 11.25 14.0625 11.25C14.5598 11.25 15.0367 11.4475 15.3883 11.7992C15.74 12.1508 15.9375 12.6277 15.9375 13.125V16.875ZM20.1562 15.4688H19.2188C19.0944 15.4688 18.9752 15.5181 18.8873 15.606C18.7994 15.694 18.75 15.8132 18.75 15.9375C18.75 16.0618 18.7994 16.181 18.8873 16.269C18.9752 16.3569 19.0944 16.4062 19.2188 16.4062H20.1562C20.2806 16.4062 20.3998 16.4556 20.4877 16.5435C20.5756 16.6315 20.625 16.7507 20.625 16.875C20.625 16.9993 20.5756 17.1185 20.4877 17.2065C20.3998 17.2944 20.2806 17.3438 20.1562 17.3438H19.2188C19.0944 17.3438 18.9752 17.3931 18.8873 17.481C18.7994 17.569 18.75 17.6882 18.75 17.8125C18.75 17.9368 18.7994 18.056 18.8873 18.144C18.9752 18.2319 19.0944 18.2812 19.2188 18.2812H20.1562C20.2806 18.2812 20.3998 18.3306 20.4877 18.4185C20.5756 18.5065 20.625 18.6257 20.625 18.75C20.625 18.8743 20.5756 18.9935 20.4877 19.0815C20.3998 19.1694 20.2806 19.2188 20.1562 19.2188H19.2188C19.0944 19.2188 18.9752 19.2681 18.8873 19.356C18.7994 19.444 18.75 19.5632 18.75 19.6875C18.75 19.8118 18.7994 19.931 18.8873 20.019C18.9752 20.1069 19.0944 20.1562 19.2188 20.1562H20.1562C20.4276 20.1561 20.6932 20.0774 20.9208 19.9296C21.1485 19.7819 21.3285 19.5714 21.4392 19.3237C21.5499 19.0759 21.5866 18.8014 21.5447 18.5332C21.5029 18.2651 21.3844 18.0148 21.2034 17.8125C21.3844 17.6102 21.5029 17.3599 21.5447 17.0918C21.5866 16.8236 21.5499 16.5491 21.4392 16.3013C21.3285 16.0536 21.1485 15.8431 20.9208 15.6954C20.6932 15.5476 20.4276 15.4689 20.1562 15.4688Z"
        fill="#F8FAFB" />
</svg>