<svg xmlns="http://www.w3.org/2000/svg" width="27" height="27" viewBox="0 0 27 27" fill="none">
    <g clip-path="url(#clip0_316_298)">
        <path
            d="M2.84829 1.46764L3.84153 0.474399C4.14538 0.170641 4.55743 0 4.98707 0C5.41672 0 5.82877 0.170641 6.13262 0.474399L10.3227 4.66447C10.6264 4.96832 10.7971 5.38037 10.7971 5.81002C10.7971 6.23966 10.6264 6.65171 10.3227 6.95556L7.41751 9.86074C7.18138 10.0967 7.02564 10.4011 6.97241 10.7307C6.91918 11.0603 6.97117 11.3982 7.121 11.6965C8.89219 15.2369 11.7631 18.1078 15.3035 19.879C15.602 20.0286 15.94 20.0804 16.2696 20.0268C16.5991 19.9733 16.9035 19.8173 17.1393 19.5809L20.0444 16.6773C20.3483 16.3735 20.7603 16.2029 21.19 16.2029C21.6196 16.2029 22.0317 16.3735 22.3355 16.6773L26.5256 20.8674C26.8294 21.1712 27 21.5833 27 22.0129C27 22.4426 26.8294 22.8546 26.5256 23.1585L25.5324 24.1517C23.8777 25.8068 21.6815 26.8094 19.3471 26.9755C17.0127 27.1416 14.6967 26.46 12.8244 25.0558L10.8671 23.5862C8.04208 21.4675 5.53254 18.9579 3.41377 16.1329L1.94417 14.1756C0.540037 12.3033 -0.141561 9.98729 0.0245246 7.65287C0.19061 5.31845 1.19323 3.12229 2.84829 1.46764Z"
            fill="#467E9E" />
    </g>
    <defs>
        <clipPath id="clip0_316_298">
            <rect width="27" height="27" fill="white" />
        </clipPath>
    </defs>
</svg>