<svg width="33" height="33" viewBox="0 0 33 33" fill="none" xmlns="http://www.w3.org/2000/svg">
    <path
        d="M16.5314 2.24813C16.6326 2.07454 16.6977 1.88255 16.7227 1.68354C16.7478 1.48453 16.7323 1.28256 16.6772 1.0896C16.622 0.896649 16.5284 0.716637 16.4018 0.560243C16.2752 0.403848 16.1183 0.274256 15.9402 0.17915C15.7622 0.0840444 15.5667 0.0253618 15.3654 0.00658209C15.1641 -0.0121976 14.961 0.00930808 14.7683 0.0698237C14.5755 0.130339 14.3969 0.228633 14.2431 0.358876C14.0894 0.489118 13.9635 0.648658 13.8731 0.828035L9.37975 9.10296C8.1337 11.3979 6.22912 13.7797 4.23392 15.3631C3.17667 16.202 1.80223 17.4438 0.917154 18.9223C0.0109325 20.4383 -0.496551 22.4396 0.713255 24.4409C1.17124 25.1982 1.78376 25.8522 2.51152 26.3609C3.23928 26.8696 4.06621 27.2218 4.93927 27.395L6.18381 27.6422C7.02509 27.8069 8.02495 28.1919 8.77712 28.7102C9.57006 29.2585 9.77396 29.7229 9.77396 30H12.7947C12.7947 28.911 12.3265 28.0137 11.7072 27.3096L11.7374 27.3021C13.3958 26.8602 15.1932 25.6049 16.1583 24.2013C13.8701 22.6538 11.6574 21.6292 8.8179 22.4246C7.37096 22.8291 6.31219 23.3953 5.31686 24.4065C4.47428 24.1818 3.75251 23.6415 3.30354 22.8995C2.87157 22.185 2.9335 21.4225 3.51499 20.4518C4.11763 19.4436 5.14921 18.4744 6.12189 17.703C8.47806 15.8305 10.6303 13.1191 12.0395 10.5231L16.5314 2.24813ZM17.8454 20.5057C18.2899 21.0048 18.6169 21.5956 18.8028 22.2354C18.9887 22.8753 19.0288 23.5481 18.9203 24.2052C18.8117 24.8623 18.5572 25.4873 18.1751 26.0348C17.793 26.5824 17.2929 27.0388 16.7111 27.371L18.2245 29.964C19.1931 29.4093 20.0254 28.6481 20.6612 27.7354C21.297 26.8227 21.7205 25.7813 21.901 24.6865C22.0815 23.5917 22.0146 22.4708 21.705 21.4047C21.3954 20.3387 20.8509 19.3542 20.1109 18.5224L17.8454 20.5057Z"
        fill="#6E9FBB" />
</svg>