<svg width="35" height="35" viewBox="0 0 35 35" fill="none" xmlns="http://www.w3.org/2000/svg">
    <g clip-path="url(#clip0_108_627)">
        <path
            d="M17.5 0C12.8598 0 8.40547 1.84488 5.12695 5.12559C1.84508 8.40761 0.000939117 12.8586 0 17.5C0 22.1394 1.8457 26.5937 5.12695 29.8744C8.40547 33.1551 12.8598 35 17.5 35C22.1402 35 26.5945 33.1551 29.873 29.8744C33.1543 26.5937 35 22.1394 35 17.5C35 12.8606 33.1543 8.40629 29.873 5.12559C26.5945 1.84488 22.1402 0 17.5 0Z"
            fill="url(#paint0_linear_108_627)" />
        <path
            d="M7.92148 17.3156C13.0238 15.0931 16.4254 13.6278 18.1262 12.9198C22.9879 10.8982 23.9969 10.5472 24.6559 10.5353C24.8008 10.5329 25.1234 10.5688 25.334 10.739C25.509 10.8825 25.5582 11.0767 25.5828 11.213C25.6047 11.3491 25.6348 11.6595 25.6102 11.9018C25.3477 14.669 24.2074 21.384 23.6277 24.4834C23.3844 25.7949 22.9004 26.2345 22.4328 26.2775C21.4156 26.371 20.6445 25.6059 19.6602 24.9609C18.1207 23.9511 17.2512 23.3227 15.7555 22.3375C14.0273 21.1989 15.1484 20.573 16.1328 19.5504C16.3898 19.2827 20.8687 15.2098 20.9535 14.8404C20.9645 14.7942 20.9754 14.6219 20.8715 14.5311C20.7703 14.4401 20.6199 14.4713 20.5105 14.4959C20.3547 14.5309 17.8965 16.1573 13.1277 19.3748C12.4305 19.8544 11.7988 20.0882 11.2301 20.0759C10.6066 20.0625 9.40351 19.7226 8.50937 19.4322C7.41562 19.0759 6.54335 18.8875 6.61992 18.2824C6.6582 17.9674 7.09296 17.645 7.92148 17.3156Z"
            fill="white" />
    </g>
    <defs>
        <linearGradient id="paint0_linear_108_627" x1="1750" y1="0" x2="1750" y2="3500"
            gradientUnits="userSpaceOnUse">
            <stop stop-color="#2AABEE" />
            <stop offset="1" stop-color="#229ED9" />
        </linearGradient>
        <clipPath id="clip0_108_627">
            <rect width="35" height="35" fill="white" />
        </clipPath>
    </defs>
</svg>