<svg width="33" height="33" viewBox="0 0 33 33" fill="none" xmlns="http://www.w3.org/2000/svg">
    <path d="M15.7773 15.7797L9.66699 9.66943" stroke="#6E9FBB" stroke-width="2" />
    <path
        d="M8.44554 11.5019L11.5007 8.44676L7.83451 6.61367L6.61245 7.83573L8.44554 11.5019ZM26.7459 13.3044C27.3326 12.7182 27.7362 11.9741 27.9077 11.1626C28.0791 10.3512 28.0108 9.50735 27.7113 8.73394L25.9735 10.4717H23.5294V8.02759L25.2672 6.28982C24.4937 5.98961 23.6497 5.92084 22.8378 6.09187C22.0259 6.2629 21.2814 6.66637 20.6948 7.2531C20.1081 7.83984 19.7049 8.58451 19.534 9.39641C19.3631 10.2083 19.4321 11.0524 19.7325 11.8258L11.8258 19.7337C11.0524 19.4333 10.2083 19.3644 9.39641 19.5352C8.58451 19.7061 7.83984 20.1094 7.2531 20.696C6.66637 21.2826 6.2629 22.0272 6.09187 22.839C5.92084 23.6509 5.98961 24.495 6.28982 25.2684L8.02637 23.5306H10.4705V25.9748L8.73272 27.7125C9.50599 28.0127 10.3499 28.0816 11.1616 27.9108C11.9733 27.74 12.7178 27.3368 13.3045 26.7504C13.8912 26.164 14.2947 25.4196 14.4658 24.608C14.637 23.7963 14.5685 22.9524 14.2687 22.179L22.1778 14.2699C22.9509 14.5689 23.7942 14.6368 24.6052 14.4654C25.4162 14.294 26.1599 13.8907 26.7459 13.3044Z"
        stroke="#6E9FBB" stroke-width="2" stroke-linejoin="round" />
    <path
        d="M16.7524 20.0566L23.6009 26.9051C23.7541 27.0586 23.9361 27.1804 24.1365 27.2635C24.3368 27.3466 24.5516 27.3894 24.7685 27.3894C24.9855 27.3894 25.2002 27.3466 25.4006 27.2635C25.601 27.1804 25.783 27.0586 25.9362 26.9051L26.9041 25.9372C27.0576 25.784 27.1794 25.602 27.2625 25.4016C27.3456 25.2012 27.3884 24.9864 27.3884 24.7695C27.3884 24.5526 27.3456 24.3378 27.2625 24.1375C27.1794 23.9371 27.0576 23.7551 26.9041 23.6018L20.0557 16.7534"
        stroke="#6E9FBB" stroke-width="2" stroke-linejoin="round" />
</svg>