<svg xmlns="http://www.w3.org/2000/svg" width="33" height="33" viewBox="0 0 33 33" fill="none">
    <path
        d="M4.125 28.8711C4.125 29.2774 4.20502 29.6797 4.3605 30.055C4.51597 30.4304 4.74386 30.7714 5.03114 31.0587C5.31842 31.346 5.65947 31.5739 6.03482 31.7293C6.41017 31.8848 6.81247 31.9648 7.21875 31.9648C7.62503 31.9648 8.02733 31.8848 8.40268 31.7293C8.77803 31.5739 9.11908 31.346 9.40636 31.0587C9.69364 30.7714 9.92153 30.4304 10.077 30.055C10.2325 29.6797 10.3125 29.2774 10.3125 28.8711C10.3125 28.0506 9.98655 27.2637 9.40636 26.6835C8.82617 26.1033 8.03926 25.7773 7.21875 25.7773C6.39824 25.7773 5.61133 26.1033 5.03114 26.6835C4.45095 27.2637 4.125 28.0506 4.125 28.8711Z"
        stroke="#6E9FBB" stroke-width="1.5" stroke-linecap="round" stroke-linejoin="round" />
    <path
        d="M10.1324 29.9023L20.625 31.9648L26.8125 7.21484H6.1875M6.1875 7.21484V25.9533M6.1875 7.21484V3.08984C6.1875 2.54283 6.4048 2.01823 6.79159 1.63144C7.17839 1.24464 7.70299 1.02734 8.25 1.02734H22.6875C24.3285 1.02734 25.9023 1.67924 27.0627 2.83962C28.2231 4 28.875 5.57382 28.875 7.21484H6.1875Z"
        stroke="#6E9FBB" stroke-width="1.5" stroke-linecap="round" stroke-linejoin="round" />
</svg>