<svg width="29" height="29" viewBox="0 0 29 29" fill="none" xmlns="http://www.w3.org/2000/svg">
    <path
        d="M5.0752 16.6416C5.47862 16.6413 5.87428 16.7533 6.21777 16.9648C6.56134 17.1766 6.83938 17.4802 7.02051 17.8408L8.27344 17.0918C8.80105 16.7757 9.41583 16.6354 10.0283 16.6914L17.1533 17.3369C17.9531 17.4078 18.7033 17.7551 19.2744 18.3193C19.8455 18.8836 20.2026 19.629 20.2832 20.4277L24.0938 19.1602C24.986 18.8637 25.9596 18.9335 26.8008 19.3535L27.0791 19.4912C27.6397 19.7699 28.1082 20.2044 28.4287 20.7422C28.7491 21.2798 28.9082 21.898 28.8867 22.5234C28.8652 23.1491 28.6644 23.7561 28.3076 24.2705C27.9509 24.7848 27.4533 25.1854 26.875 25.4248L19.1377 28.6426C18.6796 28.8347 18.1906 28.9441 17.6943 28.9658C16.965 28.9948 15.4734 29.038 14.3672 28.9365C11.8833 28.7074 10.4299 28.3157 8.15332 27.3877C7.81266 27.25 7.43857 27.0777 7.07617 26.9023C6.90813 27.2936 6.62911 27.6273 6.27344 27.8613C5.91781 28.0953 5.5009 28.2192 5.0752 28.2188H2.1748C0.974188 28.2187 0 27.247 0 26.0479V18.8125C4.3208e-05 17.6134 0.974214 16.6416 2.1748 16.6416H5.0752ZM7.25 21.0791V23.7412C7.89975 24.0952 8.56647 24.4177 9.24707 24.708C11.2944 25.5403 12.4675 25.8536 14.6338 26.0537C15.5241 26.1363 16.8391 26.1037 17.5742 26.0732C17.7278 26.066 17.8789 26.0315 18.0205 25.9717L25.7578 22.7539C25.8234 22.7268 25.8804 22.6814 25.9209 22.623C25.9614 22.5647 25.9839 22.4958 25.9863 22.4248C25.9888 22.3539 25.9709 22.2836 25.9346 22.2227C25.8982 22.1617 25.8448 22.1126 25.7812 22.0811L25.5029 21.9414C25.3496 21.8657 25.1722 21.8538 25.0098 21.9072L19.5322 23.7295C19.2345 23.8281 18.9284 23.8779 18.6152 23.8779H12.3252V20.9834H17.4004V20.7773C17.3999 20.6379 17.347 20.5033 17.2529 20.4004C17.1589 20.2977 17.0302 20.2337 16.8916 20.2207L9.76562 19.5752L7.25 21.0791ZM2.89941 25.3271H4.34961V19.5391H2.89941V25.3271ZM16.6748 13.0205C17.0593 13.0205 17.4283 13.1735 17.7002 13.4453C17.9721 13.7172 18.1249 14.0862 18.125 14.4707V15.1963C18.1249 15.5807 17.9721 15.9498 17.7002 16.2217C17.4283 16.4935 17.0593 16.6455 16.6748 16.6455C16.2903 16.6455 15.9213 16.4935 15.6494 16.2217C15.3776 15.9498 15.2247 15.5807 15.2246 15.1963V14.4707C15.2247 14.0862 15.3775 13.7172 15.6494 13.4453C15.9213 13.1734 16.2903 13.0206 16.6748 13.0205ZM9.25684 13.166C9.65705 12.4744 10.5442 12.238 11.2373 12.6367C11.4021 12.7315 11.5462 12.8581 11.6621 13.0088C11.7779 13.1594 11.8628 13.3312 11.9121 13.5146C11.9614 13.6982 11.974 13.8897 11.9492 14.0781C11.9244 14.2666 11.8627 14.4487 11.7676 14.6133L11.4053 15.2393C11.213 15.5722 10.8967 15.8155 10.5254 15.915C10.154 16.0146 9.75782 15.9627 9.4248 15.7705C9.25988 15.6757 9.11501 15.5492 8.99902 15.3984C8.88308 15.2477 8.79834 15.0753 8.74902 14.8916C8.69972 14.7079 8.687 14.5158 8.71191 14.3271C8.73685 14.1386 8.79924 13.9566 8.89453 13.792L9.25684 13.166ZM21.9316 12.6367C22.2644 12.4444 22.6599 12.392 23.0312 12.4912C23.4027 12.5905 23.7196 12.8332 23.9121 13.166L24.2744 13.792C24.3697 13.9566 24.4321 14.1386 24.457 14.3271C24.4819 14.5158 24.4692 14.7079 24.4199 14.8916C24.3706 15.0753 24.2859 15.2477 24.1699 15.3984C24.0539 15.5492 23.9091 15.6757 23.7441 15.7705C23.051 16.1693 22.1629 15.9324 21.7627 15.2393L21.4004 14.6133C21.3053 14.4487 21.2435 14.2666 21.2188 14.0781C21.194 13.8898 21.2066 13.6981 21.2559 13.5146C21.3051 13.3313 21.3902 13.1594 21.5059 13.0088C21.6217 12.8581 21.7669 12.7315 21.9316 12.6367ZM16.6748 8.67969C17.0594 8.67969 17.4283 8.83256 17.7002 9.10449C17.9721 9.37642 18.125 9.74534 18.125 10.1299V10.8545C18.125 11.2391 17.9721 11.608 17.7002 11.8799C17.4283 12.1518 17.0594 12.3047 16.6748 12.3047C16.2903 12.3046 15.9213 12.1518 15.6494 11.8799C15.3776 11.608 15.2246 11.239 15.2246 10.8545V10.1299C15.2246 9.74542 15.3776 9.3764 15.6494 9.10449C15.9213 8.8326 16.2903 8.67974 16.6748 8.67969ZM19.7559 8.87695C20.0887 8.68456 20.485 8.6322 20.8564 8.73145C21.2278 8.83073 21.5448 9.07352 21.7373 9.40625L22.0996 10.0322C22.1949 10.1968 22.2563 10.3788 22.2812 10.5674C22.3062 10.756 22.2944 10.9481 22.2451 11.1318C22.1958 11.3155 22.1101 11.4879 21.9941 11.6387C21.8782 11.7893 21.7341 11.916 21.5693 12.0107C21.2364 12.203 20.8402 12.2547 20.4688 12.1553C20.0973 12.0557 19.7802 11.8125 19.5879 11.4795L19.2256 10.8535C19.1305 10.6889 19.0687 10.5068 19.0439 10.3184C19.0192 10.1299 19.0318 9.93843 19.0811 9.75488C19.1303 9.57146 19.2153 9.39961 19.3311 9.24902C19.4468 9.09847 19.5913 8.97172 19.7559 8.87695ZM12.3125 8.73145C12.6839 8.63221 13.0793 8.68463 13.4121 8.87695C13.5769 8.97175 13.722 9.09834 13.8379 9.24902C13.9536 9.39959 14.0386 9.5715 14.0879 9.75488C14.1372 9.93841 14.1498 10.13 14.125 10.3184C14.1002 10.5068 14.0385 10.6889 13.9434 10.8535L13.5811 11.4795C13.1808 12.1726 12.2927 12.4095 11.5996 12.0107C11.4348 11.916 11.2907 11.7892 11.1748 11.6387C11.0589 11.488 10.9731 11.3155 10.9238 11.1318C10.8745 10.9481 10.8618 10.756 10.8867 10.5674C10.9116 10.3788 10.974 10.1968 11.0693 10.0322L11.4316 9.40625C11.6242 9.07347 11.9411 8.83069 12.3125 8.73145ZM29.001 7.23535H11.6006V2.89355C11.6008 1.29585 12.8988 0 14.501 0H29.001V7.23535ZM14.501 4.34082H26.1016V2.89355H14.501V4.34082Z"
        fill="white" />
</svg>