<svg xmlns="http://www.w3.org/2000/svg" width="35" height="35" viewBox="0 0 35 35" fill="none">
    <g clip-path="url(#clip0_4249_230)">
        <path
            d="M29.75 0H5.25C2.35051 0 0 2.35051 0 5.25V29.75C0 32.6495 2.35051 35 5.25 35H29.75C32.6495 35 35 32.6495 35 29.75V5.25C35 2.35051 32.6495 0 29.75 0Z"
            fill="#45D354" />
        <path
            d="M21.0547 18.6621C20.8496 18.5254 20.6445 18.457 20.4395 18.7305L19.6191 19.8242C19.4141 19.9609 19.2773 20.0293 19.0039 19.8926C17.9785 19.3457 16.543 18.7305 15.3125 16.6797C15.2441 16.4062 15.3809 16.2695 15.5176 16.1328L16.1328 15.1758C16.2695 15.0391 16.2012 14.9023 16.1328 14.7656L15.3125 12.7832C15.1074 12.2363 14.9023 12.3047 14.6973 12.3047H14.1504C14.0137 12.3047 13.7402 12.373 13.4668 12.6465C11.9629 14.1504 12.5781 16.2695 13.6719 17.6367C13.877 17.9102 15.2441 20.3711 18.1836 21.6699C20.3711 22.627 20.8496 22.4902 21.4648 22.3535C22.2168 22.2852 22.9688 21.6699 23.3105 21.0547C23.3789 20.8496 23.7207 19.9609 23.4473 19.8242M18.0469 26.25C15.2441 26.25 13.125 24.7461 13.125 24.7461L9.77539 25.6348L10.5957 22.3535C10.5957 22.3535 9.22852 20.2344 9.22852 17.5684C9.22852 12.6465 13.2617 8.54492 18.252 8.54492C22.9004 8.54492 26.8652 12.168 26.8652 17.2266C26.8652 22.1484 22.9004 26.1816 18.0469 26.25ZM7.17773 28.2324L12.8516 26.6602C14.4948 27.5014 16.3262 27.9075 18.171 27.8395C20.0159 27.7716 21.8125 27.2319 23.3894 26.2721C24.9663 25.3122 26.2708 23.9642 27.1785 22.3567C28.0862 20.7492 28.5667 18.9359 28.5742 17.0898C28.5742 11.2109 23.9258 6.49414 18.0469 6.49414C16.16 6.49897 14.3072 6.99804 12.6732 7.94166C11.0392 8.88527 9.68088 10.2405 8.73356 11.8724C7.78624 13.5043 7.28296 15.3559 7.27385 17.2427C7.26474 19.1296 7.75012 20.986 8.68164 22.627"
            fill="white" />
    </g>
    <defs>
        <clipPath id="clip0_4249_230">
            <rect width="35" height="35" fill="white" />
        </clipPath>
    </defs>
</svg>