<svg width="447" height="275" viewBox="0 0 447 275" fill="none" xmlns="http://www.w3.org/2000/svg">
    <rect width="447" height="275" fill="white" />
    <rect width="237" height="237" transform="translate(98 19)" fill="white" />
    <path
        d="M177.499 45.0892C179.161 46.5037 180.364 48.0789 181.501 49.9333C182.198 51.0363 183.049 51.8379 184.17 52.5018C185.81 53.5661 187.007 55.027 187.963 56.7211C188.277 57.2402 188.277 57.2402 188.847 57.8069C189.693 58.8036 189.772 59.9746 189.972 61.2284C190.197 62.4448 190.47 63.125 191.504 63.9004C193.009 64.3501 194.562 63.6281 195.901 62.9747C196.289 62.7469 196.676 62.5167 197.059 62.2803C198.473 61.8266 200.132 61.8623 201.543 62.2803C203.074 63.4469 203.753 64.9625 204.402 66.7393C204.789 67.571 205.261 68.1173 206.085 68.5293C207.903 68.7945 209.125 67.8044 210.538 66.7555C210.84 66.5246 211.139 66.2906 211.434 66.0522C212.733 65.1596 214.048 65.1239 215.574 65.2891C217.549 65.801 218.516 67.4737 219.567 69.0935C219.95 69.735 219.95 69.735 220.666 70.1495C221.95 70.253 222.608 70.2335 223.675 69.4551C224.157 68.8716 224.157 68.8716 224.586 68.2111C225.564 66.8194 226.421 65.8436 228.072 65.2891C229.78 65.0866 231.305 65.1506 232.701 66.2149C233.257 66.7358 233.786 67.2699 234.303 67.8296C235.067 68.5738 235.674 68.8276 236.737 68.8331C236.994 68.8389 236.994 68.8389 237.257 68.8449C237.986 68.7305 238.368 68.5258 238.95 68.0665C239.284 67.5021 239.57 66.9643 239.847 66.374C240.602 64.858 241.311 63.7616 242.885 62.9747C244.902 62.7802 246.461 62.9624 248.273 63.8787C248.999 64.1708 249.515 64.2113 250.291 64.1319C250.449 63.9744 250.606 63.8168 250.768 63.6545C250.916 63.5066 251.064 63.3586 251.217 63.2061C251.853 63.264 251.853 63.264 252.374 63.4376C252.45 63.8194 252.527 64.2013 252.605 64.5948C251.753 65.5286 250.983 66.3277 249.669 66.4029C248.366 66.3165 247.301 65.7409 246.166 65.13C245.318 64.7796 244.72 64.7499 243.811 64.8262C242.565 65.388 242.222 66.0677 241.738 67.2691C241.114 68.728 240.328 70.0807 238.811 70.7055C237.434 71.0486 235.991 71.1599 234.664 70.5961C234.123 70.2493 233.648 69.8775 233.164 69.4551C232.975 69.2913 232.785 69.1275 232.59 68.9588C232.226 68.6375 231.865 68.3123 231.509 67.9824C230.644 67.2167 229.827 67.2793 228.71 67.2953C227.77 67.4085 227.249 67.8099 226.684 68.5293C226.312 69.0548 225.959 69.588 225.611 70.1296C224.878 71.2491 224.259 71.6403 222.98 72.001C222.235 72.0788 222.235 72.0788 221.476 72.0878C221.225 72.0944 220.975 72.1009 220.717 72.1077C219.651 71.9552 218.965 71.5335 218.272 70.7029C217.968 70.2845 217.68 69.8592 217.397 69.4262C216.422 67.9339 216.422 67.9339 214.836 67.2618C213.189 67.1588 212.378 67.7332 211.112 68.7346C209.594 69.9139 208.175 70.5904 206.227 70.4939C204.7 70.2086 203.723 69.3047 202.845 68.0665C202.471 67.2419 202.146 66.4058 201.818 65.5621C201.455 64.8234 201.235 64.5309 200.53 64.1319C199.356 63.7405 198.394 63.7642 197.28 64.2973C196.959 64.4655 196.639 64.6371 196.321 64.8118C196 64.9834 195.678 65.1543 195.356 65.3244C195.216 65.4007 195.076 65.4771 194.932 65.5558C193.609 66.1748 192.247 66.1482 190.882 65.7086C189.816 65.1257 189.164 64.4415 188.495 63.4376C188.349 62.9141 188.349 62.9141 188.235 62.3527C188.196 62.1656 188.157 61.9785 188.117 61.7858C188.089 61.6435 188.061 61.5012 188.032 61.3545C187.338 62.9649 187.253 63.7607 187.888 65.4338C187.949 65.5889 188.011 65.744 188.075 65.9039C188.299 66.549 188.445 67.1978 188.596 67.8639C188.943 69.3023 189.311 70.2308 190.578 71.0752C192.665 71.4564 194.059 70.928 195.81 69.9043C197.186 69.1123 198.312 68.7693 199.877 69.098C201.67 69.6756 202.652 70.7679 203.502 72.3925C203.691 72.7698 203.881 73.1471 204.071 73.5244C204.786 74.8994 204.786 74.8994 206.085 75.7042C207.42 76.0551 208.464 75.7354 209.651 75.0743C210.063 74.8302 210.471 74.58 210.877 74.3254C212.066 73.5884 212.967 73.0589 214.388 73.057C214.612 73.0525 214.836 73.048 215.066 73.0434C216.908 73.3294 217.977 74.2881 219.089 75.7186C220.153 77.0825 220.153 77.0825 221.592 78.0186C222.804 78.1508 223.579 77.9903 224.601 77.3243C225.152 76.7318 225.618 76.1352 226.081 75.4745C227.029 74.1466 228.018 73.0255 229.692 72.6954C231.609 72.4998 233.382 73.2038 234.9 74.3444C235.17 74.5656 235.44 74.7874 235.71 75.0098C236.65 75.6365 237.385 75.5936 238.487 75.4727C239.779 75.0095 240.405 74.3043 241.086 73.132C241.961 71.6772 242.915 70.7899 244.505 70.1495C246.348 69.738 248.254 70.5618 249.828 71.4803C251.142 72.0276 252.532 71.9548 253.864 71.4947C255.014 70.6815 255.488 69.7814 255.913 68.476C256.077 68.0665 256.077 68.0665 256.54 67.6036C257.148 67.6904 257.148 67.6904 257.697 67.835C258.065 69.1945 257.657 70.1008 257.003 71.3067C256.058 72.5956 254.85 73.4564 253.3 73.8526C251.152 74.1818 249.677 73.7664 247.809 72.7988C246.79 72.2848 246.056 72.0261 244.933 72.2867C243.503 72.8781 242.888 73.9375 242.092 75.1906C241.357 76.2261 240.365 77.08 239.182 77.5557C236.546 77.8795 235.054 77.0258 232.973 75.5577C231.975 74.9302 231.104 74.6163 229.924 74.7784C228.345 75.384 227.711 76.4537 226.883 77.864C226.091 78.9993 224.974 79.6685 223.675 80.1016C221.96 80.2774 220.597 79.9507 219.147 79.0312C218.475 78.3763 217.925 77.665 217.367 76.912C216.639 75.9864 216.106 75.3482 214.895 75.1785C213.358 75.1079 212.404 75.5857 211.119 76.384C209.425 77.4068 208.124 78.0012 206.085 77.7872C204.577 77.293 203.337 76.5194 202.584 75.1038C202.362 74.6531 202.15 74.1985 201.937 73.7432C201.333 72.518 200.624 71.7007 199.373 71.0752C197.75 71.0035 196.63 71.4491 195.305 72.3545C193.746 73.3025 192.122 73.3336 190.347 73.1583C189.035 72.7672 188.061 71.7396 187.338 70.6124C186.522 68.9162 186.195 67.1431 185.949 65.2891C185.73 65.4419 185.51 65.5946 185.284 65.752C184.561 66.2149 184.561 66.2149 184.098 66.2149C184.134 66.3638 184.17 66.5126 184.207 66.666C184.395 67.7544 184.411 68.8485 184.449 69.951C184.564 72.5304 185.261 75.3112 187.077 77.223C188.392 78.4004 189.685 78.8951 191.448 78.8585C192.761 78.6037 193.881 77.9513 195.045 77.3116C196.373 76.5947 197.509 76.3271 199.026 76.3117C199.319 76.3051 199.613 76.2986 199.915 76.2918C201.264 76.4619 202.158 77.193 202.997 78.241C203.417 78.8794 203.753 79.5521 204.103 80.2318C204.938 81.8134 204.938 81.8134 206.316 82.879C208.401 83.2798 210.366 81.6828 212.05 80.6188C213.227 79.9661 214.489 79.9886 215.806 80.1016C217.842 80.8203 219.045 82.4145 220.205 84.1546C220.874 84.9898 221.44 85.3683 222.503 85.5252C223.954 85.5347 223.954 85.5347 225.309 85.0777C225.993 84.1951 226.288 83.2409 226.583 82.1729C227.06 80.6272 228.082 79.7418 229.438 78.9037C230.946 78.3112 232.948 78.6154 234.451 79.1189C235.364 79.5854 236.045 80.2701 236.781 80.9741C237.832 81.9627 238.775 82.6988 240.252 82.7777C241.286 82.7069 241.868 82.4217 242.653 81.7217C242.919 81.3832 243.179 81.0404 243.434 80.6947C244.32 79.5052 245.288 78.7535 246.704 78.2934C248.037 78.1935 249.21 78.2628 250.522 78.4815C251.643 78.5592 252.491 78.4404 253.531 78.0186C254.576 78.1373 254.576 78.1373 254.92 78.4815C255.021 79.0167 255.021 79.0167 254.92 79.6387C253.905 80.481 253.222 80.6743 251.917 80.6305C251.614 80.6244 251.31 80.6183 250.998 80.612C250.68 80.6014 250.363 80.5904 250.045 80.579C249.42 80.5581 248.796 80.5425 248.171 80.5292C247.757 80.515 247.757 80.515 247.335 80.5004C246.503 80.5718 246.093 80.7622 245.431 81.2588C245.025 81.7906 245.025 81.7906 244.678 82.3871C243.867 83.5775 243.122 84.3064 241.728 84.7305C239.871 85.031 238.473 84.8203 236.917 83.7559C236.275 83.2375 235.701 82.6787 235.136 82.0788C234.061 80.9872 232.91 80.7974 231.443 80.7236C231.276 80.715 231.109 80.7063 230.937 80.6974C230.096 80.848 229.647 81.167 228.998 81.7217C228.657 82.3366 228.441 82.9806 228.217 83.6456C227.631 85.2249 227.045 86.405 225.526 87.2764C224.041 87.7716 222.031 87.8129 220.579 87.1752C219.474 86.5083 218.696 85.4871 217.889 84.4991C217.601 84.1553 217.312 83.8128 217.021 83.472C216.898 83.3244 216.775 83.1767 216.648 83.0245C215.97 82.3513 215.436 82.1957 214.489 82.0834C212.997 82.1195 211.853 83.0426 210.656 83.8481C209.058 84.9015 207.495 84.9477 205.622 84.7305C203.758 84.17 202.981 82.5522 202.111 80.9465C201.767 80.2878 201.46 79.65 201.225 78.9444C199.952 78.2893 198.683 78.247 197.29 78.4815C196.466 78.7971 195.694 79.2025 194.926 79.6336C193.126 80.6403 191.256 81.0751 189.189 80.796C186.23 79.7908 184.622 77.6794 183.265 74.9646C182.825 73.9051 182.699 72.7988 182.55 71.6683C182.52 71.4549 182.49 71.2414 182.459 71.0215C182.386 70.4996 182.315 69.9775 182.246 69.4551C182.093 69.4551 181.941 69.4551 181.783 69.4551C180.889 70.8036 180.964 72.1725 180.973 73.7513C180.974 74.0213 180.975 74.2913 180.977 74.5694C181.017 76.5593 181.215 78.1313 182.246 79.8702C182.397 80.1333 182.397 80.1333 182.551 80.4018C183.808 82.3074 185.73 83.4797 187.943 83.9358C190.374 84.2471 192.646 84.0957 195.032 83.5915C197.442 83.0958 200.041 82.9854 202.179 84.3544C203.364 85.2998 203.866 86.6144 204.465 87.9708C205.08 89.3233 205.08 89.3233 206.316 90.0538C208.138 90.2834 209.63 89.8449 211.277 89.1072C212.983 88.3593 214.374 88.1496 216.182 88.6796C217.183 89.2544 217.973 89.9631 218.814 90.7481C220.399 92.2048 221.569 93.2133 223.816 93.1258C224.816 93.0115 225.449 92.7192 226.118 91.9587C226.65 91.2655 227.124 90.5535 227.58 89.8079C228.601 88.3964 229.869 87.3219 231.544 86.8135C234.241 86.5041 236.216 87.993 238.256 89.5909C238.053 90.7192 238.053 90.7192 237.793 90.9795C237.301 91.0808 237.301 91.0808 236.636 90.9795C236.205 90.66 235.826 90.3143 235.442 89.9399C234.374 89.0658 233.254 89.0228 231.924 89.0602C230.996 89.1631 230.602 89.4056 229.924 90.0538C229.438 90.6772 228.977 91.3135 228.522 91.9605C227.45 93.4827 226.59 94.5488 224.731 95.0732C222.132 95.3901 220.497 94.6137 218.456 93.0617C217.832 92.5532 217.283 92.0272 216.731 91.4424C216.059 90.7699 215.359 90.5395 214.411 90.4525C213.105 90.5743 211.904 91.0999 210.689 91.5708C208.99 92.2211 206.923 92.5476 205.188 91.8475C203.706 91.0172 203.002 90.2283 202.382 88.6651C202.274 88.2426 202.274 88.2426 202.165 87.8116C201.869 86.8888 201.509 86.4957 200.762 85.8877C198.829 84.9093 196.235 85.308 194.194 85.772C190.794 86.5322 187.334 86.4533 184.278 84.6916C181.913 83.1321 179.995 81.0241 179.352 78.1997C179.256 77.6533 179.171 77.1067 179.093 76.5576C178.947 75.2834 178.947 75.2834 178.543 74.084C178.479 74.3794 178.415 74.6748 178.349 74.9791C178.264 75.3654 178.179 75.7518 178.095 76.1381C178.052 76.3329 178.01 76.5278 177.967 76.7285C177.926 76.9149 177.885 77.1014 177.842 77.2935C177.805 77.4656 177.767 77.6378 177.728 77.8151C177.617 78.2501 177.617 78.2501 177.386 78.7129C177.329 79.6278 177.343 80.5449 177.342 81.4614C177.339 81.712 177.337 81.9626 177.334 82.2208C177.328 85.2874 177.698 88.3006 179.7 90.7481C180.875 91.7154 181.896 92.056 183.403 92.1368C183.403 91.9411 183.403 91.7453 183.403 91.5437C183.749 90.3544 184.481 89.8115 185.486 89.128C189.053 87.1938 193.712 86.9516 197.587 87.9888C198.747 88.3823 199.601 88.7757 200.299 89.8223C200.293 90.447 200.293 90.447 200.212 91.1387C200.186 91.3687 200.161 91.5987 200.134 91.8357C200.112 92.0114 200.09 92.1872 200.067 92.3682C203.766 94.8439 207.226 95.4425 211.64 94.6827C216.095 94.3004 216.095 94.3004 217.888 95.613C218.573 96.2901 219.1 97.0326 219.616 97.8433C220.055 98.5127 220.54 99.0059 221.129 99.543C221.205 99.6194 221.282 99.6958 221.36 99.7745C222.074 99.723 222.782 99.6388 223.493 99.5566C223.706 99.5521 223.918 99.5476 224.138 99.543C224.29 99.6958 224.443 99.8485 224.601 100.006C224.572 100.585 224.572 100.585 224.369 101.163C223.216 101.94 221.755 101.826 220.435 101.626C219.162 100.986 218.449 99.8326 217.657 98.6896C216.861 97.5595 216.22 96.9045 214.88 96.5342C213.424 96.4045 212.012 96.6203 210.584 96.8814C210.394 96.9145 210.205 96.9476 210.01 96.9818C209.55 97.0625 209.09 97.1453 208.631 97.2286C208.821 97.3801 209.012 97.5317 209.208 97.6878C212.071 100.009 213.99 102.491 215.724 105.721C217.074 108.223 218.823 110.469 220.513 112.747C221.324 113.842 222.126 114.943 222.923 116.048C223.109 116.307 223.109 116.307 223.3 116.571C224.055 117.619 224.806 118.67 225.555 119.722C227.161 121.996 227.161 121.996 228.843 124.212C229.172 124.688 229.404 125.124 229.651 125.643C230.202 126.692 230.766 127.588 231.775 128.242C233.837 128.849 236.078 128.608 238.198 128.517C238.781 128.508 239.365 128.5 239.948 128.493C244.367 128.413 249.311 127.981 252.691 124.727C254.354 122.877 255.444 121.014 256.471 118.769C257.893 115.673 259.779 113.139 262.095 110.652C262.189 110.523 262.284 110.394 262.382 110.26C263.022 109.785 263.639 109.914 264.409 109.958C264.465 109.811 264.52 109.663 264.577 109.511C265.159 107.964 265.741 106.417 266.323 104.87C266.54 104.294 266.757 103.718 266.973 103.142C267.286 102.31 267.599 101.478 267.912 100.646C268.055 100.265 268.055 100.265 268.201 99.8764C268.759 98.3983 269.352 96.9472 270.004 95.5082C270.407 94.256 269.586 93.1044 269.074 91.9668C268.359 89.9467 268.546 87.7525 268.556 85.6382C268.557 85.2679 268.558 84.8975 268.559 84.5272C268.563 83.3606 268.569 82.194 268.575 81.0274C268.577 80.6552 268.579 80.283 268.581 79.9108C268.594 77.2934 268.617 74.6761 268.647 72.0589C268.651 71.7634 268.651 71.7634 268.654 71.462C268.928 48.1518 268.928 48.1518 270.427 45.1534C270.656 45.1534 270.885 45.1534 271.121 45.1534C271.121 46.5282 271.121 47.9029 271.121 49.3194C271.427 47.8682 271.732 46.4171 272.047 44.9219C272.658 44.9219 273.269 44.9219 273.898 44.9219C273.781 46.8449 273.617 48.7536 273.377 50.665C273.155 52.524 273.074 54.3941 272.973 56.2627C273.012 55.992 273.052 55.7212 273.093 55.4423C273.241 54.4311 273.391 53.4201 273.541 52.4091C273.605 51.9728 273.669 51.5364 273.733 51.1C273.825 50.4702 273.919 49.8405 274.012 49.2109C274.04 49.0179 274.068 48.825 274.097 48.6262C274.274 47.4458 274.517 46.307 274.824 45.1534C275.512 45.1534 276.199 45.1534 276.907 45.1534C276.758 47.7867 276.503 50.4014 276.213 53.0225C276.238 52.8652 276.264 52.7078 276.29 52.5457C276.409 51.8221 276.528 51.0987 276.647 50.3754C276.687 50.1279 276.727 49.8804 276.769 49.6254C277.004 48.1997 277.273 46.7921 277.602 45.3848C278.747 45.5376 279.893 45.6903 281.073 45.8477C281.1 47.1042 281.016 48.2468 280.794 49.4894C280.765 49.6542 280.736 49.8191 280.706 49.989C280.644 50.3387 280.582 50.6882 280.519 51.0377C280.356 51.9425 280.198 52.8483 280.04 53.7539C279.993 54.0198 279.993 54.0198 279.945 54.291C279.588 56.3313 279.281 58.3781 278.99 60.4288C279.275 59.3295 279.559 58.2301 279.844 57.1307C279.886 56.9675 279.928 56.8043 279.972 56.6362C280.488 54.6383 280.998 52.6392 281.493 50.6357C281.853 49.1799 282.24 47.7409 282.693 46.3106C284.828 46.6833 286.872 47.3015 288.942 47.9307C289.048 49.4765 288.657 50.8309 288.248 52.3137C288.182 52.5603 288.116 52.8069 288.047 53.0609C287.885 53.6658 287.72 54.2702 287.554 54.8741C287.99 54.0331 288.281 53.1713 288.566 52.2703C288.98 50.9913 289.45 49.8034 290.1 48.6251C291.139 48.7608 292.003 49.0334 292.964 49.4496C293.209 49.5549 293.454 49.6602 293.707 49.7687C293.891 49.8496 294.076 49.9304 294.266 50.0137C294.323 51.118 294.136 51.9426 293.767 52.9818C293.717 53.1272 293.666 53.2726 293.613 53.4223C293.452 53.8829 293.287 54.3423 293.123 54.8017C293.013 55.1128 292.904 55.424 292.794 55.7352C292.594 56.3044 292.392 56.873 292.19 57.4414C292.029 57.8956 291.872 58.3514 291.72 58.8086C291.905 58.4511 291.905 58.4511 292.094 58.0863C293.361 55.6578 294.709 53.2887 296.117 50.9395C297.094 51.2542 297.984 51.6201 298.894 52.0967C298.762 53.0761 298.53 53.9002 298.14 54.8072C298.035 55.0556 297.929 55.304 297.819 55.5599C297.65 55.9508 297.65 55.9508 297.477 56.3495C297.363 56.6164 297.248 56.8832 297.13 57.1581C296.794 57.9405 296.456 58.7219 296.117 59.503C296.025 59.715 295.933 59.9269 295.839 60.1453C295.395 61.1671 294.948 62.1874 294.497 63.2061C294.583 63.0456 294.669 62.8852 294.758 62.7198C296.499 59.4741 298.25 56.2353 300.052 53.0225C300.926 53.3653 301.761 53.7517 302.598 54.1797C302.063 55.9137 301.354 57.5277 300.587 59.1703C300.409 59.5536 300.409 59.5536 300.228 59.9446C299.939 60.5694 299.649 61.1936 299.357 61.8174C300.25 60.4919 301.119 59.1548 301.961 57.7961C302.16 57.476 302.359 57.1559 302.558 56.8359C302.644 56.6977 302.729 56.5594 302.818 56.417C303.047 56.0531 303.285 55.6948 303.523 55.337C304.409 55.4634 304.771 55.8602 305.375 56.4942C304.449 58.8086 303.523 61.1231 302.598 63.4376C303.743 61.299 304.889 59.1604 306.069 56.9571C306.298 57.0335 306.528 57.1098 306.764 57.1885C306.618 58.2214 306.218 59.0787 305.755 60.0011C305.636 60.2401 305.636 60.2401 305.516 60.4838C305.258 61.0016 304.999 61.5181 304.738 62.0344C304.65 62.2109 304.561 62.3875 304.47 62.5693C302.967 65.5596 301.369 68.4707 299.589 71.3067C299.476 71.4875 299.363 71.6684 299.247 71.8547C297.914 73.9858 296.507 76.0351 294.96 78.0186C294.753 78.2883 294.545 78.558 294.338 78.8278C293.066 80.4736 291.739 82.0417 290.331 83.5733C289.926 84.0306 289.525 84.4905 289.125 84.9521C288.861 85.2528 288.596 85.5513 288.327 85.8468C287.35 86.93 286.542 88.0578 285.76 89.2871C281.719 95.481 281.719 95.481 279.491 96.2106C278.62 96.5244 278.175 96.7958 277.72 97.6225C277.407 98.4333 277.136 99.248 276.878 100.078C276.781 100.374 276.682 100.67 276.583 100.965C276.39 101.543 276.199 102.122 276.01 102.701C275.693 103.646 275.338 104.569 274.954 105.488C274.627 106.274 274.322 107.055 274.059 107.864C273.544 109.435 272.94 110.974 272.351 112.518C272.231 112.832 272.112 113.146 271.992 113.46C271.702 114.222 271.412 114.983 271.121 115.744C271.263 115.755 271.405 115.767 271.552 115.778C271.739 115.795 271.926 115.812 272.118 115.83C272.303 115.846 272.488 115.862 272.679 115.878C273.204 115.976 273.204 115.976 273.913 116.453C274.386 117.17 274.514 117.646 274.463 118.505C274.289 119.322 273.897 119.913 273.436 120.605C273.55 120.757 273.665 120.91 273.783 121.067C274.256 122.014 274.23 122.559 274.13 123.613C274.015 123.761 273.901 123.909 273.783 124.062C273.359 124.644 273.414 124.862 273.45 125.566C273.481 126.392 273.461 126.581 273.002 127.316C272.51 127.779 272.51 127.779 272.047 128.011C271.983 128.572 271.983 128.572 271.975 129.226C271.906 130.199 271.871 130.485 271.251 131.28C270.301 131.976 269.755 131.987 268.575 131.945C268.346 131.869 268.117 131.793 267.881 131.714C267.404 131.698 266.926 131.694 266.449 131.699C266.071 131.703 266.071 131.703 265.687 131.706C265.494 131.708 265.302 131.711 265.103 131.714C265.064 131.837 265.024 131.96 264.983 132.087C264.533 133.455 264.041 134.803 263.529 136.148C263.446 136.368 263.363 136.587 263.278 136.813C263.014 137.51 262.75 138.207 262.485 138.903C262.224 139.592 261.963 140.28 261.703 140.969C261.532 141.419 261.362 141.869 261.191 142.318C260.702 143.61 260.215 144.903 259.731 146.196C259.019 148.101 258.284 149.998 257.547 151.893C257.449 152.145 257.352 152.397 257.252 152.656C257.165 152.88 257.078 153.103 256.988 153.334C256.805 153.841 256.658 154.333 256.54 154.858C259.061 155.174 261.597 155.169 264.134 155.218C264.744 155.23 265.355 155.243 265.965 155.256C266.154 155.259 266.343 155.263 266.538 155.266C267.855 155.295 267.855 155.295 268.112 155.553C268.122 156.016 268.122 156.479 268.112 156.941C267.261 157.488 266.435 157.472 265.456 157.466C265.204 157.466 265.204 157.466 264.947 157.467C264.592 157.467 264.237 157.467 263.882 157.465C263.345 157.462 262.809 157.465 262.273 157.468C260.651 157.469 259.084 157.454 257.503 157.041C256.861 156.896 256.861 156.896 255.614 156.941C254.927 158.775 254.239 160.608 253.531 162.496C255.8 162.845 258.038 163.077 260.33 163.219C260.639 163.239 260.947 163.26 261.256 163.28C261.998 163.328 262.741 163.376 263.483 163.422C263.628 163.972 263.628 163.972 263.715 164.579C263.072 165.222 262.711 165.111 261.805 165.114C258.734 165.108 255.655 164.684 252.605 164.348C252.57 164.527 252.535 164.706 252.499 164.891C252.183 166.446 251.831 168.004 250.754 169.208C250.146 169.324 250.146 169.324 249.597 169.208C249.444 169.055 249.291 168.903 249.134 168.745C249.173 166.985 249.856 165.425 250.479 163.798C250.581 163.528 250.682 163.257 250.787 162.979C251.374 161.422 251.983 159.874 252.605 158.33C253.883 155.118 255.081 151.877 256.274 148.633C256.803 147.204 257.342 145.779 257.887 144.357C258.011 144.033 258.135 143.708 258.26 143.384C258.324 143.217 258.388 143.05 258.454 142.878C259.533 140.062 260.606 137.245 261.657 134.419C262.108 133.207 262.58 132.007 263.081 130.814C263.29 130.302 263.29 130.302 263.252 129.631C262.911 129.317 262.911 129.317 262.471 129.052C261.837 128.645 261.605 128.434 261.169 127.779C261.044 127.164 260.999 126.554 260.937 125.928C260.534 126.976 260.131 128.025 259.728 129.074C259.592 129.429 259.456 129.783 259.319 130.138C258.515 132.225 257.732 134.317 257 136.431C256.616 137.535 256.185 138.61 255.726 139.685C255.243 140.845 254.785 142.015 254.327 143.185C254.196 143.517 254.196 143.517 254.063 143.857C253.552 145.164 253.061 146.476 252.584 147.796C251.749 150.108 250.863 152.402 249.969 154.693C249.346 156.29 248.743 157.894 248.144 159.5C247.694 160.708 247.242 161.915 246.787 163.121C246.642 163.508 246.498 163.895 246.354 164.282C246.105 164.95 245.855 165.618 245.604 166.286C245.486 166.606 245.486 166.606 245.365 166.933C245.29 167.132 245.215 167.331 245.138 167.536C245.071 167.713 245.005 167.891 244.937 168.074C244.736 168.514 244.736 168.514 244.273 168.977C243.55 169.006 243.55 169.006 242.885 168.977C242.406 167.508 243.032 166.321 243.565 164.955C243.654 164.719 243.743 164.482 243.835 164.238C244.056 163.656 244.279 163.076 244.505 162.496C244.359 162.469 244.213 162.441 244.063 162.413C242.812 162.171 241.588 161.893 240.368 161.527C240.202 161.477 240.036 161.428 239.865 161.377C232.412 159.112 225.137 155.982 218.814 151.387C218.575 151.214 218.335 151.041 218.088 150.862C212.438 146.66 208.099 141.403 204.465 135.417C204.372 135.267 204.279 135.117 204.184 134.963C201.581 130.738 199.841 126.013 198.172 121.357C198.117 121.204 198.062 121.052 198.005 120.894C197.444 119.334 196.934 117.868 196.827 116.207C196.66 116.369 196.493 116.532 196.321 116.699C196.227 116.79 196.133 116.881 196.036 116.976C195.915 117.104 195.794 117.232 195.67 117.364C195.468 117.562 195.266 117.761 195.058 117.965C194.304 118.883 194.355 119.777 194.397 120.923C194.401 121.127 194.405 121.331 194.409 121.542C194.469 123.447 194.798 125.227 195.207 127.085C195.262 127.389 195.315 127.694 195.367 127.999C195.927 131.298 196.829 134.449 198.216 137.5C198.394 137.902 198.394 137.902 198.576 138.312C201.861 145.624 206.88 152.313 213.491 156.941C213.628 157.038 213.766 157.134 213.907 157.233C218.577 160.48 223.695 163.228 229.108 165.004C229.804 165.234 230.477 165.486 231.153 165.765C232.231 166.21 233.332 166.563 234.444 166.91C235.016 167.125 235.016 167.125 235.478 167.588C235.35 168.642 235.35 168.642 235.016 168.977C233.223 168.995 231.624 168.443 229.967 167.819C229.715 167.726 229.463 167.633 229.204 167.537C225.212 166.045 221.38 164.34 217.657 162.265C217.427 162.138 217.427 162.138 217.193 162.008C214.009 160.234 211.095 158.029 208.428 155.546C207.962 155.114 207.483 154.704 206.996 154.294C200.961 148.993 196.925 141.35 194.513 133.797C194.463 133.645 194.413 133.494 194.361 133.338C193.212 129.806 192.741 126.118 192.198 122.456C192.132 122.576 192.066 122.696 191.998 122.819C190.59 125.352 189.182 127.675 187.194 129.801C186.421 131.071 186.989 133.007 187.279 134.388C187.488 135.205 187.719 136.012 187.96 136.82C188.073 137.224 188.073 137.224 188.189 137.636C188.741 139.534 189.476 141.283 190.347 143.055C190.473 143.317 190.473 143.317 190.601 143.585C192.985 148.537 195.831 153.09 199.697 157.027C200.101 157.438 200.499 157.854 200.898 158.27C202.737 160.168 204.651 161.858 206.779 163.422C206.968 163.563 206.968 163.563 207.161 163.706C210.993 166.574 210.993 166.574 215.111 168.977C215.111 169.206 215.111 169.435 215.111 169.671C214.415 170.019 214.046 169.997 213.26 169.902C212.415 169.52 211.634 169.042 210.844 168.557C210.618 168.421 210.392 168.284 210.159 168.143C207.117 166.282 204.374 164.139 201.687 161.802C201.52 161.66 201.352 161.518 201.178 161.371C198.957 159.479 197.007 157.384 195.207 155.09C195.027 154.87 194.847 154.65 194.661 154.424C190.318 149.008 187.192 142.367 185.486 135.648C185.434 135.443 185.382 135.238 185.328 135.026C185.113 134.125 185.016 133.338 185.023 132.408C184.906 132.495 184.788 132.581 184.667 132.67C184.126 133.066 183.584 133.46 183.042 133.855C182.857 133.991 182.671 134.126 182.481 134.266C179.622 136.343 179.622 136.343 178.774 136.343C179.461 138.481 179.461 138.481 180.151 140.617C180.204 140.781 180.257 140.945 180.312 141.114C180.42 141.446 180.527 141.778 180.635 142.109C180.941 143.056 181.242 144.004 181.538 144.954C183.626 151.582 187.867 157.73 192.661 162.728C192.801 162.874 192.94 163.02 193.084 163.171C193.896 164.001 194.749 164.772 195.628 165.529C196.394 166.195 197.143 166.879 197.893 167.562C198.45 168.053 199.021 168.518 199.604 168.977C199.528 169.282 199.452 169.588 199.373 169.902C198.461 169.973 197.914 170 197.119 169.52C196.923 169.345 196.726 169.171 196.523 168.991C196.196 168.705 196.196 168.705 195.862 168.413C195.646 168.217 195.43 168.021 195.207 167.819C195.01 167.645 194.813 167.47 194.61 167.291C194.225 166.947 193.843 166.602 193.462 166.254C193.087 165.913 192.707 165.578 192.323 165.248C186.203 159.959 181.696 152.239 179.152 144.639C178.954 144.062 178.734 143.494 178.514 142.925C177.154 139.222 177.154 139.222 177.154 137.5C177.027 137.547 176.9 137.593 176.77 137.641C176.18 137.857 175.59 138.069 174.999 138.281C174.799 138.355 174.6 138.428 174.395 138.504C172.94 139.023 171.506 139.35 169.979 139.583C174.18 154.208 174.18 154.208 182.666 166.646C182.774 166.76 182.882 166.874 182.994 166.991C183.299 167.309 183.608 167.621 183.919 167.933C184.329 168.514 184.329 168.514 184.277 169.166C184.218 169.333 184.158 169.499 184.098 169.671C183.348 169.778 182.746 169.848 182.091 169.416C176.314 163.832 172.974 155.907 170.384 148.479C170.325 148.311 170.266 148.142 170.204 147.968C169.316 145.438 168.66 142.905 168.128 140.277C167.963 140.295 167.799 140.313 167.629 140.331C165.58 140.547 163.439 140.748 161.416 140.277C162.621 148.422 165.313 161.532 171.368 167.588C171.397 168.282 171.397 168.282 171.368 168.977C171.137 169.208 171.137 169.208 170.586 169.278C169.979 169.208 169.979 169.208 169.613 168.843C169.51 168.673 169.407 168.504 169.301 168.328C169.185 168.137 169.068 167.946 168.947 167.748C168.83 167.543 168.712 167.337 168.591 167.125C168.476 166.926 168.362 166.727 168.243 166.523C164.433 159.721 161.665 152.29 160.027 144.675C159.99 144.503 159.953 144.332 159.915 144.155C159.333 141.423 159.333 141.423 159.275 140.162C158.986 138.813 158.003 138.106 156.917 137.326C156.798 137.231 156.679 137.136 156.556 137.037C156.556 136.808 156.556 136.579 156.556 136.343C157.868 136.136 158.616 136.686 159.666 137.383C160.757 138.025 161.77 138.253 163.028 138.264C163.288 138.266 163.547 138.268 163.815 138.271C172.116 138.23 179.43 135.104 185.306 129.233C186.854 127.614 188.705 125.53 189.421 123.382C189.172 123.519 188.923 123.656 188.666 123.797C181.232 127.842 173.093 129.041 164.867 126.679C158.152 124.58 152.32 120.621 148.909 114.329C148.344 113.22 147.924 112.062 147.529 110.884C147.474 110.734 147.419 110.584 147.362 110.43C146.845 108.981 146.575 107.525 146.329 106.009C146.288 105.765 146.247 105.52 146.204 105.268C146.104 104.672 146.006 104.075 145.909 103.478C145.375 103.401 144.84 103.325 144.289 103.246C144.261 103.526 144.233 103.807 144.205 104.095C144.021 105.94 143.836 107.784 143.646 109.627C143.566 110.397 143.487 111.168 143.408 111.938C143.369 112.325 143.328 112.713 143.288 113.1C142.794 117.828 142.631 122.505 142.639 127.26C142.64 128.132 142.639 129.003 142.637 129.875C142.637 130.437 142.638 131 142.638 131.562C142.638 131.819 142.637 132.075 142.637 132.34C142.643 134.469 142.753 136.529 143.252 138.603C143.41 139.337 143.486 140.074 143.568 140.819C144.451 148.581 147.424 157.292 152.346 163.487C152.621 163.885 152.621 163.885 152.549 164.521C152.496 164.693 152.444 164.865 152.39 165.042C151.898 165.143 151.898 165.143 151.232 165.042C143.62 157.949 141.033 143.266 140.546 133.446C140.485 131.581 140.487 129.717 140.499 127.852C140.5 127.569 140.501 127.286 140.502 126.994C140.527 120.39 140.799 113.791 141.912 107.27C142.298 105.15 142.298 105.15 142.206 103.015C141.753 102.618 141.29 102.231 140.817 101.857C140.605 101.024 140.551 100.783 140.817 100.006C141.927 98.3552 143.494 97.0538 145.215 96.0713C145.368 96.0713 145.52 96.0713 145.678 96.0713C145.538 95.8282 145.398 95.585 145.255 95.3345C145.068 95.0064 144.881 94.6782 144.694 94.35C144.602 94.1908 144.511 94.0316 144.417 93.8676C140.926 87.7158 140.824 79.6655 142.669 72.9268C142.887 72.2275 143.119 71.5342 143.363 70.8438C143.211 70.8008 143.058 70.7579 142.9 70.7136C141.263 69.9289 140.245 68.8283 139.589 67.1443C138.862 65.0244 138.83 62.2833 139.813 60.2308C140.465 59.1877 141.261 58.269 142.221 57.4995C142.881 56.6994 143.01 55.8431 143.233 54.8451C144.485 49.7389 147.677 45.8703 152.071 43.0414C159.955 38.5205 170.439 39.416 177.499 45.0892Z"
        fill="#185976" />
    <path
        d="M198.447 93.2939C198.6 93.2939 198.753 93.2939 198.91 93.2939C199.063 93.4562 199.216 93.6185 199.373 93.7858C200.575 95.0267 202.134 95.7619 203.727 96.3751C207.761 98.002 211.077 101.234 213.15 104.995C214.764 107.915 216.583 110.518 218.643 113.139C219.332 114.031 219.958 114.961 220.591 115.894C221.27 116.885 221.99 117.846 222.706 118.811C223.872 120.384 225.016 121.97 226.138 123.575C226.711 124.391 227.291 125.202 227.885 126.003C228.004 126.163 228.123 126.323 228.245 126.488C228.472 126.792 228.7 127.096 228.929 127.399C229.692 128.423 229.692 128.423 229.692 128.937C229.436 129.045 229.179 129.154 228.915 129.267C228.576 129.412 228.237 129.558 227.899 129.703C227.73 129.775 227.561 129.846 227.387 129.92C226.526 130.292 225.804 130.667 225.063 131.251C224.911 131.251 224.758 131.251 224.601 131.251C224.601 131.709 224.601 132.168 224.601 132.64C226 132.196 227.323 131.679 228.655 131.062C231.172 130.206 233.704 130.288 236.325 130.33C243.199 130.431 249.183 130.128 254.576 125.395C256.247 123.581 257.275 121.502 258.319 119.288C259.676 116.467 261.216 114.001 263.483 111.81C263.715 112.041 263.715 112.041 263.787 112.779C263.701 113.835 263.48 114.253 262.789 115.05C262.375 115.309 262.375 115.309 261.936 115.542C261.144 115.886 261.144 115.886 260.952 116.496C260.947 116.63 260.942 116.764 260.938 116.901C261.167 116.901 261.396 116.901 261.632 116.901C261.505 117.99 261.29 118.932 260.894 119.953C260.791 120.222 260.687 120.491 260.58 120.769C260.468 121.056 260.356 121.344 260.243 121.632C260.128 121.93 260.013 122.228 259.898 122.527C259.664 123.134 259.43 123.742 259.195 124.349C258.692 125.653 258.201 126.962 257.712 128.271C257.63 128.488 257.549 128.706 257.464 128.93C257.386 129.138 257.308 129.346 257.228 129.56C257.152 129.761 257.077 129.962 256.999 130.169C256.839 130.604 256.686 131.042 256.537 131.481C256.46 131.707 256.383 131.934 256.303 132.167C256.236 132.371 256.168 132.575 256.099 132.785C255.61 133.846 254.732 134.357 253.763 134.954C253.624 135.041 253.485 135.128 253.342 135.217C248.557 138.184 243.43 140.535 238.024 142.129C237.823 142.189 237.622 142.249 237.414 142.311C235.647 142.801 233.996 142.941 232.166 142.924C231.893 142.923 231.62 142.922 231.339 142.921C227.784 142.859 224.963 142.101 222.358 139.597C222.195 139.442 222.032 139.286 221.864 139.126C216.911 134.365 212.972 128.761 209.788 122.688C209.685 122.491 209.581 122.294 209.474 122.091C207.94 119.15 206.595 116.162 205.384 113.074C205.24 112.71 205.094 112.346 204.945 111.984C204.16 110.066 203.485 108.109 202.801 106.154C202.736 105.966 202.67 105.778 202.602 105.585C201.485 102.399 200.4 99.2039 199.346 95.9967C199.049 95.0949 198.748 94.1944 198.447 93.2939Z"
        fill="#FCFCFC" />
    <path
        d="M175.072 83.1104C175.148 83.1104 175.224 83.1104 175.303 83.1104C175.323 83.2406 175.342 83.3709 175.362 83.5051C175.914 87.0512 176.62 90.4888 179.437 92.9802C180.799 93.8217 182.085 93.8991 183.649 93.9244C184.567 93.9406 185.143 94.0434 185.95 94.4512C186.458 94.5678 186.458 94.5678 186.994 94.632C187.285 94.6736 187.285 94.6736 187.583 94.7161C187.991 94.7713 188.4 94.8261 188.809 94.8806C189.002 94.9084 189.196 94.9361 189.395 94.9647C189.572 94.9884 189.749 95.0121 189.932 95.0366C190.069 95.0725 190.206 95.1085 190.347 95.1455C191.324 97.099 190.812 101.024 190.202 103.087C190.032 103.531 189.849 103.97 189.653 104.403C189.51 104.749 189.51 104.749 189.363 105.101C187.696 108.796 184.624 111.695 180.858 113.198C179.863 113.538 178.862 113.844 177.849 114.124C177.709 114.165 177.569 114.206 177.424 114.248C172.575 115.285 166.899 114.184 162.739 111.562C159.01 108.877 155.724 105.123 154.893 100.454C154.936 99.543 154.936 99.543 155.327 98.8776C156.252 98.2836 157.095 98.126 158.159 97.8903C159.881 97.4089 161.023 96.4282 161.908 94.8978C162.443 93.7185 162.385 92.5397 162.386 91.2688C162.39 90.9672 162.39 90.9672 162.394 90.6594C162.397 89.3744 162.242 88.2783 161.879 87.0449C162.023 87.095 162.166 87.1452 162.314 87.1968C164.883 88.0044 167.711 88.1658 170.211 87.0449C172.024 86.0932 173.492 85.0201 174.786 83.4322C174.88 83.326 174.975 83.2198 175.072 83.1104Z"
        fill="#FCFDFD" />
    <path
        d="M162.805 53.9482C163.034 54.101 163.263 54.2537 163.499 54.4111C163.499 54.5639 163.499 54.7166 163.499 54.874C163.633 54.9376 163.766 55.0011 163.903 55.0666C164.419 55.3336 164.882 55.6386 165.365 55.9589C167.643 57.3372 170.294 58.118 172.844 58.8375C173.942 59.1707 174.644 59.4397 175.303 60.4287C175.77 61.4842 176.11 62.5014 175.997 63.6689C175.797 63.5926 175.596 63.5162 175.39 63.4375C173.003 62.7795 170.785 63.2032 168.514 63.9971C167.841 64.3052 167.841 64.3052 167.692 64.9826C167.683 65.1601 167.674 65.3376 167.665 65.5205C168.727 65.424 169.591 65.1806 170.587 64.7972C172.229 64.232 173.907 64.1491 175.553 64.7792C176.368 65.2627 176.646 65.8019 176.923 66.6777C176.983 67.3812 176.983 67.3812 176.985 68.1613C176.986 68.5912 176.986 68.5912 176.986 69.0297C176.985 69.3276 176.983 69.6255 176.981 69.9324C176.984 70.3699 176.984 70.3699 176.986 70.8162C176.977 75.4092 176.045 80.104 172.822 83.5561C170.852 85.3477 168.961 86.202 166.335 86.2059C166.136 86.2116 165.938 86.2173 165.734 86.2231C163.382 86.2338 161.651 85.1601 159.796 83.8047C159.658 83.7056 159.521 83.6066 159.379 83.5045C155.609 80.5517 153.307 74.9481 152.691 70.3158C152.668 70.1081 152.645 69.9005 152.621 69.6865C152.591 69.4932 152.561 69.2999 152.53 69.1007C152.475 68.5407 152.462 68.1437 152.621 67.6035C153.162 66.9954 153.766 66.6078 154.473 66.2148C154.745 66.0573 154.745 66.0573 155.023 65.8966C156.497 65.5456 157.903 65.6948 159.342 66.1118C160.114 66.287 160.86 66.243 161.648 66.2148C161.648 65.833 161.648 65.4511 161.648 65.0576C161.455 65.0269 161.263 64.9962 161.065 64.9645C160.813 64.9236 160.562 64.8827 160.302 64.8406C160.053 64.8004 159.803 64.7601 159.546 64.7186C158.87 64.5947 158.87 64.5947 158.176 64.3633C156.385 64.1724 155.099 64.3581 153.538 65.2674C153.084 65.5205 153.084 65.5205 152.621 65.5205C152.31 63.3956 152.31 63.3956 152.947 62.5343C153.51 62.0915 154.091 61.7248 154.704 61.3545C155.358 60.9432 156.007 60.527 156.657 60.1105C156.829 60.001 157 59.8916 157.177 59.7788C159.346 58.3777 161.016 56.873 162.342 54.6426C162.495 54.4134 162.648 54.1843 162.805 53.9482Z"
        fill="#FAFBFB" />
    <path
        d="M200.298 104.403C200.791 104.896 200.878 105.125 201.07 105.776C201.153 106.052 201.153 106.052 201.239 106.334C201.352 106.716 201.465 107.097 201.577 107.479C201.976 108.793 202.459 110.047 202.997 111.309C203.315 112.059 203.62 112.813 203.922 113.569C207.718 122.98 212.477 131.514 219.508 138.889C219.613 139.001 219.717 139.113 219.825 139.228C221.765 141.304 223.925 143.007 226.22 144.675C226.354 144.773 226.488 144.871 226.626 144.972C231.408 148.456 236.733 151.119 242.319 153.044C242.943 153.258 243.564 153.477 244.186 153.697C245.294 154.087 246.403 154.474 247.513 154.858C247.104 156.289 246.649 157.678 246.081 159.053C246.018 159.208 245.955 159.364 245.89 159.523C245.738 159.898 245.584 160.271 245.43 160.645C243.98 160.742 242.821 160.396 241.452 159.936C241.228 159.862 241.004 159.788 240.773 159.712C240.31 159.559 239.848 159.405 239.386 159.249C238.778 159.044 238.169 158.845 237.559 158.646C229.206 155.871 221.476 151.72 215.111 145.601C214.973 145.469 214.835 145.337 214.693 145.202C212.637 143.23 210.76 141.201 209.093 138.889C208.998 138.758 208.903 138.627 208.806 138.492C205.18 133.428 202.485 127.66 200.53 121.762C200.415 121.423 200.3 121.084 200.185 120.746C199.886 119.861 199.593 118.974 199.303 118.086C199.154 117.634 199.001 117.185 198.847 116.735C198.098 114.469 197.926 113.031 198.891 110.837C199.675 108.81 199.928 106.539 200.298 104.403Z"
        fill="#FBFCFC" />
    <path
        d="M253.068 179.855C255.283 179.855 257.498 179.855 259.78 179.855C260.292 181.049 260.65 182.059 260.951 183.295C261.196 184.11 261.509 184.882 261.83 185.67C262.332 186.931 262.782 188.21 263.237 189.489C263.339 189.774 263.441 190.06 263.546 190.354C264.459 192.927 265.284 195.513 266.029 198.139C266.182 198.139 266.335 198.139 266.492 198.139C266.554 198.009 266.615 197.88 266.678 197.746C266.979 197.166 267.322 196.635 267.685 196.092C267.826 195.88 267.968 195.668 268.114 195.449C268.261 195.229 268.409 195.009 268.561 194.783C268.707 194.563 268.854 194.343 269.005 194.117C269.615 193.205 270.224 192.3 270.89 191.427C270.618 191.312 270.345 191.198 270.065 191.08C268.76 190.429 267.809 189.415 267.147 188.118C266.678 186.588 266.648 184.445 267.317 182.965C268.438 181.17 270.053 180.4 272.047 179.855C272.911 179.746 273.755 179.745 274.624 179.764C274.831 179.765 275.038 179.766 275.251 179.767C276.01 179.772 276.77 179.785 277.529 179.797C279.233 179.816 280.938 179.835 282.693 179.855C282.693 186.041 282.693 192.228 282.693 198.602C281.013 198.602 279.333 198.602 277.602 198.602C277.602 196.31 277.602 194.019 277.602 191.658C275.908 191.705 275.908 191.705 275.357 192.208C275.281 192.343 275.206 192.478 275.128 192.617C275.038 192.77 274.948 192.922 274.855 193.08C274.725 193.321 274.725 193.321 274.593 193.568C274.316 194.048 274.04 194.527 273.754 195.002C273.407 195.612 273.407 195.612 273.146 196.384C272.753 197.284 272.407 198.045 271.584 198.602C269.803 199.112 267.856 198.882 266.029 198.79C265.514 198.775 264.998 198.761 264.482 198.749C263.223 198.716 261.965 198.664 260.706 198.602C260.401 197.38 260.095 196.158 259.78 194.899C257.642 194.975 255.503 195.051 253.3 195.13C252.918 196.276 252.536 197.421 252.143 198.602C250.386 198.602 248.629 198.602 246.819 198.602C247.221 197.13 247.612 195.702 248.091 194.261C248.145 194.101 248.198 193.941 248.253 193.776C248.425 193.258 248.598 192.74 248.772 192.223C248.832 192.044 248.891 191.866 248.953 191.682C250.276 187.723 251.665 183.787 253.068 179.855Z"
        fill="#226481" />
    <path
        d="M236.173 207.628C237.853 207.628 239.533 207.628 241.265 207.628C241.265 210.072 241.265 212.516 241.265 215.034C242.804 214.99 242.804 214.99 243.302 214.342C243.401 214.143 243.5 213.944 243.602 213.74C243.772 213.41 243.772 213.41 243.947 213.074C244.059 212.843 244.172 212.611 244.288 212.373C244.739 211.481 245.198 210.595 245.662 209.711C245.761 209.504 245.859 209.298 245.96 209.085C246.28 208.494 246.545 208.071 247.051 207.628C247.981 207.381 248.845 207.429 249.799 207.498C250.047 207.507 250.294 207.517 250.55 207.526C251.159 207.551 251.766 207.585 252.374 207.628C252.073 208.433 251.72 209.143 251.265 209.872C251.139 210.075 251.012 210.277 250.882 210.486C250.749 210.698 250.616 210.91 250.479 211.129C250.344 211.346 250.209 211.563 250.07 211.787C249.503 212.696 248.934 213.604 248.344 214.498C248.199 214.718 248.054 214.938 247.904 215.164C247.781 215.346 247.658 215.528 247.531 215.715C247.211 216.239 247.211 216.239 247.282 217.117C247.548 217.59 247.548 217.59 247.933 218.072C248.874 219.357 249.69 220.702 250.503 222.071C251.213 223.254 251.988 224.361 252.837 225.449C253.254 224.824 253.462 224.357 253.699 223.654C253.775 223.431 253.85 223.207 253.928 222.977C254.009 222.736 254.09 222.494 254.173 222.245C254.3 221.87 254.3 221.87 254.429 221.488C254.7 220.687 254.969 219.886 255.238 219.085C255.506 218.29 255.774 217.495 256.042 216.701C256.209 216.207 256.375 215.712 256.541 215.218C257.403 212.661 258.348 210.147 259.317 207.628C261.532 207.628 263.747 207.628 266.029 207.628C266.27 208.332 266.27 208.332 266.515 209.05C266.683 209.541 266.85 210.032 267.018 210.522C267.14 210.878 267.262 211.234 267.383 211.59C268.167 213.882 268.96 216.172 269.764 218.458C269.883 218.797 269.883 218.797 270.005 219.143C270.397 220.26 270.79 221.376 271.184 222.491C271.329 222.901 271.473 223.311 271.617 223.721C271.684 223.909 271.751 224.097 271.82 224.292C272.072 225.013 272.278 225.605 272.278 226.375C270.522 226.375 268.765 226.375 266.955 226.375C266.029 223.453 266.029 223.453 266.029 222.672C263.814 222.672 261.599 222.672 259.317 222.672C259.088 223.588 258.859 224.505 258.623 225.449C258.394 225.908 258.394 225.908 258.16 226.375C254.57 226.375 250.981 226.375 247.282 226.375C245.199 222.672 245.199 222.672 244.546 221.458C244.369 221.134 244.191 220.811 244.013 220.488C243.926 220.319 243.838 220.15 243.748 219.975C243.613 219.735 243.613 219.735 243.476 219.49C243.401 219.35 243.326 219.21 243.248 219.066C242.763 218.566 242.763 218.566 241.265 218.506C241.265 221.103 241.265 223.7 241.265 226.375C239.584 226.375 237.904 226.375 236.173 226.375C236.173 220.189 236.173 214.002 236.173 207.628Z"
        fill="#226482" />
    <path
        d="M213.983 209.161C215.599 210.761 216.293 213.015 216.313 215.22C216.305 222.023 216.305 222.023 213.897 224.624C211.474 226.788 208.282 226.803 205.203 226.652C203.33 226.485 201.63 225.605 200.299 224.292C198.078 221.549 198.017 217.938 198.216 214.572C198.515 212.14 199.283 210.22 201.239 208.684C204.897 206.183 210.453 206.554 213.983 209.161Z"
        fill="#226481" />
    <path
        d="M199.915 180.766C201.926 182.327 202.819 184.057 203.227 186.562C203.588 189.698 203.366 193.404 201.557 196.099C200.44 197.494 198.778 198.405 197.059 198.833C196.113 198.911 195.172 198.919 194.223 198.92C193.973 198.925 193.723 198.931 193.465 198.937C191.266 198.945 189.281 198.421 187.569 196.981C185.391 194.278 185.189 191.559 185.246 188.233C185.254 187.799 185.256 187.365 185.258 186.931C185.331 184.963 185.967 183.226 187.262 181.719C190.441 178.817 196.332 178.566 199.915 180.766Z"
        fill="#226482" />
    <path
        d="M203.308 179.854C205.141 179.854 206.974 179.854 208.862 179.854C209.358 180.801 209.852 181.749 210.346 182.697C210.514 183.019 210.682 183.342 210.851 183.664C211.093 184.126 211.334 184.59 211.575 185.053C211.65 185.197 211.726 185.342 211.805 185.491C212.334 186.514 212.334 186.514 212.334 187.029C212.639 187.029 212.945 187.029 213.26 187.029C213.26 184.662 213.26 182.294 213.26 179.854C214.864 179.854 216.468 179.854 218.12 179.854C218.12 182.222 218.12 184.59 218.12 187.029C218.426 186.953 218.731 186.877 219.046 186.798C219.378 186.244 219.649 185.72 219.914 185.134C220.073 184.798 220.234 184.462 220.395 184.126C220.477 183.955 220.559 183.784 220.643 183.608C221.281 182.322 222.026 181.094 222.749 179.854C224.506 179.854 226.262 179.854 228.072 179.854C227.164 181.594 226.168 183.264 225.136 184.932C224.938 185.253 224.938 185.253 224.736 185.58C223.723 187.208 223.723 187.208 223.256 187.718C222.91 188.181 222.91 188.181 223.122 188.739C223.47 189.393 223.821 190.042 224.191 190.684C224.413 191.068 224.413 191.068 224.639 191.46C224.716 191.593 224.793 191.726 224.873 191.862C225.103 192.259 225.332 192.657 225.561 193.055C226.412 194.526 227.29 195.97 228.222 197.391C228.535 197.907 228.535 197.907 228.767 198.602C227.01 198.602 225.253 198.602 223.443 198.602C222.367 196.748 221.323 194.883 220.319 192.989C220.216 192.796 220.113 192.603 220.007 192.404C219.912 192.224 219.816 192.043 219.719 191.857C219.633 191.696 219.548 191.535 219.46 191.369C219.277 190.964 219.277 190.964 219.277 190.501C218.895 190.501 218.514 190.501 218.12 190.501C218.12 193.174 218.12 195.847 218.12 198.602C216.516 198.602 214.912 198.602 213.26 198.602C213.26 195.928 213.26 193.255 213.26 190.501C212.089 190.594 212.089 190.594 211.685 191.356C211.559 191.629 211.434 191.902 211.305 192.183C211.237 192.328 211.168 192.474 211.097 192.625C210.879 193.092 210.666 193.561 210.453 194.031C210.238 194.496 210.022 194.961 209.805 195.426C209.608 195.85 209.414 196.275 209.22 196.701C209.043 197.069 209.043 197.069 208.862 197.444C208.758 197.665 208.654 197.886 208.546 198.114C208.168 198.602 208.168 198.602 207.6 198.733C207.271 198.724 207.271 198.724 206.936 198.715C206.579 198.709 206.579 198.709 206.215 198.703C205.967 198.694 205.719 198.684 205.463 198.674C205.212 198.669 204.961 198.663 204.703 198.658C204.083 198.644 203.464 198.625 202.845 198.602C202.929 198.447 203.013 198.293 203.1 198.135C203.711 197.015 204.32 195.896 204.928 194.775C205.275 194.135 205.275 194.135 205.622 193.495C205.737 193.283 205.851 193.071 205.969 192.853C206.084 192.642 206.198 192.431 206.316 192.214C206.429 192.007 206.541 191.8 206.656 191.587C207.128 190.758 207.653 189.967 208.19 189.18C208.461 188.648 208.461 188.648 208.241 188.068C207.954 187.525 207.665 186.991 207.349 186.464C207.177 186.178 207.177 186.178 207.002 185.885C206.881 185.685 206.76 185.485 206.635 185.279C206.511 185.074 206.387 184.869 206.26 184.657C205.415 183.262 204.54 181.897 203.615 180.553C203.308 180.086 203.308 180.086 203.308 179.854Z"
        fill="#206280" />
    <path
        d="M196.827 94.4514C197.061 94.9721 197.061 94.9721 197.218 95.6086C197.362 96.3692 197.362 96.3692 197.753 96.9973C198.774 100.864 198.634 105.676 197.522 109.495C197.46 109.71 197.398 109.926 197.334 110.147C196.366 113.105 194.76 115.773 192.661 118.059C192.46 118.278 192.26 118.498 192.053 118.724C187.567 123.42 180.899 125.838 174.483 125.998C167.114 126.033 159.907 124.006 154.511 118.823C150.964 115.297 148.115 110.115 147.97 104.998C147.972 104.735 147.975 104.472 147.978 104.201C147.98 103.934 147.982 103.668 147.984 103.393C147.987 103.192 147.99 102.991 147.992 102.783C148.603 102.631 149.214 102.478 149.844 102.321C149.909 102.578 149.973 102.836 150.04 103.102C151.682 109.434 154.79 114.867 160.517 118.369C166.579 121.86 173.555 122.768 180.34 120.984C185.888 119.403 190.199 116.02 193.21 111.101C195.1 107.692 195.724 104.573 195.742 100.729C195.744 100.46 195.745 100.19 195.746 99.9119C195.734 98.4687 195.61 97.2242 195.207 95.84C195.178 95.03 195.178 95.03 195.207 94.4514C195.927 94.2114 196.152 94.1434 196.827 94.4514Z"
        fill="#F8FAFB" />
    <path
        d="M181.32 207.628C185.903 207.628 190.486 207.628 195.207 207.628C195.207 208.85 195.207 210.072 195.207 211.331C192.305 211.331 189.402 211.331 186.412 211.331C186.412 212.4 186.412 213.47 186.412 214.571C186.792 214.563 187.171 214.555 187.562 214.547C188.066 214.54 188.57 214.534 189.074 214.528C189.323 214.522 189.573 214.516 189.83 214.51C191.958 214.491 193.485 214.861 195.207 216.191C196.688 217.795 196.719 219.407 196.665 221.488C196.59 222.878 196.275 223.737 195.242 224.684C192.509 226.738 189.128 226.462 185.891 226.418C183.629 226.397 183.629 226.397 181.32 226.375C181.32 220.188 181.32 214.002 181.32 207.628Z"
        fill="#226481" />
    <path
        d="M218.583 207.628C221.01 207.592 221.01 207.592 223.487 207.555C224.243 207.54 224.243 207.54 225.015 207.524C228.036 207.486 230.547 207.635 232.933 209.711C234.388 211.53 234.294 213.951 234.09 216.191C233.624 217.788 232.724 219.012 231.312 219.894C229.514 220.795 227.632 220.855 225.657 220.835C224.676 220.827 224.676 220.827 223.675 220.82C223.675 222.653 223.675 224.486 223.675 226.375C221.995 226.375 220.314 226.375 218.583 226.375C218.583 220.188 218.583 214.002 218.583 207.628Z"
        fill="#226482" />
    <path
        d="M253.068 179.854C255.283 179.854 257.498 179.854 259.78 179.854C260.292 181.049 260.65 182.059 260.951 183.295C261.196 184.11 261.509 184.881 261.83 185.669C262.332 186.93 262.782 188.21 263.237 189.488C263.339 189.774 263.441 190.059 263.546 190.353C264.189 192.165 264.799 193.981 265.349 195.823C265.554 196.515 265.554 196.515 265.827 197.149C266.029 197.676 266.029 197.676 266.029 198.37C264.349 198.37 262.669 198.37 260.938 198.37C260.012 196.056 260.012 196.056 259.78 194.898C257.642 194.975 255.503 195.051 253.3 195.13C252.918 196.276 252.536 197.421 252.143 198.602C250.386 198.602 248.629 198.602 246.819 198.602C247.221 197.13 247.612 195.701 248.091 194.261C248.145 194.101 248.198 193.941 248.253 193.776C248.425 193.258 248.598 192.74 248.772 192.222C248.832 192.044 248.891 191.866 248.953 191.682C250.276 187.723 251.665 183.786 253.068 179.854Z"
        fill="#206280" />
    <path
        d="M229.692 179.854C231.373 179.854 233.053 179.854 234.784 179.854C234.784 182.299 234.784 184.743 234.784 187.261C236.694 187.261 238.603 187.261 240.57 187.261C240.57 184.817 240.57 182.373 240.57 179.854C242.251 179.854 243.931 179.854 245.662 179.854C245.662 186.041 245.662 192.228 245.662 198.602C243.982 198.602 242.302 198.602 240.57 198.602C240.57 196.081 240.57 193.561 240.57 190.964C238.661 190.964 236.751 190.964 234.784 190.964C234.784 193.484 234.784 196.005 234.784 198.602C233.104 198.602 231.424 198.602 229.692 198.602C229.692 192.415 229.692 186.228 229.692 179.854Z"
        fill="#236583" />
    <path
        d="M170.674 179.854C174.722 179.854 178.77 179.854 182.94 179.854C182.94 186.041 182.94 192.228 182.94 198.602C181.337 198.602 179.733 198.602 178.08 198.602C178.08 193.637 178.08 188.673 178.08 183.558C177.011 183.558 175.942 183.558 174.84 183.558C174.816 183.987 174.792 184.417 174.768 184.859C174.614 187.024 174.306 189.163 173.994 191.31C173.926 191.807 173.869 192.305 173.815 192.804C173.58 194.827 172.948 196.369 171.455 197.792C169.629 198.945 167.936 198.857 165.813 198.833C165.813 197.382 165.813 195.931 165.813 194.436C166.501 194.283 167.188 194.13 167.896 193.973C168.713 192.922 168.831 191.558 169.039 190.27C169.077 190.043 169.116 189.817 169.155 189.584C169.538 187.25 169.845 184.904 170.14 182.557C170.176 182.272 170.212 181.988 170.25 181.694C170.281 181.44 170.313 181.185 170.346 180.923C170.442 180.317 170.442 180.317 170.674 179.854Z"
        fill="#206380" />
    <path
        d="M192.198 94.9141C192.58 94.9141 192.962 94.9141 193.355 94.9141C194.956 99.2593 194.66 104.455 192.746 108.669C190.264 113.687 186.148 117.27 180.843 119.071C176.741 120.377 172.11 120.691 167.896 119.679C167.695 119.636 167.494 119.594 167.287 119.55C162.084 118.322 157.512 114.831 154.675 110.349C153.166 107.817 151.412 104.667 151.695 101.626C152.23 101.32 152.765 101.015 153.315 100.7C153.377 100.911 153.44 101.121 153.503 101.338C154.629 104.947 156.155 107.772 158.87 110.421C159.123 110.677 159.123 110.677 159.382 110.939C161.556 113.02 164.358 114.373 167.202 115.281C167.547 115.392 167.547 115.392 167.899 115.505C172.828 116.815 178.775 116.31 183.269 113.85C187.423 111.373 190.575 107.408 191.882 102.721C192.38 100.149 192.239 97.5215 192.198 94.9141Z"
        fill="#F7F9FA" />
    <path
        d="M236.173 207.628C237.853 207.628 239.533 207.628 241.265 207.628C241.265 210.072 241.265 212.516 241.265 215.034C242.804 214.99 242.804 214.99 243.302 214.342C243.401 214.143 243.5 213.944 243.602 213.74C243.772 213.41 243.772 213.41 243.947 213.074C244.059 212.843 244.172 212.611 244.288 212.373C244.739 211.481 245.198 210.595 245.662 209.711C245.761 209.504 245.859 209.298 245.96 209.085C246.28 208.494 246.545 208.071 247.051 207.628C247.981 207.381 248.845 207.429 249.799 207.498C250.047 207.507 250.294 207.517 250.55 207.526C251.159 207.551 251.766 207.585 252.374 207.628C252.073 208.433 251.72 209.143 251.265 209.872C251.139 210.075 251.012 210.277 250.882 210.486C250.749 210.698 250.616 210.91 250.479 211.129C250.344 211.346 250.209 211.563 250.07 211.787C249.503 212.696 248.934 213.604 248.344 214.498C248.199 214.718 248.054 214.938 247.904 215.164C247.781 215.346 247.658 215.528 247.531 215.715C247.211 216.239 247.211 216.239 247.282 217.117C247.548 217.59 247.548 217.59 247.933 218.072C248.874 219.357 249.69 220.702 250.503 222.071C251.134 223.121 251.806 224.095 252.577 225.049C252.837 225.449 252.837 225.449 252.837 226.144C251.011 226.432 249.076 226.698 247.282 226.144C246.013 225.124 245.39 223.563 244.758 222.1C244.421 221.322 244.035 220.591 243.622 219.851C243.516 219.638 243.409 219.425 243.3 219.205C242.807 218.548 242.807 218.548 241.265 218.506C241.265 221.103 241.265 223.7 241.265 226.375C239.584 226.375 237.904 226.375 236.173 226.375C236.173 220.189 236.173 214.002 236.173 207.628Z"
        fill="#226381" />
    <path
        d="M254.226 136.574C254.226 137.258 254.128 137.627 253.9 138.26C253.825 138.469 253.75 138.679 253.673 138.894C253.588 139.126 253.503 139.358 253.416 139.597C253.327 139.841 253.239 140.085 253.147 140.336C252.179 142.986 251.177 145.624 250.175 148.262C250.091 148.484 250.008 148.705 249.921 148.933C249.681 149.565 249.44 150.198 249.199 150.83C249.126 151.023 249.052 151.216 248.977 151.415C248.466 152.749 248.466 152.749 248.208 153.007C246.451 152.92 244.925 152.436 243.275 151.85C243.011 151.756 242.746 151.663 242.473 151.567C239.168 150.381 236.035 148.946 232.947 147.279C232.754 147.175 232.56 147.071 232.361 146.965C231.311 146.382 230.492 145.805 229.692 144.906C229.853 144.901 230.013 144.895 230.178 144.889C234.164 144.73 237.733 144.152 241.496 142.823C241.663 142.765 241.83 142.706 242.002 142.646C243.009 142.284 243.992 141.874 244.968 141.435C245.134 141.36 245.301 141.286 245.472 141.209C248.469 139.856 251.485 138.401 254.226 136.574Z"
        fill="#FAFBFB" />
    <path
        d="M163.268 207.628C164.948 207.628 166.628 207.628 168.359 207.628C168.837 208.584 169.163 209.285 169.444 210.275C170.153 212.661 171.004 215.001 171.831 217.349C172.52 215.712 173.079 214.061 173.581 212.358C173.716 211.904 173.852 211.451 173.987 210.997C174.075 210.701 174.075 210.701 174.164 210.399C174.451 209.471 174.764 208.55 175.071 207.628C176.752 207.628 178.432 207.628 180.163 207.628C179.56 209.748 178.941 211.803 178.123 213.851C177.842 214.59 177.61 215.332 177.386 216.09C177.019 217.317 176.572 218.481 176.059 219.654C175.858 220.135 175.675 220.625 175.508 221.119C174.832 223.104 173.891 224.813 172.072 225.969C170.292 226.781 168.417 226.624 166.508 226.606C166.508 225.384 166.508 224.162 166.508 222.903C167.141 222.858 167.774 222.813 168.406 222.768C169.04 222.674 169.446 222.558 169.979 222.209C170.276 221.622 170.276 221.622 170.442 221.052C169.831 221.052 169.22 221.052 168.591 221.052C168.517 220.866 168.444 220.679 168.368 220.488C167.617 218.595 166.844 216.711 166.059 214.832C165.96 214.594 165.861 214.357 165.759 214.113C165.382 213.208 165.004 212.303 164.625 211.399C164.394 210.846 164.163 210.293 163.933 209.74C163.831 209.496 163.831 209.496 163.726 209.248C163.268 208.144 163.268 208.144 163.268 207.628Z"
        fill="#226380" />
    <path
        d="M161.416 50.0137C161.517 51.8497 161.596 53.3471 160.49 54.874C160.374 55.0369 160.258 55.1998 160.138 55.3677C158.882 56.9394 157.28 57.9375 155.599 58.9983C151.506 61.5847 147.437 64.2581 146.244 69.211C146.21 69.3679 146.176 69.5248 146.141 69.6865C144.741 69.8691 143.899 69.4686 142.724 68.7074C141.327 67.6033 140.981 65.9784 140.741 64.2919C140.605 62.3541 141.431 60.8191 142.537 59.2715C145.374 56.0959 150.286 54.6444 154.189 53.3217C156.303 52.5851 158.293 51.5522 160.221 50.4205C160.953 50.0137 160.953 50.0137 161.416 50.0137Z"
        fill="#FAFBFC" />
    <path
        d="M158.798 179.522C159.064 179.523 159.331 179.523 159.605 179.524C161.554 179.556 163.075 179.805 164.888 180.549C164.735 181.694 164.582 182.84 164.425 184.02C162.239 183.814 162.239 183.814 161.43 183.659C159.7 183.412 158.084 183.328 156.556 184.252C155.438 185.705 155.58 187.301 155.572 189.054C155.567 189.3 155.562 189.545 155.558 189.798C155.549 191.511 155.66 192.932 156.787 194.305C157.69 195.011 158.63 194.943 159.724 194.942C159.89 194.942 160.057 194.942 160.229 194.942C161.404 194.931 162.383 194.779 163.499 194.436C163.805 194.436 164.11 194.436 164.425 194.436C164.686 195.676 164.679 196.878 164.656 198.139C161.572 199.232 157.275 199.479 154.241 198.139C152.357 197.143 151.191 195.509 150.538 193.51C149.704 190.303 149.594 186.217 151.06 183.19C152.862 180.238 155.509 179.493 158.798 179.522Z"
        fill="#216381" />
    <path
        d="M162.805 49.5508C163.759 49.7022 164.697 49.8926 165.64 50.1005C168.481 50.6964 171.393 50.9365 174.279 51.2319C178.033 51.6251 182.391 52.5748 185.096 55.3803C186.068 56.6038 186.664 58.1871 186.759 59.7488C186.536 61.5084 185.971 62.9967 184.561 64.1318C183.531 64.8262 183.531 64.8262 182.94 64.8262C182.761 64.4252 182.761 64.4252 182.579 64.0161C180.279 59.512 174.698 57.9403 170.236 56.425C167.698 55.5441 164.976 54.5779 163.727 52.023C163.628 51.8089 163.628 51.8089 163.528 51.5904C163.421 51.3722 163.421 51.3722 163.313 51.1497C162.805 50.0892 162.805 50.0892 162.805 49.5508Z"
        fill="#FAFBFC" />
    <path
        d="M149.613 75.0098C149.786 75.1213 149.959 75.2329 150.137 75.3479C150.365 75.4941 150.593 75.6403 150.828 75.7909C151.053 75.9359 151.279 76.0809 151.511 76.2303C152.117 76.6301 152.117 76.6301 152.658 76.8279C153.31 77.2326 153.503 77.7853 153.837 78.467C155.221 81.136 157.027 83.7326 159.565 85.4248C159.827 86.0956 159.827 86.0956 160.057 86.9003C160.134 87.1646 160.211 87.4289 160.29 87.7013C160.356 87.9429 160.422 88.1846 160.491 88.4336C160.532 88.5808 160.573 88.7279 160.615 88.8795C160.81 89.7533 160.784 90.6374 160.794 91.5292C160.801 91.7231 160.808 91.917 160.815 92.1168C160.828 93.4026 160.654 94.1263 159.796 95.1455C158.934 95.922 158.203 96.5342 157.019 96.5342C156.971 96.3623 156.923 96.1905 156.874 96.0134C156.38 95.0243 155.541 94.658 154.598 94.1356C151.82 92.3448 150.421 88.2247 149.722 85.1409C149.384 83.1589 149.346 81.2437 149.352 79.2336C149.351 78.9296 149.351 78.6256 149.35 78.3124C149.35 78.0209 149.35 77.7294 149.351 77.4291C149.351 77.1645 149.351 76.9 149.351 76.6274C149.377 76.0439 149.442 75.5647 149.613 75.0098Z"
        fill="#FAFBFC" />
    <path
        d="M145.215 71.5379C145.913 71.4215 146.4 71.4113 147.013 71.7929C147.643 72.3917 147.975 72.8672 148.027 73.7484C147.981 74.2381 147.925 74.7269 147.863 75.2148C147.111 81.3213 147.944 88.3332 151.68 93.386C151.927 93.7567 151.927 93.7567 151.927 94.2196C150.384 94.5282 148.841 94.8368 147.298 95.1453C143.658 89.0149 142.411 81.7006 144.13 74.6811C144.421 73.6065 144.814 72.5748 145.215 71.5379Z"
        fill="#F9FAFB" />
    <path
        d="M151.826 120.792C152.39 120.836 152.39 120.836 152.621 121.067C152.686 122.174 152.584 123.16 152.39 124.25C151.556 129.932 152.273 135.472 154.187 140.855C154.661 142.201 155.044 143.573 155.439 144.944C155.626 145.588 155.815 146.232 156.005 146.876C156.191 147.507 156.376 148.138 156.561 148.77C156.652 149.082 156.744 149.394 156.836 149.707C158.409 155.036 160.089 161.593 158.407 167.125C157.944 167.588 157.944 167.588 157.351 167.631C156.787 167.588 156.787 167.588 156.556 167.356C156.541 166.766 156.54 166.181 156.549 165.591C156.552 165.218 156.555 164.845 156.558 164.473C156.564 163.888 156.57 163.303 156.578 162.718C156.621 159.342 156.442 156.088 155.572 152.804C155.498 152.515 155.498 152.515 155.422 152.219C154.892 150.212 154.229 148.254 153.547 146.295C152.554 143.431 151.663 140.553 150.916 137.615C150.827 137.263 150.736 136.913 150.642 136.563C149.426 131.982 149.471 125.874 150.77 121.299C151.232 120.836 151.232 120.836 151.826 120.792Z"
        fill="#165772" />
    <path
        d="M208.863 211.1C209.738 211.432 210.068 211.68 210.504 212.502C211.138 213.996 211.32 215.27 211.293 216.886C211.297 217.099 211.3 217.312 211.304 217.531C211.295 219.076 210.992 220.382 210.251 221.746C209.057 222.912 208.169 222.985 206.546 222.968C205.613 222.881 205.134 222.629 204.465 221.978C203.225 220.206 203.249 217.854 203.351 215.772C203.358 215.609 203.365 215.446 203.372 215.278C203.465 213.906 203.79 212.768 204.711 211.707C205.873 210.733 207.423 210.99 208.863 211.1Z"
        fill="#F9FBFB" />
    <path
        d="M195.901 183.326C196.85 183.758 197.35 184.466 197.753 185.409C198.408 188.131 198.678 191.293 197.334 193.842C196.627 194.67 196.034 195.075 194.948 195.238C192.619 195.26 192.619 195.26 191.822 194.638C190.738 193.325 190.424 192.181 190.347 190.501C190.339 190.355 190.332 190.209 190.324 190.059C190.215 187.686 190.135 185.509 191.822 183.644C193.169 183.134 194.482 183.129 195.901 183.326Z"
        fill="#F9FBFB" />
    <path
        d="M174.146 44.9218C167.803 48.2981 158.855 47.1661 152.158 45.6162C157.081 40.3263 168.617 40.6567 174.146 44.9218Z"
        fill="#F7F9FA" />
    <path
        d="M270.658 87.0449C272.803 87.5835 274.88 88.297 276.965 89.0267C277.46 89.1992 277.954 89.3714 278.449 89.5432C278.895 89.6982 279.341 89.854 279.787 90.0099C280.597 90.2807 281.408 90.5199 282.231 90.748C281.387 92.5956 279.809 94.085 277.977 94.9394C276.634 95.3955 275.126 95.3661 273.826 94.7839C272.044 93.7271 271.366 92.3356 270.816 90.3729C270.589 89.2474 270.592 88.1851 270.658 87.0449Z"
        fill="#F9FAFB" />
    <path
        d="M156.946 47.8152C157.36 47.898 157.36 47.898 157.781 47.9824C158.453 48.1174 159.125 48.2545 159.796 48.3938C159.407 49.5609 158.288 49.9405 157.234 50.49C155.749 51.2149 154.182 51.7657 152.636 52.3428C151.914 52.6141 151.194 52.887 150.474 53.161C150.215 53.2593 150.215 53.2593 149.95 53.3595C148.603 53.8766 147.302 54.4606 146.003 55.0898C145.446 55.3371 145.446 55.3371 144.983 55.3371C145.227 52.8833 146.55 50.2371 148.455 48.6252C149.052 48.2528 149.658 47.9694 150.307 47.6994C150.445 47.6206 150.584 47.5418 150.726 47.4606C152.575 46.6424 155.067 47.4248 156.946 47.8152Z"
        fill="#F8FAFB" />
    <path
        d="M268.575 105.329C269.536 105.45 270.425 105.599 271.338 105.922C271.606 106.016 271.606 106.016 271.88 106.111C272.011 106.159 272.143 106.206 272.278 106.255C272.147 107.235 271.913 108.043 271.512 108.945C271.102 109.895 270.741 110.839 270.427 111.824C269.987 113.182 269.429 114.461 268.807 115.744C268.722 115.989 268.637 116.233 268.55 116.485C268.066 117.201 267.98 117.243 267.184 117.42C266.824 117.475 266.463 117.524 266.102 117.567C265.917 117.594 265.733 117.62 265.542 117.648C265.088 117.713 264.633 117.771 264.178 117.827C264.377 116.129 264.377 116.129 264.843 115.354C265.245 114.615 265.453 113.931 265.631 113.111C266.036 111.428 266.676 109.872 267.346 108.28C267.465 107.992 267.585 107.703 267.704 107.415C267.993 106.719 268.283 106.024 268.575 105.329Z"
        fill="#F7F9FA" />
    <path
        d="M270.658 81.4902C270.93 81.5809 271.202 81.6716 271.483 81.7651C271.674 81.8286 271.865 81.8922 272.061 81.9576C272.549 82.1203 273.036 82.2837 273.522 82.4477C275.055 82.9624 276.591 83.461 278.137 83.9349C279.332 84.3023 280.492 84.7148 281.646 85.1979C282.819 85.6532 284.032 85.9949 285.239 86.3506C284.948 87.1265 284.617 87.8096 284.169 88.5059C284.066 88.6673 283.962 88.8287 283.856 88.995C283.778 89.1153 283.7 89.2355 283.619 89.3594C281.082 89.034 278.658 87.8866 276.283 86.9893C274.689 86.3933 273.091 85.856 271.459 85.3773C270.89 85.1934 270.89 85.1934 270.658 84.9619C270.641 84.3762 270.637 83.797 270.644 83.2116C270.645 83.0471 270.646 82.8825 270.647 82.713C270.65 82.3054 270.654 81.8978 270.658 81.4902Z"
        fill="#F6F8FA" />
    <path
        d="M154.704 96.0713C154.819 96.415 154.819 96.415 154.936 96.7656C153.257 99.1845 150.047 100.394 147.298 101.163C146.289 101.341 145.327 101.422 144.304 101.409C144.082 101.407 143.86 101.405 143.632 101.403C143.467 101.4 143.302 101.397 143.132 101.395C143.055 101.013 142.979 100.631 142.9 100.237C146.072 96.899 150.292 95.9331 154.704 96.0713Z"
        fill="#F6F8FA" />
    <path
        d="M193.384 89.5186C193.648 89.5149 193.912 89.5112 194.185 89.5073C195.632 89.5065 196.708 89.584 197.984 90.2853C197.984 90.5908 197.984 90.8963 197.984 91.2111C196.008 93.1181 192.887 93.076 190.332 93.106C190.157 93.1091 189.982 93.1122 189.802 93.1153C188.284 93.1173 186.822 92.9161 185.486 92.1369C185.82 91.2811 186.187 91.0005 187.005 90.6035C187.192 90.5099 187.378 90.4162 187.57 90.3196C189.489 89.5841 191.343 89.5128 193.384 89.5186Z"
        fill="#F3F7F8" />
    <path
        d="M223.675 211.331C224.3 211.307 224.925 211.283 225.57 211.259C225.765 211.248 225.96 211.238 226.16 211.227C227.098 211.209 227.514 211.265 228.309 211.812C228.875 212.648 228.901 213.121 228.868 214.123C228.863 214.402 228.858 214.682 228.852 214.97C228.773 215.675 228.716 216.084 228.304 216.654C227.469 217.298 226.472 217.169 225.469 217.146C224.877 217.136 224.285 217.127 223.675 217.117C223.675 215.208 223.675 213.298 223.675 211.331Z"
        fill="#FAFBFC" />
    <path
        d="M177.313 47.4532C178.276 48.2188 179.001 49.2424 179.7 50.245C179.624 50.3977 179.547 50.5505 179.469 50.7079C179.257 50.6648 179.045 50.6217 178.827 50.5774C176.224 50.0615 173.612 49.7197 170.978 49.406C170.354 49.3309 169.73 49.2554 169.107 49.1795C168.723 49.1329 168.339 49.0867 167.955 49.0412C167.078 48.9353 166.215 48.8156 165.351 48.6249C165.351 48.4721 165.351 48.3194 165.351 48.162C165.641 48.1366 165.932 48.1113 166.231 48.0851C168.617 47.9107 168.617 47.9107 170.92 47.323C172.739 46.7006 175.592 46.4794 177.313 47.4532Z"
        fill="#EFF4F5" />
    <path
        d="M274.414 183.512C274.582 183.513 274.749 183.515 274.922 183.516C275.133 183.52 275.344 183.524 275.562 183.529C276.235 183.538 276.908 183.548 277.601 183.558C277.601 185.161 277.601 186.765 277.601 188.418C276.938 188.437 276.274 188.456 275.591 188.476C275.28 188.488 275.28 188.488 274.963 188.501C274.026 188.514 273.551 188.49 272.736 187.98C272.021 187.218 271.982 186.692 271.995 185.649C272.069 184.969 272.32 184.551 272.741 184.02C273.459 183.542 273.604 183.501 274.414 183.512Z"
        fill="#F7F9FA" />
    <path
        d="M186.412 217.811C186.994 217.788 187.577 217.764 188.177 217.739C188.448 217.723 188.448 217.723 188.724 217.707C189.612 217.69 190.2 217.773 190.922 218.314C191.733 219.226 191.676 219.758 191.611 220.928C191.504 221.515 191.504 221.515 191.084 222.122C190.11 222.734 189.214 222.7 188.105 222.686C187.267 222.679 187.267 222.679 186.412 222.672C186.412 221.068 186.412 219.464 186.412 217.811Z"
        fill="#F4F7F8" />
    <path
        d="M151.001 64.5947C151.011 64.753 151.022 64.9113 151.032 65.0745C151.286 69.0843 151.286 69.0843 152.022 73.0253C152.158 73.6211 152.158 73.6211 152.158 74.5469C150.529 73.8192 148.733 72.2663 147.992 70.6123C147.609 69.0656 148.199 67.8907 148.98 66.5692C150.33 64.5947 150.33 64.5947 151.001 64.5947Z"
        fill="#F4F7F8" />
    <path
        d="M176.923 60.8916C178.569 61.4451 179.952 62.78 181.002 64.1463C181.465 65.136 181.515 66.1112 181.16 67.1422C180.943 67.6033 180.706 68.0436 180.452 68.4859C180.372 68.6373 180.291 68.7887 180.208 68.9447C179.748 69.7795 179.32 70.305 178.543 70.8438C178.526 70.669 178.508 70.4942 178.49 70.3142C178.409 69.5068 178.324 68.6998 178.239 67.8928C178.212 67.618 178.185 67.3433 178.156 67.0602C177.965 65.2617 177.636 63.5598 177.154 61.8174C177.076 61.509 176.999 61.2005 176.923 60.8916Z"
        fill="#F7F9FA" />
    <path
        d="M256.309 184.252C256.824 185.025 257.069 185.789 257.336 186.668C257.386 186.831 257.437 186.995 257.489 187.164C257.918 188.573 258.283 189.993 258.623 191.427C257.172 191.427 255.721 191.427 254.226 191.427C255.653 185.562 255.653 185.562 256.309 184.252Z"
        fill="#ECF2F5" />
    <path
        d="M170.905 79.1758C170.69 80.2927 170.332 81.2408 169.386 81.9097C169.2 82.0004 169.014 82.0911 168.822 82.1846C168.593 82.2991 168.593 82.2991 168.359 82.416C166.437 82.6837 165.234 82.387 163.676 81.2407C163.268 80.7959 163.268 80.7959 163.268 79.8701C163.569 79.8588 163.87 79.8474 164.181 79.8357C164.58 79.8184 164.98 79.8009 165.38 79.7833C165.677 79.7726 165.677 79.7726 165.98 79.7616C167.698 79.6823 169.178 79.1162 170.905 79.1758Z"
        fill="#125570" />
    <path
        d="M162.342 68.2979C162.265 68.6034 162.189 68.9089 162.11 69.2237C161.576 69.2237 161.041 69.2237 160.49 69.2237C160.462 69.3669 160.433 69.5101 160.403 69.6577C160.259 70.1495 160.259 70.1495 159.796 70.6124C158.385 70.7406 158.385 70.7406 157.727 70.3375C157.405 69.7883 157.431 69.3864 157.481 68.7608C156.607 69.1038 155.971 69.3611 155.254 69.9759C154.704 70.3809 154.704 70.3809 154.053 70.3231C153.803 70.2371 153.803 70.2371 153.547 70.1495C153.851 69.1879 154.172 68.7767 155.022 68.2401C155.201 68.1243 155.379 68.0085 155.563 67.8893C157.742 66.7143 160.184 67.4544 162.342 68.2979Z"
        fill="#175773" />
    <path
        d="M174.521 66.1662C175.37 66.5316 176.101 66.8714 176.691 67.6037C176.691 67.8328 176.691 68.062 176.691 68.298C175.129 68.0955 175.129 68.0955 174.608 67.8352C174.58 68.0165 174.551 68.1979 174.522 68.3848C174.377 68.9924 174.377 68.9924 173.914 69.4553C173.249 69.571 173.249 69.571 172.525 69.4553C171.6 68.3346 171.6 68.3346 171.6 67.6037C171.296 67.7138 170.992 67.8249 170.688 67.9364C170.435 68.029 170.435 68.029 170.176 68.1236C169.752 68.2642 169.752 68.2642 169.517 68.5295C169.131 68.5389 168.745 68.5394 168.359 68.5295C168.404 68.1127 168.404 68.1127 168.591 67.6037C169.103 67.2177 169.103 67.2177 169.734 66.866C169.941 66.7481 170.148 66.6303 170.362 66.5089C171.685 65.7934 173.064 65.7276 174.521 66.1662Z"
        fill="#145672" />
    <path
        d="M262.326 212.025C262.479 212.025 262.632 212.025 262.789 212.025C263.1 213.008 263.408 213.992 263.715 214.976C263.803 215.256 263.891 215.535 263.982 215.823C264.066 216.091 264.15 216.36 264.236 216.636C264.313 216.883 264.391 217.131 264.471 217.385C264.641 218.043 264.641 218.043 264.641 218.969C263.342 218.969 262.044 218.969 260.706 218.969C260.804 217.168 261.301 215.542 261.827 213.829C262.011 213.227 262.178 212.635 262.326 212.025Z"
        fill="#F1F5F7" />
    <path
        d="M262.326 121.067C263.152 121.034 263.818 121.023 264.604 121.295C265.377 121.544 266.003 121.596 266.813 121.61C267.225 121.62 267.225 121.62 267.644 121.63C268.219 121.641 268.794 121.651 269.369 121.661C269.78 121.671 269.78 121.671 270.198 121.682C270.572 121.688 270.572 121.688 270.954 121.695C271.584 121.762 271.584 121.762 272.278 122.224C272.076 123.121 272.076 123.121 271.815 123.382C268.799 123.653 264.672 123.48 262.095 121.762C262.171 121.532 262.247 121.303 262.326 121.067Z"
        fill="#EDF2F4" />
    <path
        d="M301.672 60.4287C301.786 60.7724 301.786 60.7724 301.903 61.123C301.586 61.7345 301.255 62.3053 300.891 62.8878C300.064 64.2464 299.278 65.6127 298.547 67.0249C296.719 70.5238 294.65 73.841 292.414 77.0928C292.311 77.2424 292.209 77.3919 292.103 77.5461C290.761 79.4903 289.32 81.3146 287.785 83.1104C287.398 83.5723 287.013 84.0356 286.628 84.499C286.475 84.4226 286.322 84.3463 286.165 84.2676C286.249 84.162 286.332 84.0564 286.418 83.9476C290.694 78.5344 294.567 72.8928 297.915 66.8567C298.704 65.4371 299.527 64.0384 300.356 62.6419C300.487 62.4196 300.619 62.1973 300.755 61.9683C301.06 61.4549 301.366 60.9416 301.672 60.4287Z"
        fill="#D6E2E9" />
    <path
        d="M261.863 123.613C263.271 123.748 264.611 123.967 265.986 124.293C267.446 124.63 268.9 124.922 270.383 125.142C270.89 125.233 270.89 125.233 271.353 125.465C271.276 125.847 271.2 126.229 271.121 126.622C268.01 126.816 264.477 126.05 261.863 124.308C261.863 124.078 261.863 123.849 261.863 123.613Z"
        fill="#EFF3F5" />
    <path
        d="M165.119 67.6034C165.505 67.5935 165.891 67.594 166.277 67.6034C166.775 68.1017 166.734 69.1127 166.841 69.8022C167.024 70.9552 167.208 72.0969 167.492 73.2304C167.653 74.0223 167.679 74.4804 167.434 75.2411C166.884 75.2845 166.884 75.2845 166.277 75.2411C165.709 74.39 165.596 73.5832 165.438 72.594C165.407 72.4086 165.377 72.2232 165.345 72.0322C165.115 70.5497 165.04 69.1035 165.119 67.6034Z"
        fill="#15566F" />
    <path
        d="M272.278 117.596C272.452 118.001 272.452 118.001 272.51 118.522C271.735 119.586 270.574 120.018 269.314 120.274C268.544 120.377 267.804 120.412 267.027 120.417C266.769 120.42 266.51 120.423 266.244 120.427C265.566 120.373 265.566 120.373 264.872 119.91C264.872 119.681 264.872 119.452 264.872 119.216C265.171 119.157 265.469 119.098 265.777 119.038C266.175 118.958 266.572 118.877 266.97 118.797C267.166 118.758 267.362 118.72 267.564 118.68C268.475 118.494 269.323 118.295 270.174 117.914C270.939 117.574 271.451 117.535 272.278 117.596Z"
        fill="#E9EFF2" />
    <path
        d="M289.868 72.2324C289.945 72.3852 290.021 72.5379 290.1 72.6953C289.919 73.1733 289.919 73.1733 289.62 73.7685C289.51 73.9906 289.399 74.2127 289.285 74.4415C289.162 74.6815 289.04 74.9216 288.913 75.1689C288.789 75.4141 288.665 75.6594 288.536 75.9121C287.619 77.7043 286.676 79.482 285.702 81.2443C285.577 81.4744 285.453 81.7045 285.324 81.9415C285.205 82.1527 285.087 82.3639 284.964 82.5815C284.861 82.7679 284.757 82.9544 284.651 83.1465C284.313 83.5732 284.313 83.5732 283.839 83.7654C283.388 83.8047 283.388 83.8047 282.925 83.5732C283.067 82.8814 283.285 82.376 283.664 81.7823C283.771 81.614 283.878 81.4457 283.988 81.2724C284.105 81.0913 284.222 80.9102 284.342 80.7236C284.463 80.5344 284.584 80.3453 284.708 80.1504C286.407 77.4978 288.121 74.8533 289.868 72.2324Z"
        fill="#EDF3F5" />
    <path
        d="M262.558 126.391C263.79 126.638 264.966 126.95 266.151 127.366C267.053 127.652 267.975 127.846 268.899 128.047C269.524 128.25 269.81 128.409 270.195 128.937C270.123 129.443 270.123 129.443 269.964 129.862C267.521 130.09 265.124 129.068 263.252 127.548C262.849 127.187 262.849 127.187 262.558 126.854C262.558 126.701 262.558 126.548 262.558 126.391Z"
        fill="#F0F4F6" />
    <path
        d="M283.388 65.752C283.678 66.6238 283.514 66.9374 283.227 67.8015C283.138 68.0727 283.049 68.3438 282.958 68.6232C282.861 68.912 282.764 69.2009 282.664 69.4985C282.566 69.797 282.468 70.0955 282.37 70.3941C282.178 70.9796 281.984 71.5648 281.791 72.1499C281.497 73.047 281.218 73.9474 280.943 74.8506C280.203 77.2398 279.359 79.5947 278.527 81.9531C278.222 81.9531 277.916 81.9531 277.602 81.9531C277.705 80.9348 277.912 80.1121 278.326 79.1792C278.709 78.2938 279.04 77.3876 279.381 76.4852C279.545 76.0528 279.709 75.6203 279.873 75.1879C279.956 74.9673 280.04 74.7467 280.126 74.5194C280.373 73.8684 280.621 73.218 280.871 72.5678C281.738 70.3052 282.588 68.0393 283.388 65.752Z"
        fill="#E9F0F3" />
    <path
        d="M271.584 64.3633C271.66 64.3633 271.737 64.3633 271.815 64.3633C271.793 65.7618 271.769 67.1603 271.742 68.5588C271.733 69.0323 271.725 69.5058 271.718 69.9793C271.668 73.1451 271.49 76.2622 271.121 79.4072C270.816 79.3308 270.51 79.2545 270.195 79.1758C270.32 74.2147 270.964 69.2828 271.584 64.3633Z"
        fill="#C9DAE1" />
    <path
        d="M270.427 45.1533C270.656 45.1533 270.885 45.1533 271.121 45.1533C271.135 46.1852 271.143 47.217 271.15 48.2489C271.154 48.5386 271.158 48.8283 271.162 49.1268C271.171 50.7937 271.077 52.3314 270.658 53.9482C270.429 53.7191 270.2 53.49 269.964 53.2539C269.735 53.3685 269.735 53.3685 269.501 53.4854C269.813 46.3799 269.813 46.3799 270.427 45.1533Z"
        fill="#34738D" />
    <path
        d="M301.672 60.4287C301.748 60.6578 301.825 60.887 301.903 61.123C301.586 61.7345 301.255 62.3053 300.891 62.8878C300.064 64.2464 299.278 65.6127 298.547 67.0249C297.811 68.4332 297.053 69.827 296.262 71.2054C296.165 71.3778 296.069 71.5503 295.969 71.7279C295.73 72.1397 295.463 72.5353 295.191 72.9268C294.962 72.9268 294.733 72.9268 294.497 72.9268C294.821 72.0411 295.235 71.2911 295.741 70.4966C296.594 69.1388 297.395 67.7542 298.186 66.3595C299.318 64.3642 300.48 62.3889 301.672 60.4287Z"
        fill="#D7E3EA" />
    <path
        d="M263.252 111.81C263.405 111.886 263.557 111.962 263.715 112.041C263.79 112.975 263.77 113.55 263.353 114.399C262.678 115.178 262.073 115.49 261.169 115.976C261.016 116.205 260.863 116.434 260.706 116.67C260.63 116.517 260.553 116.364 260.475 116.207C260.322 116.283 260.169 116.36 260.012 116.438C260.322 115.528 260.713 114.951 261.371 114.254C262.089 113.474 262.697 112.711 263.252 111.81Z"
        fill="#EDF2F5" />
    <path
        d="M168.822 75.9356C168.895 76.4708 168.895 76.4708 168.822 77.0928C167.963 77.9237 167.012 77.8619 165.884 77.8568C165.351 77.7872 165.351 77.7872 164.656 77.3243C164.733 76.9424 164.809 76.5605 164.888 76.1671C165.101 76.1711 165.101 76.1711 165.319 76.1752C165.6 76.1783 165.6 76.1783 165.886 76.1815C166.071 76.1842 166.256 76.1869 166.447 76.1897C167.272 76.1541 167.974 75.9127 168.822 75.9356Z"
        fill="#185975" />
    <path
        d="M273.899 72.2324C273.975 72.2324 274.051 72.2324 274.13 72.2324C274.167 74.0285 274.052 75.7958 273.899 77.5846C273.876 77.8501 273.854 78.1157 273.832 78.3892C273.778 79.0372 273.723 79.6851 273.667 80.333C273.362 80.2566 273.056 80.1803 272.741 80.1016C272.656 78.3863 272.979 76.8021 273.32 75.1255C273.375 74.8468 273.43 74.5682 273.487 74.2811C273.623 73.5979 273.76 72.915 273.899 72.2324Z"
        fill="#D4E1E7" />
    <path
        d="M306.069 56.957C306.298 57.0334 306.528 57.1098 306.764 57.1885C306.621 58.3364 306.116 59.2568 305.592 60.2696C305.461 60.5267 305.461 60.5267 305.328 60.789C305.113 61.2096 304.897 61.6293 304.681 62.0488C304.375 61.8197 304.07 61.5906 303.755 61.3545C304.519 59.9033 305.282 58.4522 306.069 56.957Z"
        fill="#306C8C" />
    <path
        d="M276.444 73.6211C276.739 74.4764 276.629 75.1696 276.496 76.0549C276.453 76.3443 276.411 76.6337 276.367 76.9318C276.321 77.2332 276.275 77.5345 276.227 77.845C276.181 78.1529 276.136 78.4609 276.09 78.7689C275.978 79.522 275.865 80.2748 275.75 81.0273C275.444 80.951 275.139 80.8746 274.824 80.7959C274.75 79.6418 274.909 78.8117 275.302 77.7302C275.582 76.9052 275.804 76.069 276.025 75.2267C276.066 75.0694 276.108 74.912 276.15 74.7498C276.249 74.3737 276.347 73.9974 276.444 73.6211Z"
        fill="#C1D4DC" />
    <path
        d="M274.13 47.9307C274.491 48.6537 274.262 49.3694 274.147 50.1439C274.122 50.3168 274.097 50.4897 274.072 50.6678C274.018 51.0337 273.964 51.3995 273.91 51.7651C273.826 52.3255 273.747 52.8864 273.667 53.4474C273.615 53.8024 273.563 54.1574 273.511 54.5124C273.487 54.6807 273.463 54.849 273.439 55.0223C273.257 56.2096 273.257 56.2096 272.741 56.7256C272.862 53.8539 273.084 51.0149 273.436 48.1621C273.665 48.0857 273.894 48.0094 274.13 47.9307Z"
        fill="#C4D6DE" />
    <path
        d="M290.562 78.4814C290.715 78.7106 290.868 78.9397 291.025 79.1758C290.88 79.3494 290.734 79.5231 290.584 79.702C290.384 79.9412 290.184 80.1805 289.984 80.4198C289.879 80.5443 289.775 80.6688 289.667 80.797C288.833 81.7959 288.034 82.819 287.251 83.8589C287.122 83.9938 286.992 84.1286 286.859 84.2676C286.63 84.2676 286.401 84.2676 286.165 84.2676C286.257 84.1499 286.349 84.0321 286.444 83.9109C286.867 83.3695 287.29 82.8276 287.713 82.2858C287.858 82.1007 288.003 81.9156 288.152 81.7248C288.981 80.6605 289.787 79.586 290.562 78.4814Z"
        fill="#D9E5EB" />
    <path
        d="M269.732 49.3193C269.809 49.3193 269.885 49.3193 269.964 49.3193C270.04 49.7776 270.117 50.2359 270.195 50.708C270.272 50.708 270.348 50.708 270.427 50.708C270.503 50.3261 270.58 49.9442 270.658 49.5508C271.107 50.296 271.158 50.7619 271.049 51.6193C271.024 51.8213 270.999 52.0233 270.973 52.2314C270.887 52.8087 270.791 53.3797 270.658 53.9482C270.429 53.7191 270.2 53.49 269.964 53.2539C269.811 53.3303 269.658 53.4067 269.501 53.4854C269.616 51.4232 269.616 51.4232 269.732 49.3193Z"
        fill="#709BAC" />
    <path
        d="M301.672 60.4287C301.903 61.123 301.903 61.123 301.739 61.519C301.65 61.6625 301.56 61.806 301.468 61.9539C301.37 62.1152 301.272 62.2765 301.171 62.4426C301.064 62.6134 300.957 62.7842 300.847 62.9601C299.879 64.5519 298.999 66.1501 298.2 67.835C298.047 67.7586 297.895 67.6822 297.737 67.6035C298.071 66.7138 298.481 65.9039 298.946 65.0757C299.09 64.8194 299.233 64.5631 299.381 64.2991C299.531 64.0339 299.681 63.7686 299.835 63.4954C299.987 63.2239 300.139 62.9523 300.291 62.6808C301.409 60.6921 301.409 60.6921 301.672 60.4287Z"
        fill="#BDD2DD" />
    <path
        d="M270.195 51.4023C270.272 51.4023 270.348 51.4023 270.427 51.4023C270.503 52.7771 270.58 54.1519 270.658 55.5684C270.505 55.5684 270.353 55.5684 270.195 55.5684C270.195 55.4156 270.195 55.2629 270.195 55.1055C269.89 55.1818 269.584 55.2582 269.27 55.3369C269.645 52.2282 269.645 52.2282 270.195 51.4023Z"
        fill="#346D87" />
    <path
        d="M283.388 65.752C283.676 66.6164 283.519 66.9238 283.237 67.7798C283.152 68.0386 283.068 68.2974 282.981 68.5641C282.891 68.8343 282.801 69.1044 282.708 69.3828C282.574 69.792 282.574 69.792 282.437 70.2095C282.216 70.8845 281.992 71.5587 281.768 72.2324C281.615 72.156 281.462 72.0797 281.305 72.001C281.452 71.1696 281.672 70.4088 281.964 69.6169C282.047 69.3909 282.129 69.1649 282.215 68.9321C282.344 68.5823 282.344 68.5823 282.476 68.2255C282.607 67.8691 282.607 67.8691 282.741 67.5054C282.956 66.9207 283.171 66.3362 283.388 65.752Z"
        fill="#B5CED7" />
    <path
        d="M296.349 58.3457C296.578 58.4221 296.807 58.4985 297.043 58.5771C296.65 59.673 296.086 60.6513 295.51 61.6583C295.412 61.8297 295.315 62.0011 295.215 62.1777C294.976 62.598 294.737 63.0178 294.497 63.4375C294.421 63.2847 294.344 63.132 294.266 62.9746C294.431 62.4971 294.431 62.4971 294.699 61.9168C294.841 61.6058 294.841 61.6058 294.986 61.2885C295.087 61.0716 295.188 60.8547 295.293 60.6312C295.443 60.3032 295.443 60.3032 295.597 59.9685C295.846 59.4268 296.096 58.8859 296.349 58.3457Z"
        fill="#C5D8E0" />
    <path
        d="M288.943 50.2451C289.095 50.3215 289.248 50.3979 289.405 50.4766C288.489 53.1116 288.489 53.1116 287.554 55.7998C287.331 54.9063 287.317 54.6668 287.537 53.8298C287.613 53.5382 287.613 53.5382 287.691 53.2408C287.746 53.0399 287.801 52.8389 287.858 52.6319C287.91 52.4283 287.962 52.2247 288.016 52.0149C288.316 50.8953 288.316 50.8953 288.48 50.4766C288.632 50.4002 288.785 50.3238 288.943 50.2451Z"
        fill="#C2D6DD" />
    <path
        d="M140.586 129.862C140.662 129.862 140.738 129.862 140.817 129.862C140.831 130.089 140.845 130.315 140.86 130.549C140.879 130.852 140.898 131.155 140.918 131.468C140.929 131.627 140.939 131.786 140.949 131.949C141.005 132.801 141.08 133.645 141.193 134.491C141.304 135.386 141.218 136.153 141.049 137.037C140.972 137.037 140.896 137.037 140.817 137.037C140.55 134.644 140.563 132.266 140.586 129.862Z"
        fill="#518398" />
    <path
        d="M279.453 55.7998C279.808 56.091 279.808 56.091 280.147 56.4941C280.057 57.1808 279.936 57.7835 279.757 58.447C279.713 58.6237 279.67 58.8005 279.625 58.9826C279.413 59.8216 279.199 60.6012 278.759 61.3545C278.901 59.4866 279.15 57.6482 279.453 55.7998Z"
        fill="#B8D0DB" />
    <path
        d="M303.755 59.7344C303.908 59.9635 304.06 60.1926 304.218 60.4287C303.939 61.4026 303.399 62.2765 302.916 63.1627C302.803 63.3701 302.803 63.3701 302.688 63.5817C302.504 63.9197 302.32 64.2573 302.135 64.5947C302.058 64.442 301.982 64.2892 301.903 64.1318C302.147 63.5061 302.404 62.9036 302.684 62.2947C302.836 61.96 302.987 61.6252 303.138 61.2903C303.206 61.1417 303.275 60.9932 303.345 60.8401C303.548 60.3877 303.548 60.3877 303.755 59.7344Z"
        fill="#B4CBD6" />
    <path
        d="M294.729 61.3545C294.881 61.4309 295.034 61.5072 295.192 61.5859C295.115 61.8151 295.039 62.0442 294.96 62.2803C295.113 62.433 295.266 62.5858 295.423 62.7432C294.888 63.4306 294.354 64.1179 293.803 64.8262C293.495 63.9039 293.749 63.5763 294.136 62.6998C294.245 62.4483 294.355 62.1968 294.467 61.9376C294.554 61.7452 294.64 61.5528 294.729 61.3545Z"
        fill="#33708C" />
    <path
        d="M270.427 45.1533C270.656 45.1533 270.885 45.1533 271.121 45.1533C271.134 45.5631 271.143 45.973 271.15 46.3829C271.155 46.6111 271.161 46.8393 271.166 47.0745C271.121 47.6992 271.121 47.6992 270.658 48.3936C270.438 47.2912 270.407 46.272 270.427 45.1533Z"
        fill="#226988" />
    <path
        d="M288.479 81.2588C288.556 81.4879 288.632 81.7171 288.711 81.9531C288.353 82.5272 288.353 82.5272 287.843 83.1537C287.677 83.3623 287.511 83.5708 287.34 83.7857C287.102 84.0242 287.102 84.0242 286.859 84.2676C286.63 84.2676 286.401 84.2676 286.165 84.2676C287.311 82.7782 287.311 82.7782 288.479 81.2588Z"
        fill="#CADCE3" />
    <path
        d="M275.519 78.4814C275.595 78.4814 275.671 78.4814 275.75 78.4814C275.75 79.3216 275.75 80.1617 275.75 81.0273C275.444 80.951 275.139 80.8746 274.824 80.7959C274.896 80.4533 274.968 80.111 275.041 79.7689C275.102 79.4829 275.102 79.4829 275.163 79.1912C275.287 78.7129 275.287 78.7129 275.519 78.4814Z"
        fill="#E8EFF3" />
    <path
        d="M306.069 56.957C306.298 57.0334 306.528 57.1098 306.764 57.1885C306.677 57.8324 306.608 58.2503 306.2 58.7652C305.838 59.04 305.838 59.04 305.375 59.04C305.504 58.2661 305.688 57.6437 306.069 56.957Z"
        fill="#286481" />
    <path
        d="M271.584 46.3105C271.883 47.2072 271.679 47.889 271.482 48.7841C271.448 48.9466 271.414 49.109 271.379 49.2764C271.295 49.6768 271.208 50.0767 271.121 50.4766C271.044 50.4766 270.968 50.4766 270.889 50.4766C270.761 47.5442 270.761 47.5442 271.584 46.3105Z"
        fill="#E5EDF1" />
    <path
        d="M289.868 72.2324C289.945 72.3852 290.021 72.5379 290.1 72.6953C289.818 73.3481 289.818 73.3481 289.42 74.1129C289.289 74.3665 289.158 74.6201 289.023 74.8814C288.92 75.0765 288.817 75.2716 288.711 75.4727C288.482 75.3199 288.253 75.1671 288.017 75.0098C288.628 74.0932 289.239 73.1767 289.868 72.2324Z"
        fill="#C2D7E0" />
    <path
        d="M281.073 72.001C281.226 72.001 281.379 72.001 281.536 72.001C281.338 73.9848 281.338 73.9848 280.842 74.7783C280.567 74.4312 280.567 74.4312 280.379 73.8525C280.548 73.2072 280.799 72.6081 281.073 72.001Z"
        fill="#D8E4EA" />
    <path
        d="M300.283 59.2715C300.512 59.4242 300.741 59.577 300.978 59.7344C300.443 60.5745 299.908 61.4147 299.357 62.2803C299.281 62.1275 299.205 61.9748 299.126 61.8174C299.357 61.2153 299.357 61.2153 299.69 60.5155C299.8 60.2834 299.909 60.0513 300.022 59.8121C300.108 59.6337 300.194 59.4553 300.283 59.2715Z"
        fill="#B3CCD6" />
    <path
        d="M291.951 76.6299C292.104 76.6299 292.257 76.6299 292.414 76.6299C292.091 77.6562 291.58 78.2208 290.794 78.9443C290.91 77.9295 291.253 77.3705 291.951 76.6299Z"
        fill="#E6EDF1" />
    <path
        d="M270.195 51.4023C270.272 51.4023 270.348 51.4023 270.427 51.4023C270.427 52.1661 270.427 52.9299 270.427 53.7168C269.968 53.9459 269.968 53.9459 269.501 54.1797C269.527 53.8468 269.557 53.5141 269.588 53.1816C269.604 52.9963 269.62 52.811 269.637 52.6201C269.732 52.0967 269.732 52.0967 270.195 51.4023Z"
        fill="#195B77" />
    <path
        d="M274.824 45.1533C275.512 45.1533 276.199 45.1533 276.907 45.1533C276.907 45.688 276.907 46.2226 276.907 46.7734C276.831 46.7734 276.754 46.7734 276.676 46.7734C276.676 46.3152 276.676 45.8569 276.676 45.3848C275.802 45.6372 275.178 45.8264 274.593 46.542C274.669 46.0837 274.746 45.6255 274.824 45.1533Z"
        fill="#5E8CA3" />
    <path
        d="M288.017 75.2412C288.169 75.2412 288.322 75.2412 288.479 75.2412C288.306 76.3406 288.306 76.3406 287.785 76.8613C287.556 76.8613 287.327 76.8613 287.091 76.8613C287.339 76.1866 287.502 75.7555 288.017 75.2412Z"
        fill="#DCE8ED" />
    <path
        d="M294.266 72.9268C294.495 73.0031 294.724 73.0795 294.96 73.1582C294.654 73.6928 294.349 74.2275 294.034 74.7783C293.881 74.7783 293.729 74.7783 293.571 74.7783C293.698 73.9973 293.815 73.602 294.266 72.9268Z"
        fill="#E2EBF0" />
    <path
        d="M155.167 68.0664C155.32 68.1428 155.472 68.2192 155.63 68.2979C154.97 68.9765 154.322 69.6039 153.547 70.1494C153.859 69.1267 154.302 68.6813 155.167 68.0664Z"
        fill="#296480" />
    <path
        d="M305.144 60.4287C304.97 61.5281 304.97 61.5281 304.449 62.0488C304.373 61.8961 304.296 61.7433 304.218 61.5859C304.065 61.5096 303.912 61.4332 303.755 61.3545C304.623 60.4287 304.623 60.4287 305.144 60.4287Z"
        fill="#296786" />
    <path
        d="M298.663 65.5205C298.816 65.6733 298.969 65.826 299.126 65.9834C298.82 66.5944 298.515 67.2054 298.2 67.835C298.047 67.7586 297.895 67.6822 297.737 67.6035C298.015 66.8899 298.311 66.2003 298.663 65.5205Z"
        fill="#C6D7E0" />
    <path
        d="M260.938 125.696C261.014 125.696 261.09 125.696 261.169 125.696C261.169 126.231 261.169 126.766 261.169 127.316C260.863 127.393 260.558 127.469 260.243 127.548C260.677 125.957 260.677 125.957 260.938 125.696Z"
        fill="#B3C8D1" />
    <path
        d="M269.732 49.3193C269.809 49.3193 269.885 49.3193 269.964 49.3193C269.993 49.5437 270.021 49.7681 270.051 49.9992C270.098 50.2331 270.146 50.467 270.195 50.708C270.348 50.7844 270.501 50.8608 270.658 50.9395C270.658 51.3213 270.658 51.7032 270.658 52.0967C270.582 51.8675 270.505 51.6384 270.427 51.4023C270.198 51.326 269.968 51.2496 269.732 51.1709C269.732 50.5599 269.732 49.9489 269.732 49.3193Z"
        fill="#51859A" />
    <path
        d="M152.158 163.885C152.311 163.885 152.464 163.885 152.621 163.885C152.545 164.267 152.468 164.649 152.39 165.042C152.008 165.042 151.626 165.042 151.232 165.042C151.232 164.889 151.232 164.736 151.232 164.579C151.538 164.579 151.843 164.579 152.158 164.579C152.158 164.35 152.158 164.121 152.158 163.885Z"
        fill="#326E85" />
    <path
        d="M296.812 69.6865C296.964 69.9157 297.117 70.1448 297.274 70.3809C296.893 70.9155 296.511 71.4501 296.117 72.001C295.964 71.9246 295.812 71.8482 295.654 71.7695C296.036 71.0821 296.418 70.3947 296.812 69.6865Z"
        fill="#31708D" />
    <path
        d="M279.685 54.4111C279.761 54.7166 279.837 55.0221 279.916 55.3369C280.069 55.3369 280.222 55.3369 280.379 55.3369C280.226 55.7952 280.073 56.2534 279.916 56.7256C279.84 56.7256 279.763 56.7256 279.685 56.7256C279.685 55.9618 279.685 55.198 279.685 54.4111Z"
        fill="#DFEAEE" />
</svg>