<svg width="1513" height="688" viewBox="0 0 1513 688" fill="none" xmlns="http://www.w3.org/2000/svg">
<path d="M1513 0H0V688H1513V0Z" fill="white"/>
<path d="M319.488 112.723C326.67 118.835 331.866 125.64 336.781 133.652C339.792 138.418 343.47 141.882 348.312 144.75C355.399 149.349 360.569 155.661 364.699 162.981C366.057 165.223 366.057 165.223 368.519 167.672C372.174 171.978 372.516 177.038 373.383 182.455C374.352 187.711 375.531 190.65 380 194C386.504 195.943 393.211 192.823 399 190C400.676 189.016 402.346 188.021 404 187C410.111 185.04 417.279 185.194 423.375 187C429.99 192.041 432.922 198.589 435.726 206.266C437.4 209.859 439.439 212.22 443 214C450.855 215.146 456.136 210.868 462.242 206.336C463.544 205.338 464.836 204.327 466.113 203.297C471.724 199.44 477.408 199.286 484 200C492.534 202.212 496.71 209.439 501.25 216.438C502.908 219.209 502.908 219.209 506 221C511.547 221.447 514.393 221.363 519 218C521.085 215.479 521.085 215.479 522.937 212.625C527.163 206.612 530.864 202.396 538 200C545.378 199.125 551.97 199.402 558 204C560.402 206.251 562.688 208.558 564.922 210.977C568.224 214.192 570.846 215.289 575.437 215.313C576.549 215.338 576.549 215.338 577.683 215.363C580.834 214.869 582.483 213.985 585 212C586.444 209.562 587.679 207.238 588.875 204.688C592.135 198.137 595.199 193.4 602 190C610.714 189.16 617.451 189.947 625.281 193.906C628.417 195.168 630.648 195.343 634 195C634.68 194.319 635.361 193.639 636.062 192.938C636.702 192.298 637.341 191.659 638 191C640.75 191.25 640.75 191.25 643 192C643.33 193.65 643.66 195.3 644 197C640.315 201.035 636.989 204.487 631.312 204.813C625.681 204.439 621.082 201.952 616.176 199.313C612.512 197.799 609.929 197.67 606 198C600.617 200.427 599.137 203.364 597.047 208.555C594.348 214.858 590.952 220.703 584.398 223.402C578.449 224.885 572.215 225.366 566.48 222.93C564.143 221.431 562.092 219.825 560 218C559.181 217.292 558.363 216.585 557.519 215.856C555.946 214.467 554.387 213.062 552.847 211.637C549.113 208.329 545.579 208.599 540.754 208.668C536.695 209.157 534.442 210.892 532 214C530.396 216.271 528.867 218.574 527.367 220.914C524.197 225.751 521.523 227.442 516 229C512.781 229.336 512.781 229.336 509.5 229.375C508.417 229.403 507.334 229.432 506.219 229.461C501.616 228.802 498.652 226.98 495.657 223.391C494.342 221.583 493.098 219.746 491.875 217.875C487.662 211.427 487.662 211.427 480.808 208.524C473.696 208.078 470.19 210.56 464.719 214.887C458.163 219.982 452.03 222.905 443.613 222.488C437.015 221.256 432.795 217.35 429 212C427.384 208.438 425.98 204.825 424.562 201.18C422.994 197.988 422.043 196.724 419 195C413.926 193.309 409.77 193.411 404.957 195.715C403.568 196.442 402.186 197.183 400.812 197.938C399.425 198.679 398.036 199.418 396.644 200.152C396.039 200.482 395.435 200.812 394.812 201.152C389.096 203.827 383.211 203.712 377.312 201.813C372.709 199.294 369.891 196.338 367 192C366.367 189.738 366.367 189.738 365.875 187.313C365.707 186.504 365.54 185.696 365.367 184.863C365.246 184.249 365.125 183.634 365 183C362.001 189.958 361.633 193.396 364.375 200.625C364.642 201.295 364.908 201.966 365.183 202.656C366.154 205.444 366.785 208.247 367.437 211.125C368.936 217.34 370.527 221.351 376 225C385.016 226.647 391.04 224.364 398.606 219.941C404.549 216.519 409.415 215.037 416.176 216.457C423.924 218.952 428.166 223.672 431.838 230.692C432.658 232.322 433.478 233.952 434.299 235.582C437.389 241.523 437.389 241.523 443 245C448.767 246.517 453.279 245.135 458.406 242.279C460.188 241.224 461.949 240.143 463.703 239.043C468.842 235.858 472.735 233.571 478.875 233.563C479.842 233.543 480.808 233.524 481.804 233.504C489.764 234.74 494.38 238.882 499.187 245.063C503.785 250.955 503.785 250.955 510 255C515.237 255.571 518.588 254.878 523 252C525.381 249.44 527.394 246.863 529.398 244.008C533.49 238.271 537.767 233.427 545 232C553.28 231.155 560.941 234.197 567.5 239.125C568.669 240.081 569.835 241.039 571 242C575.061 244.708 578.235 244.522 583 244C588.583 241.999 591.287 238.952 594.226 233.887C598.008 227.601 602.129 223.767 609 221C616.965 219.222 625.197 222.782 632 226.75C637.676 229.115 643.683 228.801 649.437 226.813C654.405 223.299 656.455 219.41 658.289 213.77C659 212 659 212 661 210C663.625 210.375 663.625 210.375 666 211C667.588 216.874 665.825 220.79 663 226C658.918 231.569 653.698 235.288 647 237C637.719 238.423 631.347 236.628 623.275 232.447C618.875 230.226 615.701 229.108 610.851 230.234C604.672 232.789 602.012 237.367 598.574 242.781C595.4 247.255 591.115 250.945 586 253C574.614 254.399 568.164 250.71 559.176 244.367C554.861 241.656 551.101 240.3 546 241C539.18 243.617 536.44 248.239 532.863 254.332C529.437 259.237 524.614 262.129 519 264C511.593 264.76 505.702 263.348 499.437 259.375C496.533 256.546 494.158 253.472 491.746 250.219C488.599 246.22 486.299 243.462 481.063 242.729C474.426 242.424 470.303 244.488 464.75 247.938C457.431 252.357 451.809 254.925 443 254C436.483 251.865 431.125 248.522 427.875 242.406C426.915 240.459 425.997 238.494 425.078 236.527C422.468 231.234 419.404 227.702 414 225C406.987 224.69 402.15 226.615 396.422 230.527C389.686 234.623 382.672 234.758 375 234C369.334 232.31 365.123 227.871 362 223C358.474 215.672 357.062 208.01 356 200C355.051 200.66 354.102 201.32 353.125 202C350 204 350 204 348 204C348.156 204.643 348.312 205.287 348.472 205.949C349.285 210.652 349.354 215.379 349.517 220.143C350.016 231.287 353.025 243.302 360.875 251.563C366.554 256.65 372.143 258.787 379.758 258.629C385.432 257.528 390.272 254.709 395.301 251.945C401.037 248.848 405.945 247.692 412.5 247.625C413.768 247.597 415.037 247.568 416.344 247.539C422.172 248.274 426.034 251.433 429.656 255.961C431.474 258.72 432.926 261.626 434.437 264.563C438.044 271.396 438.044 271.396 444 276C453.005 277.732 461.498 270.832 468.773 266.234C473.86 263.415 479.311 263.512 485 264C493.798 267.105 498.995 273.993 504.008 281.512C506.897 285.12 509.344 286.756 513.937 287.434C520.207 287.475 520.207 287.475 526.062 285.5C529.018 281.687 530.292 277.564 531.566 272.949C533.628 266.271 538.043 262.445 543.902 258.824C550.418 256.264 559.068 257.579 565.562 259.754C569.505 261.77 572.448 264.728 575.629 267.77C580.169 272.041 584.243 275.222 590.625 275.563C595.091 275.257 597.606 274.025 601 271C602.146 269.537 603.269 268.056 604.375 266.563C608.202 261.423 612.384 258.175 618.5 256.188C624.26 255.756 629.33 256.055 635 257C639.842 257.336 643.504 256.823 648 255C652.513 255.513 652.513 255.513 654 257C654.437 259.313 654.437 259.313 654 262C649.614 265.639 646.665 266.474 641.027 266.285C639.715 266.259 638.404 266.232 637.052 266.205C635.681 266.16 634.309 266.112 632.937 266.063C630.238 265.973 627.54 265.905 624.84 265.848C623.051 265.786 623.051 265.786 621.226 265.723C617.635 266.031 615.86 266.854 613 269C611.246 271.298 611.246 271.298 609.75 273.875C606.246 279.018 603.026 282.168 597 284C588.978 285.299 582.938 284.388 576.215 279.789C573.441 277.549 570.962 275.135 568.519 272.543C563.874 267.827 558.904 267.006 552.562 266.688C551.842 266.65 551.121 266.613 550.379 266.574C546.744 267.225 544.805 268.603 542 271C540.525 273.657 539.593 276.439 538.625 279.313C536.092 286.136 533.56 291.235 527 295C520.581 297.14 511.899 297.318 505.625 294.563C500.85 291.681 497.486 287.269 494 283C492.757 281.515 491.508 280.035 490.25 278.563C489.719 277.925 489.188 277.286 488.64 276.629C485.711 273.72 483.404 273.048 479.312 272.563C472.865 272.719 467.921 276.707 462.75 280.188C455.845 284.739 449.094 284.939 441 284C432.948 281.578 429.587 274.588 425.829 267.651C424.344 264.805 423.016 262.049 422 259C416.503 256.17 411.018 255.987 405 257C401.441 258.364 398.104 260.115 394.784 261.978C387.009 266.327 378.928 268.206 370 267C357.213 262.657 350.267 253.535 344.402 241.805C342.501 237.227 341.956 232.447 341.312 227.563C341.183 226.64 341.053 225.718 340.92 224.768C340.604 222.513 340.298 220.257 340 218C339.34 218 338.68 218 338 218C334.136 223.827 334.462 229.741 334.5 236.563C334.505 237.729 334.51 238.896 334.515 240.097C334.689 248.695 335.546 255.487 340 263C340.651 264.137 340.651 264.137 341.316 265.297C346.748 273.53 355.053 278.596 364.613 280.567C375.116 281.911 384.933 281.257 395.243 279.079C405.657 276.937 416.887 276.46 426.125 282.375C431.245 286.46 433.413 292.14 436 298C438.657 303.844 438.657 303.844 444 307C451.869 307.992 458.316 306.098 465.433 302.91C472.805 299.679 478.813 298.773 486.625 301.063C490.951 303.546 494.365 306.609 498 310C504.848 316.294 509.9 320.651 519.609 320.274C523.93 319.779 526.668 318.516 529.554 315.231C531.857 312.236 533.902 309.159 535.875 305.938C540.287 299.839 545.765 295.197 553 293C564.651 291.663 573.186 298.096 582 305C581.125 309.875 581.125 309.875 580 311C577.875 311.438 577.875 311.438 575 311C573.139 309.62 571.501 308.126 569.844 306.508C565.226 302.731 560.387 302.546 554.64 302.707C550.631 303.152 548.931 304.2 546 307C543.899 309.694 541.908 312.443 539.945 315.238C535.312 321.816 531.596 326.422 523.562 328.688C512.334 330.057 505.271 326.702 496.449 319.996C493.754 317.799 491.382 315.527 489 313C486.094 310.094 483.07 309.099 478.972 308.723C473.33 309.249 468.142 311.52 462.89 313.555C455.554 316.364 446.621 317.775 439.125 314.75C432.719 311.163 429.681 307.754 427 301C426.536 299.175 426.536 299.175 426.062 297.313C424.783 293.325 423.227 291.627 420 289C411.648 284.773 400.443 286.495 391.625 288.5C376.931 291.785 361.982 291.444 348.777 283.832C338.562 277.094 330.272 267.986 327.495 255.782C327.081 253.422 326.715 251.06 326.375 248.688C325.744 243.182 325.744 243.182 324 238C323.723 239.276 323.445 240.552 323.16 241.867C322.794 243.537 322.428 245.206 322.062 246.875C321.88 247.717 321.697 248.559 321.51 249.426C321.332 250.232 321.155 251.037 320.972 251.867C320.81 252.611 320.648 253.355 320.48 254.121C320 256 320 256 319 258C318.753 261.953 318.815 265.916 318.812 269.875C318.8 270.958 318.788 272.041 318.775 273.156C318.751 286.406 320.347 299.425 329 310C334.074 314.179 338.487 315.651 345 316C345 315.154 345 314.309 345 313.438C346.495 308.299 349.656 305.954 354 303C369.41 294.643 389.538 293.597 406.281 298.078C411.294 299.778 414.985 301.478 418 306C417.976 308.699 417.976 308.699 417.625 311.688C417.514 312.681 417.403 313.675 417.289 314.699C417.193 315.459 417.098 316.218 417 317C432.981 327.697 447.929 330.283 467 327C486.25 325.349 486.25 325.349 493.996 331.02C496.956 333.945 499.233 337.153 501.465 340.656C503.359 343.549 505.455 345.68 508 348C508.33 348.33 508.66 348.66 509 349C512.084 348.778 515.143 348.414 518.215 348.059C519.134 348.039 520.053 348.02 521 348C521.66 348.66 522.32 349.32 523 350C522.875 352.5 522.875 352.5 522 355C517.016 358.358 510.707 357.863 505 357C499.5 354.237 496.422 349.251 493 344.313C489.559 339.43 486.79 336.6 481 335C474.71 334.439 468.61 335.372 462.437 336.5C461.619 336.643 460.801 336.786 459.959 336.934C457.971 337.282 455.985 337.64 454 338C454.822 338.655 455.645 339.31 456.492 339.984C468.864 350.014 477.153 360.739 484.648 374.692C490.481 385.506 498.036 395.206 505.34 405.051C508.845 409.78 512.307 414.539 515.75 419.313C516.557 420.432 516.557 420.432 517.381 421.574C520.642 426.102 523.887 430.642 527.125 435.188C534.062 445.01 534.062 445.01 541.33 454.586C542.753 456.643 543.753 458.529 544.822 460.771C547.201 465.302 549.637 469.175 554 472C562.909 474.62 572.591 473.581 581.75 473.188C584.27 473.147 586.791 473.112 589.312 473.084C608.403 472.739 629.765 470.87 644.371 456.813C651.556 448.818 656.262 440.769 660.703 431.071C666.847 417.692 674.995 406.746 685 396C685.409 395.441 685.819 394.882 686.241 394.305C689.007 392.253 691.674 392.812 695 393C695.239 392.363 695.479 391.725 695.725 391.069C698.238 384.383 700.753 377.699 703.27 371.015C704.207 368.527 705.143 366.038 706.078 363.549C707.429 359.954 708.782 356.36 710.136 352.766C710.754 351.12 710.754 351.12 711.384 349.44C713.794 343.054 716.355 336.785 719.175 330.567C720.914 325.157 717.369 320.181 715.156 315.266C712.066 306.537 712.872 297.057 712.918 287.922C712.922 286.322 712.927 284.722 712.93 283.122C712.945 278.081 712.972 273.041 713 268C713.008 266.392 713.016 264.784 713.024 263.176C713.082 251.867 713.182 240.558 713.312 229.25C713.327 227.974 713.327 227.974 713.342 226.671C714.522 125.955 714.522 125.955 721 113C721.99 113 722.98 113 724 113C724 118.94 724 124.88 724 131C725.32 124.73 726.64 118.46 728 112C730.64 112 733.28 112 736 112C735.492 120.309 734.786 128.556 733.748 136.814C732.789 144.846 732.436 152.926 732 161C732.171 159.83 732.342 158.66 732.519 157.455C733.16 153.086 733.806 148.718 734.453 144.35C734.732 142.465 735.01 140.579 735.285 138.693C735.684 135.972 736.087 133.252 736.492 130.531C736.613 129.698 736.734 128.864 736.858 128.005C737.623 122.905 738.674 117.985 740 113C742.97 113 745.94 113 749 113C748.353 124.378 747.255 135.675 746 147C746.11 146.32 746.221 145.64 746.335 144.94C746.846 141.814 747.36 138.688 747.875 135.563C748.049 134.493 748.223 133.424 748.402 132.322C749.419 126.162 750.58 120.08 752 114C756.95 114.66 761.9 115.32 767 116C767.116 121.429 766.754 126.366 765.793 131.734C765.667 132.447 765.542 133.159 765.413 133.893C765.147 135.404 764.878 136.914 764.606 138.424C763.902 142.334 763.22 146.247 762.535 150.16C762.333 151.309 762.333 151.309 762.127 152.481C760.585 161.296 759.254 170.14 758 179C759.23 174.25 760.459 169.5 761.687 164.75C761.87 164.045 762.052 163.34 762.24 162.614C764.471 153.981 766.675 145.344 768.812 136.688C770.367 130.397 772.043 124.18 774 118C783.224 119.611 792.055 122.282 801 125C801.454 131.679 799.766 137.531 798 143.938C797.714 145.003 797.427 146.068 797.133 147.166C796.429 149.78 795.718 152.391 795 155C796.886 151.367 798.142 147.643 799.375 143.75C801.163 138.224 803.194 133.092 806 128C810.49 128.587 814.225 129.764 818.375 131.563C819.434 132.018 820.494 132.473 821.586 132.942C822.382 133.291 823.179 133.64 824 134C824.249 138.771 823.438 142.334 821.847 146.824C821.628 147.452 821.408 148.08 821.182 148.728C820.484 150.717 819.773 152.702 819.062 154.688C818.588 156.032 818.115 157.376 817.642 158.721C816.777 161.18 815.906 163.637 815.031 166.093C814.335 168.055 813.658 170.025 813 172C813.8 170.455 813.8 170.455 814.617 168.879C820.092 158.387 825.915 148.15 832 138C836.22 139.36 840.068 140.941 844 143C843.425 147.232 842.427 150.792 840.742 154.711C840.284 155.784 839.826 156.858 839.354 157.963C838.622 159.652 838.622 159.652 837.875 161.375C837.381 162.528 836.887 163.681 836.377 164.869C834.926 168.249 833.465 171.626 832 175C831.603 175.916 831.205 176.832 830.796 177.776C828.879 182.19 826.948 186.599 825 191C825.371 190.307 825.743 189.613 826.126 188.899C833.649 174.875 841.216 160.881 849 147C852.779 148.481 856.385 150.151 860 152C857.692 159.492 854.628 166.466 851.312 173.563C850.546 175.219 850.546 175.219 849.763 176.908C848.513 179.608 847.258 182.305 846 185C849.858 179.273 853.613 173.496 857.25 167.625C858.109 166.242 858.968 164.859 859.828 163.477C860.198 162.879 860.568 162.282 860.95 161.667C861.94 160.094 862.969 158.546 864 157C867.824 157.546 869.392 159.261 872 162C868 172 864 182 860 192C864.95 182.76 869.9 173.52 875 164C875.99 164.33 876.98 164.66 878 165C877.369 169.463 875.642 173.167 873.64 177.152C873.129 178.185 873.129 178.185 872.608 179.238C871.496 181.475 870.374 183.707 869.25 185.938C868.867 186.7 868.484 187.463 868.09 188.249C861.595 201.169 854.69 213.747 847 226C846.513 226.781 846.026 227.563 845.524 228.368C839.762 237.576 833.684 246.43 827 255C826.104 256.165 825.208 257.331 824.312 258.496C818.818 265.607 813.085 272.383 807 279C805.251 280.976 803.515 282.963 801.787 284.957C800.65 286.257 799.503 287.546 798.341 288.823C794.118 293.503 790.628 298.376 787.25 303.688C769.79 330.449 769.79 330.449 760.162 333.602C756.4 334.958 754.478 336.13 752.514 339.702C751.158 343.206 749.99 346.725 748.875 350.313C748.453 351.591 748.029 352.869 747.601 354.146C746.765 356.643 745.941 359.142 745.123 361.646C743.756 365.729 742.221 369.715 740.562 373.688C739.147 377.081 737.83 380.459 736.695 383.953C734.469 390.741 731.861 397.391 729.312 404.063C728.796 405.419 728.28 406.775 727.763 408.131C726.511 411.421 725.256 414.711 724 418C724.614 418.048 725.228 418.097 725.861 418.146C726.669 418.221 727.476 418.295 728.308 418.371C729.108 418.44 729.908 418.509 730.732 418.58C733 419 733 419 736.062 421.063C738.104 424.159 738.66 426.217 738.441 429.93C737.689 433.459 735.992 436.012 734 439C734.495 439.66 734.99 440.32 735.5 441C737.544 445.089 737.434 447.443 737 452C736.505 452.639 736.01 453.279 735.5 453.938C733.67 456.454 733.907 457.395 734.062 460.438C734.197 464.004 734.111 464.822 732.125 468C730 470 730 470 728 471C727.722 473.423 727.722 473.423 727.687 476.25C727.392 480.455 727.24 481.692 724.562 485.125C720.455 488.13 718.096 488.179 713 488C712.01 487.67 711.02 487.34 710 487C707.938 486.931 705.875 486.915 703.812 486.938C702.182 486.951 702.182 486.951 700.519 486.965C699.688 486.977 698.856 486.988 698 487C697.827 487.532 697.655 488.064 697.477 488.612C695.537 494.523 693.41 500.346 691.199 506.16C690.84 507.108 690.481 508.057 690.112 509.033C688.972 512.044 687.83 515.053 686.687 518.063C685.56 521.038 684.433 524.013 683.306 526.988C682.57 528.931 681.833 530.875 681.096 532.818C678.981 538.399 676.878 543.984 674.789 549.574C671.711 557.805 668.537 565.998 665.349 574.188C664.928 575.276 664.508 576.364 664.074 577.484C663.698 578.451 663.323 579.417 662.936 580.413C662.144 582.603 661.508 584.731 661 587C671.893 588.363 682.848 588.344 693.811 588.552C696.448 588.604 699.085 588.661 701.722 588.719C702.539 588.732 703.355 588.746 704.197 588.76C709.887 588.887 709.887 588.887 711 590C711.041 592 711.042 594.001 711 596C707.32 598.361 703.752 598.29 699.523 598.266C698.435 598.269 698.435 598.269 697.325 598.272C695.791 598.273 694.256 598.269 692.721 598.261C690.403 598.25 688.087 598.261 685.769 598.274C678.763 598.279 671.991 598.213 665.162 596.429C662.386 595.806 662.386 595.806 657 596C654.03 603.92 651.06 611.84 648 620C657.803 621.509 667.473 622.51 677.375 623.125C678.708 623.212 680.041 623.299 681.375 623.387C684.583 623.596 687.791 623.8 691 624C691.625 626.375 691.625 626.375 692 629C689.221 631.779 687.661 631.3 683.75 631.313C670.479 631.287 657.174 629.451 644 628C643.847 628.774 643.695 629.548 643.538 630.346C642.175 637.065 640.653 643.799 636 649C633.375 649.5 633.375 649.5 631 649C630.34 648.34 629.68 647.68 629 647C629.171 639.396 632.119 632.653 634.812 625.625C635.251 624.457 635.69 623.289 636.142 622.086C638.681 615.357 641.312 608.67 644 602C649.518 588.121 654.695 574.117 659.852 560.101C662.137 553.928 664.463 547.771 666.82 541.625C667.357 540.225 667.893 538.824 668.43 537.424C668.707 536.702 668.983 535.979 669.269 535.235C673.929 523.07 678.569 510.899 683.108 498.688C685.059 493.45 687.097 488.265 689.263 483.111C690.164 480.901 690.164 480.901 690 478C688.528 476.643 688.528 476.643 686.625 475.5C683.885 473.741 682.885 472.827 681 470C680.461 467.34 680.266 464.707 680 462C678.255 466.53 676.514 471.061 674.775 475.593C674.186 477.126 673.597 478.659 673.007 480.191C669.533 489.209 666.149 498.247 662.987 507.38C661.329 512.152 659.468 516.798 657.484 521.442C655.394 526.453 653.416 531.507 651.437 536.563C650.873 538 650.873 538 650.297 539.465C648.091 545.112 645.967 550.782 643.909 556.484C640.299 566.477 636.473 576.387 632.608 586.283C629.918 593.184 627.311 600.114 624.725 607.054C622.78 612.274 620.824 617.489 618.862 622.702C618.235 624.372 617.611 626.044 616.989 627.716C615.914 630.605 614.832 633.49 613.75 636.375C613.238 637.759 613.238 637.759 612.715 639.171C612.391 640.03 612.068 640.889 611.734 641.774C611.448 642.541 611.161 643.309 610.866 644.099C610 646 610 646 608 648C604.875 648.125 604.875 648.125 602 648C599.931 641.654 602.635 636.525 604.937 630.625C605.323 629.603 605.709 628.581 606.107 627.527C607.059 625.013 608.023 622.505 609 620C608.369 619.881 607.739 619.762 607.089 619.64C601.684 618.593 596.397 617.394 591.125 615.813C590.408 615.598 589.691 615.384 588.952 615.163C556.752 605.38 525.319 591.856 498 572C496.963 571.252 495.927 570.505 494.859 569.734C470.45 551.578 451.701 528.865 436 503C435.599 502.353 435.198 501.705 434.785 501.038C423.541 482.783 416.021 462.368 408.812 442.25C408.574 441.591 408.336 440.932 408.09 440.253C405.665 433.512 403.46 427.177 403 420C402.278 420.701 401.556 421.403 400.812 422.125C400.406 422.52 400 422.914 399.582 423.32C399.06 423.875 398.538 424.429 398 425C397.127 425.856 396.254 426.712 395.355 427.594C392.097 431.561 392.32 435.425 392.5 440.375C392.517 441.258 392.534 442.14 392.551 443.05C392.81 451.28 394.235 458.972 396 467C396.238 468.315 396.468 469.632 396.691 470.949C399.11 485.203 403.008 498.818 409 512C409.769 513.736 409.769 513.736 410.554 515.508C424.749 547.102 446.433 576.003 475 596C475.593 596.416 476.185 596.832 476.796 597.26C496.973 611.29 519.085 623.163 542.476 630.836C545.482 631.829 548.388 632.917 551.312 634.125C555.967 636.048 560.724 637.571 565.531 639.07C568 640 568 640 570 642C569.444 646.556 569.444 646.556 568 648C560.254 648.081 553.347 645.692 546.187 643C545.098 642.598 544.01 642.196 542.888 641.781C525.643 635.333 509.083 627.968 493 619C492.007 618.452 492.007 618.452 490.994 617.892C477.238 610.226 464.647 600.697 453.125 589.973C451.111 588.103 449.039 586.332 446.937 584.563C420.862 561.656 403.422 528.634 393 496C392.784 495.345 392.568 494.69 392.345 494.016C387.378 478.758 385.346 462.824 383 447C382.714 447.518 382.428 448.036 382.133 448.57C376.05 459.513 369.968 469.548 361.377 478.735C358.039 484.223 360.492 492.587 361.747 498.555C362.649 502.085 363.645 505.572 364.687 509.063C365.177 510.808 365.177 510.808 365.677 512.588C368.063 520.786 371.237 528.345 375 536C375.544 537.135 375.544 537.135 376.099 538.293C386.397 559.687 398.695 579.359 415.399 596.368C417.143 598.146 418.866 599.944 420.59 601.742C428.533 609.941 436.804 617.245 446 624C446.816 624.608 446.816 624.608 447.649 625.227C464.205 637.618 464.205 637.618 482 648C482 648.99 482 649.98 482 651C478.991 652.505 477.396 652.41 474 652C470.348 650.346 466.975 648.283 463.562 646.188C462.585 645.597 461.608 645.007 460.602 644.399C447.458 636.356 435.607 627.099 424 617C423.274 616.387 422.548 615.773 421.801 615.141C412.201 606.962 403.776 597.911 396 588C395.221 587.05 394.443 586.1 393.64 585.121C374.874 561.723 361.368 533.03 354 504C353.774 503.113 353.549 502.226 353.316 501.313C352.387 497.418 351.968 494.015 352 490C351.491 490.373 350.983 490.746 350.458 491.13C348.121 492.84 345.779 494.545 343.437 496.25C342.637 496.837 341.838 497.423 341.013 498.027C328.663 507 328.663 507 325 507C327.966 516.237 327.966 516.237 330.948 525.469C331.178 526.178 331.408 526.886 331.644 527.616C332.109 529.049 332.573 530.482 333.038 531.915C334.362 536.006 335.662 540.102 336.941 544.207C345.962 572.843 364.288 599.405 385 621C385.603 621.632 386.206 622.263 386.828 622.914C390.335 626.5 394.022 629.832 397.82 633.106C401.128 635.981 404.363 638.938 407.605 641.887C410.01 644.009 412.48 646.017 415 648C414.67 649.32 414.34 650.64 414 652C410.057 652.306 407.697 652.421 404.261 650.348C403.412 649.594 402.562 648.84 401.687 648.063C400.272 646.827 400.272 646.827 398.828 645.567C397.895 644.72 396.961 643.873 396 643C395.149 642.246 394.298 641.492 393.422 640.715C391.758 639.232 390.105 637.739 388.461 636.234C386.841 634.764 385.2 633.315 383.539 631.891C357.098 609.037 337.622 575.68 326.632 542.845C325.777 540.351 324.823 537.898 323.875 535.438C318 519.442 318 519.442 318 512C317.452 512.202 316.903 512.403 316.338 512.611C313.791 513.542 311.239 514.458 308.687 515.375C307.826 515.692 306.964 516.009 306.076 516.336C299.79 518.579 293.594 519.993 287 521C305.147 584.19 305.147 584.19 341.812 637.93C342.281 638.422 342.749 638.915 343.232 639.422C344.547 640.794 345.886 642.144 347.226 643.492C349 646 349 646 348.773 648.82C348.518 649.54 348.263 650.259 348 651C344.763 651.463 342.159 651.764 339.328 649.899C314.369 625.772 299.939 591.53 288.75 559.438C288.493 558.709 288.236 557.981 287.972 557.23C284.135 546.298 281.298 535.355 279 524C278.289 524.077 277.577 524.154 276.845 524.233C267.99 525.167 258.742 526.033 250 524C255.208 559.192 266.836 615.836 293 642C293.125 645 293.125 645 293 648C292 649 292 649 289.62 649.3C287 649 287 649 285.414 647.425C284.971 646.69 284.527 645.956 284.07 645.199C283.565 644.372 283.06 643.545 282.54 642.693C282.032 641.804 281.523 640.916 281 640C280.504 639.141 280.009 638.282 279.499 637.397C263.037 608.01 251.075 575.903 244 543C243.84 542.259 243.68 541.518 243.515 540.755C240.999 528.95 240.999 528.95 240.75 523.5C239.501 517.673 235.254 514.619 230.562 511.25C230.047 510.838 229.531 510.425 229 510C229 509.01 229 508.02 229 507C234.668 506.105 237.901 508.483 242.437 511.492C247.152 514.267 251.527 515.254 256.965 515.301C258.087 515.311 259.209 515.32 260.365 515.33C296.233 515.154 327.832 501.646 353.22 476.281C359.911 469.287 367.906 460.281 371 451C369.923 451.592 368.847 452.183 367.738 452.793C335.617 470.27 300.453 475.45 264.91 465.246C235.899 456.178 210.699 439.071 195.962 411.887C193.519 407.095 191.705 402.091 190 397C189.762 396.353 189.524 395.707 189.279 395.04C187.042 388.78 185.874 382.489 184.812 375.938C184.635 374.881 184.458 373.825 184.275 372.736C183.844 370.159 183.419 367.58 183 365C180.69 364.67 178.38 364.34 176 364C175.879 365.211 175.759 366.422 175.635 367.67C174.841 375.638 174.044 383.605 173.22 391.57C172.875 394.898 172.535 398.227 172.195 401.555C172.023 403.229 171.849 404.902 171.674 406.576C169.54 427.005 168.834 447.211 168.869 467.755C168.875 471.522 168.869 475.288 168.863 479.055C168.864 481.484 168.865 483.914 168.867 486.344C168.865 487.452 168.863 488.561 168.861 489.703C168.888 498.905 169.363 507.804 171.518 516.766C172.202 519.936 172.529 523.12 172.885 526.341C176.698 559.879 189.545 597.513 210.812 624.281C212 626 212 626 211.687 628.75C211.46 629.493 211.234 630.235 211 631C208.875 631.438 208.875 631.438 206 631C173.109 600.352 161.931 536.911 159.825 494.484C159.562 486.427 159.571 478.373 159.625 470.313C159.629 469.09 159.633 467.868 159.637 466.608C159.745 438.071 160.92 409.561 165.729 381.387C167.398 372.226 167.398 372.226 167 363C165.04 361.286 163.041 359.616 161 358C160.084 354.397 159.848 353.356 161 350C165.795 342.868 172.564 337.245 180 333C180.66 333 181.32 333 182 333C181.396 331.95 180.793 330.899 180.172 329.817C179.364 328.399 178.557 326.981 177.75 325.563C177.354 324.875 176.958 324.187 176.551 323.479C161.468 296.898 161.027 262.116 169 233C169.942 229.979 170.943 226.983 172 224C171.34 223.814 170.68 223.629 170 223.438C162.924 220.047 158.528 215.292 155.691 208.016C152.549 198.856 152.415 187.013 156.66 178.145C159.476 173.638 162.918 169.669 167.066 166.344C169.918 162.887 170.475 159.187 171.437 154.875C176.848 132.813 190.636 116.098 209.625 103.875C243.689 84.3416 288.985 88.2109 319.488 112.723Z" fill="#185976"/>
<path d="M410 321C410.66 321 411.32 321 412 321C412.66 321.701 413.32 322.402 414 323.125C419.195 328.486 425.93 331.663 432.812 334.312C450.242 341.342 464.569 355.304 473.527 371.559C480.498 384.172 488.36 395.419 497.258 406.745C500.236 410.6 502.942 414.618 505.676 418.648C508.609 422.931 511.721 427.082 514.812 431.25C519.851 438.047 524.795 444.9 529.645 451.833C532.119 455.362 534.623 458.863 537.191 462.324C537.705 463.016 538.218 463.708 538.747 464.421C539.727 465.736 540.711 467.048 541.7 468.356C545 472.783 545 472.783 545 475C543.891 475.471 542.783 475.941 541.641 476.426C540.177 477.054 538.713 477.683 537.25 478.312C536.52 478.621 535.791 478.93 535.039 479.248C531.318 480.855 528.201 482.475 525 485C524.34 485 523.68 485 523 485C523 486.98 523 488.96 523 491C529.047 489.085 534.762 486.85 540.52 484.184C551.392 480.486 562.333 480.839 573.657 481.022C603.356 481.456 629.215 480.148 652.516 459.699C659.732 451.859 664.178 442.879 668.688 433.312C674.549 421.123 681.204 410.468 691 401C692 402 692 402 692.312 405.188C691.938 409.751 690.985 411.556 688 415C686.211 416.121 686.211 416.121 684.312 417.125C680.89 418.615 680.89 418.615 680.062 421.25C680.042 421.827 680.021 422.405 680 423C680.99 423 681.98 423 683 423C682.451 427.702 681.525 431.775 679.812 436.184C679.365 437.347 678.918 438.511 678.457 439.709C677.972 440.952 677.486 442.195 677 443.438C676.502 444.727 676.006 446.016 675.51 447.306C674.5 449.931 673.487 452.555 672.472 455.178C670.297 460.813 668.179 466.468 666.062 472.125C665.71 473.064 665.357 474.003 664.994 474.97C664.657 475.87 664.32 476.769 663.973 477.695C663.646 478.563 663.319 479.43 662.982 480.323C662.292 482.205 661.63 484.096 660.989 485.995C660.655 486.972 660.321 487.95 659.977 488.957C659.685 489.839 659.393 490.72 659.092 491.628C656.981 496.213 653.187 498.421 649 501C648.4 501.375 647.799 501.75 647.181 502.136C626.509 514.957 604.357 525.115 581 532C580.13 532.26 579.259 532.519 578.363 532.787C570.726 534.903 563.593 535.507 555.688 535.438C554.508 535.432 553.328 535.427 552.113 535.421C536.754 535.154 524.568 531.881 513.312 521.062C512.607 520.39 511.901 519.718 511.175 519.025C489.775 498.456 472.756 474.242 459 448C458.553 447.149 458.105 446.298 457.645 445.422C451.013 432.717 445.204 419.805 439.972 406.465C439.351 404.89 438.72 403.318 438.076 401.752C434.681 393.467 431.768 385.011 428.812 376.562C428.528 375.752 428.244 374.941 427.951 374.106C423.124 360.341 418.438 346.535 413.882 332.678C412.599 328.782 411.3 324.891 410 321Z" fill="#FCFCFC"/>
<path d="M309.001 277C309.331 277 309.661 277 310.001 277C310.086 277.563 310.17 278.126 310.257 278.706C312.641 294.027 315.69 308.88 327.86 319.645C333.745 323.28 339.302 323.614 346.061 323.724C350.028 323.794 352.517 324.238 356.001 326C358.197 326.504 358.196 326.504 360.512 326.781C361.771 326.961 361.772 326.961 363.058 327.145C364.823 327.383 366.589 327.62 368.355 327.855C369.19 327.975 370.025 328.095 370.887 328.219C371.652 328.321 372.417 328.424 373.206 328.529C373.798 328.685 374.391 328.84 375.001 329C379.221 337.44 377.008 354.401 374.376 363.312C373.638 365.23 372.847 367.128 372.001 369C371.382 370.493 371.382 370.493 370.751 372.016C363.546 387.981 350.272 400.506 334.001 407C329.703 408.469 325.379 409.79 321.001 411C320.395 411.177 319.79 411.354 319.166 411.537C298.214 416.018 273.69 411.257 255.715 399.93C239.601 388.328 225.405 372.109 221.812 351.938C222 348 222.001 348 223.689 345.125C227.689 342.559 231.326 341.878 235.926 340.859C243.366 338.78 248.302 334.542 252.126 327.93C254.436 322.834 254.183 317.741 254.188 312.25C254.206 310.947 254.207 310.947 254.226 309.617C254.238 304.065 253.569 299.329 252.001 294C252.621 294.217 253.241 294.433 253.88 294.656C264.977 298.145 277.198 298.843 288.001 294C295.834 289.888 302.173 285.252 307.766 278.391C308.173 277.932 308.581 277.473 309.001 277Z" fill="#FCFDFD"/>
<path d="M256 151C256.99 151.66 257.98 152.32 259 153C259 153.66 259 154.32 259 155C259.576 155.275 260.152 155.549 260.746 155.832C262.973 156.986 264.973 158.303 267.063 159.688C276.905 165.643 288.357 169.016 299.375 172.125C304.121 173.564 307.151 174.727 310 179C312.019 183.56 313.488 187.955 313 193C312.134 192.67 311.268 192.34 310.375 192C300.062 189.157 290.479 190.988 280.668 194.418C277.759 195.749 277.759 195.749 277.113 198.676C277.076 199.443 277.039 200.21 277 201C281.587 200.583 285.319 199.531 289.625 197.875C296.72 195.433 303.97 195.075 311.082 197.797C314.601 199.886 315.804 202.216 317 206C317.259 209.039 317.259 209.039 317.266 212.41C317.27 214.267 317.27 214.267 317.274 216.162C317.266 217.449 317.258 218.736 317.25 220.062C317.262 221.953 317.262 221.953 317.274 223.881C317.232 243.726 313.206 264.01 299.281 278.926C290.767 286.667 282.598 290.358 271.25 290.375C270.394 290.399 269.538 290.424 268.656 290.449C258.492 290.495 251.016 285.856 243 280C242.405 279.572 241.809 279.144 241.195 278.703C224.91 265.945 214.964 241.733 212.301 221.719C212.202 220.822 212.102 219.924 212 219C211.87 218.165 211.74 217.329 211.606 216.469C211.368 214.049 211.311 212.334 212 210C214.334 207.372 216.944 205.698 220 204C221.176 203.319 221.176 203.319 222.375 202.625C228.744 201.109 234.822 201.753 241.039 203.555C244.374 204.312 247.595 204.122 251 204C251 202.35 251 200.7 251 199C250.169 198.867 249.337 198.734 248.481 198.598C247.394 198.421 246.307 198.244 245.188 198.062C244.109 197.888 243.03 197.714 241.918 197.535C239 197 239 197 236 196C228.261 195.175 222.705 195.978 215.961 199.906C214 201 214 201 212 201C210.655 191.819 210.655 191.819 213.406 188.098C215.839 186.185 218.349 184.6 221 183C223.822 181.223 226.63 179.425 229.438 177.625C230.178 177.152 230.919 176.679 231.683 176.192C241.055 170.138 248.272 163.637 254 154C254.66 153.01 255.32 152.02 256 151Z" fill="#FAFBFB"/>
<path d="M418 369C420.128 371.128 420.503 372.118 421.332 374.93C421.694 376.125 421.694 376.125 422.064 377.344C422.551 378.992 423.038 380.641 423.525 382.289C425.247 387.964 427.334 393.384 429.659 398.839C431.033 402.078 432.349 405.335 433.656 408.602C450.055 449.263 470.62 486.138 501 518C501.451 518.484 501.903 518.968 502.368 519.466C510.751 528.434 520.082 535.794 530 543C530.579 543.424 531.158 543.848 531.754 544.285C552.415 559.338 575.422 570.843 599.558 579.159C602.252 580.087 604.938 581.033 607.625 581.98C612.412 583.667 617.204 585.337 622 587C620.231 593.181 618.268 599.183 615.812 605.125C615.54 605.795 615.267 606.466 614.986 607.156C614.328 608.772 613.665 610.387 613 612C606.732 612.419 601.725 610.925 595.812 608.938C594.844 608.619 593.876 608.3 592.878 607.972C590.878 607.31 588.88 606.643 586.884 605.97C584.258 605.087 581.626 604.223 578.992 603.363C542.901 591.377 509.503 573.441 482 547C481.404 546.431 480.808 545.862 480.194 545.276C471.311 536.758 463.201 527.989 456 518C455.59 517.434 455.179 516.868 454.757 516.285C439.092 494.407 427.447 469.485 419 444C418.504 442.536 418.008 441.073 417.512 439.609C416.219 435.786 414.952 431.954 413.698 428.117C413.055 426.167 412.394 424.224 411.73 422.281C408.494 412.491 407.751 406.279 411.918 396.797C415.305 388.041 416.399 378.226 418 369Z" fill="#FBFCFC"/>
<path d="M403 326C404.012 328.25 404.012 328.25 404.688 331C405.309 334.286 405.309 334.286 407 337C411.41 353.707 410.807 374.499 406 391C405.733 391.929 405.466 392.859 405.191 393.816C401.005 406.598 394.067 418.125 385 428C384.132 428.949 383.265 429.898 382.371 430.875C362.99 451.166 334.177 461.612 306.459 462.303C274.618 462.452 243.481 453.694 220.166 431.304C204.839 416.067 192.532 393.678 191.902 371.57C191.914 370.433 191.926 369.296 191.938 368.125C191.947 366.973 191.956 365.82 191.965 364.633C191.976 363.764 191.988 362.895 192 362C194.64 361.34 197.28 360.68 200 360C200.28 361.114 200.559 362.228 200.848 363.375C207.94 390.735 221.369 414.208 246.117 429.34C272.306 444.422 302.446 448.346 331.763 440.637C355.734 433.809 374.36 419.19 387.371 397.938C395.538 383.21 398.235 369.732 398.312 353.125C398.318 351.96 398.324 350.794 398.33 349.593C398.277 343.358 397.739 337.981 396 332C395.875 328.5 395.875 328.5 396 326C399.11 324.963 400.083 324.669 403 326Z" fill="#F8FAFB"/>
<path d="M383 328C384.65 328 386.3 328 388 328C394.917 346.774 393.639 369.222 385.366 387.433C374.645 409.114 356.861 424.595 333.937 432.375C316.215 438.015 296.206 439.372 278 435C277.131 434.817 276.262 434.634 275.367 434.445C252.886 429.136 233.132 414.057 220.875 394.688C214.355 383.749 206.778 370.14 208 357C210.31 355.68 212.62 354.36 215 353C215.268 353.909 215.536 354.818 215.812 355.754C220.675 371.349 227.268 383.556 239 395C240.094 396.108 240.094 396.108 241.211 397.238C250.605 406.231 262.712 412.077 275 416C276.491 416.48 276.491 416.48 278.012 416.969C299.307 422.626 325.003 420.446 344.419 409.816C362.368 399.116 375.986 381.982 381.633 361.73C383.783 350.619 383.178 339.266 383 328Z" fill="#F7F9FA"/>
<path d="M651 508C651 510.954 650.579 512.548 649.594 515.285C649.27 516.189 648.945 517.092 648.611 518.023C648.245 519.026 647.878 520.029 647.5 521.062C647.118 522.116 646.736 523.169 646.342 524.254C642.156 535.705 637.829 547.103 633.5 558.5C633.138 559.456 632.775 560.413 632.402 561.398C631.365 564.131 630.324 566.863 629.281 569.594C628.965 570.428 628.649 571.262 628.323 572.122C626.115 577.885 626.115 577.885 625 579C617.41 578.625 610.816 576.533 603.688 574C602.544 573.597 601.4 573.194 600.222 572.779C585.943 567.656 572.406 561.455 559.062 554.25C558.227 553.802 557.392 553.354 556.532 552.893C551.993 550.377 548.456 547.882 545 544C545.692 543.976 546.384 543.952 547.098 543.927C564.321 543.237 579.74 540.741 596 535C596.721 534.747 597.441 534.494 598.184 534.233C602.538 532.669 606.784 530.899 611 529C611.719 528.678 612.439 528.356 613.18 528.024C626.126 522.178 639.159 515.894 651 508Z" fill="#FAFBFB"/>
<path d="M249.999 134C250.434 141.933 250.776 148.403 245.999 155C245.497 155.704 244.996 156.408 244.479 157.133C239.049 163.924 232.129 168.236 224.866 172.82C207.182 183.994 189.601 195.546 184.444 216.945C184.297 217.623 184.15 218.301 183.999 219C177.951 219.789 174.313 218.058 169.237 214.77C163.203 209.999 161.706 202.979 160.671 195.691C160.081 187.319 163.649 180.687 168.429 174C180.688 160.28 201.91 154.008 218.773 148.293C227.907 145.11 236.505 140.647 244.835 135.758C247.999 134 247.999 134 249.999 134Z" fill="#FAFBFC"/>
<path d="M256 132C260.123 132.654 264.174 133.477 268.25 134.375C280.528 136.95 293.109 137.987 305.575 139.264C321.796 140.962 340.625 145.066 352.312 157.188C356.511 162.474 359.09 169.315 359.5 176.062C358.535 183.665 356.094 190.095 350 195C345.552 198 345.552 198 343 198C342.227 196.268 342.227 196.268 341.438 194.5C331.502 175.039 307.389 168.248 288.109 161.701C277.143 157.895 265.381 153.721 259.984 142.682C259.559 141.756 259.559 141.756 259.125 140.812C258.665 139.87 258.665 139.87 258.195 138.908C256 134.326 256 134.326 256 132Z" fill="#FAFBFC"/>
<path d="M199 242C199.748 242.482 200.495 242.964 201.266 243.461C202.25 244.093 203.235 244.724 204.25 245.375C205.225 246.001 206.199 246.628 207.203 247.273C209.82 249.001 209.82 249.001 212.156 249.855C214.973 251.604 215.807 253.992 217.25 256.938C223.232 268.469 231.033 279.689 242 287C243.133 289.898 243.133 289.898 244.125 293.375C244.458 294.517 244.79 295.659 245.133 296.836C245.419 297.88 245.705 298.924 246 300C246.178 300.636 246.356 301.272 246.539 301.927C247.378 305.702 247.268 309.522 247.312 313.375C247.342 314.213 247.371 315.051 247.4 315.914C247.457 321.47 246.706 324.597 243 329C239.272 332.355 236.116 335 231 335C230.794 334.257 230.588 333.515 230.375 332.75C228.238 328.476 224.613 326.894 220.539 324.637C208.535 316.899 202.494 299.097 199.473 285.773C198.013 277.21 197.849 268.935 197.875 260.25C197.871 258.936 197.867 257.623 197.863 256.27C197.865 255.01 197.866 253.751 197.867 252.453C197.868 251.31 197.869 250.167 197.871 248.989C197.98 246.468 198.262 244.398 199 242Z" fill="#FAFBFC"/>
<path d="M180 227C183.017 226.497 185.121 226.453 187.769 228.102C190.49 230.689 191.925 232.743 192.152 236.551C191.953 238.667 191.711 240.779 191.441 242.887C188.192 269.271 191.792 299.567 207.933 321.398C209 323 209 323 209 325C202.333 326.333 195.667 327.667 189 329C173.275 302.512 167.885 270.909 175.313 240.581C176.57 235.938 178.266 231.48 180 227Z" fill="#F9FAFB"/>
<path d="M208.562 439.812C211 440 211 440 212 441C212.281 445.78 211.839 450.043 211 454.75C207.398 479.302 210.494 503.238 218.765 526.496C220.814 532.311 222.469 538.24 224.177 544.162C224.984 546.947 225.801 549.729 226.621 552.511C227.423 555.237 228.222 557.965 229.021 560.692C229.417 562.042 229.814 563.392 230.213 564.741C237.007 587.769 244.264 616.099 237 640C235 642 235 642 232.437 642.188C230 642 230 642 229 641C228.936 638.448 228.934 635.922 228.972 633.371C228.985 631.761 228.997 630.151 229.01 628.541C229.034 626.014 229.062 623.487 229.096 620.96C229.28 606.371 228.506 592.313 224.75 578.125C224.428 576.874 224.428 576.874 224.099 575.598C221.811 566.926 218.948 558.466 216 550C211.711 537.626 207.86 525.193 204.634 512.495C204.248 510.978 203.855 509.462 203.448 507.95C198.193 488.157 198.39 461.766 204 442C206 440 206 440 208.562 439.812Z" fill="#165772"/>
<path d="M305 112C277.598 126.588 238.934 121.696 210 115C231.268 92.1439 281.112 93.5717 305 112Z" fill="#F7F9FA"/>
<path d="M721.999 294C731.267 296.327 740.24 299.41 749.249 302.562C751.385 303.308 753.522 304.052 755.659 304.794C757.587 305.464 759.515 306.137 761.442 306.811C764.943 307.981 768.444 309.014 771.999 310C768.354 317.983 761.536 324.418 753.62 328.109C747.82 330.08 741.301 329.953 735.687 327.438C727.987 322.872 725.057 316.859 722.679 308.379C721.701 303.516 721.712 298.926 721.999 294Z" fill="#F9FAFB"/>
<path d="M230.688 124.5C232.473 124.858 232.473 124.858 234.295 125.223C237.199 125.806 240.1 126.398 243 127C241.319 132.043 236.484 133.683 231.932 136.057C225.514 139.189 218.746 141.569 212.062 144.062C208.947 145.235 205.834 146.414 202.723 147.598C201.603 148.022 201.603 148.022 200.461 148.455C194.64 150.689 189.017 153.213 183.404 155.931C181 157 181 157 179 157C180.053 146.398 185.769 134.964 194 128C196.579 126.391 199.199 125.166 202 124C202.598 123.66 203.196 123.319 203.812 122.968C211.799 119.433 222.569 122.813 230.688 124.5Z" fill="#F8FAFB"/>
<path d="M713 373C717.15 373.523 720.993 374.167 724.938 375.562C726.096 375.967 726.096 375.967 727.277 376.379C727.846 376.584 728.414 376.789 729 377C728.432 381.234 727.422 384.727 725.688 388.625C723.917 392.728 722.356 396.805 721 401.062C719.101 406.93 716.688 412.455 714 418C713.634 419.057 713.268 420.114 712.891 421.203C710.8 424.295 710.427 424.476 706.988 425.242C705.434 425.48 703.874 425.69 702.312 425.875C701.515 425.991 700.718 426.107 699.896 426.227C697.934 426.509 695.967 426.758 694 427C694.859 419.665 694.859 419.665 696.875 416.312C698.61 413.12 699.51 410.166 700.277 406.621C702.029 399.353 704.794 392.628 707.688 385.75C708.205 384.504 708.721 383.258 709.236 382.012C710.483 379.005 711.738 376.001 713 373Z" fill="#F7F9FA"/>
<path d="M722 270C723.175 270.392 724.351 270.784 725.562 271.188C726.387 271.462 727.212 271.737 728.062 272.02C730.168 272.722 732.272 273.428 734.375 274.137C740.998 276.361 747.632 278.515 754.312 280.562C759.477 282.15 764.489 283.932 769.473 286.02C774.544 287.987 779.785 289.463 785 291C783.743 294.352 782.313 297.304 780.375 300.312C779.929 301.01 779.483 301.707 779.023 302.426C778.686 302.945 778.348 303.465 778 304C767.036 302.594 756.565 297.637 746.301 293.76C739.416 291.185 732.513 288.863 725.458 286.795C723 286 723 286 722 285C721.927 282.47 721.907 279.967 721.937 277.438C721.942 276.727 721.946 276.016 721.951 275.283C721.963 273.522 721.981 271.761 722 270Z" fill="#F6F8FA"/>
<path d="M221 333C221.495 334.485 221.495 334.485 222 336C214.75 346.451 200.88 351.677 189 355C184.642 355.77 180.484 356.117 176.062 356.063C175.105 356.054 174.147 356.045 173.16 356.035C172.447 356.024 171.734 356.012 171 356C170.67 354.35 170.34 352.7 170 351C183.703 336.576 201.936 332.403 221 333Z" fill="#F6F8FA"/>
<path d="M388.125 304.688C389.266 304.671 390.407 304.655 391.582 304.639C397.836 304.635 402.484 304.97 408 308C408 309.32 408 310.64 408 312C399.462 320.24 385.978 320.058 374.938 320.188C374.181 320.201 373.425 320.214 372.646 320.228C366.088 320.236 359.772 319.367 354 316C355.44 312.303 357.027 311.09 360.562 309.375C361.368 308.97 362.174 308.565 363.004 308.148C371.295 304.971 379.306 304.662 388.125 304.688Z" fill="#F3F7F8"/>
<path d="M318.688 122.938C322.846 126.245 325.98 130.668 329 135C328.67 135.66 328.34 136.32 328 137C327.085 136.814 326.17 136.628 325.227 136.436C313.98 134.207 302.693 132.73 291.312 131.375C288.618 131.051 285.924 130.725 283.23 130.396C281.572 130.195 279.913 129.996 278.255 129.799C274.463 129.341 270.734 128.824 267 128C267 127.34 267 126.68 267 126C268.256 125.891 269.511 125.781 270.805 125.668C281.112 124.915 281.112 124.915 291.062 122.375C298.922 119.686 311.248 118.73 318.688 122.938Z" fill="#EFF4F5"/>
<path d="M205 197C205.045 197.684 205.09 198.368 205.136 199.073C206.234 216.398 206.234 216.398 209.414 233.426C210 236 210 236 210 240C202.961 236.856 195.2 230.146 192 223C190.345 216.317 192.894 211.241 196.27 205.531C202.102 197 202.102 197 205 197Z" fill="#F4F7F8"/>
<path d="M317 181C324.111 183.392 330.088 189.159 334.625 195.062C336.627 199.339 336.843 203.552 335.309 208.007C334.371 209.999 333.344 211.901 332.25 213.812C331.902 214.467 331.554 215.121 331.195 215.795C329.206 219.402 327.357 221.672 324 224C323.925 223.245 323.85 222.49 323.772 221.712C323.42 218.224 323.054 214.737 322.688 211.25C322.57 210.063 322.452 208.876 322.33 207.652C321.502 199.882 320.079 192.528 318 185C317.663 183.668 317.328 182.335 317 181Z" fill="#F7F9FA"/>
<path d="M291 260C290.072 264.826 288.524 268.922 284.438 271.812C283.633 272.204 282.829 272.596 282 273C281.01 273.495 281.01 273.495 280 274C271.693 275.157 266.497 273.875 259.766 268.922C258 267 258 267 258 263C259.302 262.951 260.604 262.902 261.945 262.851C263.672 262.776 265.398 262.701 267.125 262.625C268.409 262.578 268.409 262.578 269.719 262.531C277.142 262.189 283.537 259.743 291 260Z" fill="#125570"/>
<path d="M254 213C253.67 214.32 253.34 215.64 253 217C250.69 217 248.38 217 246 217C245.876 217.619 245.752 218.237 245.625 218.875C245 221 245 221 243 223C236.904 223.554 236.904 223.554 234.062 221.812C232.671 219.439 232.781 217.703 233 215C229.221 216.482 226.474 217.594 223.375 220.25C221 222 221 222 218.188 221.75C217.105 221.379 217.105 221.379 216 221C217.314 216.845 218.702 215.068 222.375 212.75C223.146 212.25 223.917 211.75 224.711 211.234C234.125 206.158 244.677 209.355 254 213Z" fill="#175773"/>
<path d="M306.621 203.789C310.291 205.368 313.45 206.836 316 210C316 210.99 316 211.98 316 213C309.25 212.125 309.25 212.125 307 211C306.876 211.784 306.752 212.567 306.625 213.375C306 216 306 216 304 218C301.125 218.5 301.125 218.5 298 218C294 213.158 294 213.158 294 210C292.686 210.476 291.374 210.956 290.062 211.437C288.966 211.838 288.966 211.838 287.848 212.246C286.017 212.854 286.017 212.854 285 214C283.334 214.041 281.666 214.043 280 214C280.191 212.199 280.191 212.199 281 210C283.215 208.332 283.215 208.332 285.938 206.812C286.833 206.303 287.729 205.794 288.652 205.269C294.369 202.178 300.326 201.894 306.621 203.789Z" fill="#145672"/>
<path d="M686 441C689.569 440.857 692.447 440.808 695.843 441.986C699.183 443.059 701.888 443.283 705.387 443.344C707.165 443.388 707.165 443.388 708.979 443.434C711.463 443.478 713.947 443.522 716.432 443.566C718.204 443.611 718.204 443.611 720.012 443.656C721.628 443.684 721.628 443.684 723.276 443.713C726 444 726 444 729 446C728.125 449.875 728.125 449.875 727 451C713.969 452.171 696.134 451.423 685 444C685.33 443.01 685.66 442.02 686 441Z" fill="#EDF2F4"/>
<path d="M856 179C856.495 180.485 856.495 180.485 857 182C855.628 184.642 854.2 187.108 852.625 189.625C849.055 195.495 845.659 201.398 842.5 207.5C834.601 222.618 825.662 236.95 816 251C815.556 251.646 815.112 252.293 814.655 252.958C808.856 261.359 802.633 269.241 796 277C794.328 278.996 792.664 280.998 791 283C790.34 282.67 789.68 282.34 789 282C789.361 281.544 789.723 281.088 790.095 280.617C808.568 257.229 825.301 232.853 839.77 206.773C843.178 200.64 846.731 194.596 850.312 188.562C850.882 187.602 851.452 186.642 852.04 185.652C853.358 183.434 854.678 181.216 856 179Z" fill="#D6E2E9"/>
<path d="M684 452C690.081 452.583 695.874 453.529 701.812 454.938C708.12 456.393 714.405 457.653 720.812 458.605C723 459 723 459 725 460C724.67 461.65 724.34 463.3 724 465C710.557 465.836 695.293 462.528 684 455C684 454.01 684 453.02 684 452Z" fill="#EFF3F5"/>
<path d="M266 210C267.666 209.957 269.334 209.959 271 210C273.153 212.153 272.974 216.521 273.437 219.5C274.229 224.482 275.023 229.415 276.25 234.313C276.946 237.734 277.06 239.713 276 243C273.625 243.188 273.625 243.188 271 243C268.548 239.323 268.061 235.837 267.375 231.563C267.243 230.762 267.111 229.961 266.975 229.135C265.982 222.73 265.657 216.481 266 210Z" fill="#15566F"/>
<path d="M729 426C729.75 427.75 729.75 427.75 730 430C726.655 434.6 721.634 436.465 716.191 437.57C712.867 438.018 709.666 438.168 706.312 438.188C705.195 438.202 704.077 438.216 702.926 438.231C700 438 700 438 697 436C697 435.01 697 434.02 697 433C698.29 432.746 699.581 432.492 700.91 432.231C702.628 431.883 704.345 431.536 706.062 431.188C706.91 431.022 707.758 430.856 708.631 430.686C712.567 429.88 716.231 429.02 719.906 427.375C723.212 425.906 725.426 425.739 729 426Z" fill="#E9EFF2"/>
<path d="M805 230C805.33 230.66 805.66 231.32 806 232C805.218 234.065 805.218 234.065 803.93 236.637C803.451 237.596 802.973 238.556 802.48 239.545C801.951 240.582 801.421 241.619 800.875 242.688C800.337 243.747 799.8 244.807 799.246 245.899C795.282 253.642 791.206 261.323 787 268.938C786.461 269.932 785.922 270.926 785.367 271.95C784.854 272.862 784.341 273.775 783.812 274.715C783.365 275.52 782.918 276.326 782.457 277.156C781 279 781 279 778.949 279.83C777 280 777 280 775 279C775.614 276.011 776.555 273.827 778.195 271.262C778.657 270.535 779.119 269.808 779.594 269.059C780.099 268.276 780.605 267.494 781.125 266.688C781.647 265.87 782.169 265.053 782.707 264.211C790.046 252.75 797.451 241.324 805 230Z" fill="#EDF3F5"/>
<path d="M687 464C692.325 465.07 697.404 466.417 702.527 468.215C706.422 469.451 710.407 470.29 714.398 471.156C717.099 472.032 718.333 472.722 720 475C719.688 477.188 719.688 477.188 719 479C708.444 479.982 698.09 475.566 690 469C688.258 467.441 688.258 467.441 687 466C687 465.34 687 464.68 687 464Z" fill="#F0F4F6"/>
<path d="M777 202C778.256 205.767 777.544 207.122 776.305 210.855C775.921 212.027 775.538 213.199 775.142 214.406C774.724 215.654 774.306 216.902 773.875 218.188C773.45 219.477 773.025 220.767 772.602 222.057C771.771 224.587 770.937 227.116 770.101 229.644C768.83 233.519 767.625 237.41 766.438 241.312C763.24 251.635 759.594 261.81 756 272C754.68 272 753.36 272 752 272C752.449 267.6 753.342 264.045 755.128 260.015C756.784 256.189 758.215 252.274 759.688 248.375C760.396 246.506 761.104 244.638 761.812 242.77C762.173 241.816 762.534 240.863 762.906 239.881C763.974 237.069 765.048 234.258 766.125 231.449C769.87 221.673 773.545 211.883 777 202Z" fill="#E9F0F3"/>
<path d="M726 196C726.33 196 726.66 196 727 196C726.905 202.043 726.798 208.085 726.683 214.127C726.645 216.173 726.61 218.219 726.578 220.265C726.363 233.943 725.595 247.411 724 261C722.68 260.67 721.36 260.34 720 260C720.539 238.565 723.322 217.256 726 196Z" fill="#C9DAE1"/>
<path d="M721 113C721.99 113 722.98 113 724 113C724.059 117.458 724.094 121.916 724.125 126.375C724.142 127.627 724.159 128.878 724.176 130.168C724.213 137.37 723.808 144.014 722 151C721.01 150.01 720.02 149.02 719 148C718.01 148.495 718.01 148.495 717 149C718.35 118.299 718.35 118.299 721 113Z" fill="#34738D"/>
<path d="M856 179C856.33 179.99 856.66 180.98 857 182C855.628 184.642 854.2 187.108 852.625 189.625C849.055 195.495 845.659 201.399 842.5 207.5C839.318 213.585 836.043 219.607 832.625 225.562C832.208 226.308 831.791 227.053 831.361 227.82C830.327 229.6 829.173 231.309 828 233C827.01 233 826.02 233 825 233C826.4 229.174 828.188 225.933 830.375 222.5C834.061 216.633 837.519 210.651 840.938 204.625C845.831 196.004 850.848 187.469 856 179Z" fill="#D7E3EA"/>
<path d="M690 401C690.66 401.33 691.32 401.66 692 402C692.323 406.036 692.236 408.518 690.438 412.188C687.52 415.554 684.905 416.903 681 419C680.34 419.99 679.68 420.98 679 422C678.67 421.34 678.34 420.68 678 420C677.34 420.33 676.68 420.66 676 421C677.341 417.067 679.031 414.573 681.875 411.562C684.975 408.192 687.603 404.895 690 401Z" fill="#EDF2F5"/>
<path d="M282 246C282.312 248.313 282.312 248.313 282 251C278.287 254.59 274.18 254.323 269.305 254.301C267 254 267 254 264 252C264.33 250.35 264.66 248.7 265 247C265.922 247.017 265.922 247.017 266.863 247.035C268.076 247.049 268.076 247.049 269.312 247.063C270.113 247.074 270.914 247.086 271.738 247.098C275.302 246.944 278.335 245.901 282 246Z" fill="#185975"/>
<path d="M736 230C736.33 230 736.66 230 737 230C737.158 237.76 736.665 245.396 736 253.125C735.904 254.272 735.809 255.42 735.711 256.602C735.477 259.401 735.24 262.201 735 265C733.68 264.67 732.36 264.34 731 264C730.633 256.589 732.027 249.744 733.5 242.5C733.738 241.296 733.977 240.092 734.222 238.852C734.808 235.9 735.401 232.949 736 230Z" fill="#D4E1E7"/>
<path d="M875 164C875.99 164.33 876.98 164.66 878 165C877.384 169.96 875.202 173.937 872.938 178.312C872.372 179.423 872.372 179.423 871.795 180.557C870.869 182.374 869.935 184.187 869 186C867.68 185.01 866.36 184.02 865 183C868.3 176.73 871.6 170.46 875 164Z" fill="#306C8C"/>
<path d="M746.999 236C748.272 239.695 747.795 242.69 747.222 246.516C747.038 247.766 746.854 249.016 746.665 250.305C746.466 251.607 746.267 252.909 746.061 254.25C745.863 255.581 745.666 256.911 745.47 258.242C744.986 261.496 744.496 264.748 743.999 268C742.679 267.67 741.359 267.34 739.999 267C739.681 262.014 740.367 258.427 742.065 253.754C743.274 250.189 744.231 246.577 745.186 242.938C745.365 242.258 745.544 241.578 745.728 240.877C746.154 239.252 746.577 237.626 746.999 236Z" fill="#C1D4DC"/>
<path d="M737 125C738.562 128.124 737.572 131.216 737.074 134.562C736.967 135.31 736.859 136.057 736.748 136.826C736.518 138.407 736.285 139.988 736.049 141.567C735.689 143.989 735.345 146.412 735.002 148.836C734.777 150.37 734.551 151.904 734.324 153.438C734.222 154.165 734.12 154.892 734.015 155.641C733.229 160.771 733.229 160.771 731 163C731.523 150.592 732.483 138.326 734 126C734.99 125.67 735.98 125.34 737 125Z" fill="#C4D6DE"/>
<path d="M808 257C808.66 257.99 809.32 258.98 810 260C809.371 260.75 808.742 261.5 808.094 262.273C807.229 263.307 806.365 264.341 805.5 265.375C805.049 265.913 804.597 266.451 804.133 267.005C800.526 271.321 797.075 275.741 793.691 280.234C793.133 280.817 792.575 281.4 792 282C791.01 282 790.02 282 789 282C789.398 281.491 789.796 280.983 790.206 280.459C792.035 278.119 793.861 275.779 795.688 273.438C796.313 272.638 796.939 271.838 797.584 271.014C801.169 266.415 804.65 261.772 808 257Z" fill="#D9E5EB"/>
<path d="M718 131C718.33 131 718.66 131 719 131C719.33 132.98 719.66 134.96 720 137C720.33 137 720.66 137 721 137C721.33 135.35 721.66 133.7 722 132C723.941 135.22 724.161 137.233 723.688 140.938C723.579 141.81 723.471 142.683 723.359 143.582C722.989 146.076 722.573 148.544 722 151C721.01 150.01 720.02 149.02 719 148C718.34 148.33 717.68 148.66 717 149C717.495 140.09 717.495 140.09 718 131Z" fill="#709BAC"/>
<path d="M856 179C857 182 857 182 856.291 183.711C855.905 184.331 855.519 184.951 855.121 185.59C854.697 186.287 854.273 186.983 853.835 187.701C853.374 188.439 852.913 189.177 852.438 189.938C848.253 196.815 844.45 203.72 841 211C840.34 210.67 839.68 210.34 839 210C840.441 206.156 842.214 202.656 844.223 199.078C844.843 197.971 845.464 196.864 846.104 195.723C846.75 194.577 847.396 193.431 848.062 192.25C848.72 191.077 849.377 189.904 850.033 188.73C854.862 180.138 854.862 180.138 856 179Z" fill="#BDD2DD"/>
<path d="M720 140C720.33 140 720.66 140 721 140C721.33 145.94 721.66 151.88 722 158C721.34 158 720.68 158 720 158C720 157.34 720 156.68 720 156C718.68 156.33 717.36 156.66 716 157C717.621 143.568 717.621 143.568 720 140Z" fill="#346D87"/>
<path d="M777 202C778.245 205.735 777.568 207.063 776.348 210.762C775.983 211.88 775.619 212.998 775.244 214.15C774.854 215.318 774.464 216.485 774.062 217.688C773.483 219.456 773.483 219.456 772.893 221.26C771.936 224.176 770.972 227.089 770 230C769.34 229.67 768.68 229.34 768 229C768.637 225.408 769.587 222.121 770.848 218.699C771.205 217.723 771.563 216.746 771.932 215.74C772.491 214.229 772.491 214.229 773.062 212.688C773.628 211.147 773.628 211.147 774.205 209.576C775.133 207.05 776.065 204.524 777 202Z" fill="#B5CED7"/>
<path d="M833 170C833.99 170.33 834.98 170.66 836 171C834.3 175.735 831.863 179.962 829.375 184.312C828.955 185.053 828.535 185.794 828.102 186.557C827.071 188.373 826.036 190.187 825 192C824.67 191.34 824.34 190.68 824 190C824.713 187.937 824.713 187.937 825.871 185.43C826.485 184.086 826.485 184.086 827.111 182.715C827.549 181.778 827.987 180.841 828.438 179.875C829.088 178.458 829.088 178.458 829.752 177.012C830.828 174.671 831.911 172.334 833 170Z" fill="#C5D8E0"/>
<path d="M801.001 135C801.661 135.33 802.321 135.66 803.001 136C799.041 147.385 799.041 147.385 795.001 159C794.036 155.14 793.976 154.105 794.927 150.488C795.256 149.229 795.255 149.229 795.592 147.943C795.83 147.075 796.068 146.207 796.313 145.312C796.54 144.433 796.765 143.553 796.998 142.646C798.292 137.809 798.293 137.809 799.001 136C799.661 135.67 800.321 135.34 801.001 135Z" fill="#C2D6DD"/>
<path d="M160.001 479C160.331 479 160.661 479 161.001 479C161.062 479.978 161.122 480.957 161.185 481.965C161.269 483.276 161.352 484.587 161.439 485.938C161.482 486.624 161.526 487.31 161.571 488.018C161.815 491.698 162.137 495.344 162.626 499C163.103 502.867 162.733 506.18 162.001 510C161.671 510 161.341 510 161.001 510C159.846 499.662 159.903 489.384 160.001 479Z" fill="#518398"/>
<path d="M760 159C761.532 160.258 761.532 160.258 763 162C762.608 164.967 762.085 167.571 761.312 170.438C761.125 171.201 760.937 171.965 760.744 172.752C759.826 176.377 758.901 179.745 757 183C757.615 174.93 758.692 166.986 760 159Z" fill="#B8D0DB"/>
<path d="M865 176C865.66 176.99 866.32 177.98 867 179C865.794 183.208 863.464 186.984 861.375 190.812C860.888 191.709 860.888 191.709 860.391 192.623C859.596 194.083 858.798 195.542 858 197C857.67 196.34 857.34 195.68 857 195C858.053 192.296 859.163 189.693 860.375 187.062C861.03 185.616 861.683 184.17 862.336 182.723C862.63 182.081 862.925 181.439 863.228 180.778C864.108 178.823 864.108 178.823 865 176Z" fill="#B4CBD6"/>
<path d="M826 183C826.66 183.33 827.32 183.66 828 184C827.67 184.99 827.34 185.98 827 187C827.66 187.66 828.32 188.32 829 189C826.69 191.97 824.38 194.94 822 198C820.672 194.015 821.768 192.6 823.438 188.812C823.911 187.726 824.383 186.639 824.87 185.52C825.243 184.688 825.616 183.857 826 183Z" fill="#33708C"/>
<path d="M721 113C721.99 113 722.98 113 724 113C724.054 114.77 724.093 116.541 724.125 118.312C724.148 119.299 724.171 120.285 724.195 121.301C724 124 724 124 722 127C721.047 122.237 720.917 117.833 721 113Z" fill="#226988"/>
<path d="M799 269C799.33 269.99 799.66 270.98 800 272C798.453 274.48 798.453 274.48 796.25 277.188C795.533 278.089 794.817 278.99 794.078 279.918C793.049 280.949 793.049 280.949 792 282C791.01 282 790.02 282 789 282C793.95 275.565 793.95 275.565 799 269Z" fill="#CADCE3"/>
<path d="M743 257C743.33 257 743.66 257 744 257C744 260.63 744 264.26 744 268C742.68 267.67 741.36 267.34 740 267C740.308 265.52 740.622 264.041 740.938 262.562C741.199 261.327 741.199 261.327 741.465 260.066C742 258 742 258 743 257Z" fill="#E8EFF3"/>
<path d="M875 164C875.99 164.33 876.98 164.66 878 165C877.624 167.782 877.327 169.588 875.562 171.812C874 173 874 173 872 173C872.557 169.656 873.352 166.967 875 164Z" fill="#286481"/>
<path d="M726 118C727.291 121.874 726.411 124.82 725.562 128.688C725.415 129.389 725.267 130.091 725.115 130.814C724.75 132.544 724.376 134.272 724 136C723.67 136 723.34 136 723 136C722.446 123.33 722.446 123.33 726 118Z" fill="#E5EDF1"/>
<path d="M805 230C805.33 230.66 805.66 231.32 806 232C804.785 234.82 804.785 234.82 803.062 238.125C802.497 239.221 801.931 240.316 801.348 241.445C800.903 242.288 800.458 243.131 800 244C799.01 243.34 798.02 242.68 797 242C799.64 238.04 802.28 234.08 805 230Z" fill="#C2D7E0"/>
<path d="M767 229C767.66 229 768.32 229 769 229C768.143 237.571 768.143 237.571 766 241C764.812 239.5 764.812 239.5 764 237C764.729 234.212 765.816 231.623 767 229Z" fill="#D8E4EA"/>
<path d="M850 174C850.99 174.66 851.98 175.32 853 176C850.69 179.63 848.38 183.26 846 187C845.67 186.34 845.34 185.68 845 185C845.996 182.398 845.996 182.398 847.438 179.375C847.911 178.372 848.384 177.369 848.871 176.336C849.244 175.565 849.616 174.794 850 174Z" fill="#B3CCD6"/>
<path d="M814 249C814.66 249 815.32 249 816 249C814.606 253.435 812.394 255.874 809 259C809.501 254.615 810.983 252.2 814 249Z" fill="#E6EDF1"/>
<path d="M720 140C720.33 140 720.66 140 721 140C721 143.3 721 146.6 721 150C719.02 150.99 719.02 150.99 717 152C717.115 150.562 717.242 149.124 717.375 147.688C717.445 146.887 717.514 146.086 717.586 145.262C718 143 718 143 720 140Z" fill="#195B77"/>
<path d="M740 113C742.97 113 745.94 113 749 113C749 115.31 749 117.62 749 120C748.67 120 748.34 120 748 120C748 118.02 748 116.04 748 114C744.225 115.091 741.53 115.908 739 119C739.33 117.02 739.66 115.04 740 113Z" fill="#5E8CA3"/>
<path d="M797 243C797.66 243 798.32 243 799 243C798.25 247.75 798.25 247.75 796 250C795.01 250 794.02 250 793 250C794.074 247.085 794.778 245.222 797 243Z" fill="#DCE8ED"/>
<path d="M824 233C824.99 233.33 825.98 233.66 827 234C825.68 236.31 824.36 238.62 823 241C822.34 241 821.68 241 821 241C821.547 237.625 822.055 235.918 824 233Z" fill="#E2EBF0"/>
<path d="M223 212C223.66 212.33 224.32 212.66 225 213C222.147 215.932 219.349 218.643 216 221C217.35 216.581 219.261 214.657 223 212Z" fill="#296480"/>
<path d="M871 179C870.25 183.75 870.25 183.75 868 186C867.67 185.34 867.34 184.68 867 184C866.34 183.67 865.68 183.34 865 183C868.75 179 868.75 179 871 179Z" fill="#296786"/>
<path d="M843 201C843.66 201.66 844.32 202.32 845 203C843.68 205.64 842.36 208.28 841 211C840.34 210.67 839.68 210.34 839 210C840.199 206.917 841.477 203.937 843 201Z" fill="#C6D7E0"/>
<path d="M680 461C680.33 461 680.66 461 681 461C681 463.31 681 465.62 681 468C679.68 468.33 678.36 468.66 677 469C678.875 462.125 678.875 462.125 680 461Z" fill="#B3C8D1"/>
<path d="M718 131C718.33 131 718.66 131 719 131C719.124 131.969 719.248 132.939 719.375 133.938C719.581 134.948 719.787 135.959 720 137C720.66 137.33 721.32 137.66 722 138C722 139.65 722 141.3 722 143C721.67 142.01 721.34 141.02 721 140C720.01 139.67 719.02 139.34 718 139C718 136.36 718 133.72 718 131Z" fill="#51859A"/>
<path d="M210 626C210.66 626 211.32 626 212 626C211.67 627.65 211.34 629.3 211 631C209.35 631 207.7 631 206 631C206 630.34 206 629.68 206 629C207.32 629 208.64 629 210 629C210 628.01 210 627.02 210 626Z" fill="#326E85"/>
<path d="M835 219C835.66 219.99 836.32 220.98 837 222C835.35 224.31 833.7 226.62 832 229C831.34 228.67 830.68 228.34 830 228C831.65 225.03 833.3 222.06 835 219Z" fill="#31708D"/>
<path d="M761 153C761.33 154.32 761.66 155.64 762 157C762.66 157 763.32 157 764 157C763.34 158.98 762.68 160.96 762 163C761.67 163 761.34 163 761 163C761 159.7 761 156.4 761 153Z" fill="#DFEAEE"/>
<path d="M1335.63 264.386C1345.2 264.386 1354.77 264.386 1364.63 264.386C1366.84 269.546 1368.39 273.91 1369.69 279.249C1370.74 282.773 1372.1 286.105 1373.48 289.511C1375.65 294.959 1377.6 300.488 1379.57 306.011C1380.01 307.245 1380.45 308.479 1380.9 309.75C1384.84 320.867 1388.41 332.04 1391.63 343.386C1392.29 343.386 1392.95 343.386 1393.63 343.386C1393.89 342.826 1394.16 342.266 1394.43 341.689C1395.73 339.183 1397.21 336.89 1398.78 334.542C1399.39 333.626 1400 332.709 1400.63 331.765C1401.27 330.815 1401.91 329.865 1402.57 328.886C1403.2 327.936 1403.83 326.986 1404.49 326.007C1407.12 322.066 1409.75 318.156 1412.63 314.386C1411.45 313.891 1410.28 313.396 1409.07 312.886C1403.43 310.072 1399.32 305.694 1396.46 300.089C1394.43 293.478 1394.3 284.219 1397.19 277.823C1402.03 270.071 1409.01 266.741 1417.63 264.386C1421.36 263.916 1425.01 263.913 1428.77 263.995C1429.66 263.999 1430.55 264.003 1431.47 264.007C1434.75 264.028 1438.03 264.084 1441.32 264.136C1448.68 264.218 1456.04 264.301 1463.63 264.386C1463.63 291.116 1463.63 317.846 1463.63 345.386C1456.37 345.386 1449.11 345.386 1441.63 345.386C1441.63 335.486 1441.63 325.586 1441.63 315.386C1434.31 315.585 1434.31 315.585 1431.93 317.762C1431.6 318.344 1431.28 318.927 1430.94 319.527C1430.55 320.187 1430.16 320.847 1429.76 321.527C1429.2 322.571 1429.2 322.571 1428.63 323.636C1427.43 325.711 1426.24 327.781 1425 329.832C1423.51 332.466 1423.51 332.466 1422.38 335.805C1420.68 339.692 1419.18 342.981 1415.63 345.386C1407.93 347.588 1399.52 346.599 1391.63 346.198C1389.4 346.133 1387.17 346.074 1384.94 346.021C1379.5 345.878 1374.07 345.654 1368.63 345.386C1367.31 340.106 1365.99 334.826 1364.63 329.386C1355.39 329.716 1346.15 330.046 1336.63 330.386C1334.98 335.336 1333.33 340.286 1331.63 345.386C1324.04 345.386 1316.45 345.386 1308.63 345.386C1310.36 339.027 1312.05 332.855 1314.12 326.632C1314.35 325.94 1314.58 325.248 1314.82 324.535C1315.57 322.296 1316.32 320.06 1317.07 317.823C1317.32 317.053 1317.58 316.283 1317.85 315.49C1323.56 298.381 1329.56 281.374 1335.63 264.386Z" fill="#226481"/>
<path d="M1262.63 384.386C1269.89 384.386 1277.15 384.386 1284.63 384.386C1284.63 394.946 1284.63 405.506 1284.63 416.386C1291.28 416.197 1291.28 416.197 1293.43 413.396C1293.86 412.537 1294.29 411.677 1294.73 410.792C1295.46 409.369 1295.46 409.369 1296.22 407.917C1296.7 406.917 1297.19 405.917 1297.69 404.886C1299.64 401.036 1301.63 397.208 1303.63 393.386C1304.05 392.493 1304.48 391.599 1304.92 390.679C1306.3 388.127 1307.44 386.299 1309.63 384.386C1313.65 383.319 1317.38 383.526 1321.5 383.823C1322.57 383.864 1323.64 383.905 1324.75 383.947C1327.38 384.052 1330 384.2 1332.63 384.386C1331.33 387.866 1329.8 390.932 1327.84 394.081C1327.29 394.957 1326.75 395.833 1326.18 396.736C1325.61 397.652 1325.03 398.567 1324.44 399.511C1323.86 400.449 1323.27 401.388 1322.67 402.354C1320.22 406.284 1317.77 410.206 1315.21 414.07C1314.59 415.02 1313.96 415.97 1313.32 416.948C1312.78 417.734 1312.25 418.519 1311.7 419.327C1310.32 421.59 1310.32 421.59 1310.63 425.386C1311.78 427.427 1311.78 427.427 1313.44 429.511C1317.51 435.064 1321.03 440.877 1324.54 446.789C1327.61 451.902 1330.96 456.683 1334.63 461.386C1336.43 458.683 1337.33 456.666 1338.35 453.63C1338.68 452.665 1339.01 451.699 1339.34 450.705C1339.69 449.661 1340.04 448.618 1340.4 447.542C1340.95 445.923 1340.95 445.923 1341.51 444.271C1342.68 440.811 1343.84 437.348 1345 433.886C1346.16 430.452 1347.32 427.019 1348.48 423.587C1349.2 421.451 1349.92 419.315 1350.63 417.179C1354.36 406.132 1358.44 395.271 1362.63 384.386C1372.2 384.386 1381.77 384.386 1391.63 384.386C1392.67 387.428 1392.67 387.428 1393.73 390.531C1394.45 392.651 1395.18 394.771 1395.9 396.892C1396.43 398.429 1396.95 399.966 1397.48 401.503C1400.87 411.409 1404.29 421.302 1407.77 431.179C1408.28 432.644 1408.28 432.644 1408.8 434.139C1410.5 438.963 1412.2 443.785 1413.9 448.604C1414.52 450.375 1415.15 452.146 1415.77 453.917C1416.06 454.731 1416.35 455.545 1416.65 456.384C1417.74 459.5 1418.63 462.059 1418.63 465.386C1411.04 465.386 1403.45 465.386 1395.63 465.386C1391.63 452.761 1391.63 452.761 1391.63 449.386C1382.06 449.386 1372.49 449.386 1362.63 449.386C1361.64 453.346 1360.65 457.306 1359.63 461.386C1358.64 463.366 1358.64 463.366 1357.63 465.386C1342.12 465.386 1326.61 465.386 1310.63 465.386C1301.63 449.386 1301.63 449.386 1298.81 444.14C1298.04 442.742 1297.27 441.345 1296.5 439.948C1296.13 439.218 1295.75 438.488 1295.36 437.736C1294.78 436.698 1294.78 436.698 1294.18 435.64C1293.86 435.035 1293.53 434.43 1293.2 433.806C1291.1 431.645 1291.1 431.645 1284.63 431.386C1284.63 442.606 1284.63 453.826 1284.63 465.386C1277.37 465.386 1270.11 465.386 1262.63 465.386C1262.63 438.656 1262.63 411.926 1262.63 384.386Z" fill="#226482"/>
<path d="M1166.75 391.011C1173.74 397.921 1176.73 407.659 1176.82 417.189C1176.79 446.581 1176.79 446.581 1166.38 457.82C1155.91 467.17 1142.12 467.234 1128.82 466.581C1120.72 465.859 1113.38 462.059 1107.63 456.386C1098.03 444.535 1097.77 428.93 1098.63 414.386C1099.92 403.879 1103.24 395.583 1111.69 388.948C1127.5 378.144 1151.5 379.746 1166.75 391.011Z" fill="#226481"/>
<path d="M1105.97 268.323C1114.66 275.069 1118.52 282.545 1120.28 293.366C1121.84 306.916 1120.88 322.927 1113.07 334.573C1108.24 340.602 1101.06 344.537 1093.63 346.386C1089.54 346.723 1085.48 346.756 1081.38 346.761C1080.3 346.785 1079.22 346.81 1078.1 346.835C1068.6 346.87 1060.03 344.607 1052.63 338.386C1043.22 326.707 1042.34 314.96 1042.59 300.588C1042.62 298.712 1042.64 296.836 1042.64 294.96C1042.96 286.459 1045.7 278.952 1051.3 272.441C1065.04 259.901 1090.49 258.818 1105.97 268.323Z" fill="#226482"/>
<path d="M1120.63 264.386C1128.55 264.386 1136.47 264.386 1144.63 264.386C1146.77 268.478 1148.91 272.57 1151.04 276.666C1151.76 278.06 1152.49 279.453 1153.22 280.845C1154.27 282.844 1155.31 284.845 1156.35 286.847C1156.68 287.471 1157 288.095 1157.34 288.738C1159.63 293.158 1159.63 293.158 1159.63 295.386C1160.95 295.386 1162.27 295.386 1163.63 295.386C1163.63 285.156 1163.63 274.926 1163.63 264.386C1170.56 264.386 1177.49 264.386 1184.63 264.386C1184.63 274.616 1184.63 284.846 1184.63 295.386C1185.95 295.056 1187.27 294.726 1188.63 294.386C1190.06 291.991 1191.23 289.727 1192.38 287.198C1193.07 285.745 1193.76 284.293 1194.46 282.843C1194.81 282.104 1195.16 281.365 1195.53 280.603C1198.28 275.047 1201.51 269.74 1204.63 264.386C1212.22 264.386 1219.81 264.386 1227.63 264.386C1223.7 271.9 1219.4 279.116 1214.94 286.324C1214.09 287.709 1214.09 287.709 1213.21 289.123C1208.84 296.159 1208.84 296.159 1206.82 298.361C1205.32 300.361 1205.32 300.361 1206.24 302.774C1207.74 305.6 1209.26 308.403 1210.86 311.175C1211.82 312.836 1211.82 312.836 1212.79 314.531C1213.13 315.104 1213.46 315.677 1213.8 316.267C1214.8 317.983 1215.79 319.702 1216.78 321.421C1220.46 327.775 1224.25 334.018 1228.27 340.157C1229.63 342.386 1229.63 342.386 1230.63 345.386C1223.04 345.386 1215.45 345.386 1207.63 345.386C1202.98 337.377 1198.47 329.319 1194.13 321.136C1193.68 320.302 1193.24 319.468 1192.78 318.609C1192.37 317.829 1191.96 317.049 1191.53 316.245C1191.17 315.549 1190.8 314.853 1190.42 314.135C1189.63 312.386 1189.63 312.386 1189.63 310.386C1187.98 310.386 1186.33 310.386 1184.63 310.386C1184.63 321.936 1184.63 333.486 1184.63 345.386C1177.7 345.386 1170.77 345.386 1163.63 345.386C1163.63 333.836 1163.63 322.286 1163.63 310.386C1158.57 310.786 1158.57 310.786 1156.82 314.082C1156.28 315.26 1155.74 316.438 1155.18 317.652C1154.89 318.282 1154.59 318.912 1154.28 319.562C1153.34 321.579 1152.42 323.607 1151.5 325.636C1150.57 327.648 1149.64 329.658 1148.7 331.667C1147.85 333.498 1147.01 335.335 1146.17 337.172C1145.41 338.763 1145.41 338.763 1144.63 340.386C1144.18 341.341 1143.73 342.296 1143.26 343.28C1141.63 345.386 1141.63 345.386 1139.18 345.954C1137.75 345.914 1137.75 345.914 1136.3 345.874C1134.76 345.85 1134.76 345.85 1133.19 345.825C1132.12 345.784 1131.05 345.742 1129.94 345.698C1128.86 345.676 1127.77 345.653 1126.66 345.63C1123.98 345.571 1121.3 345.489 1118.63 345.386C1118.99 344.72 1119.36 344.055 1119.73 343.369C1122.37 338.533 1125 333.695 1127.63 328.851C1129.13 326.087 1129.13 326.087 1130.63 323.324C1131.12 322.408 1131.62 321.492 1132.13 320.548C1132.62 319.637 1133.12 318.727 1133.63 317.788C1134.11 316.894 1134.6 315.999 1135.1 315.077C1137.13 311.498 1139.4 308.079 1141.72 304.677C1142.9 302.379 1142.9 302.379 1141.94 299.874C1140.7 297.529 1139.45 295.219 1138.09 292.945C1137.35 291.706 1137.35 291.706 1136.59 290.442C1136.07 289.578 1135.54 288.714 1135 287.824C1134.47 286.937 1133.94 286.05 1133.39 285.137C1129.73 279.111 1125.95 273.211 1121.96 267.406C1120.63 265.386 1120.63 265.386 1120.63 264.386Z" fill="#206280"/>
<path d="M1025.63 384.386C1045.43 384.386 1065.23 384.386 1085.63 384.386C1085.63 389.666 1085.63 394.946 1085.63 400.386C1073.09 400.386 1060.55 400.386 1047.63 400.386C1047.63 405.006 1047.63 409.626 1047.63 414.386C1049.27 414.351 1050.91 414.316 1052.6 414.281C1054.77 414.252 1056.95 414.225 1059.13 414.198C1060.21 414.173 1061.28 414.148 1062.39 414.122C1071.59 414.038 1078.19 415.637 1085.63 421.386C1092.03 428.316 1092.16 435.28 1091.93 444.269C1091.6 450.277 1090.24 453.988 1085.78 458.081C1073.97 466.955 1059.36 465.762 1045.38 465.574C1035.6 465.481 1035.6 465.481 1025.63 465.386C1025.63 438.656 1025.63 411.926 1025.63 384.386Z" fill="#226481"/>
<path d="M1186.63 384.386C1197.12 384.231 1197.12 384.231 1207.82 384.074C1211.08 384.005 1211.08 384.005 1214.42 383.936C1227.47 383.776 1238.32 384.417 1248.63 393.386C1254.92 401.248 1254.51 411.706 1253.63 421.386C1251.61 428.287 1247.73 433.572 1241.63 437.386C1233.86 441.279 1225.73 441.537 1217.19 441.449C1212.95 441.418 1212.95 441.418 1208.63 441.386C1208.63 449.306 1208.63 457.226 1208.63 465.386C1201.37 465.386 1194.11 465.386 1186.63 465.386C1186.63 438.656 1186.63 411.926 1186.63 384.386Z" fill="#226482"/>
<path d="M1335.63 264.386C1345.2 264.386 1354.77 264.386 1364.63 264.386C1366.84 269.547 1368.39 273.91 1369.69 279.249C1370.74 282.773 1372.1 286.105 1373.48 289.511C1375.65 294.959 1377.6 300.489 1379.57 306.011C1380.01 307.243 1380.45 308.476 1380.9 309.746C1383.68 317.575 1386.31 325.422 1388.69 333.382C1389.57 336.37 1389.57 336.37 1390.75 339.109C1391.63 341.386 1391.63 341.386 1391.63 344.386C1384.37 344.386 1377.11 344.386 1369.63 344.386C1365.63 334.386 1365.63 334.386 1364.63 329.386C1355.39 329.716 1346.15 330.046 1336.63 330.386C1334.98 335.336 1333.33 340.286 1331.63 345.386C1324.04 345.386 1316.45 345.386 1308.63 345.386C1310.36 339.027 1312.05 332.856 1314.12 326.632C1314.35 325.94 1314.58 325.248 1314.82 324.535C1315.57 322.296 1316.32 320.06 1317.07 317.824C1317.32 317.053 1317.58 316.283 1317.85 315.49C1323.56 298.381 1329.56 281.374 1335.63 264.386Z" fill="#206280"/>
<path d="M1234.63 264.386C1241.89 264.386 1249.15 264.386 1256.63 264.386C1256.63 274.946 1256.63 285.506 1256.63 296.386C1264.88 296.386 1273.13 296.386 1281.63 296.386C1281.63 285.826 1281.63 275.266 1281.63 264.386C1288.89 264.386 1296.15 264.386 1303.63 264.386C1303.63 291.116 1303.63 317.846 1303.63 345.386C1296.37 345.386 1289.11 345.386 1281.63 345.386C1281.63 334.496 1281.63 323.606 1281.63 312.386C1273.38 312.386 1265.13 312.386 1256.63 312.386C1256.63 323.276 1256.63 334.166 1256.63 345.386C1249.37 345.386 1242.11 345.386 1234.63 345.386C1234.63 318.656 1234.63 291.926 1234.63 264.386Z" fill="#236583"/>
<path d="M979.629 264.386C997.119 264.386 1014.61 264.386 1032.63 264.386C1032.63 291.116 1032.63 317.846 1032.63 345.386C1025.7 345.386 1018.77 345.386 1011.63 345.386C1011.63 323.936 1011.63 302.486 1011.63 280.386C1007.01 280.386 1002.39 280.386 997.629 280.386C997.526 282.242 997.423 284.098 997.317 286.011C996.652 295.363 995.322 304.607 993.976 313.881C993.679 316.027 993.434 318.181 993.199 320.335C992.185 329.079 989.456 335.742 983.004 341.886C975.113 346.87 967.8 346.488 958.629 346.386C958.629 340.116 958.629 333.846 958.629 327.386C961.599 326.726 964.569 326.066 967.629 325.386C971.155 320.846 971.668 314.953 972.567 309.386C972.731 308.409 972.896 307.431 973.066 306.424C974.722 296.338 976.047 286.204 977.322 276.064C977.479 274.833 977.636 273.603 977.797 272.335C977.934 271.235 978.071 270.135 978.212 269.002C978.629 266.386 978.629 266.386 979.629 264.386Z" fill="#206380"/>
<path d="M1262.63 384.386C1269.89 384.386 1277.15 384.386 1284.63 384.386C1284.63 394.946 1284.63 405.506 1284.63 416.386C1291.28 416.197 1291.28 416.197 1293.43 413.396C1293.86 412.537 1294.29 411.677 1294.73 410.792C1295.46 409.369 1295.46 409.369 1296.22 407.917C1296.7 406.917 1297.19 405.917 1297.69 404.886C1299.64 401.036 1301.63 397.208 1303.63 393.386C1304.05 392.493 1304.48 391.599 1304.92 390.679C1306.3 388.127 1307.44 386.299 1309.63 384.386C1313.65 383.319 1317.38 383.526 1321.5 383.823C1322.57 383.864 1323.64 383.905 1324.75 383.947C1327.38 384.052 1330 384.2 1332.63 384.386C1331.33 387.866 1329.8 390.932 1327.84 394.081C1327.29 394.957 1326.75 395.833 1326.18 396.736C1325.61 397.652 1325.03 398.567 1324.44 399.511C1323.86 400.449 1323.27 401.388 1322.67 402.354C1320.22 406.284 1317.77 410.206 1315.21 414.07C1314.59 415.02 1313.96 415.97 1313.32 416.948C1312.78 417.734 1312.25 418.519 1311.7 419.327C1310.32 421.59 1310.32 421.59 1310.63 425.386C1311.78 427.427 1311.78 427.427 1313.44 429.511C1317.51 435.064 1321.03 440.877 1324.54 446.789C1327.27 451.328 1330.17 455.537 1333.51 459.655C1334.63 461.386 1334.63 461.386 1334.63 464.386C1326.74 465.63 1318.38 466.782 1310.63 464.386C1305.15 459.979 1302.45 453.238 1299.72 446.913C1298.27 443.551 1296.6 440.397 1294.82 437.198C1294.36 436.277 1293.9 435.355 1293.42 434.406C1291.29 431.568 1291.29 431.568 1284.63 431.386C1284.63 442.606 1284.63 453.826 1284.63 465.386C1277.37 465.386 1270.11 465.386 1262.63 465.386C1262.63 438.656 1262.63 411.926 1262.63 384.386Z" fill="#226381"/>
<path d="M947.629 384.386C954.889 384.386 962.149 384.386 969.629 384.386C971.695 388.517 973.101 391.547 974.317 395.824C977.381 406.133 981.057 416.243 984.629 426.386C987.606 419.313 990.022 412.181 992.191 404.824C992.775 402.864 993.36 400.904 993.945 398.945C994.324 397.665 994.324 397.665 994.709 396.36C995.95 392.348 997.301 388.37 998.629 384.386C1005.89 384.386 1013.15 384.386 1020.63 384.386C1018.02 393.547 1015.35 402.426 1011.81 411.273C1010.6 414.466 1009.6 417.673 1008.63 420.948C1007.04 426.251 1005.11 431.277 1002.9 436.347C1002.03 438.427 1001.24 440.54 1000.52 442.675C997.593 451.252 993.528 458.637 985.668 463.632C977.979 467.141 969.879 466.463 961.629 466.386C961.629 461.106 961.629 455.826 961.629 450.386C964.363 450.191 967.098 449.995 969.832 449.8C972.568 449.395 974.325 448.894 976.629 447.386C977.912 444.848 977.912 444.848 978.629 442.386C975.989 442.386 973.349 442.386 970.629 442.386C970.312 441.582 969.995 440.777 969.668 439.948C966.421 431.769 963.082 423.632 959.691 415.511C959.264 414.486 958.836 413.461 958.396 412.405C956.764 408.496 955.132 404.586 953.495 400.679C952.495 398.291 951.499 395.901 950.504 393.511C950.061 392.459 950.061 392.459 949.61 391.386C947.629 386.614 947.629 386.614 947.629 384.386Z" fill="#226380"/>
<path d="M928.316 262.948C929.467 262.952 930.619 262.955 931.805 262.958C940.224 263.096 946.796 264.173 954.628 267.386C953.968 272.336 953.308 277.286 952.628 282.386C943.186 281.493 943.186 281.493 939.691 280.823C932.213 279.755 925.234 279.395 918.628 283.386C913.8 289.663 914.415 296.558 914.378 304.136C914.358 305.196 914.337 306.255 914.316 307.347C914.279 314.749 914.76 320.891 919.628 326.823C923.528 329.87 927.593 329.578 932.316 329.573C933.036 329.574 933.756 329.575 934.498 329.575C939.576 329.525 943.807 328.869 948.628 327.386C949.948 327.386 951.268 327.386 952.628 327.386C953.757 332.747 953.725 337.939 953.628 343.386C940.304 348.108 921.735 349.178 908.628 343.386C900.488 339.086 895.449 332.024 892.628 323.386C889.026 309.531 888.55 291.875 894.882 278.796C902.67 266.042 914.107 262.826 928.316 262.948Z" fill="#216381"/>
<path d="M1144.63 399.386C1148.41 400.82 1149.84 401.893 1151.72 405.443C1154.46 411.9 1155.25 417.405 1155.13 424.386C1155.14 425.306 1155.16 426.227 1155.18 427.175C1155.14 433.848 1153.83 439.491 1150.63 445.386C1145.47 450.425 1141.63 450.739 1134.62 450.663C1130.59 450.29 1128.52 449.202 1125.63 446.386C1120.27 438.73 1120.37 428.57 1120.82 419.574C1120.85 418.869 1120.88 418.164 1120.91 417.438C1121.31 411.511 1122.71 406.595 1126.69 402.011C1131.71 397.8 1138.41 398.911 1144.63 399.386Z" fill="#F9FBFB"/>
<path d="M1088.63 279.386C1092.73 281.251 1094.89 284.311 1096.63 288.386C1099.46 300.147 1100.62 313.809 1094.82 324.823C1091.76 328.398 1089.2 330.15 1084.51 330.855C1074.45 330.95 1074.45 330.95 1071 328.261C1066.32 322.59 1064.96 317.643 1064.63 310.386C1064.6 309.757 1064.56 309.127 1064.53 308.479C1064.06 298.226 1063.71 288.817 1071 280.761C1076.82 278.555 1082.5 278.536 1088.63 279.386Z" fill="#F9FBFB"/>
<path d="M1208.63 400.386C1211.33 400.283 1214.03 400.18 1216.82 400.073C1217.66 400.028 1218.5 399.982 1219.37 399.935C1223.42 399.861 1225.22 400.103 1228.65 402.464C1231.1 406.076 1231.21 408.121 1231.07 412.448C1231.04 413.656 1231.02 414.864 1231 416.109C1230.65 419.157 1230.41 420.923 1228.63 423.386C1225.02 426.169 1220.71 425.61 1216.38 425.511C1213.82 425.47 1211.26 425.428 1208.63 425.386C1208.63 417.136 1208.63 408.886 1208.63 400.386Z" fill="#FAFBFC"/>
<path d="M1427.86 280.191C1428.58 280.196 1429.31 280.201 1430.05 280.206C1430.96 280.224 1431.88 280.242 1432.82 280.261C1435.72 280.302 1438.63 280.344 1441.63 280.386C1441.63 287.316 1441.63 294.246 1441.63 301.386C1438.76 301.469 1435.89 301.551 1432.94 301.636C1431.6 301.691 1431.6 301.691 1430.23 301.746C1426.18 301.803 1424.13 301.698 1420.61 299.495C1417.52 296.203 1417.35 293.929 1417.41 289.421C1417.73 286.485 1418.81 284.677 1420.63 282.386C1423.73 280.319 1424.36 280.141 1427.86 280.191Z" fill="#F7F9FA"/>
<path d="M1047.63 428.386C1050.14 428.283 1052.66 428.18 1055.25 428.073C1056.42 428.005 1056.42 428.005 1057.62 427.935C1061.45 427.86 1064 428.222 1067.11 430.558C1070.62 434.498 1070.37 436.797 1070.09 441.851C1069.63 444.386 1069.63 444.386 1067.82 447.011C1063.61 449.657 1059.73 449.506 1054.94 449.448C1051.32 449.417 1051.32 449.417 1047.63 449.386C1047.63 442.456 1047.63 435.526 1047.63 428.386Z" fill="#F4F7F8"/>
<path d="M1349.63 283.386C1351.86 286.726 1352.91 290.028 1354.07 293.824C1354.28 294.531 1354.5 295.238 1354.73 295.966C1356.58 302.056 1358.16 308.192 1359.63 314.386C1353.36 314.386 1347.09 314.386 1340.63 314.386C1346.8 289.047 1346.8 289.047 1349.63 283.386Z" fill="#ECF2F5"/>
<path d="M1375.63 403.386C1376.29 403.386 1376.95 403.386 1377.63 403.386C1378.97 407.633 1380.3 411.884 1381.63 416.136C1382.01 417.343 1382.39 418.549 1382.78 419.792C1383.15 420.952 1383.51 422.113 1383.88 423.308C1384.21 424.376 1384.55 425.444 1384.89 426.545C1385.63 429.386 1385.63 429.386 1385.63 433.386C1380.02 433.386 1374.41 433.386 1368.63 433.386C1369.05 425.606 1371.2 418.581 1373.47 411.179C1374.26 408.58 1374.99 406.021 1375.63 403.386Z" fill="#F1F5F7"/>
</svg>
