<svg xmlns="http://www.w3.org/2000/svg" width="78" height="78" viewBox="0 0 78 78" fill="none">
    <g clip-path="url(#clip0_318_348)">
        <path
            d="M13.8207 0C6.1645 0 0 6.1645 0 13.8207V64.1794C0 71.8356 6.1645 78.0001 13.8207 78.0001H50.8853L78.0001 39.0098L50.8853 7.8e-05L13.8207 0ZM34.576 14.2399H43.3827C43.9234 14.2399 44.2333 14.4376 44.2333 14.9029V63.4384C44.2333 63.7687 44.0777 63.9673 43.6142 63.9673H38.8245C38.5177 63.9673 38.2858 63.7024 38.2858 63.5042V45.5349H34.4199L23.6828 63.5042C23.5286 63.8348 23.2201 63.9673 22.7565 63.9673H17.2721C16.6559 63.9673 16.2695 63.5042 16.6554 62.907L28.4724 44.6063C22.1398 42.2193 18.5859 37.3791 18.5859 30.8148C18.5859 19.8742 25.925 14.2398 34.5759 14.2398L34.576 14.2399ZM34.3444 18.4812C29.6323 18.4812 24.9966 21.8626 24.9966 30.1519C24.9966 38.1088 29.9409 41.2913 35.0391 41.2913H38.2858V18.4812H34.3444Z"
            fill="#FB0707" />
    </g>
    <defs>
        <clipPath id="clip0_318_348">
            <rect width="78" height="78" fill="white" />
        </clipPath>
    </defs>
</svg>