<svg width="1024" height="1024" viewBox="0 0 1024 1024" fill="none" xmlns="http://www.w3.org/2000/svg">
<rect width="1024" height="1024" fill="white"/>
<path d="M343.488 112.723C350.67 118.835 355.866 125.64 360.781 133.652C363.792 138.418 367.47 141.882 372.312 144.75C379.399 149.349 384.569 155.661 388.699 162.981C390.057 165.223 390.057 165.223 392.519 167.672C396.174 171.978 396.516 177.038 397.383 182.455C398.352 187.711 399.531 190.65 404 194C410.504 195.943 417.211 192.823 423 190C424.676 189.016 426.346 188.021 428 187C434.111 185.04 441.279 185.194 447.375 187C453.99 192.041 456.922 198.589 459.726 206.266C461.4 209.859 463.439 212.22 467 214C474.855 215.146 480.136 210.868 486.242 206.336C487.544 205.338 488.836 204.327 490.113 203.297C495.724 199.44 501.408 199.286 508 200C516.534 202.212 520.71 209.439 525.25 216.438C526.908 219.209 526.908 219.209 530 221C535.547 221.447 538.393 221.363 543 218C545.085 215.479 545.085 215.479 546.937 212.625C551.163 206.612 554.864 202.396 562 200C569.378 199.125 575.97 199.402 582 204C584.402 206.251 586.688 208.558 588.922 210.977C592.224 214.192 594.846 215.289 599.437 215.313C600.549 215.338 600.549 215.338 601.683 215.363C604.834 214.869 606.483 213.985 609 212C610.444 209.562 611.679 207.238 612.875 204.688C616.135 198.137 619.199 193.4 626 190C634.714 189.16 641.451 189.947 649.281 193.906C652.417 195.168 654.648 195.343 658 195C658.68 194.319 659.361 193.639 660.062 192.938C660.702 192.298 661.341 191.659 662 191C664.75 191.25 664.75 191.25 667 192C667.33 193.65 667.66 195.3 668 197C664.315 201.035 660.989 204.487 655.312 204.813C649.681 204.439 645.082 201.952 640.176 199.313C636.512 197.799 633.929 197.67 630 198C624.617 200.427 623.137 203.364 621.047 208.555C618.348 214.858 614.952 220.703 608.398 223.402C602.449 224.885 596.215 225.366 590.48 222.93C588.143 221.431 586.092 219.825 584 218C583.181 217.292 582.363 216.585 581.519 215.856C579.946 214.467 578.387 213.062 576.847 211.637C573.113 208.329 569.579 208.599 564.754 208.668C560.695 209.157 558.442 210.892 556 214C554.396 216.271 552.867 218.574 551.367 220.914C548.197 225.751 545.523 227.442 540 229C536.781 229.336 536.781 229.336 533.5 229.375C532.417 229.403 531.334 229.432 530.219 229.461C525.616 228.802 522.652 226.98 519.657 223.391C518.342 221.583 517.098 219.746 515.875 217.875C511.662 211.427 511.662 211.427 504.808 208.524C497.696 208.078 494.19 210.56 488.719 214.887C482.163 219.982 476.03 222.905 467.613 222.488C461.015 221.256 456.795 217.35 453 212C451.384 208.438 449.98 204.825 448.562 201.18C446.994 197.988 446.043 196.724 443 195C437.926 193.309 433.77 193.411 428.957 195.715C427.568 196.442 426.186 197.183 424.812 197.938C423.425 198.679 422.036 199.418 420.644 200.152C420.039 200.482 419.435 200.812 418.812 201.152C413.096 203.827 407.211 203.712 401.312 201.813C396.709 199.294 393.891 196.338 391 192C390.367 189.738 390.367 189.738 389.875 187.313C389.707 186.504 389.54 185.696 389.367 184.863C389.246 184.249 389.125 183.634 389 183C386.001 189.958 385.633 193.396 388.375 200.625C388.642 201.295 388.908 201.966 389.183 202.656C390.154 205.444 390.785 208.247 391.437 211.125C392.936 217.34 394.527 221.351 400 225C409.016 226.647 415.04 224.364 422.606 219.941C428.549 216.519 433.415 215.037 440.176 216.457C447.924 218.952 452.166 223.672 455.838 230.692C456.658 232.322 457.478 233.952 458.299 235.582C461.389 241.523 461.389 241.523 467 245C472.767 246.517 477.279 245.135 482.406 242.279C484.188 241.224 485.949 240.143 487.703 239.043C492.842 235.858 496.735 233.571 502.875 233.563C503.842 233.543 504.808 233.524 505.804 233.504C513.764 234.74 518.38 238.882 523.187 245.063C527.785 250.955 527.785 250.955 534 255C539.237 255.571 542.588 254.878 547 252C549.381 249.44 551.394 246.863 553.398 244.008C557.49 238.271 561.767 233.427 569 232C577.28 231.155 584.941 234.197 591.5 239.125C592.669 240.081 593.835 241.039 595 242C599.061 244.708 602.235 244.522 607 244C612.583 241.999 615.287 238.952 618.226 233.887C622.008 227.601 626.129 223.767 633 221C640.965 219.222 649.197 222.782 656 226.75C661.676 229.115 667.683 228.801 673.437 226.813C678.405 223.299 680.455 219.41 682.289 213.77C683 212 683 212 685 210C687.625 210.375 687.625 210.375 690 211C691.588 216.874 689.825 220.79 687 226C682.918 231.569 677.698 235.288 671 237C661.719 238.423 655.347 236.628 647.275 232.447C642.875 230.226 639.701 229.108 634.851 230.234C628.672 232.789 626.012 237.367 622.574 242.781C619.4 247.255 615.115 250.945 610 253C598.614 254.399 592.164 250.71 583.176 244.367C578.861 241.656 575.101 240.3 570 241C563.18 243.617 560.44 248.239 556.863 254.332C553.437 259.237 548.614 262.129 543 264C535.593 264.76 529.702 263.348 523.437 259.375C520.533 256.546 518.158 253.472 515.746 250.219C512.599 246.22 510.299 243.462 505.063 242.729C498.426 242.424 494.303 244.488 488.75 247.938C481.431 252.357 475.809 254.925 467 254C460.483 251.865 455.125 248.522 451.875 242.406C450.915 240.459 449.997 238.494 449.078 236.527C446.468 231.234 443.404 227.702 438 225C430.987 224.69 426.15 226.615 420.422 230.527C413.686 234.623 406.672 234.758 399 234C393.334 232.31 389.123 227.871 386 223C382.474 215.672 381.062 208.01 380 200C379.051 200.66 378.102 201.32 377.125 202C374 204 374 204 372 204C372.156 204.643 372.312 205.287 372.472 205.949C373.285 210.652 373.354 215.379 373.517 220.143C374.016 231.287 377.025 243.302 384.875 251.563C390.554 256.65 396.143 258.787 403.758 258.629C409.432 257.528 414.272 254.709 419.301 251.945C425.037 248.848 429.945 247.692 436.5 247.625C437.768 247.597 439.037 247.568 440.344 247.539C446.172 248.274 450.034 251.433 453.656 255.961C455.474 258.72 456.926 261.626 458.437 264.563C462.044 271.396 462.044 271.396 468 276C477.005 277.732 485.498 270.832 492.773 266.234C497.86 263.415 503.311 263.512 509 264C517.798 267.105 522.995 273.993 528.008 281.512C530.897 285.12 533.344 286.756 537.937 287.434C544.207 287.475 544.207 287.475 550.062 285.5C553.018 281.687 554.292 277.564 555.566 272.949C557.628 266.271 562.043 262.445 567.902 258.824C574.418 256.264 583.068 257.579 589.562 259.754C593.505 261.77 596.448 264.728 599.629 267.77C604.169 272.041 608.243 275.222 614.625 275.563C619.091 275.257 621.606 274.025 625 271C626.146 269.537 627.269 268.056 628.375 266.563C632.202 261.423 636.384 258.175 642.5 256.188C648.26 255.756 653.33 256.055 659 257C663.842 257.336 667.504 256.823 672 255C676.513 255.513 676.513 255.513 678 257C678.437 259.313 678.437 259.313 678 262C673.614 265.639 670.665 266.474 665.027 266.285C663.715 266.259 662.404 266.232 661.052 266.205C659.681 266.16 658.309 266.112 656.937 266.063C654.238 265.973 651.54 265.905 648.84 265.848C647.051 265.786 647.051 265.786 645.226 265.723C641.635 266.031 639.86 266.854 637 269C635.246 271.298 635.246 271.298 633.75 273.875C630.246 279.018 627.026 282.168 621 284C612.978 285.299 606.938 284.388 600.215 279.789C597.441 277.549 594.962 275.135 592.519 272.543C587.874 267.827 582.904 267.006 576.562 266.688C575.842 266.65 575.121 266.613 574.379 266.574C570.744 267.225 568.805 268.603 566 271C564.525 273.657 563.593 276.439 562.625 279.313C560.092 286.136 557.56 291.235 551 295C544.581 297.14 535.899 297.318 529.625 294.563C524.85 291.681 521.486 287.269 518 283C516.757 281.515 515.508 280.035 514.25 278.563C513.719 277.925 513.188 277.286 512.64 276.629C509.711 273.72 507.404 273.048 503.312 272.563C496.865 272.719 491.921 276.707 486.75 280.188C479.845 284.739 473.094 284.939 465 284C456.948 281.578 453.587 274.588 449.829 267.651C448.344 264.805 447.016 262.049 446 259C440.503 256.17 435.018 255.987 429 257C425.441 258.364 422.104 260.115 418.784 261.978C411.009 266.327 402.928 268.206 394 267C381.213 262.657 374.267 253.535 368.402 241.805C366.501 237.227 365.956 232.447 365.312 227.563C365.183 226.64 365.053 225.718 364.92 224.768C364.604 222.513 364.298 220.257 364 218C363.34 218 362.68 218 362 218C358.136 223.827 358.462 229.741 358.5 236.563C358.505 237.729 358.51 238.896 358.515 240.097C358.689 248.695 359.546 255.487 364 263C364.651 264.137 364.651 264.137 365.316 265.297C370.748 273.53 379.053 278.596 388.613 280.567C399.116 281.911 408.933 281.257 419.243 279.079C429.657 276.937 440.887 276.46 450.125 282.375C455.245 286.46 457.413 292.14 460 298C462.657 303.844 462.657 303.844 468 307C475.869 307.992 482.316 306.098 489.433 302.91C496.805 299.679 502.813 298.773 510.625 301.063C514.951 303.546 518.365 306.609 522 310C528.848 316.294 533.9 320.651 543.609 320.274C547.93 319.779 550.668 318.516 553.554 315.231C555.857 312.236 557.902 309.159 559.875 305.938C564.287 299.839 569.765 295.197 577 293C588.651 291.663 597.186 298.096 606 305C605.125 309.875 605.125 309.875 604 311C601.875 311.438 601.875 311.438 599 311C597.139 309.62 595.501 308.126 593.844 306.508C589.226 302.731 584.387 302.546 578.64 302.707C574.631 303.152 572.931 304.2 570 307C567.899 309.694 565.908 312.443 563.945 315.238C559.312 321.816 555.596 326.422 547.562 328.688C536.334 330.057 529.271 326.702 520.449 319.996C517.754 317.799 515.382 315.527 513 313C510.094 310.094 507.07 309.099 502.972 308.723C497.33 309.249 492.142 311.52 486.89 313.555C479.554 316.364 470.621 317.775 463.125 314.75C456.719 311.163 453.681 307.754 451 301C450.536 299.175 450.536 299.175 450.062 297.313C448.783 293.325 447.227 291.627 444 289C435.648 284.773 424.443 286.495 415.625 288.5C400.931 291.785 385.982 291.444 372.777 283.832C362.562 277.094 354.272 267.986 351.495 255.782C351.081 253.422 350.715 251.06 350.375 248.688C349.744 243.182 349.744 243.182 348 238C347.723 239.276 347.445 240.552 347.16 241.867C346.794 243.537 346.428 245.206 346.062 246.875C345.88 247.717 345.697 248.559 345.51 249.426C345.332 250.232 345.155 251.037 344.972 251.867C344.81 252.611 344.648 253.355 344.48 254.121C344 256 344 256 343 258C342.753 261.953 342.815 265.916 342.812 269.875C342.8 270.958 342.788 272.041 342.775 273.156C342.751 286.406 344.347 299.425 353 310C358.074 314.179 362.487 315.651 369 316C369 315.154 369 314.309 369 313.438C370.495 308.299 373.656 305.954 378 303C393.41 294.643 413.538 293.597 430.281 298.078C435.294 299.778 438.985 301.478 442 306C441.976 308.699 441.976 308.699 441.625 311.688C441.514 312.681 441.403 313.675 441.289 314.699C441.193 315.459 441.098 316.218 441 317C456.981 327.697 471.929 330.283 491 327C510.25 325.349 510.25 325.349 517.996 331.02C520.956 333.945 523.233 337.153 525.465 340.656C527.359 343.549 529.455 345.68 532 348C532.33 348.33 532.66 348.66 533 349C536.084 348.778 539.143 348.414 542.215 348.059C543.134 348.039 544.053 348.02 545 348C545.66 348.66 546.32 349.32 547 350C546.875 352.5 546.875 352.5 546 355C541.016 358.358 534.707 357.863 529 357C523.5 354.237 520.422 349.251 517 344.313C513.559 339.43 510.79 336.6 505 335C498.71 334.439 492.61 335.372 486.437 336.5C485.619 336.643 484.801 336.786 483.959 336.934C481.971 337.282 479.985 337.64 478 338C478.822 338.655 479.645 339.31 480.492 339.984C492.864 350.014 501.153 360.739 508.648 374.692C514.481 385.506 522.036 395.206 529.34 405.051C532.845 409.78 536.307 414.539 539.75 419.313C540.557 420.432 540.557 420.432 541.381 421.574C544.642 426.102 547.887 430.642 551.125 435.188C558.062 445.01 558.062 445.01 565.33 454.586C566.753 456.643 567.753 458.529 568.822 460.771C571.201 465.302 573.637 469.175 578 472C586.909 474.62 596.591 473.581 605.75 473.188C608.27 473.147 610.791 473.112 613.312 473.084C632.403 472.739 653.765 470.87 668.371 456.813C675.556 448.818 680.262 440.769 684.703 431.071C690.847 417.692 698.995 406.746 709 396C709.409 395.441 709.819 394.882 710.241 394.305C713.007 392.253 715.674 392.812 719 393C719.239 392.363 719.479 391.725 719.725 391.069C722.238 384.383 724.753 377.699 727.27 371.015C728.207 368.527 729.143 366.038 730.078 363.549C731.429 359.954 732.782 356.36 734.136 352.766C734.754 351.12 734.754 351.12 735.384 349.44C737.794 343.054 740.355 336.785 743.175 330.567C744.914 325.157 741.369 320.181 739.156 315.266C736.066 306.537 736.872 297.057 736.918 287.922C736.922 286.322 736.927 284.722 736.93 283.122C736.945 278.081 736.972 273.041 737 268C737.008 266.392 737.016 264.784 737.024 263.176C737.082 251.867 737.182 240.558 737.312 229.25C737.327 227.974 737.327 227.974 737.342 226.671C738.522 125.955 738.522 125.955 745 113C745.99 113 746.98 113 748 113C748 118.94 748 124.88 748 131C749.32 124.73 750.64 118.46 752 112C754.64 112 757.28 112 760 112C759.492 120.309 758.786 128.556 757.748 136.814C756.789 144.846 756.436 152.926 756 161C756.171 159.83 756.342 158.66 756.519 157.455C757.16 153.086 757.806 148.718 758.453 144.35C758.732 142.465 759.01 140.579 759.285 138.693C759.684 135.972 760.087 133.252 760.492 130.531C760.613 129.698 760.734 128.864 760.858 128.005C761.623 122.905 762.674 117.985 764 113C766.97 113 769.94 113 773 113C772.353 124.378 771.255 135.675 770 147C770.11 146.32 770.221 145.64 770.335 144.94C770.846 141.814 771.36 138.688 771.875 135.563C772.049 134.493 772.223 133.424 772.402 132.322C773.419 126.162 774.58 120.08 776 114C780.95 114.66 785.9 115.32 791 116C791.116 121.429 790.754 126.366 789.793 131.734C789.667 132.447 789.542 133.159 789.413 133.893C789.147 135.404 788.878 136.914 788.606 138.424C787.902 142.334 787.22 146.247 786.535 150.16C786.333 151.309 786.333 151.309 786.127 152.481C784.585 161.296 783.254 170.14 782 179C783.23 174.25 784.459 169.5 785.687 164.75C785.87 164.045 786.052 163.34 786.24 162.614C788.471 153.981 790.675 145.344 792.812 136.688C794.367 130.397 796.043 124.18 798 118C807.224 119.611 816.055 122.282 825 125C825.454 131.679 823.766 137.531 822 143.938C821.714 145.003 821.427 146.068 821.133 147.166C820.429 149.78 819.718 152.391 819 155C820.886 151.367 822.142 147.643 823.375 143.75C825.163 138.224 827.194 133.092 830 128C834.49 128.587 838.225 129.764 842.375 131.563C843.434 132.018 844.494 132.473 845.586 132.942C846.382 133.291 847.179 133.64 848 134C848.249 138.771 847.438 142.334 845.847 146.824C845.628 147.452 845.408 148.08 845.182 148.728C844.484 150.717 843.773 152.702 843.062 154.688C842.588 156.032 842.115 157.376 841.642 158.721C840.777 161.18 839.906 163.637 839.031 166.093C838.335 168.055 837.658 170.025 837 172C837.8 170.455 837.8 170.455 838.617 168.879C844.092 158.387 849.915 148.15 856 138C860.22 139.36 864.068 140.941 868 143C867.425 147.232 866.427 150.792 864.742 154.711C864.284 155.784 863.826 156.858 863.354 157.963C862.622 159.652 862.622 159.652 861.875 161.375C861.381 162.528 860.887 163.681 860.377 164.869C858.926 168.249 857.465 171.626 856 175C855.603 175.916 855.205 176.832 854.796 177.776C852.879 182.19 850.948 186.599 849 191C849.371 190.307 849.743 189.613 850.126 188.899C857.649 174.875 865.216 160.881 873 147C876.779 148.481 880.385 150.151 884 152C881.692 159.492 878.628 166.466 875.312 173.563C874.546 175.219 874.546 175.219 873.763 176.908C872.513 179.608 871.258 182.305 870 185C873.858 179.273 877.613 173.496 881.25 167.625C882.109 166.242 882.968 164.859 883.828 163.477C884.198 162.879 884.568 162.282 884.95 161.667C885.94 160.094 886.969 158.546 888 157C891.824 157.546 893.392 159.261 896 162C892 172 888 182 884 192C888.95 182.76 893.9 173.52 899 164C899.99 164.33 900.98 164.66 902 165C901.369 169.463 899.642 173.167 897.64 177.152C897.129 178.185 897.129 178.185 896.608 179.238C895.496 181.475 894.374 183.707 893.25 185.938C892.867 186.7 892.484 187.463 892.09 188.249C885.595 201.169 878.69 213.747 871 226C870.513 226.781 870.026 227.563 869.524 228.368C863.762 237.576 857.684 246.43 851 255C850.104 256.165 849.208 257.331 848.312 258.496C842.818 265.607 837.085 272.383 831 279C829.251 280.976 827.515 282.963 825.787 284.957C824.65 286.257 823.503 287.546 822.341 288.823C818.118 293.503 814.628 298.376 811.25 303.688C793.79 330.449 793.79 330.449 784.162 333.602C780.4 334.958 778.478 336.13 776.514 339.702C775.158 343.206 773.99 346.725 772.875 350.313C772.453 351.591 772.029 352.869 771.601 354.146C770.765 356.643 769.941 359.142 769.123 361.646C767.756 365.729 766.221 369.715 764.562 373.688C763.147 377.081 761.83 380.459 760.695 383.953C758.469 390.741 755.861 397.391 753.312 404.063C752.796 405.419 752.28 406.775 751.763 408.131C750.511 411.421 749.256 414.711 748 418C748.614 418.048 749.228 418.097 749.861 418.146C750.669 418.221 751.476 418.295 752.308 418.371C753.108 418.44 753.908 418.509 754.732 418.58C757 419 757 419 760.062 421.063C762.104 424.159 762.66 426.217 762.441 429.93C761.689 433.459 759.992 436.012 758 439C758.495 439.66 758.99 440.32 759.5 441C761.544 445.089 761.434 447.443 761 452C760.505 452.639 760.01 453.279 759.5 453.938C757.67 456.454 757.907 457.395 758.062 460.438C758.197 464.004 758.111 464.822 756.125 468C754 470 754 470 752 471C751.722 473.423 751.722 473.423 751.687 476.25C751.392 480.455 751.24 481.692 748.562 485.125C744.455 488.13 742.096 488.179 737 488C736.01 487.67 735.02 487.34 734 487C731.938 486.931 729.875 486.915 727.812 486.938C726.182 486.951 726.182 486.951 724.519 486.965C723.688 486.977 722.856 486.988 722 487C721.827 487.532 721.655 488.064 721.477 488.612C719.537 494.523 717.41 500.346 715.199 506.16C714.84 507.108 714.481 508.057 714.112 509.033C712.972 512.044 711.83 515.053 710.687 518.063C709.56 521.038 708.433 524.013 707.306 526.988C706.57 528.931 705.833 530.875 705.096 532.818C702.981 538.399 700.878 543.984 698.789 549.574C695.711 557.805 692.537 565.998 689.349 574.188C688.928 575.276 688.508 576.364 688.074 577.484C687.698 578.451 687.323 579.417 686.936 580.413C686.144 582.603 685.508 584.731 685 587C695.893 588.363 706.848 588.344 717.811 588.552C720.448 588.604 723.085 588.661 725.722 588.719C726.539 588.732 727.355 588.746 728.197 588.76C733.887 588.887 733.887 588.887 735 590C735.041 592 735.042 594.001 735 596C731.32 598.361 727.752 598.29 723.523 598.266C722.435 598.269 722.435 598.269 721.325 598.272C719.791 598.273 718.256 598.269 716.721 598.261C714.403 598.25 712.087 598.261 709.769 598.274C702.763 598.279 695.991 598.213 689.162 596.429C686.386 595.806 686.386 595.806 681 596C678.03 603.92 675.06 611.84 672 620C681.803 621.509 691.473 622.51 701.375 623.125C702.708 623.212 704.041 623.299 705.375 623.387C708.583 623.596 711.791 623.8 715 624C715.625 626.375 715.625 626.375 716 629C713.221 631.779 711.661 631.3 707.75 631.313C694.479 631.287 681.174 629.451 668 628C667.847 628.774 667.695 629.548 667.538 630.346C666.175 637.065 664.653 643.799 660 649C657.375 649.5 657.375 649.5 655 649C654.34 648.34 653.68 647.68 653 647C653.171 639.396 656.119 632.653 658.812 625.625C659.251 624.457 659.69 623.289 660.142 622.086C662.681 615.357 665.312 608.67 668 602C673.518 588.121 678.695 574.117 683.852 560.101C686.137 553.928 688.463 547.771 690.82 541.625C691.357 540.225 691.893 538.824 692.43 537.424C692.707 536.702 692.983 535.979 693.269 535.235C697.929 523.07 702.569 510.899 707.108 498.688C709.059 493.45 711.097 488.265 713.263 483.111C714.164 480.901 714.164 480.901 714 478C712.528 476.643 712.528 476.643 710.625 475.5C707.885 473.741 706.885 472.827 705 470C704.461 467.34 704.266 464.707 704 462C702.255 466.53 700.514 471.061 698.775 475.593C698.186 477.126 697.597 478.659 697.007 480.191C693.533 489.209 690.149 498.247 686.987 507.38C685.329 512.152 683.468 516.798 681.484 521.442C679.394 526.453 677.416 531.507 675.437 536.563C674.873 538 674.873 538 674.297 539.465C672.091 545.112 669.967 550.782 667.909 556.484C664.299 566.477 660.473 576.387 656.608 586.283C653.918 593.184 651.311 600.114 648.725 607.054C646.78 612.274 644.824 617.489 642.862 622.702C642.235 624.372 641.611 626.044 640.989 627.716C639.914 630.605 638.832 633.49 637.75 636.375C637.238 637.759 637.238 637.759 636.715 639.171C636.391 640.03 636.068 640.889 635.734 641.774C635.448 642.541 635.161 643.309 634.866 644.099C634 646 634 646 632 648C628.875 648.125 628.875 648.125 626 648C623.931 641.654 626.635 636.525 628.937 630.625C629.323 629.603 629.709 628.581 630.107 627.527C631.059 625.013 632.023 622.505 633 620C632.369 619.881 631.739 619.762 631.089 619.64C625.684 618.593 620.397 617.394 615.125 615.813C614.408 615.598 613.691 615.384 612.952 615.163C580.752 605.38 549.319 591.856 522 572C520.963 571.252 519.927 570.505 518.859 569.734C494.45 551.578 475.701 528.865 460 503C459.599 502.353 459.198 501.705 458.785 501.038C447.541 482.783 440.021 462.368 432.812 442.25C432.574 441.591 432.336 440.932 432.09 440.253C429.665 433.512 427.46 427.177 427 420C426.278 420.701 425.556 421.403 424.812 422.125C424.406 422.52 424 422.914 423.582 423.32C423.06 423.875 422.538 424.429 422 425C421.127 425.856 420.254 426.712 419.355 427.594C416.097 431.561 416.32 435.425 416.5 440.375C416.517 441.258 416.534 442.14 416.551 443.05C416.81 451.28 418.235 458.972 420 467C420.238 468.315 420.468 469.632 420.691 470.949C423.11 485.203 427.008 498.818 433 512C433.769 513.736 433.769 513.736 434.554 515.508C448.749 547.102 470.433 576.003 499 596C499.593 596.416 500.185 596.832 500.796 597.26C520.973 611.29 543.085 623.163 566.476 630.836C569.482 631.829 572.388 632.917 575.312 634.125C579.967 636.048 584.724 637.571 589.531 639.07C592 640 592 640 594 642C593.444 646.556 593.444 646.556 592 648C584.254 648.081 577.347 645.692 570.187 643C569.098 642.598 568.01 642.196 566.888 641.781C549.643 635.333 533.083 627.968 517 619C516.007 618.452 516.007 618.452 514.994 617.892C501.238 610.226 488.647 600.697 477.125 589.973C475.111 588.103 473.039 586.332 470.937 584.563C444.862 561.656 427.422 528.634 417 496C416.784 495.345 416.568 494.69 416.345 494.016C411.378 478.758 409.346 462.824 407 447C406.714 447.518 406.428 448.036 406.133 448.57C400.05 459.513 393.968 469.548 385.377 478.735C382.039 484.223 384.492 492.587 385.747 498.555C386.649 502.085 387.645 505.572 388.687 509.063C389.177 510.808 389.177 510.808 389.677 512.588C392.063 520.786 395.237 528.345 399 536C399.544 537.135 399.544 537.135 400.099 538.293C410.397 559.687 422.695 579.359 439.399 596.368C441.143 598.146 442.866 599.944 444.59 601.742C452.533 609.941 460.804 617.245 470 624C470.816 624.608 470.816 624.608 471.649 625.227C488.205 637.618 488.205 637.618 506 648C506 648.99 506 649.98 506 651C502.991 652.505 501.396 652.41 498 652C494.348 650.346 490.975 648.283 487.562 646.188C486.585 645.597 485.608 645.007 484.602 644.399C471.458 636.356 459.607 627.099 448 617C447.274 616.387 446.548 615.773 445.801 615.141C436.201 606.962 427.776 597.911 420 588C419.221 587.05 418.443 586.1 417.64 585.121C398.874 561.723 385.368 533.03 378 504C377.774 503.113 377.549 502.226 377.316 501.313C376.387 497.418 375.968 494.015 376 490C375.491 490.373 374.983 490.746 374.458 491.13C372.121 492.84 369.779 494.545 367.437 496.25C366.637 496.837 365.838 497.423 365.013 498.027C352.663 507 352.663 507 349 507C351.966 516.237 351.966 516.237 354.948 525.469C355.178 526.178 355.408 526.886 355.644 527.616C356.109 529.049 356.573 530.482 357.038 531.915C358.362 536.006 359.662 540.102 360.941 544.207C369.962 572.843 388.288 599.405 409 621C409.603 621.632 410.206 622.263 410.828 622.914C414.335 626.5 418.022 629.832 421.82 633.106C425.128 635.981 428.363 638.938 431.605 641.887C434.01 644.009 436.48 646.017 439 648C438.67 649.32 438.34 650.64 438 652C434.057 652.306 431.697 652.421 428.261 650.348C427.412 649.594 426.562 648.84 425.687 648.063C424.272 646.827 424.272 646.827 422.828 645.567C421.895 644.72 420.961 643.873 420 643C419.149 642.246 418.298 641.492 417.422 640.715C415.758 639.232 414.105 637.739 412.461 636.234C410.841 634.764 409.2 633.315 407.539 631.891C381.098 609.037 361.622 575.68 350.632 542.845C349.777 540.351 348.823 537.898 347.875 535.438C342 519.442 342 519.442 342 512C341.452 512.202 340.903 512.403 340.338 512.611C337.791 513.542 335.239 514.458 332.687 515.375C331.826 515.692 330.964 516.009 330.076 516.336C323.79 518.579 317.594 519.993 311 521C329.147 584.19 329.147 584.19 365.812 637.93C366.281 638.422 366.749 638.915 367.232 639.422C368.547 640.794 369.886 642.144 371.226 643.492C373 646 373 646 372.773 648.82C372.518 649.54 372.263 650.259 372 651C368.763 651.463 366.159 651.764 363.328 649.899C338.369 625.772 323.939 591.53 312.75 559.438C312.493 558.709 312.236 557.981 311.972 557.23C308.135 546.298 305.298 535.355 303 524C302.289 524.077 301.577 524.154 300.845 524.233C291.99 525.167 282.742 526.033 274 524C279.208 559.192 290.836 615.836 317 642C317.125 645 317.125 645 317 648C316 649 316 649 313.62 649.3C311 649 311 649 309.414 647.425C308.971 646.69 308.527 645.956 308.07 645.199C307.565 644.372 307.06 643.545 306.54 642.693C306.032 641.804 305.523 640.916 305 640C304.504 639.141 304.009 638.282 303.499 637.397C287.037 608.01 275.075 575.903 268 543C267.84 542.259 267.68 541.518 267.515 540.755C264.999 528.95 264.999 528.95 264.75 523.5C263.501 517.673 259.254 514.619 254.562 511.25C254.047 510.838 253.531 510.425 253 510C253 509.01 253 508.02 253 507C258.668 506.105 261.901 508.483 266.437 511.492C271.152 514.267 275.527 515.254 280.965 515.301C282.087 515.311 283.209 515.32 284.365 515.33C320.233 515.154 351.832 501.646 377.22 476.281C383.911 469.287 391.906 460.281 395 451C393.923 451.592 392.847 452.183 391.738 452.793C359.617 470.27 324.453 475.45 288.91 465.246C259.899 456.178 234.699 439.071 219.962 411.887C217.519 407.095 215.705 402.091 214 397C213.762 396.353 213.524 395.707 213.279 395.04C211.042 388.78 209.874 382.489 208.812 375.938C208.635 374.881 208.458 373.825 208.275 372.736C207.844 370.159 207.419 367.58 207 365C204.69 364.67 202.38 364.34 200 364C199.879 365.211 199.759 366.422 199.635 367.67C198.841 375.638 198.044 383.605 197.22 391.57C196.875 394.898 196.535 398.227 196.195 401.555C196.023 403.229 195.849 404.902 195.674 406.576C193.54 427.005 192.834 447.211 192.869 467.755C192.875 471.522 192.869 475.288 192.863 479.055C192.864 481.484 192.865 483.914 192.867 486.344C192.865 487.452 192.863 488.561 192.861 489.703C192.888 498.905 193.363 507.804 195.518 516.766C196.202 519.936 196.529 523.12 196.885 526.341C200.698 559.879 213.545 597.513 234.812 624.281C236 626 236 626 235.687 628.75C235.46 629.493 235.234 630.235 235 631C232.875 631.438 232.875 631.438 230 631C197.109 600.352 185.931 536.911 183.825 494.484C183.562 486.427 183.571 478.373 183.625 470.313C183.629 469.09 183.633 467.868 183.637 466.608C183.745 438.071 184.92 409.561 189.729 381.387C191.398 372.226 191.398 372.226 191 363C189.04 361.286 187.041 359.616 185 358C184.084 354.397 183.848 353.356 185 350C189.795 342.868 196.564 337.245 204 333C204.66 333 205.32 333 206 333C205.396 331.95 204.793 330.899 204.172 329.817C203.364 328.399 202.557 326.981 201.75 325.563C201.354 324.875 200.958 324.187 200.551 323.479C185.468 296.898 185.027 262.116 193 233C193.942 229.979 194.943 226.983 196 224C195.34 223.814 194.68 223.629 194 223.438C186.924 220.047 182.528 215.292 179.691 208.016C176.549 198.856 176.415 187.013 180.66 178.145C183.476 173.638 186.918 169.669 191.066 166.344C193.918 162.887 194.475 159.187 195.437 154.875C200.848 132.813 214.636 116.098 233.625 103.875C267.689 84.3416 312.985 88.2109 343.488 112.723Z" fill="#185976"/>
<path d="M434 321C434.66 321 435.32 321 436 321C436.66 321.701 437.32 322.402 438 323.125C443.195 328.486 449.93 331.663 456.812 334.312C474.242 341.342 488.569 355.304 497.527 371.559C504.498 384.172 512.36 395.419 521.258 406.745C524.236 410.6 526.942 414.618 529.676 418.648C532.609 422.931 535.721 427.082 538.812 431.25C543.851 438.047 548.795 444.9 553.645 451.833C556.119 455.362 558.623 458.863 561.191 462.324C561.705 463.016 562.218 463.708 562.747 464.421C563.727 465.736 564.711 467.048 565.7 468.356C569 472.783 569 472.783 569 475C567.891 475.471 566.783 475.941 565.641 476.426C564.177 477.054 562.713 477.683 561.25 478.312C560.52 478.621 559.791 478.93 559.039 479.248C555.318 480.855 552.201 482.475 549 485C548.34 485 547.68 485 547 485C547 486.98 547 488.96 547 491C553.047 489.085 558.762 486.85 564.52 484.184C575.392 480.486 586.333 480.839 597.657 481.022C627.356 481.456 653.215 480.148 676.516 459.699C683.732 451.859 688.178 442.879 692.688 433.312C698.549 421.123 705.204 410.468 715 401C716 402 716 402 716.312 405.188C715.938 409.751 714.985 411.556 712 415C710.211 416.121 710.211 416.121 708.312 417.125C704.89 418.615 704.89 418.615 704.062 421.25C704.042 421.827 704.021 422.405 704 423C704.99 423 705.98 423 707 423C706.451 427.702 705.525 431.775 703.812 436.184C703.365 437.347 702.918 438.511 702.457 439.709C701.972 440.952 701.486 442.195 701 443.438C700.502 444.727 700.006 446.016 699.51 447.306C698.5 449.931 697.487 452.555 696.472 455.178C694.297 460.813 692.179 466.468 690.062 472.125C689.71 473.064 689.357 474.003 688.994 474.97C688.657 475.87 688.32 476.769 687.973 477.695C687.646 478.563 687.319 479.43 686.982 480.323C686.292 482.205 685.63 484.096 684.989 485.995C684.655 486.972 684.321 487.95 683.977 488.957C683.685 489.839 683.393 490.72 683.092 491.628C680.981 496.213 677.187 498.421 673 501C672.4 501.375 671.799 501.75 671.181 502.136C650.509 514.957 628.357 525.115 605 532C604.13 532.26 603.259 532.519 602.363 532.787C594.726 534.903 587.593 535.507 579.688 535.438C578.508 535.432 577.328 535.427 576.113 535.421C560.754 535.154 548.568 531.881 537.312 521.062C536.607 520.39 535.901 519.718 535.175 519.025C513.775 498.456 496.756 474.242 483 448C482.553 447.149 482.105 446.298 481.645 445.422C475.013 432.717 469.204 419.805 463.972 406.465C463.351 404.89 462.72 403.318 462.076 401.752C458.681 393.467 455.768 385.011 452.812 376.562C452.528 375.752 452.244 374.941 451.951 374.106C447.124 360.341 442.438 346.535 437.882 332.678C436.599 328.782 435.3 324.891 434 321Z" fill="#FCFCFC"/>
<path d="M333 277C333.33 277 333.66 277 334 277C334.085 277.563 334.169 278.126 334.256 278.706C336.64 294.027 339.689 308.88 351.859 319.645C357.744 323.28 363.301 323.614 370.06 323.724C374.027 323.794 376.516 324.238 380 326C382.196 326.504 382.196 326.504 384.512 326.781C385.771 326.961 385.771 326.961 387.057 327.145C388.822 327.383 390.588 327.62 392.354 327.855C393.189 327.975 394.025 328.095 394.887 328.219C395.652 328.321 396.417 328.424 397.206 328.529C397.798 328.685 398.39 328.84 399 329C403.22 337.44 401.007 354.401 398.375 363.312C397.637 365.23 396.846 367.128 396 369C395.381 370.493 395.381 370.493 394.75 372.016C387.545 387.981 374.271 400.506 358 407C353.702 408.469 349.378 409.79 345 411C344.394 411.177 343.789 411.354 343.165 411.537C322.213 416.018 297.689 411.257 279.715 399.93C263.601 388.328 249.404 372.109 245.812 351.938C246 348 246 348 247.688 345.125C251.688 342.559 255.326 341.878 259.926 340.859C267.366 338.78 272.301 334.542 276.125 327.93C278.435 322.834 278.183 317.741 278.188 312.25C278.206 310.947 278.206 310.947 278.225 309.617C278.237 304.065 277.568 299.329 276 294C276.62 294.217 277.24 294.433 277.879 294.656C288.976 298.145 301.197 298.843 312 294C319.833 289.888 326.173 285.252 331.766 278.391C332.173 277.932 332.58 277.473 333 277Z" fill="#FCFDFD"/>
<path d="M280 151C280.99 151.66 281.98 152.32 283 153C283 153.66 283 154.32 283 155C283.576 155.275 284.152 155.549 284.746 155.832C286.973 156.986 288.973 158.303 291.063 159.688C300.905 165.643 312.357 169.016 323.375 172.125C328.121 173.564 331.151 174.727 334 179C336.019 183.56 337.488 187.955 337 193C336.134 192.67 335.268 192.34 334.375 192C324.062 189.157 314.479 190.988 304.668 194.418C301.759 195.749 301.759 195.749 301.113 198.676C301.076 199.443 301.039 200.21 301 201C305.587 200.583 309.319 199.531 313.625 197.875C320.72 195.433 327.97 195.075 335.082 197.797C338.601 199.886 339.804 202.216 341 206C341.259 209.039 341.259 209.039 341.266 212.41C341.27 214.267 341.27 214.267 341.274 216.162C341.266 217.449 341.258 218.736 341.25 220.062C341.262 221.953 341.262 221.953 341.274 223.881C341.232 243.726 337.206 264.01 323.281 278.926C314.767 286.667 306.598 290.358 295.25 290.375C294.394 290.399 293.538 290.424 292.656 290.449C282.492 290.495 275.016 285.856 267 280C266.405 279.572 265.809 279.144 265.195 278.703C248.91 265.945 238.964 241.733 236.301 221.719C236.202 220.822 236.102 219.924 236 219C235.87 218.165 235.74 217.329 235.606 216.469C235.368 214.049 235.311 212.334 236 210C238.334 207.372 240.944 205.698 244 204C245.176 203.319 245.176 203.319 246.375 202.625C252.744 201.109 258.822 201.753 265.039 203.555C268.374 204.312 271.595 204.122 275 204C275 202.35 275 200.7 275 199C274.169 198.867 273.337 198.734 272.481 198.598C271.394 198.421 270.307 198.244 269.188 198.062C268.109 197.888 267.03 197.714 265.918 197.535C263 197 263 197 260 196C252.261 195.175 246.705 195.978 239.961 199.906C238 201 238 201 236 201C234.655 191.819 234.655 191.819 237.406 188.098C239.839 186.185 242.349 184.6 245 183C247.822 181.223 250.63 179.425 253.438 177.625C254.178 177.152 254.919 176.679 255.683 176.192C265.055 170.138 272.272 163.637 278 154C278.66 153.01 279.32 152.02 280 151Z" fill="#FAFBFB"/>
<path d="M442 369C444.128 371.128 444.503 372.118 445.332 374.93C445.694 376.125 445.694 376.125 446.064 377.344C446.551 378.992 447.038 380.641 447.525 382.289C449.247 387.964 451.334 393.384 453.659 398.839C455.033 402.078 456.349 405.335 457.656 408.602C474.055 449.263 494.62 486.138 525 518C525.451 518.484 525.903 518.968 526.368 519.466C534.751 528.434 544.082 535.794 554 543C554.579 543.424 555.158 543.848 555.754 544.285C576.415 559.338 599.422 570.843 623.558 579.159C626.252 580.087 628.938 581.033 631.625 581.98C636.412 583.667 641.204 585.337 646 587C644.231 593.181 642.268 599.183 639.812 605.125C639.54 605.795 639.267 606.466 638.986 607.156C638.328 608.772 637.665 610.387 637 612C630.732 612.419 625.725 610.925 619.812 608.938C618.844 608.619 617.876 608.3 616.878 607.972C614.878 607.31 612.88 606.643 610.884 605.97C608.258 605.087 605.626 604.223 602.992 603.363C566.901 591.377 533.503 573.441 506 547C505.404 546.431 504.808 545.862 504.194 545.276C495.311 536.758 487.201 527.989 480 518C479.59 517.434 479.179 516.868 478.757 516.285C463.092 494.407 451.447 469.485 443 444C442.504 442.536 442.008 441.073 441.512 439.609C440.219 435.786 438.952 431.954 437.698 428.117C437.055 426.167 436.394 424.224 435.73 422.281C432.494 412.491 431.751 406.279 435.918 396.797C439.305 388.041 440.399 378.226 442 369Z" fill="#FBFCFC"/>
<path d="M670 695C679.57 695 689.14 695 699 695C701.212 700.16 702.759 704.524 704.059 709.863C705.116 713.387 706.47 716.719 707.856 720.125C710.024 725.573 711.969 731.102 713.938 736.625C714.378 737.859 714.818 739.093 715.271 740.364C719.213 751.481 722.779 762.654 726 774C726.66 774 727.32 774 728 774C728.265 773.44 728.53 772.88 728.803 772.303C730.105 769.797 731.583 767.504 733.152 765.156C733.764 764.24 734.376 763.323 735.006 762.379C735.643 761.429 736.281 760.479 736.938 759.5C737.571 758.55 738.205 757.6 738.857 756.621C741.493 752.68 744.124 748.77 747 745C745.824 744.505 744.649 744.01 743.438 743.5C737.8 740.686 733.688 736.308 730.828 730.703C728.803 724.092 728.675 714.833 731.562 708.437C736.406 700.685 743.384 697.355 752 695C755.732 694.53 759.38 694.527 763.137 694.609C764.03 694.613 764.923 694.617 765.843 694.621C769.125 694.642 772.406 694.698 775.688 694.75C783.051 694.832 790.414 694.915 798 695C798 721.73 798 748.46 798 776C790.74 776 783.48 776 776 776C776 766.1 776 756.2 776 746C768.683 746.199 768.683 746.199 766.301 748.376C765.975 748.958 765.649 749.541 765.312 750.141C764.923 750.801 764.534 751.461 764.133 752.141C763.572 753.185 763.572 753.185 763 754.25C761.806 756.325 760.61 758.395 759.375 760.446C757.878 763.08 757.878 763.08 756.75 766.419C755.052 770.306 753.556 773.595 750 776C742.303 778.202 733.893 777.213 726 776.812C723.772 776.747 721.544 776.688 719.316 776.635C713.873 776.492 708.439 776.268 703 776C701.68 770.72 700.36 765.44 699 760C689.76 760.33 680.52 760.66 671 761C669.35 765.95 667.7 770.9 666 776C658.41 776 650.82 776 643 776C644.734 769.641 646.425 763.469 648.496 757.246C648.726 756.554 648.956 755.862 649.193 755.149C649.937 752.91 650.687 750.674 651.438 748.437C651.695 747.667 651.952 746.897 652.217 746.104C657.935 728.995 663.936 711.988 670 695Z" fill="#226481"/>
<path d="M597 815C604.26 815 611.52 815 619 815C619 825.56 619 836.12 619 847C625.652 846.811 625.652 846.811 627.801 844.01C628.229 843.151 628.657 842.291 629.098 841.406C629.835 839.983 629.835 839.983 630.588 838.531C631.075 837.531 631.561 836.531 632.062 835.5C634.011 831.65 635.997 827.822 638 824C638.425 823.107 638.851 822.213 639.289 821.293C640.669 818.741 641.814 816.913 644 815C648.02 813.933 651.753 814.14 655.875 814.437C656.945 814.478 658.015 814.519 659.117 814.561C661.749 814.666 664.372 814.814 667 815C665.698 818.48 664.175 821.546 662.207 824.695C661.662 825.571 661.117 826.447 660.555 827.35C659.98 828.266 659.405 829.181 658.812 830.125C658.229 831.063 657.645 832.002 657.044 832.968C654.595 836.898 652.138 840.82 649.586 844.684C648.959 845.634 648.333 846.584 647.688 847.562C647.155 848.348 646.623 849.133 646.074 849.941C644.692 852.204 644.692 852.204 645 856C646.148 858.041 646.148 858.041 647.812 860.125C651.878 865.678 655.404 871.491 658.915 877.403C661.985 882.516 665.333 887.297 669 892C670.802 889.297 671.703 887.28 672.724 884.244C673.051 883.279 673.379 882.313 673.716 881.319C674.065 880.275 674.414 879.232 674.773 878.156C675.321 876.537 675.321 876.537 675.88 874.885C677.049 871.425 678.212 867.962 679.375 864.5C680.532 861.066 681.69 857.633 682.849 854.201C683.57 852.065 684.289 849.929 685.006 847.793C688.727 836.746 692.814 825.885 697 815C706.57 815 716.14 815 726 815C727.038 818.042 727.038 818.042 728.098 821.145C728.823 823.265 729.548 825.385 730.273 827.506C730.799 829.043 731.325 830.58 731.85 832.117C735.238 842.023 738.664 851.916 742.137 861.793C742.651 863.258 742.651 863.258 743.176 864.753C744.87 869.577 746.568 874.399 748.274 879.218C748.896 880.989 749.519 882.76 750.141 884.531C750.431 885.345 750.721 886.159 751.02 886.998C752.11 890.114 753 892.673 753 896C745.41 896 737.82 896 730 896C726 883.375 726 883.375 726 880C716.43 880 706.86 880 697 880C696.01 883.96 695.02 887.92 694 892C693.01 893.98 693.01 893.98 692 896C676.49 896 660.98 896 645 896C636 880 636 880 633.18 874.754C632.412 873.356 631.644 871.959 630.875 870.562C630.497 869.832 630.12 869.102 629.73 868.35C629.148 867.312 629.148 867.312 628.555 866.254C628.23 865.649 627.905 865.044 627.57 864.42C625.475 862.259 625.475 862.259 619 862C619 873.22 619 884.44 619 896C611.74 896 604.48 896 597 896C597 869.27 597 842.54 597 815Z" fill="#226482"/>
<path d="M501.125 821.625C508.108 828.535 511.104 838.273 511.19 847.803C511.158 877.195 511.158 877.195 500.754 888.434C490.284 897.784 476.49 897.848 463.189 897.195C455.096 896.473 447.752 892.673 442 887C432.404 875.149 432.14 859.544 433 845C434.293 834.493 437.609 826.197 446.062 819.562C461.868 808.758 485.87 810.36 501.125 821.625Z" fill="#226481"/>
<path d="M440.344 698.937C449.031 705.683 452.891 713.159 454.652 723.98C456.213 737.53 455.253 753.541 447.438 765.187C442.612 771.216 435.43 775.151 428 777C423.914 777.337 419.848 777.37 415.75 777.375C414.669 777.399 413.587 777.424 412.473 777.449C402.974 777.484 394.398 775.221 387 769C377.588 757.321 376.715 745.574 376.963 731.202C376.995 729.326 377.007 727.45 377.016 725.574C377.331 717.073 380.076 709.566 385.672 703.055C399.408 690.515 424.859 689.432 440.344 698.937Z" fill="#226482"/>
<path d="M455 695C462.92 695 470.84 695 479 695C481.14 699.092 483.278 703.184 485.409 707.28C486.135 708.674 486.862 710.067 487.591 711.459C488.638 713.458 489.679 715.459 490.719 717.461C491.047 718.085 491.375 718.709 491.713 719.352C494 723.772 494 723.772 494 726C495.32 726 496.64 726 498 726C498 715.77 498 705.54 498 695C504.93 695 511.86 695 519 695C519 705.23 519 715.46 519 726C520.32 725.67 521.64 725.34 523 725C524.434 722.605 525.606 720.341 526.75 717.812C527.439 716.359 528.132 714.907 528.828 713.457C529.182 712.718 529.536 711.979 529.9 711.217C532.656 705.661 535.877 700.354 539 695C546.59 695 554.18 695 562 695C558.075 702.514 553.772 709.73 549.312 716.938C548.457 718.323 548.457 718.323 547.583 719.737C543.208 726.773 543.208 726.773 541.192 728.975C539.695 730.975 539.695 730.975 540.611 733.388C542.114 736.214 543.63 739.017 545.23 741.789C546.189 743.45 546.189 743.45 547.166 745.145C547.499 745.718 547.832 746.291 548.175 746.881C549.171 748.597 550.161 750.316 551.15 752.035C554.827 758.389 558.62 764.632 562.646 770.771C564 773 564 773 565 776C557.41 776 549.82 776 542 776C537.35 767.991 532.837 759.933 528.5 751.75C528.055 750.916 527.61 750.082 527.151 749.223C526.74 748.443 526.329 747.663 525.906 746.859C525.538 746.163 525.17 745.467 524.791 744.749C524 743 524 743 524 741C522.35 741 520.7 741 519 741C519 752.55 519 764.1 519 776C512.07 776 505.14 776 498 776C498 764.45 498 752.9 498 741C492.942 741.4 492.942 741.4 491.195 744.696C490.654 745.874 490.112 747.052 489.555 748.266C489.258 748.896 488.962 749.526 488.656 750.176C487.711 752.193 486.793 754.221 485.875 756.25C484.945 758.262 484.009 760.272 483.073 762.281C482.222 764.112 481.384 765.949 480.546 767.786C479.781 769.377 479.781 769.377 479 771C478.549 771.955 478.098 772.91 477.634 773.894C476 776 476 776 473.548 776.568C472.126 776.528 472.126 776.528 470.676 776.488C469.134 776.464 469.134 776.464 467.561 776.439C466.489 776.398 465.417 776.356 464.312 776.312C463.229 776.29 462.146 776.267 461.029 776.244C458.351 776.185 455.676 776.103 453 776C453.364 775.334 453.727 774.669 454.102 773.983C456.741 769.147 459.376 764.309 462 759.465C463.5 756.701 463.5 756.701 465 753.938C465.495 753.022 465.99 752.106 466.5 751.162C466.995 750.251 467.49 749.341 468 748.402C468.485 747.508 468.969 746.613 469.469 745.691C471.506 742.112 473.774 738.693 476.094 735.291C477.268 732.993 477.268 732.993 476.315 730.488C475.076 728.143 473.826 725.833 472.461 723.559C471.719 722.32 471.719 722.32 470.962 721.056C470.438 720.192 469.915 719.328 469.375 718.438C468.841 717.551 468.307 716.664 467.757 715.751C464.106 709.725 460.323 703.825 456.328 698.02C455 696 455 696 455 695Z" fill="#206280"/>
<path d="M427 326C428.012 328.25 428.012 328.25 428.688 331C429.309 334.286 429.309 334.286 431 337C435.41 353.707 434.807 374.499 430 391C429.733 391.929 429.466 392.859 429.191 393.816C425.005 406.598 418.067 418.125 409 428C408.132 428.949 407.265 429.898 406.371 430.875C386.99 451.166 358.177 461.612 330.459 462.303C298.618 462.452 267.481 453.694 244.166 431.304C228.839 416.067 216.532 393.678 215.902 371.57C215.914 370.433 215.926 369.296 215.938 368.125C215.947 366.973 215.956 365.82 215.965 364.633C215.976 363.764 215.988 362.895 216 362C218.64 361.34 221.28 360.68 224 360C224.28 361.114 224.559 362.228 224.848 363.375C231.94 390.735 245.369 414.208 270.117 429.34C296.306 444.422 326.446 448.346 355.763 440.637C379.734 433.809 398.36 419.19 411.371 397.938C419.538 383.21 422.235 369.732 422.312 353.125C422.318 351.96 422.324 350.794 422.33 349.593C422.277 343.358 421.739 337.981 420 332C419.875 328.5 419.875 328.5 420 326C423.11 324.963 424.083 324.669 427 326Z" fill="#F8FAFB"/>
<path d="M360 815C379.8 815 399.6 815 420 815C420 820.28 420 825.56 420 831C407.46 831 394.92 831 382 831C382 835.62 382 840.24 382 845C383.64 844.965 385.279 844.93 386.969 844.895C389.146 844.866 391.323 844.839 393.5 844.812C394.578 844.787 395.655 844.762 396.766 844.736C405.961 844.652 412.56 846.251 420 852C426.397 858.93 426.532 865.894 426.301 874.883C425.973 880.891 424.614 884.602 420.152 888.695C408.342 897.569 393.736 896.376 379.75 896.188C369.974 896.095 369.974 896.095 360 896C360 869.27 360 842.54 360 815Z" fill="#226481"/>
<path d="M521 815C531.488 814.845 531.488 814.845 542.188 814.688C545.456 814.619 545.456 814.619 548.79 814.55C561.844 814.39 572.694 815.031 583 824C589.29 831.862 588.881 842.32 588 852C585.986 858.901 582.099 864.186 576 868C568.229 871.893 560.097 872.151 551.562 872.063C547.324 872.032 547.324 872.032 543 872C543 879.92 543 887.84 543 896C535.74 896 528.48 896 521 896C521 869.27 521 842.54 521 815Z" fill="#226482"/>
<path d="M670 695C679.57 695 689.14 695 699 695C701.212 700.161 702.759 704.524 704.059 709.863C705.116 713.387 706.47 716.719 707.856 720.125C710.024 725.573 711.969 731.103 713.938 736.625C714.378 737.857 714.818 739.09 715.271 740.36C718.05 748.189 720.686 756.036 723.062 763.996C723.946 766.984 723.946 766.984 725.125 769.723C726 772 726 772 726 775C718.74 775 711.48 775 704 775C700 765 700 765 699 760C689.76 760.33 680.52 760.66 671 761C669.35 765.95 667.7 770.9 666 776C658.41 776 650.82 776 643 776C644.734 769.641 646.425 763.47 648.496 757.246C648.726 756.554 648.956 755.862 649.193 755.149C649.937 752.91 650.687 750.674 651.438 748.438C651.695 747.667 651.952 746.897 652.217 746.104C657.935 728.995 663.936 711.988 670 695Z" fill="#206280"/>
<path d="M569 695C576.26 695 583.52 695 591 695C591 705.56 591 716.12 591 727C599.25 727 607.5 727 616 727C616 716.44 616 705.88 616 695C623.26 695 630.52 695 638 695C638 721.73 638 748.46 638 776C630.74 776 623.48 776 616 776C616 765.11 616 754.22 616 743C607.75 743 599.5 743 591 743C591 753.89 591 764.78 591 776C583.74 776 576.48 776 569 776C569 749.27 569 722.54 569 695Z" fill="#236583"/>
<path d="M314 695C331.49 695 348.98 695 367 695C367 721.73 367 748.46 367 776C360.07 776 353.14 776 346 776C346 754.55 346 733.1 346 711C341.38 711 336.76 711 332 711C331.897 712.856 331.794 714.712 331.688 716.625C331.023 725.977 329.693 735.221 328.347 744.495C328.05 746.641 327.805 748.795 327.57 750.949C326.556 759.693 323.827 766.356 317.375 772.5C309.484 777.484 302.171 777.102 293 777C293 770.73 293 764.46 293 758C295.97 757.34 298.94 756.68 302 756C305.526 751.46 306.039 745.567 306.938 740C307.102 739.023 307.267 738.045 307.437 737.038C309.093 726.952 310.418 716.818 311.693 706.678C311.85 705.447 312.007 704.217 312.168 702.949C312.305 701.849 312.442 700.749 312.583 699.616C313 697 313 697 314 695Z" fill="#206380"/>
<path d="M407 328C408.65 328 410.3 328 412 328C418.917 346.774 417.639 369.222 409.366 387.433C398.645 409.114 380.861 424.595 357.937 432.375C340.215 438.015 320.206 439.372 302 435C301.131 434.817 300.262 434.634 299.367 434.445C276.886 429.136 257.132 414.057 244.875 394.688C238.355 383.749 230.778 370.14 232 357C234.31 355.68 236.62 354.36 239 353C239.268 353.909 239.536 354.818 239.812 355.754C244.675 371.349 251.268 383.556 263 395C264.094 396.108 264.094 396.108 265.211 397.238C274.605 406.231 286.712 412.077 299 416C300.491 416.48 300.491 416.48 302.012 416.969C323.307 422.626 349.003 420.446 368.419 409.816C386.368 399.116 399.986 381.982 405.633 361.73C407.783 350.619 407.178 339.266 407 328Z" fill="#F7F9FA"/>
<path d="M597 815C604.26 815 611.52 815 619 815C619 825.56 619 836.12 619 847C625.652 846.811 625.652 846.811 627.801 844.01C628.229 843.151 628.657 842.291 629.098 841.406C629.835 839.983 629.835 839.983 630.588 838.531C631.075 837.531 631.561 836.531 632.062 835.5C634.011 831.65 635.997 827.822 638 824C638.425 823.107 638.851 822.213 639.289 821.293C640.669 818.741 641.814 816.913 644 815C648.02 813.933 651.753 814.14 655.875 814.437C656.945 814.478 658.015 814.519 659.117 814.561C661.749 814.666 664.372 814.814 667 815C665.698 818.48 664.175 821.546 662.207 824.695C661.662 825.571 661.117 826.447 660.555 827.35C659.98 828.266 659.405 829.181 658.812 830.125C658.229 831.063 657.645 832.002 657.044 832.968C654.595 836.898 652.138 840.82 649.586 844.684C648.959 845.634 648.333 846.584 647.688 847.562C647.155 848.348 646.623 849.133 646.074 849.941C644.692 852.204 644.692 852.204 645 856C646.148 858.041 646.148 858.041 647.812 860.125C651.878 865.678 655.404 871.491 658.915 877.403C661.64 881.942 664.546 886.151 667.879 890.269C669 892 669 892 669 895C661.11 896.244 652.75 897.396 645 895C639.517 890.593 636.822 883.852 634.092 877.527C632.639 874.165 630.971 871.011 629.188 867.812C628.727 866.891 628.267 865.969 627.793 865.02C625.663 862.182 625.663 862.182 619 862C619 873.22 619 884.44 619 896C611.74 896 604.48 896 597 896C597 869.27 597 842.54 597 815Z" fill="#226381"/>
<path d="M675 508C675 510.954 674.579 512.548 673.594 515.285C673.27 516.189 672.945 517.092 672.611 518.023C672.245 519.026 671.878 520.029 671.5 521.062C671.118 522.116 670.736 523.169 670.342 524.254C666.156 535.705 661.829 547.103 657.5 558.5C657.138 559.456 656.775 560.413 656.402 561.398C655.365 564.131 654.324 566.863 653.281 569.594C652.965 570.428 652.649 571.262 652.323 572.122C650.115 577.885 650.115 577.885 649 579C641.41 578.625 634.816 576.533 627.688 574C626.544 573.597 625.4 573.194 624.222 572.779C609.943 567.656 596.406 561.455 583.062 554.25C582.227 553.802 581.392 553.354 580.532 552.893C575.993 550.377 572.456 547.882 569 544C569.692 543.976 570.384 543.952 571.098 543.927C588.321 543.237 603.74 540.741 620 535C620.721 534.747 621.441 534.494 622.184 534.233C626.538 532.669 630.784 530.899 635 529C635.719 528.678 636.439 528.356 637.18 528.024C650.126 522.178 663.159 515.894 675 508Z" fill="#FAFBFB"/>
<path d="M282 815C289.26 815 296.52 815 304 815C306.066 819.131 307.472 822.161 308.688 826.438C311.752 836.747 315.428 846.857 319 857C321.977 849.927 324.393 842.795 326.562 835.438C327.146 833.478 327.731 831.518 328.316 829.559C328.695 828.279 328.695 828.279 329.08 826.974C330.321 822.962 331.672 818.984 333 815C340.26 815 347.52 815 355 815C352.393 824.161 349.72 833.04 346.184 841.887C344.97 845.08 343.968 848.287 343 851.562C341.415 856.865 339.483 861.891 337.27 866.961C336.401 869.041 335.609 871.154 334.887 873.289C331.964 881.866 327.899 889.251 320.039 894.246C312.35 897.755 304.25 897.077 296 897C296 891.72 296 886.44 296 881C298.734 880.805 301.469 880.609 304.203 880.414C306.939 880.009 308.696 879.508 311 878C312.283 875.462 312.283 875.462 313 873C310.36 873 307.72 873 305 873C304.683 872.196 304.366 871.391 304.039 870.562C300.792 862.383 297.453 854.246 294.062 846.125C293.635 845.1 293.207 844.075 292.767 843.019C291.135 839.11 289.503 835.2 287.866 831.293C286.866 828.905 285.87 826.515 284.875 824.125C284.432 823.073 284.432 823.073 283.981 822C282 817.228 282 817.228 282 815Z" fill="#226380"/>
<path d="M274 134C274.435 141.933 274.777 148.403 270 155C269.498 155.704 268.997 156.408 268.48 157.133C263.05 163.924 256.13 168.236 248.867 172.82C231.183 183.994 213.602 195.546 208.445 216.945C208.298 217.623 208.151 218.301 208 219C201.952 219.789 198.314 218.058 193.238 214.77C187.204 209.999 185.707 202.979 184.672 195.691C184.082 187.319 187.65 180.687 192.43 174C204.689 160.28 225.911 154.008 242.774 148.293C251.908 145.11 260.506 140.647 268.836 135.758C272 134 272 134 274 134Z" fill="#FAFBFC"/>
<path d="M262.688 693.562C263.839 693.566 264.991 693.569 266.177 693.572C274.596 693.71 281.168 694.787 289 698C288.34 702.95 287.68 707.9 287 713C277.558 712.107 277.558 712.107 274.063 711.437C266.585 710.369 259.606 710.009 253 714C248.172 720.277 248.787 727.172 248.75 734.75C248.73 735.81 248.709 736.869 248.688 737.961C248.651 745.363 249.132 751.505 254 757.437C257.9 760.484 261.965 760.192 266.688 760.187C267.408 760.188 268.128 760.189 268.87 760.189C273.948 760.139 278.179 759.483 283 758C284.32 758 285.64 758 287 758C288.129 763.361 288.097 768.553 288 774C274.676 778.722 256.107 779.792 243 774C234.86 769.7 229.821 762.638 227 754C223.398 740.145 222.922 722.489 229.254 709.41C237.042 696.656 248.479 693.44 262.688 693.562Z" fill="#216381"/>
<path d="M280 132C284.123 132.654 288.174 133.477 292.25 134.375C304.528 136.95 317.109 137.987 329.575 139.264C345.796 140.962 364.625 145.066 376.312 157.188C380.511 162.474 383.09 169.315 383.5 176.062C382.535 183.665 380.094 190.095 374 195C369.552 198 369.552 198 367 198C366.227 196.268 366.227 196.268 365.438 194.5C355.502 175.039 331.389 168.248 312.109 161.701C301.143 157.895 289.381 153.721 283.984 142.682C283.559 141.756 283.559 141.756 283.125 140.812C282.665 139.87 282.665 139.87 282.195 138.908C280 134.326 280 134.326 280 132Z" fill="#FAFBFC"/>
<path d="M223 242C223.748 242.482 224.495 242.964 225.266 243.461C226.25 244.093 227.235 244.724 228.25 245.375C229.225 246.001 230.199 246.628 231.203 247.273C233.82 249.001 233.82 249.001 236.156 249.855C238.973 251.604 239.807 253.992 241.25 256.938C247.232 268.469 255.033 279.689 266 287C267.133 289.898 267.133 289.898 268.125 293.375C268.458 294.517 268.79 295.659 269.133 296.836C269.419 297.88 269.705 298.924 270 300C270.178 300.636 270.356 301.272 270.539 301.927C271.378 305.702 271.268 309.522 271.312 313.375C271.342 314.213 271.371 315.051 271.4 315.914C271.457 321.47 270.706 324.597 267 329C263.272 332.355 260.116 335 255 335C254.794 334.257 254.588 333.515 254.375 332.75C252.238 328.476 248.613 326.894 244.539 324.637C232.535 316.899 226.494 299.097 223.473 285.773C222.013 277.21 221.849 268.935 221.875 260.25C221.871 258.936 221.867 257.623 221.863 256.27C221.865 255.01 221.866 253.751 221.867 252.453C221.868 251.31 221.869 250.167 221.871 248.989C221.98 246.468 222.262 244.398 223 242Z" fill="#FAFBFC"/>
<path d="M204 227C207.017 226.497 209.121 226.453 211.769 228.102C214.49 230.689 215.925 232.743 216.152 236.551C215.953 238.667 215.711 240.779 215.441 242.887C212.192 269.271 215.792 299.567 231.933 321.398C233 323 233 323 233 325C226.333 326.333 219.667 327.667 213 329C197.275 302.512 191.885 270.909 199.313 240.581C200.57 235.938 202.266 231.48 204 227Z" fill="#F9FAFB"/>
<path d="M232.562 439.812C235 440 235 440 236 441C236.281 445.78 235.839 450.043 235 454.75C231.398 479.302 234.494 503.238 242.765 526.496C244.814 532.311 246.469 538.24 248.177 544.162C248.984 546.947 249.801 549.729 250.621 552.511C251.423 555.237 252.222 557.965 253.021 560.692C253.417 562.042 253.814 563.392 254.213 564.741C261.007 587.769 268.264 616.099 261 640C259 642 259 642 256.437 642.188C254 642 254 642 253 641C252.936 638.448 252.934 635.922 252.972 633.371C252.985 631.761 252.997 630.151 253.01 628.541C253.034 626.014 253.062 623.487 253.096 620.96C253.28 606.371 252.506 592.313 248.75 578.125C248.428 576.874 248.428 576.874 248.099 575.598C245.811 566.926 242.948 558.466 240 550C235.711 537.626 231.86 525.193 228.634 512.495C228.248 510.978 227.855 509.462 227.448 507.95C222.193 488.157 222.39 461.766 228 442C230 440 230 440 232.562 439.812Z" fill="#165772"/>
<path d="M479 830C482.78 831.434 484.209 832.507 486.089 836.057C488.832 842.514 489.617 848.019 489.5 855C489.515 855.92 489.531 856.841 489.547 857.789C489.509 864.462 488.201 870.105 485 876C479.838 881.039 476.002 881.353 468.988 881.277C464.96 880.904 462.89 879.816 460 877C454.641 869.344 454.745 859.184 455.187 850.188C455.217 849.483 455.247 848.778 455.278 848.052C455.678 842.125 457.082 837.209 461.062 832.625C466.083 828.414 472.78 829.525 479 830Z" fill="#F9FBFB"/>
<path d="M423 710C427.1 711.865 429.259 714.925 431 719C433.831 730.761 434.995 744.423 429.188 755.437C426.136 759.012 423.574 760.764 418.879 761.469C408.818 761.564 408.818 761.564 405.375 758.875C400.69 753.204 399.334 748.257 399 741C398.968 740.371 398.935 739.741 398.902 739.093C398.43 728.84 398.086 719.431 405.375 711.375C411.192 709.169 416.868 709.15 423 710Z" fill="#F9FBFB"/>
<path d="M329 112C301.598 126.588 262.934 121.696 234 115C255.268 92.1439 305.112 93.5717 329 112Z" fill="#F7F9FA"/>
<path d="M746 294C755.268 296.327 764.241 299.41 773.25 302.562C775.386 303.308 777.523 304.052 779.66 304.794C781.588 305.464 783.515 306.137 785.442 306.811C788.943 307.981 792.445 309.014 796 310C792.355 317.983 785.537 324.418 777.621 328.109C771.821 330.08 765.302 329.953 759.688 327.438C751.988 322.872 749.058 316.859 746.68 308.379C745.702 303.516 745.713 298.926 746 294Z" fill="#F9FAFB"/>
<path d="M254.688 124.5C256.473 124.858 256.473 124.858 258.295 125.223C261.199 125.806 264.1 126.398 267 127C265.319 132.043 260.484 133.683 255.932 136.057C249.514 139.189 242.746 141.569 236.062 144.062C232.947 145.235 229.834 146.414 226.723 147.598C225.603 148.022 225.603 148.022 224.461 148.455C218.64 150.689 213.017 153.213 207.404 155.931C205 157 205 157 203 157C204.053 146.398 209.769 134.964 218 128C220.579 126.391 223.199 125.166 226 124C226.598 123.66 227.196 123.319 227.812 122.968C235.799 119.433 246.569 122.813 254.688 124.5Z" fill="#F8FAFB"/>
<path d="M737 373C741.15 373.523 744.993 374.167 748.938 375.562C750.096 375.967 750.096 375.967 751.277 376.379C751.846 376.584 752.414 376.789 753 377C752.432 381.234 751.422 384.727 749.688 388.625C747.917 392.728 746.356 396.805 745 401.062C743.101 406.93 740.688 412.455 738 418C737.634 419.057 737.268 420.114 736.891 421.203C734.8 424.295 734.427 424.476 730.988 425.242C729.434 425.48 727.874 425.69 726.312 425.875C725.515 425.991 724.718 426.107 723.896 426.227C721.934 426.509 719.967 426.758 718 427C718.859 419.665 718.859 419.665 720.875 416.312C722.61 413.12 723.51 410.166 724.277 406.621C726.029 399.353 728.794 392.628 731.688 385.75C732.205 384.504 732.721 383.258 733.236 382.012C734.483 379.005 735.738 376.001 737 373Z" fill="#F7F9FA"/>
<path d="M746 270C747.175 270.392 748.351 270.784 749.562 271.188C750.387 271.462 751.212 271.737 752.062 272.02C754.168 272.722 756.272 273.428 758.375 274.137C764.998 276.361 771.632 278.515 778.312 280.562C783.477 282.15 788.489 283.932 793.473 286.02C798.544 287.987 803.785 289.463 809 291C807.743 294.352 806.313 297.304 804.375 300.312C803.929 301.01 803.483 301.707 803.023 302.426C802.686 302.945 802.348 303.465 802 304C791.036 302.594 780.565 297.637 770.301 293.76C763.416 291.185 756.513 288.863 749.458 286.795C747 286 747 286 746 285C745.927 282.47 745.907 279.967 745.937 277.438C745.942 276.727 745.946 276.016 745.951 275.283C745.963 273.522 745.981 271.761 746 270Z" fill="#F6F8FA"/>
<path d="M245 333C245.495 334.485 245.495 334.485 246 336C238.75 346.451 224.88 351.677 213 355C208.642 355.77 204.484 356.117 200.062 356.063C199.105 356.054 198.147 356.045 197.16 356.035C196.447 356.024 195.734 356.012 195 356C194.67 354.35 194.34 352.7 194 351C207.703 336.576 225.936 332.403 245 333Z" fill="#F6F8FA"/>
<path d="M412.125 304.688C413.266 304.671 414.407 304.655 415.582 304.639C421.836 304.635 426.484 304.97 432 308C432 309.32 432 310.64 432 312C423.462 320.24 409.978 320.058 398.938 320.188C398.181 320.201 397.425 320.214 396.646 320.228C390.088 320.236 383.772 319.367 378 316C379.44 312.303 381.027 311.09 384.562 309.375C385.368 308.97 386.174 308.565 387.004 308.148C395.295 304.971 403.306 304.662 412.125 304.688Z" fill="#F3F7F8"/>
<path d="M543 831C545.702 830.897 548.404 830.794 551.188 830.687C552.029 830.642 552.871 830.596 553.739 830.549C557.79 830.475 559.588 830.717 563.023 833.078C565.467 836.69 565.581 838.735 565.438 843.062C565.416 844.27 565.394 845.478 565.371 846.723C565.026 849.771 564.781 851.537 563 854C559.394 856.783 555.086 856.224 550.75 856.125C548.193 856.084 545.635 856.042 543 856C543 847.75 543 839.5 543 831Z" fill="#FAFBFC"/>
<path d="M342.688 122.938C346.846 126.245 349.98 130.668 353 135C352.67 135.66 352.34 136.32 352 137C351.085 136.814 350.17 136.628 349.227 136.436C337.98 134.207 326.693 132.73 315.312 131.375C312.618 131.051 309.924 130.725 307.23 130.396C305.572 130.195 303.913 129.996 302.255 129.799C298.463 129.341 294.734 128.824 291 128C291 127.34 291 126.68 291 126C292.256 125.891 293.511 125.781 294.805 125.668C305.112 124.915 305.112 124.915 315.062 122.375C322.922 119.686 335.248 118.73 342.688 122.938Z" fill="#EFF4F5"/>
<path d="M762.231 710.805C762.954 710.81 763.678 710.815 764.423 710.82C765.335 710.838 766.248 710.856 767.188 710.875C770.096 710.916 773.004 710.958 776 711C776 717.93 776 724.86 776 732C773.133 732.083 770.266 732.165 767.313 732.25C765.971 732.305 765.971 732.305 764.603 732.36C760.553 732.417 758.499 732.312 754.981 730.109C751.89 726.817 751.72 724.543 751.778 720.035C752.099 717.099 753.181 715.291 755 713C758.101 710.933 758.73 710.755 762.231 710.805Z" fill="#F7F9FA"/>
<path d="M382 859C384.516 858.897 387.033 858.794 389.625 858.687C390.796 858.619 390.796 858.619 391.991 858.549C395.825 858.474 398.367 858.836 401.484 861.172C404.99 865.112 404.744 867.411 404.465 872.465C404 875 404 875 402.188 877.625C397.978 880.271 394.106 880.12 389.312 880.062C385.693 880.031 385.693 880.031 382 880C382 873.07 382 866.14 382 859Z" fill="#F4F7F8"/>
<path d="M229 197C229.045 197.684 229.09 198.368 229.136 199.073C230.234 216.398 230.234 216.398 233.414 233.426C234 236 234 236 234 240C226.961 236.856 219.2 230.146 216 223C214.345 216.317 216.894 211.241 220.27 205.531C226.102 197 226.102 197 229 197Z" fill="#F4F7F8"/>
<path d="M341 181C348.111 183.392 354.088 189.159 358.625 195.062C360.627 199.339 360.843 203.552 359.309 208.007C358.371 209.999 357.344 211.901 356.25 213.812C355.902 214.467 355.554 215.121 355.195 215.795C353.206 219.402 351.357 221.672 348 224C347.925 223.245 347.85 222.49 347.772 221.712C347.42 218.224 347.054 214.737 346.688 211.25C346.57 210.063 346.452 208.876 346.33 207.652C345.502 199.882 344.079 192.528 342 185C341.663 183.668 341.328 182.335 341 181Z" fill="#F7F9FA"/>
<path d="M684 714C686.227 717.34 687.284 720.642 688.438 724.438C688.656 725.145 688.874 725.852 689.098 726.58C690.952 732.67 692.529 738.806 694 745C687.73 745 681.46 745 675 745C681.169 719.661 681.169 719.661 684 714Z" fill="#ECF2F5"/>
<path d="M315 260C314.072 264.826 312.524 268.922 308.438 271.812C307.633 272.204 306.829 272.596 306 273C305.01 273.495 305.01 273.495 304 274C295.693 275.157 290.497 273.875 283.766 268.922C282 267 282 267 282 263C283.302 262.951 284.604 262.902 285.945 262.851C287.672 262.776 289.398 262.701 291.125 262.625C292.409 262.578 292.409 262.578 293.719 262.531C301.142 262.189 307.537 259.743 315 260Z" fill="#125570"/>
<path d="M278 213C277.67 214.32 277.34 215.64 277 217C274.69 217 272.38 217 270 217C269.876 217.619 269.752 218.237 269.625 218.875C269 221 269 221 267 223C260.904 223.554 260.904 223.554 258.062 221.812C256.671 219.439 256.781 217.703 257 215C253.221 216.482 250.474 217.594 247.375 220.25C245 222 245 222 242.188 221.75C241.105 221.379 241.105 221.379 240 221C241.314 216.845 242.702 215.068 246.375 212.75C247.146 212.25 247.917 211.75 248.711 211.234C258.125 206.158 268.677 209.355 278 213Z" fill="#175773"/>
<path d="M330.621 203.789C334.291 205.368 337.45 206.836 340 210C340 210.99 340 211.98 340 213C333.25 212.125 333.25 212.125 331 211C330.876 211.784 330.752 212.567 330.625 213.375C330 216 330 216 328 218C325.125 218.5 325.125 218.5 322 218C318 213.158 318 213.158 318 210C316.686 210.476 315.374 210.956 314.062 211.437C312.966 211.838 312.966 211.838 311.848 212.246C310.017 212.854 310.017 212.854 309 214C307.334 214.041 305.666 214.043 304 214C304.191 212.199 304.191 212.199 305 210C307.215 208.332 307.215 208.332 309.938 206.812C310.833 206.303 311.729 205.794 312.652 205.269C318.369 202.178 324.326 201.894 330.621 203.789Z" fill="#145672"/>
<path d="M710 834C710.66 834 711.32 834 712 834C713.343 838.247 714.672 842.498 716 846.75C716.382 847.957 716.763 849.163 717.156 850.406C717.517 851.566 717.878 852.727 718.25 853.922C718.585 854.99 718.92 856.058 719.266 857.159C720 860 720 860 720 864C714.39 864 708.78 864 703 864C703.424 856.22 705.572 849.195 707.844 841.793C708.636 839.194 709.361 836.635 710 834Z" fill="#F1F5F7"/>
<path d="M710 441C713.569 440.857 716.447 440.808 719.843 441.986C723.183 443.059 725.888 443.283 729.387 443.344C731.165 443.388 731.165 443.388 732.979 443.434C735.463 443.478 737.947 443.522 740.432 443.566C742.204 443.611 742.204 443.611 744.012 443.656C745.628 443.684 745.628 443.684 747.276 443.713C750 444 750 444 753 446C752.125 449.875 752.125 449.875 751 451C737.969 452.171 720.134 451.423 709 444C709.33 443.01 709.66 442.02 710 441Z" fill="#EDF2F4"/>
<path d="M880 179C880.495 180.485 880.495 180.485 881 182C879.628 184.642 878.2 187.108 876.625 189.625C873.055 195.495 869.659 201.398 866.5 207.5C858.601 222.618 849.662 236.95 840 251C839.556 251.646 839.112 252.293 838.655 252.958C832.856 261.359 826.633 269.241 820 277C818.328 278.996 816.664 280.998 815 283C814.34 282.67 813.68 282.34 813 282C813.361 281.544 813.723 281.088 814.095 280.617C832.568 257.229 849.301 232.853 863.77 206.773C867.178 200.64 870.731 194.596 874.312 188.562C874.882 187.602 875.452 186.642 876.04 185.652C877.358 183.434 878.678 181.216 880 179Z" fill="#D6E2E9"/>
<path d="M708 452C714.081 452.583 719.874 453.529 725.812 454.938C732.12 456.393 738.405 457.653 744.812 458.605C747 459 747 459 749 460C748.67 461.65 748.34 463.3 748 465C734.557 465.836 719.293 462.528 708 455C708 454.01 708 453.02 708 452Z" fill="#EFF3F5"/>
<path d="M290 210C291.666 209.957 293.334 209.959 295 210C297.153 212.153 296.974 216.521 297.437 219.5C298.229 224.482 299.023 229.415 300.25 234.313C300.946 237.734 301.06 239.713 300 243C297.625 243.188 297.625 243.188 295 243C292.548 239.323 292.061 235.837 291.375 231.563C291.243 230.762 291.111 229.961 290.975 229.135C289.982 222.73 289.657 216.481 290 210Z" fill="#15566F"/>
<path d="M753 426C753.75 427.75 753.75 427.75 754 430C750.655 434.6 745.634 436.465 740.191 437.57C736.867 438.018 733.666 438.168 730.312 438.188C729.195 438.202 728.077 438.216 726.926 438.231C724 438 724 438 721 436C721 435.01 721 434.02 721 433C722.29 432.746 723.581 432.492 724.91 432.231C726.628 431.883 728.345 431.536 730.062 431.188C730.91 431.022 731.758 430.856 732.631 430.686C736.567 429.88 740.231 429.02 743.906 427.375C747.212 425.906 749.426 425.739 753 426Z" fill="#E9EFF2"/>
<path d="M829 230C829.33 230.66 829.66 231.32 830 232C829.218 234.065 829.218 234.065 827.93 236.637C827.451 237.596 826.973 238.556 826.48 239.545C825.951 240.582 825.421 241.619 824.875 242.688C824.337 243.747 823.8 244.807 823.246 245.899C819.282 253.642 815.206 261.323 811 268.938C810.461 269.932 809.922 270.926 809.367 271.95C808.854 272.862 808.341 273.775 807.812 274.715C807.365 275.52 806.918 276.326 806.457 277.156C805 279 805 279 802.949 279.83C801 280 801 280 799 279C799.614 276.011 800.555 273.827 802.195 271.262C802.657 270.535 803.119 269.808 803.594 269.059C804.099 268.276 804.605 267.494 805.125 266.688C805.647 265.87 806.169 265.053 806.707 264.211C814.046 252.75 821.451 241.324 829 230Z" fill="#EDF3F5"/>
<path d="M711 464C716.325 465.07 721.404 466.417 726.527 468.215C730.422 469.451 734.407 470.29 738.398 471.156C741.099 472.032 742.333 472.722 744 475C743.688 477.188 743.688 477.188 743 479C732.444 479.982 722.09 475.566 714 469C712.258 467.441 712.258 467.441 711 466C711 465.34 711 464.68 711 464Z" fill="#F0F4F6"/>
<path d="M801 202C802.256 205.767 801.544 207.122 800.305 210.855C799.921 212.027 799.538 213.199 799.142 214.406C798.724 215.654 798.306 216.902 797.875 218.188C797.45 219.477 797.025 220.767 796.602 222.057C795.771 224.587 794.937 227.116 794.101 229.644C792.83 233.519 791.625 237.41 790.438 241.312C787.24 251.635 783.594 261.81 780 272C778.68 272 777.36 272 776 272C776.449 267.6 777.342 264.045 779.128 260.015C780.784 256.189 782.215 252.274 783.688 248.375C784.396 246.506 785.104 244.638 785.812 242.77C786.173 241.816 786.534 240.863 786.906 239.881C787.974 237.069 789.048 234.258 790.125 231.449C793.87 221.673 797.545 211.883 801 202Z" fill="#E9F0F3"/>
<path d="M750 196C750.33 196 750.66 196 751 196C750.905 202.043 750.798 208.085 750.683 214.127C750.645 216.173 750.61 218.219 750.578 220.265C750.363 233.943 749.595 247.411 748 261C746.68 260.67 745.36 260.34 744 260C744.539 238.565 747.322 217.256 750 196Z" fill="#C9DAE1"/>
<path d="M745 113C745.99 113 746.98 113 748 113C748.059 117.458 748.094 121.916 748.125 126.375C748.142 127.627 748.159 128.878 748.176 130.168C748.213 137.37 747.808 144.014 746 151C745.01 150.01 744.02 149.02 743 148C742.01 148.495 742.01 148.495 741 149C742.35 118.299 742.35 118.299 745 113Z" fill="#34738D"/>
<path d="M880 179C880.33 179.99 880.66 180.98 881 182C879.628 184.642 878.2 187.108 876.625 189.625C873.055 195.495 869.659 201.399 866.5 207.5C863.318 213.585 860.043 219.607 856.625 225.562C856.208 226.308 855.791 227.053 855.361 227.82C854.327 229.6 853.173 231.309 852 233C851.01 233 850.02 233 849 233C850.4 229.174 852.188 225.933 854.375 222.5C858.061 216.633 861.519 210.651 864.938 204.625C869.831 196.004 874.848 187.469 880 179Z" fill="#D7E3EA"/>
<path d="M714 401C714.66 401.33 715.32 401.66 716 402C716.323 406.036 716.236 408.518 714.438 412.188C711.52 415.554 708.905 416.903 705 419C704.34 419.99 703.68 420.98 703 422C702.67 421.34 702.34 420.68 702 420C701.34 420.33 700.68 420.66 700 421C701.341 417.067 703.031 414.573 705.875 411.562C708.975 408.192 711.603 404.895 714 401Z" fill="#EDF2F5"/>
<path d="M306 246C306.312 248.313 306.312 248.313 306 251C302.287 254.59 298.18 254.323 293.305 254.301C291 254 291 254 288 252C288.33 250.35 288.66 248.7 289 247C289.922 247.017 289.922 247.017 290.863 247.035C292.076 247.049 292.076 247.049 293.312 247.063C294.113 247.074 294.914 247.086 295.738 247.098C299.302 246.944 302.335 245.901 306 246Z" fill="#185975"/>
<path d="M760 230C760.33 230 760.66 230 761 230C761.158 237.76 760.665 245.396 760 253.125C759.904 254.272 759.809 255.42 759.711 256.602C759.477 259.401 759.24 262.201 759 265C757.68 264.67 756.36 264.34 755 264C754.633 256.589 756.027 249.744 757.5 242.5C757.738 241.296 757.977 240.092 758.222 238.852C758.808 235.9 759.401 232.949 760 230Z" fill="#D4E1E7"/>
<path d="M899 164C899.99 164.33 900.98 164.66 902 165C901.384 169.96 899.202 173.937 896.938 178.312C896.372 179.423 896.372 179.423 895.795 180.557C894.869 182.374 893.935 184.187 893 186C891.68 185.01 890.36 184.02 889 183C892.3 176.73 895.6 170.46 899 164Z" fill="#306C8C"/>
<path d="M771 236C772.273 239.695 771.796 242.69 771.223 246.516C771.039 247.766 770.855 249.016 770.666 250.305C770.467 251.607 770.268 252.909 770.062 254.25C769.864 255.581 769.667 256.911 769.471 258.242C768.987 261.496 768.497 264.748 768 268C766.68 267.67 765.36 267.34 764 267C763.682 262.014 764.368 258.427 766.066 253.754C767.275 250.189 768.232 246.577 769.187 242.938C769.366 242.258 769.545 241.578 769.729 240.877C770.155 239.252 770.578 237.626 771 236Z" fill="#C1D4DC"/>
<path d="M761 125C762.562 128.124 761.572 131.216 761.074 134.562C760.967 135.31 760.859 136.057 760.748 136.826C760.518 138.407 760.285 139.988 760.049 141.567C759.689 143.989 759.345 146.412 759.002 148.836C758.777 150.37 758.551 151.904 758.324 153.438C758.222 154.165 758.12 154.892 758.015 155.641C757.229 160.771 757.229 160.771 755 163C755.523 150.592 756.483 138.326 758 126C758.99 125.67 759.98 125.34 761 125Z" fill="#C4D6DE"/>
<path d="M832 257C832.66 257.99 833.32 258.98 834 260C833.371 260.75 832.742 261.5 832.094 262.273C831.229 263.307 830.365 264.341 829.5 265.375C829.049 265.913 828.597 266.451 828.133 267.005C824.526 271.321 821.075 275.741 817.691 280.234C817.133 280.817 816.575 281.4 816 282C815.01 282 814.02 282 813 282C813.398 281.491 813.796 280.983 814.206 280.459C816.035 278.119 817.861 275.779 819.688 273.438C820.313 272.638 820.939 271.838 821.584 271.014C825.169 266.415 828.65 261.772 832 257Z" fill="#D9E5EB"/>
<path d="M742 131C742.33 131 742.66 131 743 131C743.33 132.98 743.66 134.96 744 137C744.33 137 744.66 137 745 137C745.33 135.35 745.66 133.7 746 132C747.941 135.22 748.161 137.233 747.688 140.938C747.579 141.81 747.471 142.683 747.359 143.582C746.989 146.076 746.573 148.544 746 151C745.01 150.01 744.02 149.02 743 148C742.34 148.33 741.68 148.66 741 149C741.495 140.09 741.495 140.09 742 131Z" fill="#709BAC"/>
<path d="M880 179C881 182 881 182 880.291 183.711C879.905 184.331 879.519 184.951 879.121 185.59C878.697 186.287 878.273 186.983 877.835 187.701C877.374 188.439 876.913 189.177 876.438 189.938C872.253 196.815 868.45 203.72 865 211C864.34 210.67 863.68 210.34 863 210C864.441 206.156 866.214 202.656 868.223 199.078C868.843 197.971 869.464 196.864 870.104 195.723C870.75 194.577 871.396 193.431 872.062 192.25C872.72 191.077 873.377 189.904 874.033 188.73C878.862 180.138 878.862 180.138 880 179Z" fill="#BDD2DD"/>
<path d="M744 140C744.33 140 744.66 140 745 140C745.33 145.94 745.66 151.88 746 158C745.34 158 744.68 158 744 158C744 157.34 744 156.68 744 156C742.68 156.33 741.36 156.66 740 157C741.621 143.568 741.621 143.568 744 140Z" fill="#346D87"/>
<path d="M801 202C802.245 205.735 801.568 207.063 800.348 210.762C799.983 211.88 799.619 212.998 799.244 214.15C798.854 215.318 798.464 216.485 798.062 217.688C797.483 219.456 797.483 219.456 796.893 221.26C795.936 224.176 794.972 227.089 794 230C793.34 229.67 792.68 229.34 792 229C792.637 225.408 793.587 222.121 794.848 218.699C795.205 217.723 795.563 216.746 795.932 215.74C796.491 214.229 796.491 214.229 797.062 212.688C797.628 211.147 797.628 211.147 798.205 209.576C799.133 207.05 800.065 204.524 801 202Z" fill="#B5CED7"/>
<path d="M857 170C857.99 170.33 858.98 170.66 860 171C858.3 175.735 855.863 179.962 853.375 184.312C852.955 185.053 852.535 185.794 852.102 186.557C851.071 188.373 850.036 190.187 849 192C848.67 191.34 848.34 190.68 848 190C848.713 187.937 848.713 187.937 849.871 185.43C850.485 184.086 850.485 184.086 851.111 182.715C851.549 181.778 851.987 180.841 852.438 179.875C853.088 178.458 853.088 178.458 853.752 177.012C854.828 174.671 855.911 172.334 857 170Z" fill="#C5D8E0"/>
<path d="M825 135C825.66 135.33 826.32 135.66 827 136C823.04 147.385 823.04 147.385 819 159C818.035 155.14 817.975 154.105 818.926 150.488C819.255 149.229 819.255 149.229 819.592 147.943C819.83 147.075 820.067 146.207 820.312 145.312C820.539 144.433 820.765 143.553 820.998 142.646C822.292 137.809 822.292 137.809 823 136C823.66 135.67 824.32 135.34 825 135Z" fill="#C2D6DD"/>
<path d="M184 479C184.33 479 184.66 479 185 479C185.061 479.978 185.121 480.957 185.184 481.965C185.268 483.276 185.351 484.587 185.438 485.938C185.481 486.624 185.525 487.31 185.57 488.018C185.814 491.698 186.136 495.344 186.625 499C187.102 502.867 186.732 506.18 186 510C185.67 510 185.34 510 185 510C183.845 499.662 183.902 489.384 184 479Z" fill="#518398"/>
<path d="M784 159C785.532 160.258 785.532 160.258 787 162C786.608 164.967 786.085 167.571 785.312 170.438C785.125 171.201 784.937 171.965 784.744 172.752C783.826 176.377 782.901 179.745 781 183C781.615 174.93 782.692 166.986 784 159Z" fill="#B8D0DB"/>
<path d="M889 176C889.66 176.99 890.32 177.98 891 179C889.794 183.208 887.464 186.984 885.375 190.812C884.888 191.709 884.888 191.709 884.391 192.623C883.596 194.083 882.798 195.542 882 197C881.67 196.34 881.34 195.68 881 195C882.053 192.296 883.163 189.693 884.375 187.062C885.03 185.616 885.683 184.17 886.336 182.723C886.63 182.081 886.925 181.439 887.228 180.778C888.108 178.823 888.108 178.823 889 176Z" fill="#B4CBD6"/>
<path d="M850 183C850.66 183.33 851.32 183.66 852 184C851.67 184.99 851.34 185.98 851 187C851.66 187.66 852.32 188.32 853 189C850.69 191.97 848.38 194.94 846 198C844.672 194.015 845.768 192.6 847.438 188.812C847.911 187.726 848.384 186.639 848.871 185.52C849.244 184.688 849.616 183.857 850 183Z" fill="#33708C"/>
<path d="M745 113C745.99 113 746.98 113 748 113C748.054 114.77 748.093 116.541 748.125 118.312C748.148 119.299 748.171 120.285 748.195 121.301C748 124 748 124 746 127C745.047 122.237 744.917 117.833 745 113Z" fill="#226988"/>
<path d="M823 269C823.33 269.99 823.66 270.98 824 272C822.453 274.48 822.453 274.48 820.25 277.188C819.533 278.089 818.817 278.99 818.078 279.918C817.049 280.949 817.049 280.949 816 282C815.01 282 814.02 282 813 282C817.95 275.565 817.95 275.565 823 269Z" fill="#CADCE3"/>
<path d="M767 257C767.33 257 767.66 257 768 257C768 260.63 768 264.26 768 268C766.68 267.67 765.36 267.34 764 267C764.308 265.52 764.622 264.041 764.938 262.562C765.199 261.327 765.199 261.327 765.465 260.066C766 258 766 258 767 257Z" fill="#E8EFF3"/>
<path d="M899 164C899.99 164.33 900.98 164.66 902 165C901.624 167.782 901.327 169.588 899.562 171.812C898 173 898 173 896 173C896.557 169.656 897.352 166.967 899 164Z" fill="#286481"/>
<path d="M750 118C751.291 121.874 750.411 124.82 749.562 128.688C749.415 129.389 749.267 130.091 749.115 130.814C748.75 132.544 748.376 134.272 748 136C747.67 136 747.34 136 747 136C746.446 123.33 746.446 123.33 750 118Z" fill="#E5EDF1"/>
<path d="M829 230C829.33 230.66 829.66 231.32 830 232C828.785 234.82 828.785 234.82 827.062 238.125C826.497 239.221 825.931 240.316 825.348 241.445C824.903 242.288 824.458 243.131 824 244C823.01 243.34 822.02 242.68 821 242C823.64 238.04 826.28 234.08 829 230Z" fill="#C2D7E0"/>
<path d="M791 229C791.66 229 792.32 229 793 229C792.143 237.571 792.143 237.571 790 241C788.812 239.5 788.812 239.5 788 237C788.729 234.212 789.816 231.623 791 229Z" fill="#D8E4EA"/>
<path d="M874 174C874.99 174.66 875.98 175.32 877 176C874.69 179.63 872.38 183.26 870 187C869.67 186.34 869.34 185.68 869 185C869.996 182.398 869.996 182.398 871.438 179.375C871.911 178.372 872.384 177.369 872.871 176.336C873.244 175.565 873.616 174.794 874 174Z" fill="#B3CCD6"/>
<path d="M838 249C838.66 249 839.32 249 840 249C838.606 253.435 836.394 255.874 833 259C833.501 254.615 834.983 252.2 838 249Z" fill="#E6EDF1"/>
<path d="M744 140C744.33 140 744.66 140 745 140C745 143.3 745 146.6 745 150C743.02 150.99 743.02 150.99 741 152C741.115 150.562 741.242 149.124 741.375 147.688C741.445 146.887 741.514 146.086 741.586 145.262C742 143 742 143 744 140Z" fill="#195B77"/>
<path d="M764 113C766.97 113 769.94 113 773 113C773 115.31 773 117.62 773 120C772.67 120 772.34 120 772 120C772 118.02 772 116.04 772 114C768.225 115.091 765.53 115.908 763 119C763.33 117.02 763.66 115.04 764 113Z" fill="#5E8CA3"/>
<path d="M821 243C821.66 243 822.32 243 823 243C822.25 247.75 822.25 247.75 820 250C819.01 250 818.02 250 817 250C818.074 247.085 818.778 245.222 821 243Z" fill="#DCE8ED"/>
<path d="M848 233C848.99 233.33 849.98 233.66 851 234C849.68 236.31 848.36 238.62 847 241C846.34 241 845.68 241 845 241C845.547 237.625 846.055 235.918 848 233Z" fill="#E2EBF0"/>
<path d="M247 212C247.66 212.33 248.32 212.66 249 213C246.147 215.932 243.349 218.643 240 221C241.35 216.581 243.261 214.657 247 212Z" fill="#296480"/>
<path d="M895 179C894.25 183.75 894.25 183.75 892 186C891.67 185.34 891.34 184.68 891 184C890.34 183.67 889.68 183.34 889 183C892.75 179 892.75 179 895 179Z" fill="#296786"/>
<path d="M867 201C867.66 201.66 868.32 202.32 869 203C867.68 205.64 866.36 208.28 865 211C864.34 210.67 863.68 210.34 863 210C864.199 206.917 865.477 203.937 867 201Z" fill="#C6D7E0"/>
<path d="M704 461C704.33 461 704.66 461 705 461C705 463.31 705 465.62 705 468C703.68 468.33 702.36 468.66 701 469C702.875 462.125 702.875 462.125 704 461Z" fill="#B3C8D1"/>
<path d="M742 131C742.33 131 742.66 131 743 131C743.124 131.969 743.248 132.939 743.375 133.938C743.581 134.948 743.787 135.959 744 137C744.66 137.33 745.32 137.66 746 138C746 139.65 746 141.3 746 143C745.67 142.01 745.34 141.02 745 140C744.01 139.67 743.02 139.34 742 139C742 136.36 742 133.72 742 131Z" fill="#51859A"/>
<path d="M234 626C234.66 626 235.32 626 236 626C235.67 627.65 235.34 629.3 235 631C233.35 631 231.7 631 230 631C230 630.34 230 629.68 230 629C231.32 629 232.64 629 234 629C234 628.01 234 627.02 234 626Z" fill="#326E85"/>
<path d="M859 219C859.66 219.99 860.32 220.98 861 222C859.35 224.31 857.7 226.62 856 229C855.34 228.67 854.68 228.34 854 228C855.65 225.03 857.3 222.06 859 219Z" fill="#31708D"/>
<path d="M785 153C785.33 154.32 785.66 155.64 786 157C786.66 157 787.32 157 788 157C787.34 158.98 786.68 160.96 786 163C785.67 163 785.34 163 785 163C785 159.7 785 156.4 785 153Z" fill="#DFEAEE"/>
</svg>
