<svg width="30" height="30" viewBox="0 0 30 30" fill="none" xmlns="http://www.w3.org/2000/svg">
<g clip-path="url(#clip0_108_354)">
<path d="M15 0C11.0227 0 7.20469 1.58133 4.39453 4.39336C1.5815 7.20652 0.000804958 11.0217 0 15C0 18.9766 1.58203 22.7946 4.39453 25.6066C7.20469 28.4187 11.0227 30 15 30C18.9773 30 22.7953 28.4187 25.6055 25.6066C28.418 22.7946 30 18.9766 30 15C30 11.0234 28.418 7.20539 25.6055 4.39336C22.7953 1.58133 18.9773 0 15 0Z" fill="url(#paint0_linear_108_354)"/>
<path d="M6.79151 14.843C11.165 12.938 14.0806 11.6821 15.5384 11.0752C19.7056 9.34247 20.5704 9.04153 21.1353 9.03134C21.2595 9.02935 21.5361 9.06005 21.7165 9.20595C21.8665 9.32899 21.9087 9.4954 21.9298 9.61224C21.9485 9.72896 21.9743 9.99497 21.9532 10.2026C21.7282 12.5745 20.7509 18.3303 20.254 20.9869C20.0454 22.111 19.6306 22.4879 19.2298 22.5247C18.3579 22.6048 17.697 21.949 16.8532 21.3961C15.5337 20.5306 14.7884 19.992 13.5064 19.1476C12.0251 18.1716 12.986 17.6351 13.8298 16.7586C14.0501 16.5291 17.8892 13.0381 17.9618 12.7215C17.9712 12.6818 17.9806 12.5342 17.8915 12.4564C17.8048 12.3783 17.6759 12.4051 17.5821 12.4261C17.4486 12.4561 15.3415 13.8502 11.254 16.6081C10.6564 17.0192 10.115 17.2196 9.62745 17.209C9.09308 17.1975 8.06183 16.9062 7.29542 16.6573C6.35792 16.3519 5.61026 16.1904 5.67589 15.6718C5.7087 15.4018 6.08136 15.1254 6.79151 14.843Z" fill="#F7F9FB"/>
</g>
<defs>
<linearGradient id="paint0_linear_108_354" x1="1500" y1="0" x2="1500" y2="3000" gradientUnits="userSpaceOnUse">
<stop stop-color="#2AABEE"/>
<stop offset="1" stop-color="#229ED9"/>
</linearGradient>
<clipPath id="clip0_108_354">
<rect width="30" height="30" fill="white"/>
</clipPath>
</defs>
</svg>
